<?xml version="1.0" encoding="utf-8"?>
<!-- Generator: Adobe Illustrator 25.3.1, SVG Export Plug-In . SVG Version: 6.00 Build 0)  -->
<svg version="1.1" id="mapa-1" xmlns="http://www.w3.org/2000/svg" xmlns:xlink="http://www.w3.org/1999/xlink" x="0px" y="0px"
	 viewBox="0 0 1000 149" style="enable-background:new 0 0 1000 149;" xml:space="preserve">
<style type="text/css">
	.st0{fill:none;stroke:#95C11F;stroke-width:2.2366;stroke-linecap:round;stroke-miterlimit:10;}
	.st1{fill:#006633;}
	.st2{fill:#FFFFFF;}
	.st3{font-family:'Roboto-Regular', sans-serif;}
	.st4{font-size:20px;}
	.st5{fill:#1E1E1C;}
	.st6{font-family:'Roboto', sans-serif;}

</style>
<g id="linea">
	<line class="st0" x1="242" y1="55.2" x2="793.5" y2="55.2"/>
</g>
<g id="cajas">
	<path class="st1" d="M292.6,71.5H121.8c-7.9,0-14.4-6.5-14.4-14.4v-2c0-7.9,6.5-14.4,14.4-14.4h170.9c7.9,0,14.4,6.5,14.4,14.4v2
		C307,65,300.5,71.5,292.6,71.5z"/>
	<path class="st1" d="M563.5,71.5H407.7c-8.4,0-15.4-6.9-15.4-15.4l0,0c0-8.4,6.9-15.4,15.4-15.4h155.9c8.4,0,15.4,6.9,15.4,15.4
		l0,0C578.8,64.6,572,71.5,563.5,71.5z"/>
	<path class="st1" d="M842.5,71.5H686.7c-8.4,0-15.4-6.9-15.4-15.4l0,0c0-8.4,6.9-15.4,15.4-15.4h155.9c8.4,0,15.4,6.9,15.4,15.4
		l0,0C857.9,64.6,851,71.5,842.5,71.5z"/>
</g>
<g id="Capa_1_1_">
	<text transform="matrix(1 0 0 1 118.916 62.7208)" class="st2 st6 st4">Pérdida de hábitat </text>
	<text transform="matrix(1 0 0 1 77.6143 96.4932)" class="st5 st3 st4">(tala de bosques e incendios)</text>
	<text transform="matrix(1 0 0 1 724.5156 62.7217)" class="st2 st6 st4">Poaching </text>
	<text transform="matrix(1 0 0 1 640.7197 96.4932)" class="st5 st3 st4">(caza para consumo humano)</text>
	<text transform="matrix(1 0 0 1 429.1787 62.7208)" class="st2 st6 st4">Caza furtiva </text>
	<text transform="matrix(1 0 0 1 356.8633 96.4932)" class="st5 st3 st4">(tráfico de animales exóticos)</text>
</g>
</svg>
