<?xml version="1.0" encoding="utf-8"?>
<!-- Generator: Adobe Illustrator 25.3.1, SVG Export Plug-In . SVG Version: 6.00 Build 0)  -->
<svg version="1.1" id="mapa-1" xmlns="http://www.w3.org/2000/svg" xmlns:xlink="http://www.w3.org/1999/xlink" x="0px" y="0px"
	 viewBox="0 0 325.9 360.6" style="enable-background:new 0 0 325.9 360.6;" xml:space="preserve">
<style type="text/css">
	.st0{fill:none;stroke:#95C11F;stroke-width:1.9712;stroke-linecap:round;stroke-miterlimit:10;}
	.st1{fill:#FFFFFF;}
	.st2{fill:#006633;}
	.st3{enable-background:new    ;}
	.st4{fill:#1E1E1C;}
</style>
<line class="st0" x1="163.5" y1="176.4" x2="163.5" y2="255.1"/>
<rect x="48.1" y="183.5" class="st1" width="230.7" height="25.5"/>
<line class="st0" x1="163.5" y1="82" x2="163.5" y2="149.3"/>
<rect x="48.1" y="90.2" class="st1" width="230.7" height="25.5"/>
<path class="st2" d="M238.7,84.8H88.2c-7,0-12.7-5.7-12.7-12.7v-1.8c0-7,5.7-12.7,12.7-12.7h150.6c7,0,12.7,5.7,12.7,12.7v1.8
	C251.4,79,245.7,84.8,238.7,84.8z"/>
<g class="st3">
	<path class="st1" d="M93.2,72.7V77h-2.9V64.5H95c1.5,0,2.7,0.4,3.5,1.1s1.3,1.8,1.3,3c0,1.2-0.4,2.2-1.3,3
		c-0.9,0.8-2.1,1.1-3.5,1.1H93.2z M93.2,70.5H95c0.6,0,1.1-0.2,1.4-0.5c0.3-0.3,0.5-0.8,0.5-1.3c0-0.6-0.2-1-0.5-1.4
		c-0.3-0.4-0.8-0.5-1.5-0.5h-1.9V70.5z"/>
	<path class="st1" d="M105.3,77.2c-1.4,0-2.5-0.4-3.3-1.3s-1.2-1.9-1.2-3.2v-0.3c0-1.4,0.4-2.6,1.1-3.5s1.8-1.3,3.3-1.3
		c1.3,0,2.2,0.4,2.9,1.1c0.7,0.8,1,1.8,1,3.1v1.5h-5.3l0,0.1c0,0.5,0.2,0.9,0.5,1.2c0.3,0.3,0.8,0.5,1.4,0.5c0.6,0,1,0,1.4-0.1
		s0.8-0.2,1.3-0.4l0.7,1.8c-0.4,0.3-0.9,0.5-1.6,0.7C106.8,77.1,106.1,77.2,105.3,77.2z M105.4,63.7h3.2l0,0.1l-2.4,2.2h-2.6
		L105.4,63.7z M105.2,69.8c-0.5,0-0.8,0.1-1,0.4c-0.2,0.3-0.3,0.7-0.4,1.2l0,0h2.5v-0.2c0-0.5-0.1-0.8-0.3-1.1
		C105.9,69.9,105.6,69.8,105.2,69.8z"/>
	<path class="st1" d="M115.6,70.2l-0.9,0c-0.3,0-0.6,0.1-0.8,0.2c-0.2,0.1-0.4,0.3-0.5,0.5V77h-2.9v-9.3h2.7l0.1,1.4
		c0.2-0.5,0.5-0.9,0.8-1.1c0.3-0.3,0.7-0.4,1.1-0.4c0.1,0,0.2,0,0.4,0c0.1,0,0.2,0,0.3,0.1L115.6,70.2z"/>
	<path class="st1" d="M116.1,72.4c0-1.5,0.3-2.6,1-3.5c0.6-0.9,1.5-1.3,2.7-1.3c0.4,0,0.8,0.1,1.2,0.3c0.3,0.2,0.7,0.5,0.9,0.8v-5.1
		h2.9V77h-2.5l-0.2-1.1c-0.3,0.4-0.6,0.8-1,1s-0.8,0.3-1.3,0.3c-1.1,0-2-0.4-2.7-1.3c-0.6-0.8-0.9-2-0.9-3.4V72.4z M119,72.6
		c0,0.8,0.1,1.3,0.3,1.8c0.2,0.4,0.6,0.6,1.1,0.6c0.3,0,0.6-0.1,0.8-0.2c0.2-0.1,0.4-0.3,0.6-0.5v-3.8c-0.1-0.2-0.3-0.4-0.6-0.6
		c-0.2-0.1-0.5-0.2-0.8-0.2c-0.5,0-0.9,0.2-1.1,0.7c-0.2,0.5-0.3,1.1-0.3,1.9V72.6z"/>
	<path class="st1" d="M129.4,65.6h-2.9v-2h2.9V65.6z M129.4,77h-2.9v-9.3h2.9V77z"/>
	<path class="st1" d="M130.8,72.4c0-1.5,0.3-2.6,1-3.5c0.6-0.9,1.5-1.3,2.7-1.3c0.4,0,0.8,0.1,1.2,0.3c0.3,0.2,0.7,0.5,0.9,0.8v-5.1
		h2.9V77h-2.5l-0.2-1.1c-0.3,0.4-0.6,0.8-1,1s-0.8,0.3-1.3,0.3c-1.1,0-2-0.4-2.7-1.3c-0.6-0.8-0.9-2-0.9-3.4V72.4z M133.7,72.6
		c0,0.8,0.1,1.3,0.3,1.8c0.2,0.4,0.6,0.6,1.1,0.6c0.3,0,0.6-0.1,0.8-0.2c0.2-0.1,0.4-0.3,0.6-0.5v-3.8c-0.1-0.2-0.3-0.4-0.6-0.6
		c-0.2-0.1-0.5-0.2-0.8-0.2c-0.5,0-0.9,0.2-1.1,0.7c-0.2,0.5-0.3,1.1-0.3,1.9V72.6z"/>
	<path class="st1" d="M146.5,77c-0.1-0.2-0.2-0.4-0.3-0.7c-0.1-0.2-0.1-0.5-0.2-0.8c-0.3,0.5-0.6,0.9-0.9,1.2s-0.9,0.4-1.5,0.4
		c-1,0-1.7-0.3-2.3-0.8c-0.5-0.5-0.8-1.2-0.8-2.1c0-0.9,0.3-1.6,1-2.1c0.7-0.5,1.7-0.8,3.2-0.8h1.2v-0.7c0-0.4-0.1-0.7-0.3-0.9
		c-0.2-0.2-0.5-0.3-0.9-0.3c-0.3,0-0.6,0.1-0.8,0.2s-0.2,0.4-0.2,0.7l-2.8,0l0-0.1c0-0.8,0.3-1.6,1.1-2.1c0.7-0.6,1.7-0.9,3-0.9
		c1.2,0,2.1,0.3,2.8,0.9c0.7,0.6,1.1,1.4,1.1,2.5v3.5c0,0.5,0,1,0.1,1.4c0.1,0.4,0.2,0.8,0.4,1.3L146.5,77z M144.4,75.1
		c0.4,0,0.7-0.1,0.9-0.2s0.5-0.4,0.6-0.6v-1.2h-1.2c-0.5,0-0.8,0.1-1,0.3c-0.2,0.2-0.3,0.5-0.3,0.9c0,0.3,0.1,0.5,0.3,0.6
		S144.2,75.1,144.4,75.1z"/>
	<path class="st1" d="M154.5,72.4c0-1.5,0.3-2.6,1-3.5c0.6-0.9,1.5-1.3,2.7-1.3c0.4,0,0.8,0.1,1.2,0.3c0.3,0.2,0.7,0.5,0.9,0.8v-5.1
		h2.9V77h-2.5l-0.2-1.1c-0.3,0.4-0.6,0.8-1,1s-0.8,0.3-1.3,0.3c-1.1,0-2-0.4-2.7-1.3c-0.6-0.8-0.9-2-0.9-3.4V72.4z M157.4,72.6
		c0,0.8,0.1,1.3,0.3,1.8c0.2,0.4,0.6,0.6,1.1,0.6c0.3,0,0.6-0.1,0.8-0.2c0.2-0.1,0.4-0.3,0.6-0.5v-3.8c-0.1-0.2-0.3-0.4-0.6-0.6
		c-0.2-0.1-0.5-0.2-0.8-0.2c-0.5,0-0.9,0.2-1.1,0.7c-0.2,0.5-0.3,1.1-0.3,1.9V72.6z"/>
	<path class="st1" d="M168.9,77.2c-1.4,0-2.5-0.4-3.3-1.3s-1.2-1.9-1.2-3.2v-0.3c0-1.4,0.4-2.6,1.1-3.5c0.8-0.9,1.8-1.3,3.3-1.3
		c1.3,0,2.2,0.4,2.9,1.1c0.7,0.8,1,1.8,1,3.1v1.5h-5.3l0,0.1c0,0.5,0.2,0.9,0.5,1.2s0.8,0.5,1.4,0.5c0.6,0,1,0,1.4-0.1
		c0.4-0.1,0.8-0.2,1.3-0.4l0.7,1.8c-0.4,0.3-0.9,0.5-1.6,0.7C170.3,77.1,169.6,77.2,168.9,77.2z M168.8,69.8c-0.5,0-0.8,0.1-1,0.4
		s-0.3,0.7-0.4,1.2l0,0h2.5v-0.2c0-0.5-0.1-0.8-0.3-1.1S169.2,69.8,168.8,69.8z"/>
	<path class="st1" d="M181.2,68.9c0.3-0.4,0.6-0.7,1-1s0.9-0.3,1.3-0.3c1,0,1.7,0.3,2.3,1c0.6,0.7,0.8,1.7,0.8,3.1V77h-2.9v-5.4
		c0-0.7-0.1-1.2-0.3-1.5c-0.2-0.3-0.5-0.4-0.8-0.4c-0.3,0-0.6,0-0.9,0.1s-0.4,0.2-0.6,0.4V77h-2.9V63.6h2.9V68.9z"/>
	<path class="st1" d="M193.6,77c-0.1-0.2-0.2-0.4-0.3-0.7s-0.1-0.5-0.2-0.8c-0.3,0.5-0.6,0.9-0.9,1.2s-0.9,0.4-1.5,0.4
		c-1,0-1.7-0.3-2.3-0.8s-0.8-1.2-0.8-2.1c0-0.9,0.3-1.6,1-2.1c0.7-0.5,1.7-0.8,3.2-0.8h1.2v-0.7c0-0.4-0.1-0.7-0.3-0.9
		c-0.2-0.2-0.5-0.3-0.9-0.3c-0.3,0-0.6,0.1-0.8,0.2c-0.2,0.2-0.2,0.4-0.2,0.7l-2.8,0l0-0.1c0-0.8,0.3-1.6,1.1-2.1s1.7-0.9,3-0.9
		c1.2,0,2.1,0.3,2.8,0.9c0.7,0.6,1.1,1.4,1.1,2.5v3.5c0,0.5,0,1,0.1,1.4c0.1,0.4,0.2,0.8,0.4,1.3L193.6,77z M191.6,75.1
		c0.4,0,0.7-0.1,0.9-0.2s0.5-0.4,0.6-0.6v-1.2h-1.2c-0.5,0-0.8,0.1-1,0.3c-0.2,0.2-0.3,0.5-0.3,0.9c0,0.3,0.1,0.5,0.3,0.6
		S191.3,75.1,191.6,75.1z M192.4,63.7h3.2l0,0.1l-2.4,2.2h-2.6L192.4,63.7z"/>
	<path class="st1" d="M206.2,72.6c0,1.4-0.3,2.5-0.9,3.4s-1.5,1.3-2.7,1.3c-0.5,0-0.9-0.1-1.3-0.3c-0.4-0.2-0.7-0.5-1-0.9l-0.2,1.1
		h-2.5V63.6h2.9v5c0.3-0.3,0.6-0.6,0.9-0.8s0.7-0.3,1.2-0.3c1.2,0,2.1,0.4,2.7,1.3c0.6,0.9,0.9,2.1,0.9,3.5V72.6z M203.3,72.4
		c0-0.8-0.1-1.5-0.3-1.9c-0.2-0.5-0.6-0.7-1.2-0.7c-0.3,0-0.6,0.1-0.8,0.2c-0.2,0.1-0.4,0.3-0.5,0.5v3.9c0.1,0.2,0.3,0.3,0.5,0.4
		c0.2,0.1,0.5,0.1,0.8,0.1c0.6,0,1-0.2,1.2-0.6c0.2-0.4,0.3-1,0.3-1.8V72.4z"/>
	<path class="st1" d="M210.6,65.6h-2.9v-2h2.9V65.6z M210.6,77h-2.9v-9.3h2.9V77z"/>
	<path class="st1" d="M215.7,65.4v2.3h1.5v2h-1.5V74c0,0.3,0.1,0.6,0.2,0.7c0.1,0.1,0.3,0.2,0.5,0.2c0.1,0,0.3,0,0.4,0
		c0.1,0,0.2,0,0.3-0.1l0.2,2.2c-0.3,0.1-0.6,0.1-0.8,0.2s-0.5,0-0.8,0c-1,0-1.7-0.3-2.2-0.8c-0.5-0.5-0.7-1.3-0.7-2.4v-4.3h-1.3v-2
		h1.3v-2.3H215.7z"/>
	<path class="st1" d="M223.9,77c-0.1-0.2-0.2-0.4-0.3-0.7s-0.1-0.5-0.2-0.8c-0.3,0.5-0.6,0.9-0.9,1.2s-0.9,0.4-1.5,0.4
		c-1,0-1.7-0.3-2.3-0.8s-0.8-1.2-0.8-2.1c0-0.9,0.3-1.6,1-2.1c0.7-0.5,1.7-0.8,3.2-0.8h1.2v-0.7c0-0.4-0.1-0.7-0.3-0.9
		c-0.2-0.2-0.5-0.3-0.9-0.3c-0.3,0-0.6,0.1-0.8,0.2c-0.2,0.2-0.2,0.4-0.2,0.7l-2.8,0l0-0.1c0-0.8,0.3-1.6,1.1-2.1s1.7-0.9,3-0.9
		c1.2,0,2.1,0.3,2.8,0.9c0.7,0.6,1.1,1.4,1.1,2.5v3.5c0,0.5,0,1,0.1,1.4c0.1,0.4,0.2,0.8,0.4,1.3L223.9,77z M221.9,75.1
		c0.4,0,0.7-0.1,0.9-0.2s0.5-0.4,0.6-0.6v-1.2h-1.2c-0.5,0-0.8,0.1-1,0.3c-0.2,0.2-0.3,0.5-0.3,0.9c0,0.3,0.1,0.5,0.3,0.6
		S221.6,75.1,221.9,75.1z"/>
	<path class="st1" d="M231.3,65.4v2.3h1.5v2h-1.5V74c0,0.3,0.1,0.6,0.2,0.7c0.1,0.1,0.3,0.2,0.5,0.2c0.1,0,0.3,0,0.4,0
		c0.1,0,0.2,0,0.3-0.1l0.2,2.2c-0.3,0.1-0.6,0.1-0.8,0.2s-0.5,0-0.8,0c-1,0-1.7-0.3-2.2-0.8c-0.5-0.5-0.7-1.3-0.7-2.4v-4.3H227v-2
		h1.3v-2.3H231.3z"/>
</g>
<g class="st3">
	<path class="st4" d="M48.7,101.7c0-2.3,0.5-4.2,1.4-5.8c0.9-1.6,1.9-2.7,2.9-3.2l0.1,0l0.3,1c-0.8,0.6-1.5,1.6-2.1,3
		c-0.6,1.4-0.9,3-0.9,5v0.1c0,2,0.3,3.7,0.9,5c0.6,1.4,1.3,2.4,2.1,3l-0.3,0.9h-0.1c-1-0.5-2-1.6-2.9-3.2
		C49.1,106,48.7,104.1,48.7,101.7L48.7,101.7z"/>
	<path class="st4" d="M57,95.2v2.2h1.8v1.3H57v5.7c0,0.4,0.1,0.7,0.3,0.9c0.2,0.2,0.4,0.3,0.7,0.3c0.1,0,0.2,0,0.3,0
		c0.1,0,0.2-0.1,0.3-0.1l0.2,1.2c-0.1,0.1-0.3,0.2-0.6,0.3c-0.2,0.1-0.5,0.1-0.7,0.1c-0.7,0-1.2-0.2-1.6-0.6c-0.4-0.4-0.6-1.1-0.6-2
		v-5.7h-1.5v-1.3h1.5v-2.2H57z"/>
	<path class="st4" d="M66.3,106.8c-0.1-0.3-0.1-0.5-0.1-0.7c0-0.2-0.1-0.4-0.1-0.6c-0.3,0.4-0.7,0.8-1.2,1.1s-1.1,0.5-1.6,0.5
		c-1,0-1.7-0.2-2.2-0.7c-0.5-0.5-0.8-1.2-0.8-2.1c0-0.9,0.4-1.6,1.1-2.1c0.7-0.5,1.7-0.8,2.9-0.8h1.8v-0.9c0-0.5-0.2-1-0.5-1.3
		c-0.3-0.3-0.8-0.5-1.4-0.5c-0.6,0-1,0.1-1.3,0.4c-0.3,0.3-0.5,0.6-0.5,1l-1.6,0l0-0.1c0-0.7,0.3-1.3,1-1.9c0.7-0.6,1.5-0.8,2.6-0.8
		c1.1,0,1.9,0.3,2.5,0.8c0.6,0.5,1,1.3,1,2.3v4.5c0,0.3,0,0.7,0.1,1c0,0.3,0.1,0.6,0.2,0.9H66.3z M63.5,105.6c0.6,0,1.2-0.2,1.7-0.5
		c0.5-0.3,0.8-0.7,1-1.1v-1.5h-1.9c-0.7,0-1.2,0.2-1.6,0.5c-0.4,0.3-0.6,0.7-0.6,1.2c0,0.4,0.1,0.7,0.4,1
		C62.6,105.4,63,105.6,63.5,105.6z"/>
	<path class="st4" d="M72.1,106.8h-1.7V93.4h1.7V106.8z"/>
	<path class="st4" d="M80.4,106.8c-0.1-0.3-0.1-0.5-0.1-0.7c0-0.2-0.1-0.4-0.1-0.6c-0.3,0.4-0.7,0.8-1.2,1.1s-1.1,0.5-1.6,0.5
		c-1,0-1.7-0.2-2.2-0.7c-0.5-0.5-0.8-1.2-0.8-2.1c0-0.9,0.4-1.6,1.1-2.1c0.7-0.5,1.7-0.8,2.9-0.8h1.8v-0.9c0-0.5-0.2-1-0.5-1.3
		c-0.3-0.3-0.8-0.5-1.4-0.5c-0.6,0-1,0.1-1.3,0.4c-0.3,0.3-0.5,0.6-0.5,1l-1.6,0l0-0.1c0-0.7,0.3-1.3,1-1.9c0.7-0.6,1.5-0.8,2.6-0.8
		c1.1,0,1.9,0.3,2.5,0.8c0.6,0.5,1,1.3,1,2.3v4.5c0,0.3,0,0.7,0.1,1c0,0.3,0.1,0.6,0.2,0.9H80.4z M77.6,105.6c0.6,0,1.2-0.2,1.7-0.5
		c0.5-0.3,0.8-0.7,1-1.1v-1.5h-1.9c-0.7,0-1.2,0.2-1.6,0.5c-0.4,0.3-0.6,0.7-0.6,1.2c0,0.4,0.1,0.7,0.4,1
		C76.7,105.4,77.1,105.6,77.6,105.6z"/>
	<path class="st4" d="M88.4,102.3c0-1.5,0.3-2.7,1-3.6c0.6-0.9,1.5-1.4,2.7-1.4c0.5,0,1,0.1,1.5,0.3c0.4,0.2,0.8,0.5,1.1,0.9v-5.1
		h1.7v13.4h-1.3l-0.3-1.2c-0.3,0.4-0.7,0.8-1.1,1c-0.4,0.2-1,0.3-1.6,0.3c-1.1,0-2-0.4-2.7-1.2c-0.6-0.8-1-1.9-1-3.2V102.3z
		 M90.1,102.5c0,0.9,0.2,1.7,0.6,2.3c0.4,0.6,1,0.8,1.8,0.8c0.5,0,0.9-0.1,1.3-0.3s0.6-0.6,0.8-1v-4.3c-0.2-0.4-0.5-0.7-0.8-0.9
		s-0.8-0.3-1.3-0.3c-0.8,0-1.4,0.3-1.8,1s-0.6,1.5-0.6,2.6V102.5z"/>
	<path class="st4" d="M102.6,107c-1.3,0-2.4-0.4-3.1-1.3c-0.7-0.9-1.1-2-1.1-3.4v-0.4c0-1.3,0.4-2.4,1.2-3.3
		c0.8-0.9,1.7-1.3,2.8-1.3c1.2,0,2.2,0.4,2.8,1.2c0.6,0.8,0.9,1.8,0.9,3.1v0.9h-6l0,0c0,0.9,0.2,1.7,0.6,2.3c0.4,0.6,1,0.9,1.9,0.9
		c0.6,0,1.1-0.1,1.5-0.2s0.8-0.4,1.1-0.7l0.7,1.1c-0.3,0.3-0.8,0.6-1.3,0.8C104.1,106.9,103.4,107,102.6,107z M102.4,98.6
		c-0.6,0-1.1,0.2-1.5,0.7c-0.4,0.5-0.6,1-0.7,1.8l0,0h4.2V101c0-0.7-0.2-1.2-0.5-1.7C103.6,98.9,103.1,98.6,102.4,98.6z"/>
	<path class="st4" d="M120.3,102.5c0,1.3-0.3,2.4-1,3.2s-1.5,1.2-2.7,1.2c-0.6,0-1.2-0.1-1.6-0.4c-0.5-0.2-0.8-0.6-1.1-1.1l-0.3,1.3
		h-1.3V93.4h1.7v5.2c0.3-0.4,0.7-0.7,1.1-0.9s0.9-0.3,1.5-0.3c1.1,0,2,0.5,2.7,1.4c0.6,0.9,1,2.1,1,3.6V102.5z M118.6,102.3
		c0-1.1-0.2-1.9-0.6-2.6s-1-1-1.8-1c-0.5,0-1,0.1-1.3,0.4c-0.4,0.3-0.6,0.6-0.9,1v4c0.2,0.5,0.5,0.8,0.9,1.1
		c0.4,0.3,0.8,0.4,1.3,0.4c0.8,0,1.4-0.3,1.8-0.9c0.4-0.6,0.6-1.3,0.6-2.3V102.3z"/>
	<path class="st4" d="M122,102.1c0-1.4,0.4-2.5,1.1-3.4c0.7-0.9,1.8-1.3,3-1.3c1.3,0,2.3,0.4,3.1,1.3c0.7,0.9,1.1,2,1.1,3.4v0.2
		c0,1.4-0.4,2.5-1.1,3.4c-0.7,0.9-1.8,1.3-3,1.3c-1.3,0-2.3-0.4-3.1-1.3c-0.7-0.9-1.1-2-1.1-3.4V102.1z M123.7,102.2
		c0,1,0.2,1.8,0.6,2.4c0.4,0.6,1,1,1.9,1c0.8,0,1.4-0.3,1.8-1c0.4-0.6,0.6-1.5,0.6-2.4v-0.2c0-1-0.2-1.8-0.6-2.4c-0.4-0.6-1-1-1.9-1
		c-0.8,0-1.4,0.3-1.8,1s-0.6,1.5-0.6,2.4V102.2z"/>
	<path class="st4" d="M137.8,104.3c0-0.4-0.1-0.7-0.4-0.9c-0.3-0.2-0.8-0.4-1.6-0.6c-1.1-0.2-1.9-0.6-2.5-1c-0.6-0.4-0.9-1-0.9-1.7
		c0-0.8,0.3-1.4,1-1.9c0.6-0.5,1.5-0.8,2.5-0.8c1.1,0,1.9,0.3,2.6,0.9c0.7,0.6,1,1.2,0.9,2l0,0.1h-1.6c0-0.4-0.2-0.8-0.5-1.1
		c-0.4-0.3-0.8-0.5-1.3-0.5c-0.6,0-1,0.1-1.3,0.4c-0.3,0.3-0.4,0.6-0.4,1c0,0.4,0.1,0.7,0.4,0.9c0.3,0.2,0.8,0.4,1.6,0.6
		c1.1,0.2,2,0.6,2.6,1c0.6,0.4,0.9,1,0.9,1.7c0,0.8-0.3,1.5-1,2c-0.7,0.5-1.5,0.8-2.6,0.8c-1.2,0-2.1-0.3-2.8-0.9s-1-1.3-1-2.1
		l0-0.1h1.6c0,0.6,0.3,1,0.7,1.3s0.9,0.4,1.5,0.4c0.6,0,1.1-0.1,1.4-0.4S137.8,104.7,137.8,104.3z"/>
	<path class="st4" d="M141.3,102.3c0-1.5,0.3-2.7,1-3.6c0.6-0.9,1.5-1.4,2.7-1.4c0.6,0,1.1,0.1,1.5,0.3c0.4,0.2,0.8,0.5,1.1,0.9
		l0.2-1.1h1.3v12.9h-1.7v-4.5c-0.3,0.4-0.7,0.6-1.1,0.8c-0.4,0.2-0.9,0.3-1.4,0.3c-1.1,0-2-0.4-2.7-1.2c-0.6-0.8-1-1.9-1-3.2V102.3z
		 M142.9,102.5c0,0.9,0.2,1.7,0.6,2.3c0.4,0.6,1,0.9,1.8,0.9c0.5,0,0.9-0.1,1.2-0.3c0.3-0.2,0.6-0.5,0.8-0.9v-4.7
		c-0.2-0.3-0.5-0.6-0.8-0.8c-0.3-0.2-0.7-0.3-1.2-0.3c-0.8,0-1.4,0.3-1.8,1c-0.4,0.7-0.6,1.6-0.6,2.6V102.5z"/>
	<path class="st4" d="M157.6,105.4c-0.3,0.5-0.7,0.9-1.1,1.2c-0.5,0.3-1,0.4-1.6,0.4c-1,0-1.8-0.3-2.4-1c-0.6-0.6-0.9-1.7-0.9-3
		v-5.5h1.7v5.5c0,1,0.1,1.7,0.4,2c0.3,0.4,0.7,0.6,1.4,0.6c0.6,0,1.1-0.1,1.5-0.4c0.4-0.2,0.7-0.6,0.9-1v-6.7h1.7v9.3h-1.5
		L157.6,105.4z"/>
	<path class="st4" d="M165.5,107c-1.3,0-2.4-0.4-3.1-1.3c-0.7-0.9-1.1-2-1.1-3.4v-0.4c0-1.3,0.4-2.4,1.2-3.3
		c0.8-0.9,1.7-1.3,2.8-1.3c1.2,0,2.2,0.4,2.8,1.2c0.6,0.8,0.9,1.8,0.9,3.1v0.9h-6l0,0c0,0.9,0.2,1.7,0.6,2.3c0.4,0.6,1,0.9,1.9,0.9
		c0.6,0,1.1-0.1,1.5-0.2c0.4-0.2,0.8-0.4,1.1-0.7l0.7,1.1c-0.3,0.3-0.8,0.6-1.3,0.8C167,106.9,166.3,107,165.5,107z M165.3,98.6
		c-0.6,0-1.1,0.2-1.5,0.7c-0.4,0.5-0.6,1-0.7,1.8l0,0h4.2V101c0-0.7-0.2-1.2-0.5-1.7S166,98.6,165.3,98.6z"/>
	<path class="st4" d="M176.3,104.3c0-0.4-0.1-0.7-0.4-0.9s-0.8-0.4-1.6-0.6c-1.1-0.2-1.9-0.6-2.5-1c-0.6-0.4-0.9-1-0.9-1.7
		c0-0.8,0.3-1.4,1-1.9c0.6-0.5,1.5-0.8,2.5-0.8c1.1,0,1.9,0.3,2.6,0.9s1,1.2,0.9,2l0,0.1h-1.6c0-0.4-0.2-0.8-0.5-1.1
		c-0.4-0.3-0.8-0.5-1.3-0.5c-0.6,0-1,0.1-1.3,0.4c-0.3,0.3-0.4,0.6-0.4,1c0,0.4,0.1,0.7,0.4,0.9c0.3,0.2,0.8,0.4,1.6,0.6
		c1.1,0.2,2,0.6,2.6,1c0.6,0.4,0.9,1,0.9,1.7c0,0.8-0.3,1.5-1,2c-0.7,0.5-1.5,0.8-2.6,0.8c-1.2,0-2.1-0.3-2.8-0.9
		c-0.7-0.6-1-1.3-1-2.1l0-0.1h1.6c0,0.6,0.3,1,0.7,1.3s0.9,0.4,1.5,0.4c0.6,0,1.1-0.1,1.4-0.4C176.1,105,176.3,104.7,176.3,104.3z"
		/>
	<path class="st4" d="M188.4,107c-1.3,0-2.4-0.4-3.1-1.3s-1.1-2-1.1-3.4v-0.4c0-1.3,0.4-2.4,1.2-3.3c0.8-0.9,1.7-1.3,2.8-1.3
		c1.2,0,2.2,0.4,2.8,1.2c0.6,0.8,0.9,1.8,0.9,3.1v0.9h-6l0,0c0,0.9,0.2,1.7,0.6,2.3c0.4,0.6,1,0.9,1.9,0.9c0.6,0,1.1-0.1,1.5-0.2
		c0.4-0.2,0.8-0.4,1.1-0.7l0.7,1.1c-0.3,0.3-0.8,0.6-1.3,0.8C189.8,106.9,189.1,107,188.4,107z M188.1,98.6c-0.6,0-1.1,0.2-1.5,0.7
		c-0.4,0.5-0.6,1-0.7,1.8l0,0h4.2V101c0-0.7-0.2-1.2-0.5-1.7S188.8,98.6,188.1,98.6z"/>
	<path class="st4" d="M199.9,95.1h-1.7v-1.7h1.7V95.1z M199.9,106.8h-1.7v-9.3h1.7V106.8z"/>
	<path class="st4" d="M204.1,97.5l0.1,1.4c0.3-0.5,0.7-0.9,1.2-1.1c0.5-0.3,1-0.4,1.6-0.4c1,0,1.8,0.3,2.3,0.9
		c0.6,0.6,0.8,1.5,0.8,2.7v5.9h-1.7v-5.8c0-0.8-0.2-1.4-0.5-1.7s-0.8-0.5-1.5-0.5c-0.5,0-1,0.1-1.3,0.3s-0.7,0.5-0.9,0.9v6.9h-1.7
		v-9.3H204.1z"/>
	<path class="st4" d="M216.3,105.6c0.5,0,1-0.2,1.4-0.5c0.4-0.3,0.6-0.8,0.6-1.3h1.5l0,0.1c0,0.8-0.3,1.5-1,2.1
		c-0.7,0.6-1.5,0.9-2.5,0.9c-1.3,0-2.3-0.4-3-1.3c-0.7-0.9-1.1-2-1.1-3.3V102c0-1.3,0.4-2.4,1.1-3.3c0.7-0.9,1.7-1.3,3-1.3
		c1,0,1.9,0.3,2.6,1c0.7,0.6,1,1.4,1,2.4l0,0.1h-1.5c0-0.6-0.2-1.1-0.6-1.5c-0.4-0.4-0.8-0.6-1.4-0.6c-0.8,0-1.4,0.3-1.8,1
		s-0.6,1.4-0.6,2.3v0.4c0,0.9,0.2,1.7,0.6,2.4C214.8,105.3,215.4,105.6,216.3,105.6z"/>
	<path class="st4" d="M225.7,107c-1.3,0-2.4-0.4-3.1-1.3s-1.1-2-1.1-3.4v-0.4c0-1.3,0.4-2.4,1.2-3.3c0.8-0.9,1.7-1.3,2.8-1.3
		c1.2,0,2.2,0.4,2.8,1.2c0.6,0.8,0.9,1.8,0.9,3.1v0.9h-6l0,0c0,0.9,0.2,1.7,0.6,2.3c0.4,0.6,1,0.9,1.9,0.9c0.6,0,1.1-0.1,1.5-0.2
		c0.4-0.2,0.8-0.4,1.1-0.7l0.7,1.1c-0.3,0.3-0.8,0.6-1.3,0.8C227.1,106.9,226.4,107,225.7,107z M225.4,98.6c-0.6,0-1.1,0.2-1.5,0.7
		c-0.4,0.5-0.6,1-0.7,1.8l0,0h4.2V101c0-0.7-0.2-1.2-0.5-1.7S226.1,98.6,225.4,98.6z"/>
	<path class="st4" d="M232.5,97.5l0.1,1.4c0.3-0.5,0.7-0.9,1.2-1.1c0.5-0.3,1-0.4,1.6-0.4c1,0,1.8,0.3,2.3,0.9
		c0.6,0.6,0.8,1.5,0.8,2.7v5.9h-1.7v-5.8c0-0.8-0.2-1.4-0.5-1.7s-0.8-0.5-1.5-0.5c-0.5,0-1,0.1-1.3,0.3s-0.7,0.5-0.9,0.9v6.9H231
		v-9.3H232.5z"/>
	<path class="st4" d="M240.7,102.3c0-1.5,0.3-2.7,1-3.6c0.6-0.9,1.5-1.4,2.7-1.4c0.5,0,1,0.1,1.5,0.3c0.4,0.2,0.8,0.5,1.1,0.9v-5.1
		h1.7v13.4h-1.3l-0.3-1.2c-0.3,0.4-0.7,0.8-1.1,1c-0.4,0.2-1,0.3-1.6,0.3c-1.1,0-2-0.4-2.7-1.2s-1-1.9-1-3.2V102.3z M242.3,102.5
		c0,0.9,0.2,1.7,0.6,2.3c0.4,0.6,1,0.8,1.8,0.8c0.5,0,0.9-0.1,1.3-0.3c0.3-0.2,0.6-0.6,0.8-1v-4.3c-0.2-0.4-0.5-0.7-0.8-0.9
		c-0.3-0.2-0.8-0.3-1.3-0.3c-0.8,0-1.4,0.3-1.8,1c-0.4,0.7-0.6,1.5-0.6,2.6V102.5z"/>
	<path class="st4" d="M252.9,95.1h-1.7v-1.7h1.7V95.1z M252.9,106.8h-1.7v-9.3h1.7V106.8z"/>
	<path class="st4" d="M255.1,102.1c0-1.4,0.4-2.5,1.1-3.4c0.7-0.9,1.8-1.3,3-1.3c1.3,0,2.3,0.4,3.1,1.3c0.7,0.9,1.1,2,1.1,3.4v0.2
		c0,1.4-0.4,2.5-1.1,3.4c-0.7,0.9-1.8,1.3-3,1.3c-1.3,0-2.3-0.4-3.1-1.3c-0.7-0.9-1.1-2-1.1-3.4V102.1z M256.8,102.2
		c0,1,0.2,1.8,0.6,2.4c0.4,0.6,1,1,1.9,1c0.8,0,1.4-0.3,1.8-1c0.4-0.6,0.6-1.5,0.6-2.4v-0.2c0-1-0.2-1.8-0.6-2.4s-1-1-1.9-1
		c-0.8,0-1.4,0.3-1.8,1s-0.6,1.5-0.6,2.4V102.2z"/>
	<path class="st4" d="M270.9,104.3c0-0.4-0.1-0.7-0.4-0.9s-0.8-0.4-1.6-0.6c-1.1-0.2-1.9-0.6-2.5-1c-0.6-0.4-0.9-1-0.9-1.7
		c0-0.8,0.3-1.4,1-1.9c0.6-0.5,1.5-0.8,2.5-0.8c1.1,0,1.9,0.3,2.6,0.9s1,1.2,0.9,2l0,0.1h-1.6c0-0.4-0.2-0.8-0.5-1.1
		c-0.4-0.3-0.8-0.5-1.3-0.5c-0.6,0-1,0.1-1.3,0.4c-0.3,0.3-0.4,0.6-0.4,1c0,0.4,0.1,0.7,0.4,0.9c0.3,0.2,0.8,0.4,1.6,0.6
		c1.1,0.2,2,0.6,2.6,1c0.6,0.4,0.9,1,0.9,1.7c0,0.8-0.3,1.5-1,2c-0.7,0.5-1.5,0.8-2.6,0.8c-1.2,0-2.1-0.3-2.8-0.9
		c-0.7-0.6-1-1.3-1-2.1l0-0.1h1.6c0,0.6,0.3,1,0.7,1.3s0.9,0.4,1.5,0.4c0.6,0,1.1-0.1,1.4-0.4C270.8,105,270.9,104.7,270.9,104.3z"
		/>
	<path class="st4" d="M278.2,101.8c0,2.3-0.5,4.2-1.4,5.8c-0.9,1.6-1.9,2.7-2.9,3.2h-0.1l-0.3-0.9c0.8-0.6,1.5-1.6,2-3
		c0.6-1.4,0.9-3.1,0.9-5.1v-0.1c0-2-0.3-3.6-0.9-5c-0.6-1.4-1.3-2.4-2-3l0.3-0.9h0.1c1,0.5,2,1.6,2.9,3.2
		C277.7,97.5,278.2,99.4,278.2,101.8L278.2,101.8z"/>
</g>
<g class="st3">
	<path class="st4" d="M46.1,299.1c0-2.3,0.5-4.2,1.4-5.8c0.9-1.6,1.9-2.7,2.9-3.2l0.1,0l0.3,1c-0.8,0.6-1.5,1.6-2.1,3
		c-0.6,1.4-0.9,3-0.9,5v0.1c0,2,0.3,3.7,0.9,5c0.6,1.4,1.3,2.4,2.1,3l-0.3,0.9h-0.1c-1-0.5-2-1.6-2.9-3.2
		C46.5,303.4,46.1,301.5,46.1,299.1L46.1,299.1z"/>
	<path class="st4" d="M55.7,303.1c0.5,0,1-0.2,1.4-0.5c0.4-0.3,0.6-0.8,0.6-1.3h1.5l0,0.1c0,0.8-0.3,1.5-1,2.1
		c-0.7,0.6-1.5,0.9-2.5,0.9c-1.3,0-2.3-0.4-3-1.3c-0.7-0.9-1.1-2-1.1-3.3v-0.4c0-1.3,0.4-2.4,1.1-3.3s1.7-1.3,3-1.3
		c1,0,1.9,0.3,2.6,1c0.7,0.6,1,1.4,1,2.4l0,0.1h-1.5c0-0.6-0.2-1.1-0.6-1.5c-0.4-0.4-0.8-0.6-1.4-0.6c-0.8,0-1.4,0.3-1.8,1
		s-0.6,1.4-0.6,2.3v0.4c0,0.9,0.2,1.7,0.6,2.4C54.3,302.8,54.9,303.1,55.7,303.1z"/>
	<path class="st4" d="M67,304.2c-0.1-0.3-0.1-0.5-0.1-0.7c0-0.2-0.1-0.4-0.1-0.7c-0.3,0.4-0.7,0.8-1.2,1.1c-0.5,0.3-1.1,0.5-1.6,0.5
		c-1,0-1.7-0.2-2.2-0.7s-0.8-1.2-0.8-2.1c0-0.9,0.4-1.6,1.1-2.1c0.7-0.5,1.7-0.8,2.9-0.8h1.8v-0.9c0-0.5-0.2-1-0.5-1.3
		c-0.3-0.3-0.8-0.5-1.4-0.5c-0.6,0-1,0.1-1.3,0.4c-0.3,0.3-0.5,0.6-0.5,1l-1.6,0l0-0.1c0-0.7,0.3-1.3,1-1.9c0.7-0.6,1.5-0.8,2.6-0.8
		c1.1,0,1.9,0.3,2.5,0.8c0.6,0.5,1,1.3,1,2.3v4.5c0,0.3,0,0.7,0.1,1c0,0.3,0.1,0.6,0.2,0.9H67z M64.2,303c0.6,0,1.2-0.2,1.7-0.5
		c0.5-0.3,0.8-0.7,1-1.1v-1.5h-1.9c-0.7,0-1.2,0.2-1.6,0.5c-0.4,0.3-0.6,0.7-0.6,1.2c0,0.4,0.1,0.7,0.4,1
		C63.3,302.9,63.7,303,64.2,303z"/>
	<path class="st4" d="M72.6,302.9h5.4v1.3h-7.4V303l5-6.8h-5v-1.3h7v1.2L72.6,302.9z"/>
	<path class="st4" d="M85.5,304.2c-0.1-0.3-0.1-0.5-0.1-0.7c0-0.2-0.1-0.4-0.1-0.7c-0.3,0.4-0.7,0.8-1.2,1.1
		c-0.5,0.3-1.1,0.5-1.6,0.5c-1,0-1.7-0.2-2.2-0.7s-0.8-1.2-0.8-2.1c0-0.9,0.4-1.6,1.1-2.1c0.7-0.5,1.7-0.8,2.9-0.8h1.8v-0.9
		c0-0.5-0.2-1-0.5-1.3c-0.3-0.3-0.8-0.5-1.4-0.5c-0.6,0-1,0.1-1.3,0.4c-0.3,0.3-0.5,0.6-0.5,1l-1.6,0l0-0.1c0-0.7,0.3-1.3,1-1.9
		c0.7-0.6,1.5-0.8,2.6-0.8c1.1,0,1.9,0.3,2.5,0.8c0.6,0.5,1,1.3,1,2.3v4.5c0,0.3,0,0.7,0.1,1c0,0.3,0.1,0.6,0.2,0.9H85.5z M82.7,303
		c0.6,0,1.2-0.2,1.7-0.5c0.5-0.3,0.8-0.7,1-1.1v-1.5h-1.9c-0.7,0-1.2,0.2-1.6,0.5c-0.4,0.3-0.6,0.7-0.6,1.2c0,0.4,0.1,0.7,0.4,1
		C81.8,302.9,82.2,303,82.7,303z"/>
	<path class="st4" d="M101.8,299.9c0,1.3-0.3,2.4-1,3.2c-0.6,0.8-1.5,1.2-2.7,1.2c-0.6,0-1.1-0.1-1.5-0.3s-0.8-0.5-1.1-0.9v4.6h-1.7
		v-12.9h1.3l0.3,1.2c0.3-0.4,0.7-0.8,1.1-1c0.5-0.2,1-0.4,1.6-0.4c1.2,0,2,0.5,2.7,1.4c0.6,0.9,1,2.1,1,3.6V299.9z M100.1,299.7
		c0-1.1-0.2-1.9-0.6-2.6s-1-1-1.8-1c-0.5,0-0.9,0.1-1.2,0.3s-0.6,0.5-0.8,0.9v4.5c0.2,0.4,0.5,0.7,0.8,0.9c0.3,0.2,0.8,0.3,1.3,0.3
		c0.8,0,1.4-0.3,1.8-0.9c0.4-0.6,0.6-1.3,0.6-2.3V299.7z"/>
	<path class="st4" d="M109.6,304.2c-0.1-0.3-0.1-0.5-0.1-0.7c0-0.2-0.1-0.4-0.1-0.7c-0.3,0.4-0.7,0.8-1.2,1.1
		c-0.5,0.3-1.1,0.5-1.6,0.5c-1,0-1.7-0.2-2.2-0.7s-0.8-1.2-0.8-2.1c0-0.9,0.4-1.6,1.1-2.1c0.7-0.5,1.7-0.8,2.9-0.8h1.8v-0.9
		c0-0.5-0.2-1-0.5-1.3c-0.3-0.3-0.8-0.5-1.4-0.5c-0.6,0-1,0.1-1.3,0.4c-0.3,0.3-0.5,0.6-0.5,1l-1.6,0l0-0.1c0-0.7,0.3-1.3,1-1.9
		c0.7-0.6,1.5-0.8,2.6-0.8c1.1,0,1.9,0.3,2.5,0.8c0.6,0.5,1,1.3,1,2.3v4.5c0,0.3,0,0.7,0.1,1c0,0.3,0.1,0.6,0.2,0.9H109.6z
		 M106.8,303c0.6,0,1.2-0.2,1.7-0.5c0.5-0.3,0.8-0.7,1-1.1v-1.5h-1.9c-0.7,0-1.2,0.2-1.6,0.5c-0.4,0.3-0.6,0.7-0.6,1.2
		c0,0.4,0.1,0.7,0.4,1C105.9,302.9,106.3,303,106.8,303z"/>
	<path class="st4" d="M118,296.4l-0.9-0.1c-0.4,0-0.8,0.1-1.1,0.3c-0.3,0.2-0.5,0.5-0.7,0.9v6.7h-1.7v-9.3h1.5l0.2,1.4
		c0.3-0.5,0.6-0.9,1-1.1c0.4-0.3,0.8-0.4,1.3-0.4c0.1,0,0.2,0,0.4,0c0.1,0,0.2,0,0.3,0.1L118,296.4z"/>
	<path class="st4" d="M125.5,304.2c-0.1-0.3-0.1-0.5-0.1-0.7c0-0.2-0.1-0.4-0.1-0.7c-0.3,0.4-0.7,0.8-1.2,1.1
		c-0.5,0.3-1.1,0.5-1.6,0.5c-1,0-1.7-0.2-2.2-0.7s-0.8-1.2-0.8-2.1c0-0.9,0.4-1.6,1.1-2.1c0.7-0.5,1.7-0.8,2.9-0.8h1.8v-0.9
		c0-0.5-0.2-1-0.5-1.3c-0.3-0.3-0.8-0.5-1.4-0.5c-0.6,0-1,0.1-1.3,0.4c-0.3,0.3-0.5,0.6-0.5,1l-1.6,0l0-0.1c0-0.7,0.3-1.3,1-1.9
		c0.7-0.6,1.5-0.8,2.6-0.8c1.1,0,1.9,0.3,2.5,0.8c0.6,0.5,1,1.3,1,2.3v4.5c0,0.3,0,0.7,0.1,1c0,0.3,0.1,0.6,0.2,0.9H125.5z
		 M122.7,303c0.6,0,1.2-0.2,1.7-0.5c0.5-0.3,0.8-0.7,1-1.1v-1.5h-1.9c-0.7,0-1.2,0.2-1.6,0.5c-0.4,0.3-0.6,0.7-0.6,1.2
		c0,0.4,0.1,0.7,0.4,1C121.8,302.9,122.2,303,122.7,303z"/>
	<path class="st4" d="M137.5,303.1c0.5,0,1-0.2,1.4-0.5c0.4-0.3,0.6-0.8,0.6-1.3h1.5l0,0.1c0,0.8-0.3,1.5-1,2.1
		c-0.7,0.6-1.5,0.9-2.5,0.9c-1.3,0-2.3-0.4-3-1.3c-0.7-0.9-1.1-2-1.1-3.3v-0.4c0-1.3,0.4-2.4,1.1-3.3s1.7-1.3,3-1.3
		c1,0,1.9,0.3,2.6,1c0.7,0.6,1,1.4,1,2.4l0,0.1h-1.5c0-0.6-0.2-1.1-0.6-1.5c-0.4-0.4-0.8-0.6-1.4-0.6c-0.8,0-1.4,0.3-1.8,1
		s-0.6,1.4-0.6,2.3v0.4c0,0.9,0.2,1.7,0.6,2.4C136.1,302.8,136.7,303.1,137.5,303.1z"/>
	<path class="st4" d="M142.7,299.5c0-1.4,0.4-2.5,1.1-3.4c0.7-0.9,1.8-1.3,3-1.3c1.3,0,2.3,0.4,3.1,1.3c0.7,0.9,1.1,2,1.1,3.4v0.2
		c0,1.4-0.4,2.5-1.1,3.4c-0.7,0.9-1.8,1.3-3,1.3c-1.3,0-2.3-0.4-3.1-1.3c-0.7-0.9-1.1-2-1.1-3.4V299.5z M144.4,299.7
		c0,1,0.2,1.8,0.6,2.4s1,1,1.9,1c0.8,0,1.4-0.3,1.8-1s0.6-1.5,0.6-2.4v-0.2c0-1-0.2-1.8-0.6-2.4c-0.4-0.6-1-1-1.9-1
		c-0.8,0-1.4,0.3-1.8,1s-0.6,1.5-0.6,2.4V299.7z"/>
	<path class="st4" d="M154.6,294.9l0.1,1.4c0.3-0.5,0.7-0.9,1.2-1.1s1-0.4,1.6-0.4c1,0,1.8,0.3,2.3,0.9s0.8,1.5,0.8,2.7v5.9h-1.7
		v-5.8c0-0.8-0.2-1.4-0.5-1.7c-0.3-0.3-0.8-0.5-1.5-0.5c-0.5,0-1,0.1-1.3,0.3c-0.4,0.2-0.7,0.5-0.9,0.9v6.9h-1.7v-9.3H154.6z"/>
	<path class="st4" d="M168.5,301.7c0-0.4-0.1-0.7-0.4-0.9s-0.8-0.4-1.6-0.6c-1.1-0.2-1.9-0.6-2.5-1c-0.6-0.4-0.9-1-0.9-1.7
		c0-0.8,0.3-1.4,1-1.9c0.6-0.5,1.5-0.8,2.5-0.8c1.1,0,1.9,0.3,2.6,0.9s1,1.2,0.9,2l0,0.1h-1.6c0-0.4-0.2-0.8-0.5-1.1
		c-0.4-0.3-0.8-0.5-1.3-0.5c-0.6,0-1,0.1-1.3,0.4c-0.3,0.3-0.4,0.6-0.4,1c0,0.4,0.1,0.7,0.4,0.9c0.3,0.2,0.8,0.4,1.6,0.6
		c1.1,0.2,2,0.6,2.6,1c0.6,0.4,0.9,1,0.9,1.7c0,0.8-0.3,1.5-1,2c-0.7,0.5-1.5,0.8-2.6,0.8c-1.2,0-2.1-0.3-2.8-0.9
		c-0.7-0.6-1-1.3-1-2.1l0-0.1h1.6c0,0.6,0.3,1,0.7,1.3s0.9,0.4,1.5,0.4c0.6,0,1.1-0.1,1.4-0.4C168.3,302.4,168.5,302.1,168.5,301.7z
		"/>
	<path class="st4" d="M178.2,302.8c-0.3,0.5-0.7,0.9-1.1,1.2c-0.5,0.3-1,0.4-1.6,0.4c-1,0-1.8-0.3-2.4-1c-0.6-0.6-0.9-1.7-0.9-3
		v-5.5h1.7v5.5c0,1,0.1,1.7,0.4,2c0.3,0.4,0.7,0.6,1.4,0.6c0.6,0,1.1-0.1,1.5-0.4c0.4-0.2,0.7-0.6,0.9-1v-6.7h1.7v9.3h-1.5
		L178.2,302.8z"/>
	<path class="st4" d="M183.9,294.9l0.1,1.2c0.3-0.4,0.7-0.8,1.2-1s1-0.4,1.6-0.4c0.6,0,1.2,0.1,1.6,0.4c0.4,0.3,0.8,0.7,1,1.3
		c0.3-0.5,0.7-1,1.2-1.3c0.5-0.3,1-0.5,1.7-0.5c0.9,0,1.7,0.3,2.2,1s0.8,1.6,0.8,2.9v5.6h-1.7v-5.6c0-0.9-0.2-1.6-0.5-1.9
		s-0.8-0.6-1.4-0.6c-0.6,0-1,0.2-1.4,0.6c-0.4,0.4-0.6,0.9-0.6,1.5v0.1v5.9H188v-5.6c0-0.9-0.2-1.5-0.5-1.9
		c-0.3-0.4-0.8-0.6-1.4-0.6c-0.5,0-0.9,0.1-1.3,0.3c-0.3,0.2-0.6,0.5-0.8,0.9v6.9h-1.7v-9.3H183.9z"/>
	<path class="st4" d="M197.4,299.5c0-1.4,0.4-2.5,1.1-3.4c0.7-0.9,1.8-1.3,3-1.3c1.3,0,2.3,0.4,3.1,1.3c0.7,0.9,1.1,2,1.1,3.4v0.2
		c0,1.4-0.4,2.5-1.1,3.4c-0.7,0.9-1.8,1.3-3,1.3c-1.3,0-2.3-0.4-3.1-1.3c-0.7-0.9-1.1-2-1.1-3.4V299.5z M199,299.7
		c0,1,0.2,1.8,0.6,2.4s1,1,1.9,1c0.8,0,1.4-0.3,1.8-1c0.4-0.6,0.6-1.5,0.6-2.4v-0.2c0-1-0.2-1.8-0.6-2.4s-1-1-1.9-1
		c-0.8,0-1.4,0.3-1.8,1s-0.6,1.5-0.6,2.4V299.7z"/>
	<path class="st4" d="M213.8,296.2c0.3-0.4,0.7-0.8,1.2-1s1-0.4,1.6-0.4c1,0,1.8,0.3,2.3,0.9c0.6,0.6,0.8,1.5,0.8,2.8v5.8H218v-5.9
		c0-0.8-0.2-1.3-0.5-1.7s-0.8-0.6-1.5-0.6c-0.5,0-0.9,0.1-1.3,0.3c-0.4,0.2-0.7,0.5-0.9,0.8v7h-1.7v-13.4h1.7V296.2z"/>
	<path class="st4" d="M228.1,302.8c-0.3,0.5-0.7,0.9-1.1,1.2c-0.5,0.3-1,0.4-1.6,0.4c-1,0-1.8-0.3-2.4-1c-0.6-0.6-0.9-1.7-0.9-3
		v-5.5h1.7v5.5c0,1,0.1,1.7,0.4,2c0.3,0.4,0.7,0.6,1.4,0.6c0.6,0,1.1-0.1,1.5-0.4c0.4-0.2,0.7-0.6,0.9-1v-6.7h1.7v9.3h-1.5
		L228.1,302.8z"/>
	<path class="st4" d="M233.7,294.9l0.1,1.2c0.3-0.4,0.7-0.8,1.2-1s1-0.4,1.6-0.4c0.6,0,1.2,0.1,1.6,0.4c0.4,0.3,0.8,0.7,1,1.3
		c0.3-0.5,0.7-1,1.2-1.3c0.5-0.3,1-0.5,1.7-0.5c0.9,0,1.7,0.3,2.2,1s0.8,1.6,0.8,2.9v5.6h-1.7v-5.6c0-0.9-0.2-1.6-0.5-1.9
		s-0.8-0.6-1.4-0.6c-0.6,0-1,0.2-1.4,0.6c-0.4,0.4-0.6,0.9-0.6,1.5v0.1v5.9h-1.7v-5.6c0-0.9-0.2-1.5-0.5-1.9
		c-0.3-0.4-0.8-0.6-1.4-0.6c-0.5,0-0.9,0.1-1.3,0.3c-0.3,0.2-0.6,0.5-0.8,0.9v6.9h-1.7v-9.3H233.7z"/>
	<path class="st4" d="M253.3,304.2c-0.1-0.3-0.1-0.5-0.1-0.7c0-0.2-0.1-0.4-0.1-0.7c-0.3,0.4-0.7,0.8-1.2,1.1
		c-0.5,0.3-1.1,0.5-1.6,0.5c-1,0-1.7-0.2-2.2-0.7s-0.8-1.2-0.8-2.1c0-0.9,0.4-1.6,1.1-2.1c0.7-0.5,1.7-0.8,2.9-0.8h1.8v-0.9
		c0-0.5-0.2-1-0.5-1.3s-0.8-0.5-1.4-0.5c-0.6,0-1,0.1-1.3,0.4c-0.3,0.3-0.5,0.6-0.5,1l-1.6,0l0-0.1c0-0.7,0.3-1.3,1-1.9
		c0.7-0.6,1.5-0.8,2.6-0.8c1.1,0,1.9,0.3,2.5,0.8c0.6,0.5,1,1.3,1,2.3v4.5c0,0.3,0,0.7,0.1,1c0,0.3,0.1,0.6,0.2,0.9H253.3z
		 M250.5,303c0.6,0,1.2-0.2,1.7-0.5c0.5-0.3,0.8-0.7,1-1.1v-1.5h-1.9c-0.7,0-1.2,0.2-1.6,0.5c-0.4,0.3-0.6,0.7-0.6,1.2
		c0,0.4,0.1,0.7,0.4,1C249.6,302.9,250,303,250.5,303z"/>
	<path class="st4" d="M258.8,294.9l0.1,1.4c0.3-0.5,0.7-0.9,1.2-1.1s1-0.4,1.6-0.4c1,0,1.8,0.3,2.3,0.9c0.6,0.6,0.8,1.5,0.8,2.7v5.9
		h-1.7v-5.8c0-0.8-0.2-1.4-0.5-1.7c-0.3-0.3-0.8-0.5-1.5-0.5c-0.5,0-1,0.1-1.3,0.3c-0.4,0.2-0.7,0.5-0.9,0.9v6.9h-1.7v-9.3H258.8z"
		/>
	<path class="st4" d="M266.9,299.5c0-1.4,0.4-2.5,1.1-3.4c0.7-0.9,1.8-1.3,3-1.3c1.3,0,2.3,0.4,3.1,1.3c0.7,0.9,1.1,2,1.1,3.4v0.2
		c0,1.4-0.4,2.5-1.1,3.4c-0.7,0.9-1.8,1.3-3,1.3c-1.3,0-2.3-0.4-3.1-1.3c-0.7-0.9-1.1-2-1.1-3.4V299.5z M268.6,299.7
		c0,1,0.2,1.8,0.6,2.4s1,1,1.9,1c0.8,0,1.4-0.3,1.8-1c0.4-0.6,0.6-1.5,0.6-2.4v-0.2c0-1-0.2-1.8-0.6-2.4s-1-1-1.9-1
		c-0.8,0-1.4,0.3-1.8,1s-0.6,1.5-0.6,2.4V299.7z"/>
	<path class="st4" d="M280.8,299.2c0,2.3-0.5,4.2-1.4,5.8c-0.9,1.6-1.9,2.7-2.9,3.2h-0.1l-0.3-0.9c0.8-0.6,1.5-1.6,2-3
		s0.9-3.1,0.9-5.1v-0.1c0-2-0.3-3.6-0.9-5c-0.6-1.4-1.3-2.4-2-3l0.3-0.9h0.1c1,0.5,2,1.6,2.9,3.2
		C280.3,294.9,280.8,296.9,280.8,299.2L280.8,299.2z"/>
</g>
<g class="st3">
	<path class="st4" d="M47.7,193.4c0-2.3,0.5-4.2,1.4-5.8c0.9-1.6,1.9-2.7,2.9-3.2l0.1,0l0.3,1c-0.8,0.6-1.5,1.6-2.1,3
		c-0.6,1.4-0.9,3-0.9,5v0.1c0,2,0.3,3.7,0.9,5c0.6,1.4,1.3,2.4,2.1,3l-0.3,0.9h-0.1c-1-0.5-2-1.6-2.9-3.2
		C48.1,197.6,47.7,195.7,47.7,193.4L47.7,193.4z"/>
	<path class="st4" d="M56,186.9v2.2h1.8v1.3H56v5.7c0,0.4,0.1,0.7,0.3,0.9s0.4,0.3,0.7,0.3c0.1,0,0.2,0,0.3,0c0.1,0,0.2-0.1,0.3-0.1
		l0.2,1.2c-0.1,0.1-0.3,0.2-0.6,0.3c-0.2,0.1-0.5,0.1-0.7,0.1c-0.7,0-1.2-0.2-1.6-0.6c-0.4-0.4-0.6-1.1-0.6-2v-5.7h-1.5v-1.3h1.5
		v-2.2H56z"/>
	<path class="st4" d="M63.9,190.6l-0.9-0.1c-0.4,0-0.8,0.1-1.1,0.3c-0.3,0.2-0.5,0.5-0.7,0.9v6.7h-1.7v-9.3H61l0.2,1.4
		c0.3-0.5,0.6-0.9,1-1.1c0.4-0.3,0.8-0.4,1.3-0.4c0.1,0,0.2,0,0.4,0c0.1,0,0.2,0,0.3,0.1L63.9,190.6z"/>
	<path class="st4" d="M71.4,198.5c-0.1-0.3-0.1-0.5-0.1-0.7c0-0.2-0.1-0.4-0.1-0.7c-0.3,0.4-0.7,0.8-1.2,1.1
		c-0.5,0.3-1.1,0.5-1.6,0.5c-1,0-1.7-0.2-2.2-0.7s-0.8-1.2-0.8-2.1c0-0.9,0.4-1.6,1.1-2.1c0.7-0.5,1.7-0.8,2.9-0.8h1.8v-0.9
		c0-0.5-0.2-1-0.5-1.3c-0.3-0.3-0.8-0.5-1.4-0.5c-0.6,0-1,0.1-1.3,0.4c-0.3,0.3-0.5,0.6-0.5,1l-1.6,0l0-0.1c0-0.7,0.3-1.3,1-1.9
		c0.7-0.6,1.5-0.8,2.6-0.8c1.1,0,1.9,0.3,2.5,0.8c0.6,0.5,1,1.3,1,2.3v4.5c0,0.3,0,0.7,0.1,1c0,0.3,0.1,0.6,0.2,0.9H71.4z
		 M68.6,197.2c0.6,0,1.2-0.2,1.7-0.5c0.5-0.3,0.8-0.7,1-1.1v-1.5h-1.9c-0.7,0-1.2,0.2-1.6,0.5c-0.4,0.3-0.6,0.7-0.6,1.2
		c0,0.4,0.1,0.7,0.4,1C67.7,197.1,68.1,197.2,68.6,197.2z M70.1,185.2h2l0,0.1l-2.3,2.2h-1.3L70.1,185.2z"/>
	<path class="st4" d="M75.9,198.5v-8.1h-1.5v-1.3h1.5v-1c0-1,0.3-1.9,0.9-2.4c0.6-0.6,1.5-0.9,2.5-0.9c0.4,0,0.8,0,1.1,0.1
		c0.4,0.1,0.8,0.2,1.3,0.4l-0.3,1.4c-0.3-0.1-0.6-0.2-1-0.3c-0.3-0.1-0.7-0.1-1.1-0.1c-0.7,0-1.2,0.1-1.5,0.4
		c-0.3,0.3-0.4,0.8-0.4,1.4v1h1.9v1.3h-1.9v8.1H75.9z M82.6,198.5h-1.7v-9.3h1.7V198.5z"/>
	<path class="st4" d="M88.9,197.3c0.5,0,1-0.2,1.4-0.5c0.4-0.3,0.6-0.8,0.6-1.3h1.5l0,0.1c0,0.8-0.3,1.5-1,2.1
		c-0.7,0.6-1.5,0.9-2.5,0.9c-1.3,0-2.3-0.4-3-1.3c-0.7-0.9-1.1-2-1.1-3.3v-0.4c0-1.3,0.4-2.4,1.1-3.3s1.7-1.3,3-1.3
		c1,0,1.9,0.3,2.6,1c0.7,0.6,1,1.4,1,2.4l0,0.1h-1.5c0-0.6-0.2-1.1-0.6-1.5c-0.4-0.4-0.8-0.6-1.4-0.6c-0.8,0-1.4,0.3-1.8,1
		s-0.6,1.4-0.6,2.3v0.4c0,0.9,0.2,1.7,0.6,2.4C87.5,197,88.1,197.3,88.9,197.3z"/>
	<path class="st4" d="M94,193.7c0-1.4,0.4-2.5,1.1-3.4c0.7-0.9,1.8-1.3,3-1.3c1.3,0,2.3,0.4,3.1,1.3c0.7,0.9,1.1,2,1.1,3.4v0.2
		c0,1.4-0.4,2.5-1.1,3.4c-0.7,0.9-1.8,1.3-3,1.3c-1.3,0-2.3-0.4-3.1-1.3c-0.7-0.9-1.1-2-1.1-3.4V193.7z M95.7,193.9
		c0,1,0.2,1.8,0.6,2.4s1,1,1.9,1c0.8,0,1.4-0.3,1.8-1s0.6-1.5,0.6-2.4v-0.2c0-1-0.2-1.8-0.6-2.4c-0.4-0.6-1-1-1.9-1
		c-0.8,0-1.4,0.3-1.8,1s-0.6,1.5-0.6,2.4V193.9z"/>
	<path class="st4" d="M108.4,194c0-1.5,0.3-2.7,1-3.6c0.6-0.9,1.5-1.4,2.7-1.4c0.5,0,1,0.1,1.5,0.3c0.4,0.2,0.8,0.5,1.1,0.9V185h1.7
		v13.4H115l-0.3-1.2c-0.3,0.4-0.7,0.8-1.1,1c-0.4,0.2-1,0.3-1.6,0.3c-1.1,0-2-0.4-2.7-1.2c-0.6-0.8-1-1.9-1-3.2V194z M110.1,194.2
		c0,0.9,0.2,1.7,0.6,2.3s1,0.8,1.8,0.8c0.5,0,0.9-0.1,1.3-0.3s0.6-0.6,0.8-1v-4.3c-0.2-0.4-0.5-0.7-0.8-0.9s-0.8-0.3-1.3-0.3
		c-0.8,0-1.4,0.3-1.8,1c-0.4,0.7-0.6,1.5-0.6,2.6V194.2z"/>
	<path class="st4" d="M122.7,198.6c-1.3,0-2.4-0.4-3.1-1.3c-0.7-0.9-1.1-2-1.1-3.4v-0.4c0-1.3,0.4-2.4,1.2-3.3
		c0.8-0.9,1.7-1.3,2.8-1.3c1.2,0,2.2,0.4,2.8,1.2c0.6,0.8,0.9,1.8,0.9,3.1v0.9h-6l0,0c0,0.9,0.2,1.7,0.6,2.3c0.4,0.6,1,0.9,1.9,0.9
		c0.6,0,1.1-0.1,1.5-0.2c0.4-0.2,0.8-0.4,1.1-0.7l0.7,1.1c-0.3,0.3-0.8,0.6-1.3,0.8S123.5,198.6,122.7,198.6z M122.4,190.3
		c-0.6,0-1.1,0.2-1.5,0.7c-0.4,0.5-0.6,1-0.7,1.8l0,0h4.2v-0.1c0-0.7-0.2-1.2-0.5-1.7C123.6,190.5,123.1,190.3,122.4,190.3z"/>
	<path class="st4" d="M138.2,198.5c-0.1-0.3-0.1-0.5-0.1-0.7c0-0.2-0.1-0.4-0.1-0.7c-0.3,0.4-0.7,0.8-1.2,1.1
		c-0.5,0.3-1.1,0.5-1.6,0.5c-1,0-1.7-0.2-2.2-0.7s-0.8-1.2-0.8-2.1c0-0.9,0.4-1.6,1.1-2.1c0.7-0.5,1.7-0.8,2.9-0.8h1.8v-0.9
		c0-0.5-0.2-1-0.5-1.3c-0.3-0.3-0.8-0.5-1.4-0.5c-0.6,0-1,0.1-1.3,0.4c-0.3,0.3-0.5,0.6-0.5,1l-1.6,0l0-0.1c0-0.7,0.3-1.3,1-1.9
		c0.7-0.6,1.5-0.8,2.6-0.8c1.1,0,1.9,0.3,2.5,0.8c0.6,0.5,1,1.3,1,2.3v4.5c0,0.3,0,0.7,0.1,1c0,0.3,0.1,0.6,0.2,0.9H138.2z
		 M135.4,197.2c0.6,0,1.2-0.2,1.7-0.5c0.5-0.3,0.8-0.7,1-1.1v-1.5h-1.9c-0.7,0-1.2,0.2-1.6,0.5c-0.4,0.3-0.6,0.7-0.6,1.2
		c0,0.4,0.1,0.7,0.4,1C134.5,197.1,134.9,197.2,135.4,197.2z"/>
	<path class="st4" d="M143.7,189.1l0.1,1.4c0.3-0.5,0.7-0.9,1.2-1.1s1-0.4,1.6-0.4c1,0,1.8,0.3,2.3,0.9s0.8,1.5,0.8,2.7v5.9H148
		v-5.8c0-0.8-0.2-1.4-0.5-1.7c-0.3-0.3-0.8-0.5-1.5-0.5c-0.5,0-1,0.1-1.3,0.3c-0.4,0.2-0.7,0.5-0.9,0.9v6.9h-1.7v-9.3H143.7z"/>
	<path class="st4" d="M154,186.8h-1.7V185h1.7V186.8z M154,198.5h-1.7v-9.3h1.7V198.5z"/>
	<path class="st4" d="M158.1,189.1l0.1,1.2c0.3-0.4,0.7-0.8,1.2-1c0.5-0.2,1-0.4,1.6-0.4s1.2,0.1,1.6,0.4c0.4,0.3,0.8,0.7,1,1.3
		c0.3-0.5,0.7-1,1.2-1.3s1-0.5,1.7-0.5c0.9,0,1.7,0.3,2.2,1s0.8,1.6,0.8,2.9v5.6h-1.7v-5.6c0-0.9-0.2-1.6-0.5-1.9s-0.8-0.6-1.4-0.6
		c-0.6,0-1,0.2-1.4,0.6c-0.4,0.4-0.6,0.9-0.6,1.5v0.1v5.9h-1.7v-5.6c0-0.9-0.2-1.5-0.5-1.9s-0.8-0.6-1.4-0.6c-0.5,0-0.9,0.1-1.3,0.3
		c-0.3,0.2-0.6,0.5-0.8,0.9v6.9h-1.7v-9.3H158.1z"/>
	<path class="st4" d="M177.7,198.5c-0.1-0.3-0.1-0.5-0.1-0.7c0-0.2-0.1-0.4-0.1-0.7c-0.3,0.4-0.7,0.8-1.2,1.1
		c-0.5,0.3-1.1,0.5-1.6,0.5c-1,0-1.7-0.2-2.2-0.7s-0.8-1.2-0.8-2.1c0-0.9,0.4-1.6,1.1-2.1c0.7-0.5,1.7-0.8,2.9-0.8h1.8v-0.9
		c0-0.5-0.2-1-0.5-1.3s-0.8-0.5-1.4-0.5c-0.6,0-1,0.1-1.3,0.4c-0.3,0.3-0.5,0.6-0.5,1l-1.6,0l0-0.1c0-0.7,0.3-1.3,1-1.9
		c0.7-0.6,1.5-0.8,2.6-0.8c1.1,0,1.9,0.3,2.5,0.8c0.6,0.5,1,1.3,1,2.3v4.5c0,0.3,0,0.7,0.1,1c0,0.3,0.1,0.6,0.2,0.9H177.7z
		 M174.9,197.2c0.6,0,1.2-0.2,1.7-0.5c0.5-0.3,0.8-0.7,1-1.1v-1.5h-1.9c-0.7,0-1.2,0.2-1.6,0.5c-0.4,0.3-0.6,0.7-0.6,1.2
		c0,0.4,0.1,0.7,0.4,1C174,197.1,174.4,197.2,174.9,197.2z"/>
	<path class="st4" d="M183.5,198.5h-1.7V185h1.7V198.5z"/>
	<path class="st4" d="M190,198.6c-1.3,0-2.4-0.4-3.1-1.3c-0.7-0.9-1.1-2-1.1-3.4v-0.4c0-1.3,0.4-2.4,1.2-3.3
		c0.8-0.9,1.7-1.3,2.8-1.3c1.2,0,2.2,0.4,2.8,1.2c0.6,0.8,0.9,1.8,0.9,3.1v0.9h-6l0,0c0,0.9,0.2,1.7,0.6,2.3c0.4,0.6,1,0.9,1.9,0.9
		c0.6,0,1.1-0.1,1.5-0.2c0.4-0.2,0.8-0.4,1.1-0.7l0.7,1.1c-0.3,0.3-0.8,0.6-1.3,0.8S190.8,198.6,190,198.6z M189.7,190.3
		c-0.6,0-1.1,0.2-1.5,0.7c-0.4,0.5-0.6,1-0.7,1.8l0,0h4.2v-0.1c0-0.7-0.2-1.2-0.5-1.7C190.9,190.5,190.4,190.3,189.7,190.3z"/>
	<path class="st4" d="M200.8,195.9c0-0.4-0.1-0.7-0.4-0.9s-0.8-0.4-1.6-0.6c-1.1-0.2-1.9-0.6-2.5-1c-0.6-0.4-0.9-1-0.9-1.7
		c0-0.8,0.3-1.4,1-1.9s1.5-0.8,2.5-0.8c1.1,0,1.9,0.3,2.6,0.9s1,1.2,0.9,2l0,0.1h-1.6c0-0.4-0.2-0.8-0.5-1.1
		c-0.4-0.3-0.8-0.5-1.3-0.5c-0.6,0-1,0.1-1.3,0.4c-0.3,0.3-0.4,0.6-0.4,1c0,0.4,0.1,0.7,0.4,0.9c0.3,0.2,0.8,0.4,1.6,0.6
		c1.1,0.2,2,0.6,2.6,1c0.6,0.4,0.9,1,0.9,1.7c0,0.8-0.3,1.5-1,2c-0.7,0.5-1.5,0.8-2.6,0.8c-1.2,0-2.1-0.3-2.8-0.9
		c-0.7-0.6-1-1.3-1-2.1l0-0.1h1.6c0,0.6,0.3,1,0.7,1.3s0.9,0.4,1.5,0.4c0.6,0,1.1-0.1,1.4-0.4C200.6,196.7,200.8,196.3,200.8,195.9z
		"/>
	<path class="st4" d="M212.8,198.6c-1.3,0-2.4-0.4-3.1-1.3c-0.7-0.9-1.1-2-1.1-3.4v-0.4c0-1.3,0.4-2.4,1.2-3.3
		c0.8-0.9,1.7-1.3,2.8-1.3c1.2,0,2.2,0.4,2.8,1.2c0.6,0.8,0.9,1.8,0.9,3.1v0.9h-6l0,0c0,0.9,0.2,1.7,0.6,2.3c0.4,0.6,1,0.9,1.9,0.9
		c0.6,0,1.1-0.1,1.5-0.2c0.4-0.2,0.8-0.4,1.1-0.7l0.7,1.1c-0.3,0.3-0.8,0.6-1.3,0.8S213.6,198.6,212.8,198.6z M212.6,190.3
		c-0.6,0-1.1,0.2-1.5,0.7c-0.4,0.5-0.6,1-0.7,1.8l0,0h4.2v-0.1c0-0.7-0.2-1.2-0.5-1.7C213.8,190.5,213.3,190.3,212.6,190.3z"/>
	<path class="st4" d="M221.4,192.6l2-3.4h2l-3,4.6l3.1,4.7h-1.9l-2.1-3.5l-2.1,3.5h-2l3.1-4.7l-3-4.6h2L221.4,192.6z"/>
	<path class="st4" d="M226.5,193.7c0-1.4,0.4-2.5,1.1-3.4c0.7-0.9,1.8-1.3,3-1.3c1.3,0,2.3,0.4,3.1,1.3c0.7,0.9,1.1,2,1.1,3.4v0.2
		c0,1.4-0.4,2.5-1.1,3.4c-0.7,0.9-1.8,1.3-3,1.3c-1.3,0-2.3-0.4-3.1-1.3c-0.7-0.9-1.1-2-1.1-3.4V193.7z M228.2,193.9
		c0,1,0.2,1.8,0.6,2.4s1,1,1.9,1c0.8,0,1.4-0.3,1.8-1c0.4-0.6,0.6-1.5,0.6-2.4v-0.2c0-1-0.2-1.8-0.6-2.4s-1-1-1.9-1
		c-0.8,0-1.4,0.3-1.8,1s-0.6,1.5-0.6,2.4V193.9z M231.5,185.2h2l0,0.1l-2.3,2.2h-1.3L231.5,185.2z"/>
	<path class="st4" d="M239.3,186.9v2.2h1.8v1.3h-1.8v5.7c0,0.4,0.1,0.7,0.3,0.9s0.4,0.3,0.7,0.3c0.1,0,0.2,0,0.3,0
		c0.1,0,0.2-0.1,0.3-0.1l0.2,1.2c-0.1,0.1-0.3,0.2-0.6,0.3c-0.2,0.1-0.5,0.1-0.7,0.1c-0.7,0-1.2-0.2-1.6-0.6c-0.4-0.4-0.6-1.1-0.6-2
		v-5.7h-1.5v-1.3h1.5v-2.2H239.3z"/>
	<path class="st4" d="M244.7,186.8H243V185h1.7V186.8z M244.7,198.5H243v-9.3h1.7V198.5z"/>
	<path class="st4" d="M251,197.3c0.5,0,1-0.2,1.4-0.5c0.4-0.3,0.6-0.8,0.6-1.3h1.5l0,0.1c0,0.8-0.3,1.5-1,2.1
		c-0.7,0.6-1.5,0.9-2.5,0.9c-1.3,0-2.3-0.4-3-1.3c-0.7-0.9-1.1-2-1.1-3.3v-0.4c0-1.3,0.4-2.4,1.1-3.3c0.7-0.9,1.7-1.3,3-1.3
		c1,0,1.9,0.3,2.6,1c0.7,0.6,1,1.4,1,2.4l0,0.1h-1.5c0-0.6-0.2-1.1-0.6-1.5c-0.4-0.4-0.8-0.6-1.4-0.6c-0.8,0-1.4,0.3-1.8,1
		s-0.6,1.4-0.6,2.3v0.4c0,0.9,0.2,1.7,0.6,2.4S250.1,197.3,251,197.3z"/>
	<path class="st4" d="M256.1,193.7c0-1.4,0.4-2.5,1.1-3.4c0.7-0.9,1.8-1.3,3-1.3c1.3,0,2.3,0.4,3.1,1.3c0.7,0.9,1.1,2,1.1,3.4v0.2
		c0,1.4-0.4,2.5-1.1,3.4c-0.7,0.9-1.8,1.3-3,1.3c-1.3,0-2.3-0.4-3.1-1.3c-0.7-0.9-1.1-2-1.1-3.4V193.7z M257.8,193.9
		c0,1,0.2,1.8,0.6,2.4s1,1,1.9,1c0.8,0,1.4-0.3,1.8-1c0.4-0.6,0.6-1.5,0.6-2.4v-0.2c0-1-0.2-1.8-0.6-2.4s-1-1-1.9-1
		c-0.8,0-1.4,0.3-1.8,1s-0.6,1.5-0.6,2.4V193.9z"/>
	<path class="st4" d="M272,195.9c0-0.4-0.1-0.7-0.4-0.9s-0.8-0.4-1.6-0.6c-1.1-0.2-1.9-0.6-2.5-1c-0.6-0.4-0.9-1-0.9-1.7
		c0-0.8,0.3-1.4,1-1.9s1.5-0.8,2.5-0.8c1.1,0,1.9,0.3,2.6,0.9s1,1.2,0.9,2l0,0.1h-1.6c0-0.4-0.2-0.8-0.5-1.1
		c-0.4-0.3-0.8-0.5-1.3-0.5c-0.6,0-1,0.1-1.3,0.4c-0.3,0.3-0.4,0.6-0.4,1c0,0.4,0.1,0.7,0.4,0.9c0.3,0.2,0.8,0.4,1.6,0.6
		c1.1,0.2,2,0.6,2.6,1c0.6,0.4,0.9,1,0.9,1.7c0,0.8-0.3,1.5-1,2c-0.7,0.5-1.5,0.8-2.6,0.8c-1.2,0-2.1-0.3-2.8-0.9
		c-0.7-0.6-1-1.3-1-2.1l0-0.1h1.6c0,0.6,0.3,1,0.7,1.3s0.9,0.4,1.5,0.4c0.6,0,1.1-0.1,1.4-0.4C271.8,196.7,272,196.3,272,195.9z"/>
	<path class="st4" d="M279.2,193.4c0,2.3-0.5,4.2-1.4,5.8c-0.9,1.6-1.9,2.7-2.9,3.2h-0.1l-0.3-0.9c0.8-0.6,1.5-1.6,2-3
		s0.9-3.1,0.9-5.1v-0.1c0-2-0.3-3.6-0.9-5c-0.6-1.4-1.3-2.4-2-3l0.3-0.9h0.1c1,0.5,2,1.6,2.9,3.2
		C278.7,189.2,279.2,191.1,279.2,193.4L279.2,193.4z"/>
</g>
<path class="st2" d="M232.1,176.4H94.8c-7.4,0-13.6-6.1-13.6-13.6l0,0c0-7.4,6.1-13.6,13.6-13.6h137.4c7.4,0,13.6,6.1,13.6,13.6l0,0
	C245.6,170.3,239.6,176.4,232.1,176.4z"/>
<g class="st3">
	<path class="st1" d="M124.2,164.5L124.2,164.5c0,1.5-0.4,2.6-1.2,3.3s-2,1.1-3.5,1.1c-1.5,0-2.8-0.5-3.7-1.4
		c-0.9-0.9-1.4-2.2-1.4-3.7v-2.6c0-1.5,0.5-2.8,1.4-3.7s2.1-1.4,3.6-1.4c1.6,0,2.8,0.4,3.7,1.1s1.3,1.8,1.3,3.2l0,0.1h-2.8
		c0-0.8-0.2-1.3-0.5-1.7c-0.3-0.3-0.9-0.5-1.6-0.5c-0.7,0-1.2,0.3-1.5,0.8s-0.5,1.2-0.5,2.1v2.6c0,0.9,0.2,1.6,0.6,2.1
		c0.4,0.5,0.9,0.8,1.7,0.8c0.7,0,1.1-0.2,1.4-0.5c0.3-0.3,0.4-0.9,0.4-1.7H124.2z"/>
	<path class="st1" d="M131.1,168.7c-0.1-0.2-0.2-0.4-0.3-0.7c-0.1-0.2-0.1-0.5-0.2-0.8c-0.3,0.5-0.6,0.9-0.9,1.2s-0.9,0.4-1.5,0.4
		c-1,0-1.7-0.3-2.3-0.8c-0.5-0.5-0.8-1.2-0.8-2.1c0-0.9,0.3-1.6,1-2.1c0.7-0.5,1.7-0.8,3.2-0.8h1.2v-0.7c0-0.4-0.1-0.7-0.3-0.9
		c-0.2-0.2-0.5-0.3-0.9-0.3c-0.3,0-0.6,0.1-0.8,0.2s-0.2,0.4-0.2,0.7l-2.8,0l0-0.1c0-0.8,0.3-1.6,1.1-2.1c0.7-0.6,1.7-0.9,3-0.9
		c1.2,0,2.1,0.3,2.8,0.9c0.7,0.6,1.1,1.4,1.1,2.5v3.5c0,0.5,0,1,0.1,1.4c0.1,0.4,0.2,0.8,0.4,1.3L131.1,168.7z M129,166.8
		c0.4,0,0.7-0.1,0.9-0.2s0.5-0.4,0.6-0.6v-1.2h-1.2c-0.5,0-0.8,0.1-1,0.3c-0.2,0.2-0.3,0.5-0.3,0.9c0,0.3,0.1,0.5,0.3,0.6
		S128.7,166.8,129,166.8z"/>
	<path class="st1" d="M138.5,166.5h4.2v2.2h-7.9v-1.6l4.1-5.5h-4v-2.2h7.6v1.6L138.5,166.5z"/>
	<path class="st1" d="M149.5,168.7c-0.1-0.2-0.2-0.4-0.3-0.7c-0.1-0.2-0.1-0.5-0.2-0.8c-0.3,0.5-0.6,0.9-0.9,1.2s-0.9,0.4-1.5,0.4
		c-1,0-1.7-0.3-2.3-0.8c-0.5-0.5-0.8-1.2-0.8-2.1c0-0.9,0.3-1.6,1-2.1c0.7-0.5,1.7-0.8,3.2-0.8h1.2v-0.7c0-0.4-0.1-0.7-0.3-0.9
		c-0.2-0.2-0.5-0.3-0.9-0.3c-0.3,0-0.6,0.1-0.8,0.2s-0.2,0.4-0.2,0.7l-2.8,0l0-0.1c0-0.8,0.3-1.6,1.1-2.1c0.7-0.6,1.7-0.9,3-0.9
		c1.2,0,2.1,0.3,2.8,0.9c0.7,0.6,1.1,1.4,1.1,2.5v3.5c0,0.5,0,1,0.1,1.4c0.1,0.4,0.2,0.8,0.4,1.3L149.5,168.7z M147.4,166.8
		c0.4,0,0.7-0.1,0.9-0.2s0.5-0.4,0.6-0.6v-1.2h-1.2c-0.5,0-0.8,0.1-1,0.3c-0.2,0.2-0.3,0.5-0.3,0.9c0,0.3,0.1,0.5,0.3,0.6
		S147.2,166.8,147.4,166.8z"/>
	<path class="st1" d="M158.5,168.7v-7.3h-1.3v-2h1.3v-1c0-1.1,0.3-1.9,1-2.5s1.6-0.9,2.7-0.9c0.2,0,0.4,0,0.7,0
		c0.2,0,0.5,0.1,0.8,0.1l-0.2,2.1c-0.2,0-0.3-0.1-0.4-0.1s-0.3,0-0.4,0c-0.4,0-0.6,0.1-0.8,0.3c-0.2,0.2-0.3,0.5-0.3,0.8v1h1.8v2
		h-1.8v7.3H158.5z"/>
	<path class="st1" d="M169.8,167.3c-0.3,0.5-0.6,0.9-1.1,1.2c-0.4,0.3-0.9,0.4-1.5,0.4c-1,0-1.7-0.3-2.3-1c-0.5-0.7-0.8-1.7-0.8-3.1
		v-5.3h2.9v5.4c0,0.7,0.1,1.2,0.3,1.5c0.2,0.3,0.5,0.4,0.9,0.4c0.3,0,0.6,0,0.8-0.1c0.2-0.1,0.4-0.2,0.6-0.4v-6.7h2.9v9.3h-2.3
		L169.8,167.3z"/>
	<path class="st1" d="M179.2,161.9l-0.9,0c-0.3,0-0.6,0.1-0.8,0.2c-0.2,0.1-0.4,0.3-0.5,0.5v6.1h-2.9v-9.3h2.7l0.1,1.4
		c0.2-0.5,0.5-0.9,0.8-1.1c0.3-0.3,0.7-0.4,1.1-0.4c0.1,0,0.2,0,0.4,0c0.1,0,0.2,0,0.3,0.1L179.2,161.9z"/>
	<path class="st1" d="M183.8,157.1v2.3h1.5v2h-1.5v4.3c0,0.3,0.1,0.6,0.2,0.7c0.1,0.1,0.3,0.2,0.5,0.2c0.1,0,0.3,0,0.4,0
		c0.1,0,0.2,0,0.3-0.1l0.2,2.2c-0.3,0.1-0.6,0.1-0.8,0.2s-0.5,0-0.8,0c-1,0-1.7-0.3-2.2-0.8c-0.5-0.5-0.7-1.3-0.7-2.4v-4.3h-1.3v-2
		h1.3v-2.3H183.8z"/>
	<path class="st1" d="M189.7,157.2h-2.9v-2h2.9V157.2z M189.7,168.7h-2.9v-9.3h2.9V168.7z"/>
	<path class="st1" d="M195,164.9l0.2,1l0.1,0l0.2-1l1.2-5.5h3.1l-3,9.3h-3l-3-9.3h3.1L195,164.9z"/>
	<path class="st1" d="M205.8,168.7c-0.1-0.2-0.2-0.4-0.3-0.7s-0.1-0.5-0.2-0.8c-0.3,0.5-0.6,0.9-0.9,1.2s-0.9,0.4-1.5,0.4
		c-1,0-1.7-0.3-2.3-0.8s-0.8-1.2-0.8-2.1c0-0.9,0.3-1.6,1-2.1c0.7-0.5,1.7-0.8,3.2-0.8h1.2v-0.7c0-0.4-0.1-0.7-0.3-0.9
		c-0.2-0.2-0.5-0.3-0.9-0.3c-0.3,0-0.6,0.1-0.8,0.2c-0.2,0.2-0.2,0.4-0.2,0.7l-2.8,0l0-0.1c0-0.8,0.3-1.6,1.1-2.1s1.7-0.9,3-0.9
		c1.2,0,2.1,0.3,2.8,0.9c0.7,0.6,1.1,1.4,1.1,2.5v3.5c0,0.5,0,1,0.1,1.4c0.1,0.4,0.2,0.8,0.4,1.3L205.8,168.7z M203.8,166.8
		c0.4,0,0.7-0.1,0.9-0.2s0.5-0.4,0.6-0.6v-1.2h-1.2c-0.5,0-0.8,0.1-1,0.3c-0.2,0.2-0.3,0.5-0.3,0.9c0,0.3,0.1,0.5,0.3,0.6
		S203.5,166.8,203.8,166.8z"/>
</g>
<path class="st2" d="M232.1,282.2H94.8c-7.4,0-13.6-6.1-13.6-13.6l0,0c0-7.4,6.1-13.6,13.6-13.6h137.4c7.4,0,13.6,6.1,13.6,13.6l0,0
	C245.7,276.1,239.6,282.2,232.1,282.2z"/>
<g class="st3">
	<path class="st1" d="M128.2,270.2v4.3h-2.9v-12.5h4.8c1.5,0,2.7,0.4,3.5,1.1s1.3,1.8,1.3,3c0,1.2-0.4,2.2-1.3,3
		c-0.9,0.8-2.1,1.1-3.5,1.1H128.2z M128.2,267.9h1.9c0.6,0,1.1-0.2,1.4-0.5c0.3-0.3,0.5-0.8,0.5-1.3c0-0.6-0.2-1-0.5-1.4
		c-0.3-0.4-0.8-0.5-1.5-0.5h-1.9V267.9z"/>
	<path class="st1" d="M135.9,269.7c0-1.4,0.4-2.5,1.2-3.4c0.8-0.9,1.9-1.3,3.3-1.3c1.4,0,2.5,0.4,3.3,1.3c0.8,0.9,1.2,2,1.2,3.4v0.2
		c0,1.4-0.4,2.5-1.2,3.4s-1.9,1.3-3.3,1.3c-1.4,0-2.5-0.4-3.3-1.3c-0.8-0.9-1.2-2-1.2-3.4V269.7z M138.8,269.9
		c0,0.8,0.1,1.4,0.4,1.8c0.2,0.4,0.7,0.7,1.2,0.7c0.6,0,1-0.2,1.2-0.7s0.4-1.1,0.4-1.8v-0.2c0-0.8-0.1-1.4-0.4-1.8s-0.7-0.7-1.2-0.7
		c-0.6,0-1,0.2-1.2,0.7c-0.2,0.5-0.4,1.1-0.4,1.8V269.9z"/>
	<path class="st1" d="M151.5,274.4c-0.1-0.2-0.2-0.4-0.3-0.7c-0.1-0.2-0.1-0.5-0.2-0.8c-0.3,0.5-0.6,0.9-0.9,1.2
		c-0.4,0.3-0.9,0.4-1.5,0.4c-1,0-1.7-0.3-2.3-0.8c-0.5-0.5-0.8-1.2-0.8-2.1c0-0.9,0.3-1.6,1-2.1s1.7-0.8,3.2-0.8h1.2v-0.7
		c0-0.4-0.1-0.7-0.3-0.9c-0.2-0.2-0.5-0.3-0.9-0.3c-0.3,0-0.6,0.1-0.8,0.2s-0.2,0.4-0.2,0.7l-2.8,0l0-0.1c0-0.8,0.3-1.6,1.1-2.1
		c0.7-0.6,1.7-0.9,3-0.9c1.2,0,2.1,0.3,2.8,0.9c0.7,0.6,1.1,1.4,1.1,2.5v3.5c0,0.5,0,1,0.1,1.4c0.1,0.4,0.2,0.8,0.4,1.3L151.5,274.4
		z M149.5,272.6c0.4,0,0.7-0.1,0.9-0.2c0.3-0.2,0.5-0.4,0.6-0.6v-1.2h-1.2c-0.5,0-0.8,0.1-1,0.3c-0.2,0.2-0.3,0.5-0.3,0.9
		c0,0.3,0.1,0.5,0.3,0.6C149,272.5,149.2,272.6,149.5,272.6z"/>
	<path class="st1" d="M159.5,272.4c0.4,0,0.7-0.1,0.9-0.3c0.2-0.2,0.3-0.5,0.3-0.9h2.7l0,0.1c0,1-0.3,1.8-1.1,2.5
		c-0.7,0.6-1.7,1-2.8,1c-1.4,0-2.5-0.4-3.3-1.3c-0.8-0.9-1.1-2-1.1-3.4v-0.2c0-1.4,0.4-2.5,1.1-3.4c0.8-0.9,1.9-1.3,3.3-1.3
		c1.2,0,2.1,0.3,2.8,1s1.1,1.6,1,2.7l0,0.1h-2.7c0-0.4-0.1-0.8-0.3-1.1c-0.2-0.3-0.5-0.4-0.9-0.4c-0.6,0-1,0.2-1.2,0.7
		s-0.3,1.1-0.3,1.8v0.2c0,0.8,0.1,1.4,0.3,1.8S158.9,272.4,159.5,272.4z"/>
	<path class="st1" d="M167.4,266.3c0.3-0.4,0.6-0.7,1-1c0.4-0.2,0.9-0.3,1.3-0.3c1,0,1.7,0.3,2.3,1c0.6,0.7,0.8,1.7,0.8,3.1v5.4
		h-2.9v-5.4c0-0.7-0.1-1.2-0.3-1.5c-0.2-0.3-0.5-0.4-0.8-0.4c-0.3,0-0.6,0-0.9,0.1c-0.2,0.1-0.4,0.2-0.6,0.4v6.7h-2.9V261h2.9V266.3
		z"/>
	<path class="st1" d="M177.5,263h-2.9v-2h2.9V263z M177.5,274.5h-2.9v-9.3h2.9V274.5z"/>
	<path class="st1" d="M181.9,265.1l0.1,1.3c0.3-0.5,0.7-0.8,1.1-1.1c0.4-0.3,0.9-0.4,1.5-0.4c0.9,0,1.6,0.3,2.1,0.9
		c0.5,0.6,0.8,1.6,0.8,3v5.6h-2.9v-5.6c0-0.6-0.1-1-0.3-1.3c-0.2-0.2-0.5-0.4-0.8-0.4c-0.3,0-0.6,0.1-0.8,0.2
		c-0.2,0.1-0.5,0.3-0.6,0.5v6.6h-2.9v-9.3H181.9z"/>
	<path class="st1" d="M188.8,269.8c0-1.5,0.3-2.6,1-3.5c0.6-0.9,1.5-1.3,2.7-1.3c0.5,0,0.9,0.1,1.3,0.3c0.4,0.2,0.7,0.6,1,1l0.2-1.2
		h2.6v9.2c0,1.2-0.4,2.2-1.3,2.9c-0.8,0.7-2,1-3.5,1c-0.5,0-1-0.1-1.5-0.2c-0.5-0.1-1-0.3-1.5-0.5l0.5-2.2c0.4,0.2,0.8,0.3,1.2,0.4
		c0.4,0.1,0.8,0.1,1.3,0.1c0.6,0,1.1-0.1,1.4-0.4c0.3-0.2,0.5-0.6,0.5-1.2v-0.7c-0.3,0.3-0.6,0.6-0.9,0.8c-0.3,0.2-0.7,0.3-1.2,0.3
		c-1.1,0-2-0.4-2.7-1.3c-0.6-0.8-0.9-2-0.9-3.4V269.8z M191.7,270c0,0.8,0.1,1.3,0.3,1.8s0.6,0.6,1.1,0.6c0.3,0,0.6,0,0.8-0.1
		s0.4-0.2,0.6-0.4v-3.9c-0.1-0.2-0.3-0.4-0.6-0.5c-0.2-0.1-0.5-0.2-0.8-0.2c-0.5,0-0.9,0.2-1.1,0.7s-0.3,1.1-0.3,1.9V270z"/>
</g>
</svg>
