<?xml version="1.0" encoding="utf-8"?>
<!-- Generator: Adobe Illustrator 25.3.1, SVG Export Plug-In . SVG Version: 6.00 Build 0)  -->
<svg version="1.1" id="mapa-1" xmlns="http://www.w3.org/2000/svg" xmlns:xlink="http://www.w3.org/1999/xlink" x="0px" y="0px"
	 viewBox="0 0 796.4 149" style="enable-background:new 0 0 796.4 149;" xml:space="preserve">
<style type="text/css">
	.st0{fill:none;stroke:#95C11F;stroke-width:2.2366;stroke-linecap:round;stroke-miterlimit:10;}
	.st1{fill:#006633;}
	.st2{fill:#FFFFFF;}
	.st3{font-family:'Roboto', sans-serif;}
	.st4{font-size:16px;}
	.st5{fill:none;}
	.st6{enable-background:new    ;}
	.st7{fill:#1E1E1C;}
	.st8{font-family:'Roboto-Regular', sans-serif;}
</style>
<g id="linea">
	<line class="st0" x1="154.4" y1="55.2" x2="705.9" y2="55.2"/>
</g>
<g id="cajas">
	<path class="st1" d="M205,71.5H34.2c-7.9,0-14.4-6.5-14.4-14.4v-2c0-7.9,6.5-14.4,14.4-14.4h170.9c7.9,0,14.4,6.5,14.4,14.4v2
		C219.4,65,212.9,71.5,205,71.5z"/>
	<path class="st1" d="M475.9,71.5H320.1c-8.4,0-15.4-6.9-15.4-15.4l0,0c0-8.4,6.9-15.4,15.4-15.4H476c8.4,0,15.4,6.9,15.4,15.4l0,0
		C491.2,64.6,484.4,71.5,475.9,71.5z"/>
	<path class="st1" d="M754.9,71.5H599.1c-8.4,0-15.4-6.9-15.4-15.4l0,0c0-8.4,6.9-15.4,15.4-15.4H755c8.4,0,15.4,6.9,15.4,15.4l0,0
		C770.3,64.6,763.4,71.5,754.9,71.5z"/>
</g>
<g id="Capa_1_1_">
	<text transform="matrix(1 0 0 1 52.3017 62.7209)" class="st2 st3 st4">Pérdida de hábitat </text>
	<rect x="29.4" y="79.4" class="st5" width="182" height="57.6"/>
	<text transform="matrix(1 0 0 1 54.5967 93.0714)" class="st6"><tspan x="0" y="0" class="st7 st8 st4">(tala de bosques e </tspan><tspan x="28.3" y="19.2" class="st7 st8 st4">incendios)</tspan></text>
	<text transform="matrix(1 0 0 1 643.9014 62.7209)" class="st2 st3 st4">Poaching </text>
	<rect x="589.4" y="79.4" class="st5" width="177" height="69.6"/>
	<text transform="matrix(1 0 0 1 604.5537 93.0714)" class="st6"><tspan x="0" y="0" class="st7 st8 st4">(caza para consumo </tspan><tspan x="41.1" y="19.2" class="st7 st8 st4">humano)</tspan></text>
	<text transform="matrix(1 0 0 1 355.5644 62.7209)" class="st2 st3 st4">Caza furtiva </text>
	<rect x="304.7" y="79.4" class="st5" width="186.7" height="69.6"/>
	<text transform="matrix(1 0 0 1 326.852 93.0714)" class="st6"><tspan x="0" y="0" class="st7 st8 st4">(tráfico de animales </tspan><tspan x="38.1" y="19.2" class="st7 st8 st4">exóticos)</tspan></text>
</g>
</svg>
