<?xml version="1.0" encoding="utf-8"?>
<!-- Generator: Adobe Illustrator 25.3.1, SVG Export Plug-In . SVG Version: 6.00 Build 0)  -->
<svg version="1.1" id="mapa-1" xmlns="http://www.w3.org/2000/svg" xmlns:xlink="http://www.w3.org/1999/xlink" x="0px" y="0px"
	 viewBox="0 0 325.9 269" style="enable-background:new 0 0 325.9 269;" xml:space="preserve">
<style type="text/css">
	.st0{fill:none;stroke:#95C11F;stroke-width:1.5748;stroke-linecap:round;stroke-miterlimit:10;}
	.st1{fill:#FFFFFF;}
	.st2{fill:#006633;}
	.st3{enable-background:new    ;}
	.st4{fill:#1E1E1C;}
</style>
<line class="st0" x1="163.5" y1="132.7" x2="163.5" y2="195.6"/>
<rect x="71.3" y="138.4" class="st1" width="184.3" height="20.4"/>
<line class="st0" x1="163.5" y1="57.3" x2="163.5" y2="111.1"/>
<rect x="71.3" y="63.8" class="st1" width="184.3" height="20.4"/>
<path class="st2" d="M223.6,59.5H103.3c-5.6,0-10.1-4.6-10.1-10.1v-1.4c0-5.6,4.6-10.1,10.1-10.1h120.3c5.6,0,10.1,4.6,10.1,10.1
	v1.4C233.7,54.9,229.2,59.5,223.6,59.5z"/>
<g class="st3">
	<path class="st1" d="M107.3,49.9v3.4H105v-10h3.8c1.2,0,2.2,0.3,2.8,0.9c0.6,0.6,1,1.4,1,2.4s-0.3,1.8-1,2.4
		c-0.7,0.6-1.7,0.9-2.8,0.9H107.3z M107.3,48.1h1.4c0.5,0,0.9-0.2,1.1-0.4s0.4-0.6,0.4-1c0-0.5-0.2-0.8-0.4-1.1
		c-0.2-0.3-0.6-0.4-1.2-0.4h-1.5v3H107.3z"/>
	<path class="st1" d="M117,53.5c-1.1,0-2-0.3-2.6-1s-1-1.5-1-2.6v-0.2c0-1.1,0.3-2.1,0.9-2.8c0.6-0.7,1.4-1,2.6-1
		c1,0,1.8,0.3,2.3,0.9c0.6,0.6,0.8,1.4,0.8,2.5v1.2h-4.2v0.1c0,0.4,0.2,0.7,0.4,1c0.2,0.2,0.6,0.4,1.1,0.4s0.8,0,1.1-0.1
		s0.6-0.2,1-0.3l0.6,1.4c-0.3,0.2-0.7,0.4-1.3,0.6C118.2,53.4,117.6,53.5,117,53.5z M117.1,42.7h2.6v0.1l-1.9,1.8h-2.1L117.1,42.7z
		 M116.9,47.5c-0.4,0-0.6,0.1-0.8,0.3s-0.2,0.6-0.3,1l0,0h2v-0.2c0-0.4-0.1-0.6-0.2-0.9C117.5,47.6,117.2,47.5,116.9,47.5z"/>
	<path class="st1" d="M125.2,47.9h-0.7c-0.2,0-0.5,0.1-0.6,0.2s-0.3,0.2-0.4,0.4v4.9h-2.3v-7.4h2.2l0.1,1.1c0.2-0.4,0.4-0.7,0.6-0.9
		c0.2-0.2,0.6-0.3,0.9-0.3c0.1,0,0.2,0,0.3,0c0.1,0,0.2,0,0.2,0.1L125.2,47.9z"/>
	<path class="st1" d="M125.6,49.6c0-1.2,0.2-2.1,0.8-2.8c0.5-0.7,1.2-1,2.2-1c0.3,0,0.6,0.1,1,0.2c0.2,0.2,0.6,0.4,0.7,0.6v-4.1h2.3
		v10.7h-2l-0.2-0.9c-0.2,0.3-0.5,0.6-0.8,0.8c-0.3,0.2-0.6,0.2-1,0.2c-0.9,0-1.6-0.3-2.2-1C125.9,51.8,125.7,50.8,125.6,49.6
		L125.6,49.6L125.6,49.6z M127.9,49.8c0,0.6,0.1,1,0.2,1.4c0.2,0.3,0.5,0.5,0.9,0.5c0.2,0,0.5-0.1,0.6-0.2s0.3-0.2,0.5-0.4v-3
		c-0.1-0.2-0.2-0.3-0.5-0.5c-0.2-0.1-0.4-0.2-0.6-0.2c-0.4,0-0.7,0.2-0.9,0.6c-0.2,0.4-0.2,0.9-0.2,1.5V49.8z"/>
	<path class="st1" d="M136.2,44.2h-2.3v-1.6h2.3V44.2z M136.2,53.3h-2.3v-7.4h2.3V53.3z"/>
	<path class="st1" d="M137.4,49.6c0-1.2,0.2-2.1,0.8-2.8c0.5-0.7,1.2-1,2.2-1c0.3,0,0.6,0.1,1,0.2c0.2,0.2,0.6,0.4,0.7,0.6v-4.1h2.3
		v10.7h-2l-0.2-0.9c-0.2,0.3-0.5,0.6-0.8,0.8c-0.3,0.2-0.6,0.2-1,0.2c-0.9,0-1.6-0.3-2.2-1C137.7,51.8,137.4,50.8,137.4,49.6
		L137.4,49.6L137.4,49.6z M139.7,49.8c0,0.6,0.1,1,0.2,1.4c0.2,0.3,0.5,0.5,0.9,0.5c0.2,0,0.5-0.1,0.6-0.2s0.3-0.2,0.5-0.4v-3
		c-0.1-0.2-0.2-0.3-0.5-0.5c-0.2-0.1-0.4-0.2-0.6-0.2c-0.4,0-0.7,0.2-0.9,0.6c-0.2,0.4-0.2,0.9-0.2,1.5V49.8z"/>
	<path class="st1" d="M149.9,53.3c-0.1-0.2-0.2-0.3-0.2-0.6c-0.1-0.2-0.1-0.4-0.2-0.6c-0.2,0.4-0.5,0.7-0.7,1
		c-0.2,0.2-0.7,0.3-1.2,0.3c-0.8,0-1.4-0.2-1.8-0.6c-0.4-0.4-0.6-1-0.6-1.7c0-0.7,0.2-1.3,0.8-1.7c0.6-0.4,1.4-0.6,2.6-0.6h1v-0.6
		c0-0.3-0.1-0.6-0.2-0.7c-0.2-0.2-0.4-0.2-0.7-0.2c-0.2,0-0.5,0.1-0.6,0.2s-0.2,0.3-0.2,0.6h-2.2v-0.1c0-0.6,0.2-1.3,0.9-1.7
		c0.6-0.5,1.4-0.7,2.4-0.7c1,0,1.7,0.2,2.2,0.7c0.6,0.5,0.9,1.1,0.9,2V51c0,0.4,0,0.8,0.1,1.1s0.2,0.6,0.3,1L149.9,53.3z
		 M148.2,51.8c0.3,0,0.6-0.1,0.7-0.2c0.2-0.1,0.4-0.3,0.5-0.5v-1h-1c-0.4,0-0.6,0.1-0.8,0.2c-0.2,0.2-0.2,0.4-0.2,0.7
		c0,0.2,0.1,0.4,0.2,0.5C147.8,51.7,148.1,51.8,148.2,51.8z"/>
	<path class="st1" d="M156.3,49.6c0-1.2,0.2-2.1,0.8-2.8c0.5-0.7,1.2-1,2.2-1c0.3,0,0.6,0.1,1,0.2c0.2,0.2,0.6,0.4,0.7,0.6v-4.1h2.3
		v10.7h-2l-0.2-0.9c-0.2,0.3-0.5,0.6-0.8,0.8c-0.3,0.2-0.6,0.2-1,0.2c-0.9,0-1.6-0.3-2.2-1C156.6,51.8,156.4,50.8,156.3,49.6
		L156.3,49.6L156.3,49.6z M158.6,49.8c0,0.6,0.1,1,0.2,1.4c0.2,0.3,0.5,0.5,0.9,0.5c0.2,0,0.5-0.1,0.6-0.2s0.3-0.2,0.5-0.4v-3
		c-0.1-0.2-0.2-0.3-0.5-0.5c-0.2-0.1-0.4-0.2-0.6-0.2c-0.4,0-0.7,0.2-0.9,0.6c-0.2,0.4-0.2,0.9-0.2,1.5V49.8z"/>
	<path class="st1" d="M167.8,53.5c-1.1,0-2-0.3-2.6-1c-0.6-0.7-1-1.5-1-2.6v-0.2c0-1.1,0.3-2.1,0.9-2.8c0.6-0.7,1.4-1,2.6-1
		c1,0,1.8,0.3,2.3,0.9c0.6,0.6,0.8,1.4,0.8,2.5v1.2h-4.2v0.1c0,0.4,0.2,0.7,0.4,1c0.2,0.2,0.6,0.4,1.1,0.4c0.5,0,0.8,0,1.1-0.1
		c0.3-0.1,0.6-0.2,1-0.3l0.6,1.4c-0.3,0.2-0.7,0.4-1.3,0.6C168.9,53.4,168.4,53.5,167.8,53.5z M167.7,47.5c-0.4,0-0.6,0.1-0.8,0.3
		s-0.2,0.6-0.3,1l0,0h2v-0.2c0-0.4-0.1-0.6-0.2-0.9C168.2,47.5,168,47.5,167.7,47.5z"/>
	<path class="st1" d="M177.6,46.8c0.2-0.3,0.5-0.6,0.8-0.8c0.3-0.2,0.7-0.2,1-0.2c0.8,0,1.4,0.2,1.8,0.8s0.6,1.4,0.6,2.5v4.2h-2.3
		V49c0-0.6-0.1-1-0.2-1.2s-0.4-0.3-0.6-0.3s-0.5,0-0.7,0.1c-0.2,0.1-0.3,0.2-0.5,0.3v5.4h-2.3V42.6h2.3L177.6,46.8L177.6,46.8z"/>
	<path class="st1" d="M187.5,53.3c-0.1-0.2-0.2-0.3-0.2-0.6c-0.1-0.2-0.1-0.4-0.2-0.6c-0.2,0.4-0.5,0.7-0.7,1
		c-0.2,0.2-0.7,0.3-1.2,0.3c-0.8,0-1.4-0.2-1.8-0.6c-0.5-0.4-0.6-1-0.6-1.7c0-0.7,0.2-1.3,0.8-1.7c0.6-0.4,1.4-0.6,2.6-0.6h1v-0.6
		c0-0.3-0.1-0.6-0.2-0.7c-0.2-0.2-0.4-0.2-0.7-0.2c-0.2,0-0.5,0.1-0.6,0.2c-0.2,0.2-0.2,0.3-0.2,0.6h-2.2v-0.1
		c0-0.6,0.2-1.3,0.9-1.7c0.6-0.4,1.4-0.7,2.4-0.7c1,0,1.7,0.2,2.2,0.7c0.6,0.5,0.9,1.1,0.9,2V51c0,0.4,0,0.8,0.1,1.1s0.2,0.6,0.3,1
		L187.5,53.3z M185.9,51.8c0.3,0,0.6-0.1,0.7-0.2s0.4-0.3,0.5-0.5v-1h-1c-0.4,0-0.6,0.1-0.8,0.2c-0.2,0.2-0.2,0.4-0.2,0.7
		c0,0.2,0.1,0.4,0.2,0.5C185.5,51.7,185.7,51.8,185.9,51.8z M186.6,42.7h2.6v0.1l-1.9,1.8h-2.1L186.6,42.7z"/>
	<path class="st1" d="M197.6,49.8c0,1.1-0.2,2-0.7,2.7c-0.5,0.7-1.2,1-2.2,1c-0.4,0-0.7-0.1-1-0.2c-0.3-0.2-0.6-0.4-0.8-0.7
		l-0.2,0.9h-2V42.6h2.3v4c0.2-0.2,0.5-0.5,0.7-0.6c0.2-0.2,0.6-0.2,1-0.2c1,0,1.7,0.3,2.2,1c0.5,0.7,0.7,1.7,0.7,2.8V49.8
		L197.6,49.8z M195.3,49.6c0-0.6-0.1-1.2-0.2-1.5c-0.2-0.4-0.5-0.6-1-0.6c-0.2,0-0.5,0.1-0.6,0.2s-0.3,0.2-0.4,0.4v3.1
		c0.1,0.2,0.2,0.2,0.4,0.3s0.4,0.1,0.6,0.1c0.5,0,0.8-0.2,1-0.5C195.2,50.8,195.3,50.3,195.3,49.6L195.3,49.6z"/>
	<path class="st1" d="M201.1,44.2h-2.3v-1.6h2.3V44.2z M201.1,53.3h-2.3v-7.4h2.3V53.3z"/>
	<path class="st1" d="M205.2,44v1.8h1.2v1.6h-1.2v3.4c0,0.2,0.1,0.5,0.2,0.6c0.1,0.1,0.2,0.2,0.4,0.2c0.1,0,0.2,0,0.3,0
		c0.1,0,0.2,0,0.2-0.1l0.2,1.8c-0.2,0.1-0.5,0.1-0.6,0.2c-0.2,0.1-0.4,0-0.6,0c-0.8,0-1.4-0.2-1.8-0.6c-0.4-0.4-0.6-1-0.6-1.9v-3.4
		h-1v-1.6h1V44L205.2,44L205.2,44z"/>
	<path class="st1" d="M211.7,53.3c-0.1-0.2-0.2-0.3-0.2-0.6c-0.1-0.2-0.1-0.4-0.2-0.6c-0.2,0.4-0.5,0.7-0.7,1
		c-0.2,0.2-0.7,0.3-1.2,0.3c-0.8,0-1.4-0.2-1.8-0.6c-0.5-0.4-0.6-1-0.6-1.7c0-0.7,0.2-1.3,0.8-1.7c0.6-0.4,1.4-0.6,2.6-0.6h1v-0.6
		c0-0.3-0.1-0.6-0.2-0.7c-0.2-0.2-0.4-0.2-0.7-0.2c-0.2,0-0.5,0.1-0.6,0.2c-0.2,0.2-0.2,0.3-0.2,0.6h-2.2v-0.1
		c0-0.6,0.2-1.3,0.9-1.7c0.6-0.4,1.4-0.7,2.4-0.7c1,0,1.7,0.2,2.2,0.7c0.6,0.5,0.9,1.1,0.9,2V51c0,0.4,0,0.8,0.1,1.1s0.2,0.6,0.3,1
		L211.7,53.3z M210.1,51.8c0.3,0,0.6-0.1,0.7-0.2s0.4-0.3,0.5-0.5v-1h-1c-0.4,0-0.6,0.1-0.8,0.2c-0.2,0.2-0.2,0.4-0.2,0.7
		c0,0.2,0.1,0.4,0.2,0.5C209.7,51.7,209.9,51.8,210.1,51.8z"/>
	<path class="st1" d="M217.7,44v1.8h1.2v1.6h-1.2v3.4c0,0.2,0.1,0.5,0.2,0.6c0.1,0.1,0.2,0.2,0.4,0.2c0.1,0,0.2,0,0.3,0
		c0.1,0,0.2,0,0.2-0.1l0.2,1.8c-0.2,0.1-0.5,0.1-0.6,0.2c-0.2,0.1-0.4,0-0.6,0c-0.8,0-1.4-0.2-1.8-0.6c-0.4-0.4-0.6-1-0.6-1.9v-3.4
		h-1.1v-1.6h1V44L217.7,44L217.7,44z"/>
</g>
<g class="st3">
	<path class="st4" d="M71.8,73c0-1.8,0.4-3.4,1.1-4.6c0.7-1.3,1.5-2.2,2.3-2.6h0.1l0.2,0.8c-0.6,0.5-1.2,1.3-1.7,2.4
		c-0.5,1.1-0.7,2.4-0.7,4v0.1c0,1.6,0.2,3,0.7,4c0.5,1.1,1,1.9,1.7,2.4l-0.2,0.7h-0.1c-0.8-0.4-1.6-1.3-2.3-2.6
		C72.1,76.5,71.8,74.9,71.8,73L71.8,73z"/>
	<path class="st4" d="M78.4,67.8v1.8h1.4v1h-1.4v4.6c0,0.3,0.1,0.6,0.2,0.7c0.2,0.2,0.3,0.2,0.6,0.2c0.1,0,0.2,0,0.2,0
		s0.2-0.1,0.2-0.1l0.2,1c-0.1,0.1-0.2,0.2-0.5,0.2c-0.2,0.1-0.4,0.1-0.6,0.1c-0.6,0-1-0.2-1.3-0.5C77.2,76.5,77,76,77,75.3v-4.6
		h-1.2v-1H77v-1.8L78.4,67.8L78.4,67.8z"/>
	<path class="st4" d="M85.8,77.1c-0.1-0.2-0.1-0.4-0.1-0.6s-0.1-0.3-0.1-0.5c-0.2,0.3-0.6,0.6-1,0.9s-0.9,0.4-1.3,0.4
		c-0.8,0-1.4-0.2-1.8-0.6s-0.6-1-0.6-1.7c0-0.7,0.3-1.3,0.9-1.7c0.6-0.4,1.4-0.6,2.3-0.6h1.4v-0.7c0-0.4-0.2-0.8-0.4-1
		s-0.6-0.4-1.1-0.4c-0.5,0-0.8,0.1-1,0.3c-0.2,0.2-0.4,0.5-0.4,0.8h-1.3v-0.1c0-0.6,0.2-1,0.8-1.5s1.2-0.6,2.1-0.6
		c0.9,0,1.5,0.2,2,0.6c0.5,0.4,0.8,1,0.8,1.8v3.6c0,0.2,0,0.6,0.1,0.8c0,0.2,0.1,0.5,0.2,0.7C87.4,77.1,85.8,77.1,85.8,77.1z
		 M83.6,76.1c0.5,0,1-0.2,1.4-0.4c0.4-0.2,0.6-0.6,0.8-0.9v-1.2h-1.5c-0.6,0-1,0.2-1.3,0.4c-0.3,0.2-0.5,0.6-0.5,1
		c0,0.3,0.1,0.6,0.3,0.8C82.9,76,83.2,76.1,83.6,76.1z"/>
	<path class="st4" d="M90.5,77.1h-1.4V66.4h1.4V77.1z"/>
	<path class="st4" d="M97.1,77.1C97,76.9,97,76.7,97,76.5s-0.1-0.3-0.1-0.5c-0.2,0.3-0.6,0.6-1,0.9c-0.4,0.2-0.9,0.4-1.3,0.4
		c-0.8,0-1.4-0.2-1.8-0.6s-0.6-1-0.6-1.7c0-0.7,0.3-1.3,0.9-1.7c0.6-0.4,1.4-0.6,2.3-0.6h1.4v-0.7c0-0.4-0.2-0.8-0.4-1
		s-0.6-0.4-1.1-0.4c-0.5,0-0.8,0.1-1,0.3S94,71.4,94,71.8h-1.3v-0.1c0-0.6,0.2-1,0.8-1.5c0.6-0.5,1.2-0.6,2.1-0.6
		c0.9,0,1.5,0.2,2,0.6c0.5,0.4,0.8,1,0.8,1.8v3.6c0,0.2,0,0.6,0.1,0.8c0,0.2,0.1,0.5,0.2,0.7C98.6,77.1,97.1,77.1,97.1,77.1z
		 M94.9,76.1c0.5,0,1-0.2,1.4-0.4s0.6-0.6,0.8-0.9v-1.2h-1.5c-0.6,0-1,0.2-1.3,0.4s-0.5,0.6-0.5,1c0,0.3,0.1,0.6,0.3,0.8
		C94.1,76,94.5,76.1,94.9,76.1z"/>
	<path class="st4" d="M103.5,73.5c0-1.2,0.2-2.2,0.8-2.9c0.5-0.7,1.2-1.1,2.2-1.1c0.4,0,0.8,0.1,1.2,0.2c0.3,0.2,0.6,0.4,0.9,0.7
		v-4.1h1.4v10.7h-1l-0.2-1c-0.2,0.3-0.6,0.6-0.9,0.8s-0.8,0.2-1.3,0.2c-0.9,0-1.6-0.3-2.2-1c-0.5-0.6-0.8-1.5-0.8-2.6
		C103.5,73.7,103.5,73.5,103.5,73.5z M104.9,73.7c0,0.7,0.2,1.4,0.5,1.8c0.3,0.5,0.8,0.6,1.4,0.6c0.4,0,0.7-0.1,1-0.2
		c0.3-0.2,0.5-0.5,0.6-0.8v-3.4c-0.2-0.3-0.4-0.6-0.6-0.7c-0.2-0.2-0.6-0.2-1-0.2c-0.6,0-1.1,0.2-1.4,0.8
		C105,72.1,104.9,72.7,104.9,73.7L104.9,73.7z"/>
	<path class="st4" d="M114.8,77.3c-1,0-1.9-0.3-2.5-1c-0.6-0.7-0.9-1.6-0.9-2.7v-0.3c0-1,0.3-1.9,1-2.6c0.6-0.7,1.4-1,2.2-1
		c1,0,1.8,0.3,2.2,1c0.5,0.6,0.7,1.4,0.7,2.5v0.7h-4.8l0,0c0,0.7,0.2,1.4,0.5,1.8c0.3,0.5,0.8,0.7,1.5,0.7c0.5,0,0.9-0.1,1.2-0.2
		c0.3-0.1,0.6-0.3,0.9-0.6l0.6,0.9c-0.2,0.2-0.6,0.5-1,0.6C116,77.2,115.5,77.3,114.8,77.3z M114.7,70.6c-0.5,0-0.9,0.2-1.2,0.6
		c-0.3,0.4-0.5,0.8-0.6,1.4l0,0h3.4v-0.1c0-0.6-0.2-1-0.4-1.4C115.6,70.8,115.2,70.6,114.7,70.6z"/>
	<path class="st4" d="M129,73.7c0,1-0.2,1.9-0.8,2.6c-0.6,0.6-1.2,1-2.2,1c-0.5,0-1-0.1-1.3-0.3c-0.4-0.2-0.6-0.5-0.9-0.9l-0.2,1h-1
		V66.4h1.4v4.2c0.2-0.3,0.6-0.6,0.9-0.7s0.7-0.2,1.2-0.2c0.9,0,1.6,0.4,2.2,1.1C128.7,71.4,129,72.4,129,73.7
		C129,73.6,129,73.7,129,73.7z M127.6,73.5c0-0.9-0.2-1.5-0.5-2.1c-0.3-0.6-0.8-0.8-1.4-0.8c-0.4,0-0.8,0.1-1,0.3
		c-0.3,0.2-0.5,0.5-0.7,0.8v3.2c0.2,0.4,0.4,0.6,0.7,0.9s0.6,0.3,1,0.3c0.6,0,1.1-0.2,1.4-0.7C127.5,74.9,127.6,74.4,127.6,73.5
		L127.6,73.5z"/>
	<path class="st4" d="M130.3,73.3c0-1.1,0.3-2,0.9-2.7c0.6-0.7,1.4-1,2.4-1c1,0,1.8,0.3,2.5,1c0.6,0.7,0.9,1.6,0.9,2.7v0.2
		c0,1.1-0.3,2-0.9,2.7c-0.6,0.7-1.4,1-2.4,1c-1,0-1.8-0.3-2.5-1c-0.6-0.7-0.9-1.6-0.9-2.7V73.3z M131.7,73.4c0,0.8,0.2,1.4,0.5,1.9
		c0.3,0.5,0.8,0.8,1.5,0.8c0.6,0,1.1-0.2,1.4-0.8c0.3-0.5,0.5-1.2,0.5-1.9v-0.2c0-0.8-0.2-1.4-0.5-1.9c-0.3-0.5-0.8-0.8-1.5-0.8
		c-0.6,0-1.1,0.2-1.4,0.8c-0.3,0.6-0.5,1.2-0.5,1.9V73.4z"/>
	<path class="st4" d="M143,75.1c0-0.3-0.1-0.6-0.3-0.7c-0.2-0.2-0.6-0.3-1.3-0.5c-0.9-0.2-1.5-0.5-2-0.8c-0.5-0.3-0.7-0.8-0.7-1.4
		c0-0.6,0.2-1.1,0.8-1.5c0.5-0.4,1.2-0.6,2-0.6c0.9,0,1.5,0.2,2.1,0.7c0.6,0.5,0.8,1,0.7,1.6V72H143c0-0.3-0.2-0.6-0.4-0.9
		c-0.3-0.2-0.6-0.4-1-0.4c-0.5,0-0.8,0.1-1,0.3s-0.3,0.5-0.3,0.8s0.1,0.6,0.3,0.7c0.2,0.2,0.6,0.3,1.3,0.5c0.9,0.2,1.6,0.5,2.1,0.8
		s0.7,0.8,0.7,1.4c0,0.6-0.2,1.2-0.8,1.6s-1.2,0.6-2.1,0.6c-1,0-1.7-0.2-2.2-0.7s-0.8-1-0.8-1.7v-0.1h1.3c0,0.5,0.2,0.8,0.6,1
		s0.7,0.3,1.2,0.3s0.9-0.1,1.1-0.3S143,75.4,143,75.1z"/>
	<path class="st4" d="M145.8,73.5c0-1.2,0.2-2.2,0.8-2.9c0.5-0.7,1.2-1.1,2.2-1.1c0.5,0,0.9,0.1,1.2,0.2c0.3,0.2,0.6,0.4,0.9,0.7
		l0.2-0.9h1v10.3h-1.4v-3.6c-0.2,0.3-0.6,0.5-0.9,0.6c-0.3,0.2-0.7,0.2-1.1,0.2c-0.9,0-1.6-0.3-2.2-1c-0.5-0.6-0.8-1.5-0.8-2.6
		L145.8,73.5L145.8,73.5z M147,73.7c0,0.7,0.2,1.4,0.5,1.8c0.3,0.5,0.8,0.7,1.4,0.7c0.4,0,0.7-0.1,1-0.2c0.2-0.2,0.5-0.4,0.6-0.7
		v-3.8c-0.2-0.2-0.4-0.5-0.6-0.6c-0.2-0.2-0.6-0.2-1-0.2c-0.6,0-1.1,0.2-1.4,0.8c-0.3,0.6-0.5,1.3-0.5,2.1V73.7z"/>
	<path class="st4" d="M158.8,76c-0.2,0.4-0.6,0.7-0.9,1c-0.4,0.2-0.8,0.3-1.3,0.3c-0.8,0-1.4-0.2-1.9-0.8c-0.5-0.5-0.7-1.4-0.7-2.4
		v-4.4h1.4v4.4c0,0.8,0.1,1.4,0.3,1.6c0.2,0.3,0.6,0.5,1.1,0.5c0.5,0,0.9-0.1,1.2-0.3c0.3-0.2,0.6-0.5,0.7-0.8v-5.4h1.4v7.4h-1.2
		L158.8,76z"/>
	<path class="st4" d="M165.1,77.3c-1,0-1.9-0.3-2.5-1c-0.6-0.7-0.9-1.6-0.9-2.7v-0.3c0-1,0.3-1.9,1-2.6c0.6-0.7,1.4-1,2.2-1
		c1,0,1.8,0.3,2.2,1s0.7,1.4,0.7,2.5v0.7h-4.8l0,0c0,0.7,0.2,1.4,0.5,1.8c0.3,0.5,0.8,0.7,1.5,0.7c0.5,0,0.9-0.1,1.2-0.2
		c0.3-0.2,0.6-0.3,0.9-0.6l0.6,0.9c-0.2,0.2-0.6,0.5-1,0.6C166.3,77.2,165.7,77.3,165.1,77.3z M164.9,70.6c-0.5,0-0.9,0.2-1.2,0.6
		c-0.3,0.4-0.5,0.8-0.6,1.4l0,0h3.4v-0.1c0-0.6-0.2-1-0.4-1.4C165.9,70.7,165.5,70.6,164.9,70.6z"/>
	<path class="st4" d="M173.7,75.1c0-0.3-0.1-0.6-0.3-0.7s-0.6-0.3-1.3-0.5c-0.9-0.2-1.5-0.5-2-0.8c-0.5-0.3-0.7-0.8-0.7-1.4
		c0-0.6,0.2-1.1,0.8-1.5c0.5-0.4,1.2-0.6,2-0.6c0.9,0,1.5,0.2,2.1,0.7s0.8,1,0.7,1.6V72h-1.3c0-0.3-0.2-0.6-0.4-0.9
		c-0.3-0.2-0.6-0.4-1-0.4c-0.5,0-0.8,0.1-1,0.3s-0.3,0.5-0.3,0.8s0.1,0.6,0.3,0.7c0.2,0.2,0.6,0.3,1.3,0.5c0.9,0.2,1.6,0.5,2.1,0.8
		c0.5,0.3,0.7,0.8,0.7,1.4c0,0.6-0.2,1.2-0.8,1.6c-0.6,0.4-1.2,0.6-2.1,0.6c-1,0-1.7-0.2-2.2-0.7c-0.6-0.5-0.8-1-0.8-1.7v-0.1h1.3
		c0,0.5,0.2,0.8,0.6,1s0.7,0.3,1.2,0.3s0.9-0.1,1.1-0.3C173.6,75.7,173.7,75.4,173.7,75.1z"/>
	<path class="st4" d="M183.4,77.3c-1,0-1.9-0.3-2.5-1s-0.9-1.6-0.9-2.7v-0.3c0-1,0.3-1.9,1-2.6c0.6-0.7,1.4-1,2.2-1
		c1,0,1.8,0.3,2.2,1c0.5,0.6,0.7,1.4,0.7,2.5v0.7h-4.8l0,0c0,0.7,0.2,1.4,0.5,1.8c0.3,0.5,0.8,0.7,1.5,0.7c0.5,0,0.9-0.1,1.2-0.2
		c0.3-0.2,0.6-0.3,0.9-0.6l0.6,0.9c-0.2,0.2-0.6,0.5-1,0.6C184.5,77.2,183.9,77.3,183.4,77.3z M183.1,70.6c-0.5,0-0.9,0.2-1.2,0.6
		c-0.3,0.4-0.5,0.8-0.6,1.4l0,0h3.4v-0.1c0-0.6-0.2-1-0.4-1.4C184.1,70.7,183.7,70.6,183.1,70.6z"/>
	<path class="st4" d="M192.6,67.8h-1.4v-1.4h1.4V67.8z M192.6,77.1h-1.4v-7.4h1.4V77.1z"/>
	<path class="st4" d="M195.9,69.7l0.1,1.1c0.2-0.4,0.6-0.7,1-0.9c0.4-0.2,0.8-0.3,1.3-0.3c0.8,0,1.4,0.2,1.8,0.7
		c0.5,0.5,0.6,1.2,0.6,2.2v4.7h-1.4v-4.6c0-0.6-0.2-1.1-0.4-1.4c-0.2-0.2-0.6-0.4-1.2-0.4c-0.4,0-0.8,0.1-1,0.2s-0.6,0.4-0.7,0.7
		v5.5h-1.4v-7.4h1.3V69.7z"/>
	<path class="st4" d="M205.7,76.1c0.4,0,0.8-0.2,1.1-0.4c0.3-0.2,0.5-0.6,0.5-1h1.2v0.1c0,0.6-0.2,1.2-0.8,1.7
		c-0.6,0.5-1.2,0.7-2,0.7c-1,0-1.8-0.3-2.4-1c-0.6-0.7-0.9-1.6-0.9-2.6v-0.2c0-1,0.3-1.9,0.9-2.6c0.6-0.7,1.4-1,2.4-1
		c0.8,0,1.5,0.2,2.1,0.8c0.6,0.5,0.8,1.1,0.8,1.9v0.1h-1.2c0-0.5-0.2-0.9-0.5-1.2c-0.3-0.3-0.6-0.5-1.1-0.5c-0.6,0-1.1,0.2-1.4,0.8
		c-0.3,0.6-0.5,1.1-0.5,1.8v0.3c0,0.7,0.2,1.4,0.5,1.9C204.5,75.9,205,76.1,205.7,76.1z"/>
	<path class="st4" d="M213.2,77.3c-1,0-1.9-0.3-2.5-1s-0.9-1.6-0.9-2.7v-0.3c0-1,0.3-1.9,1-2.6c0.6-0.7,1.4-1,2.2-1
		c1,0,1.8,0.3,2.2,1s0.7,1.4,0.7,2.5v0.7h-4.8l0,0c0,0.7,0.2,1.4,0.5,1.8c0.3,0.5,0.8,0.7,1.5,0.7c0.5,0,0.9-0.1,1.2-0.2
		c0.3-0.2,0.6-0.3,0.9-0.6l0.6,0.9c-0.2,0.2-0.6,0.5-1,0.6C214.3,77.2,213.7,77.3,213.2,77.3z M212.9,70.6c-0.5,0-0.9,0.2-1.2,0.6
		c-0.3,0.4-0.5,0.8-0.6,1.4l0,0h3.4v-0.1c0-0.6-0.2-1-0.4-1.4C213.9,70.7,213.5,70.6,212.9,70.6z"/>
	<path class="st4" d="M218.6,69.7l0.1,1.1c0.2-0.4,0.6-0.7,1-0.9c0.4-0.2,0.8-0.3,1.3-0.3c0.8,0,1.4,0.2,1.8,0.7
		c0.5,0.5,0.6,1.2,0.6,2.2v4.7H222v-4.6c0-0.6-0.2-1.1-0.4-1.4c-0.2-0.2-0.6-0.4-1.2-0.4c-0.4,0-0.8,0.1-1,0.2s-0.6,0.4-0.7,0.7v5.5
		h-1.3v-7.4h1.2V69.7z"/>
	<path class="st4" d="M225.2,73.5c0-1.2,0.2-2.2,0.8-2.9c0.5-0.7,1.2-1.1,2.2-1.1c0.4,0,0.8,0.1,1.2,0.2c0.3,0.2,0.6,0.4,0.9,0.7
		v-4.1h1.4v10.7h-1l-0.2-1c-0.2,0.3-0.6,0.6-0.9,0.8c-0.3,0.2-0.8,0.2-1.3,0.2c-0.9,0-1.6-0.3-2.2-1c-0.6-0.6-0.8-1.5-0.8-2.6
		L225.2,73.5L225.2,73.5z M226.4,73.7c0,0.7,0.2,1.4,0.5,1.8c0.3,0.5,0.8,0.6,1.4,0.6c0.4,0,0.7-0.1,1-0.2c0.2-0.2,0.5-0.5,0.6-0.8
		v-3.4c-0.2-0.3-0.4-0.6-0.6-0.7c-0.2-0.2-0.6-0.2-1-0.2c-0.6,0-1.1,0.2-1.4,0.8C226.6,72.1,226.4,72.7,226.4,73.7L226.4,73.7z"/>
	<path class="st4" d="M234.9,67.8h-1.4v-1.4h1.4V67.8z M234.9,77.1h-1.4v-7.4h1.4V77.1z"/>
	<path class="st4" d="M236.7,73.3c0-1.1,0.3-2,0.9-2.7c0.6-0.7,1.4-1,2.4-1c1,0,1.8,0.3,2.5,1c0.6,0.7,0.9,1.6,0.9,2.7v0.2
		c0,1.1-0.3,2-0.9,2.7s-1.4,1-2.4,1c-1,0-1.8-0.3-2.5-1c-0.6-0.7-0.9-1.6-0.9-2.7V73.3z M238,73.4c0,0.8,0.2,1.4,0.5,1.9
		c0.3,0.5,0.8,0.8,1.5,0.8c0.6,0,1.1-0.2,1.4-0.8c0.3-0.5,0.5-1.2,0.5-1.9v-0.2c0-0.8-0.2-1.4-0.5-1.9c-0.3-0.5-0.8-0.8-1.5-0.8
		c-0.6,0-1.1,0.2-1.4,0.8c-0.3,0.6-0.5,1.2-0.5,1.9V73.4z"/>
	<path class="st4" d="M249.3,75.1c0-0.3-0.1-0.6-0.3-0.7s-0.6-0.3-1.3-0.5c-0.9-0.2-1.5-0.5-2-0.8c-0.5-0.3-0.7-0.8-0.7-1.4
		c0-0.6,0.2-1.1,0.8-1.5c0.5-0.4,1.2-0.6,2-0.6c0.9,0,1.5,0.2,2.1,0.7s0.8,1,0.7,1.6V72h-1.3c0-0.3-0.2-0.6-0.4-0.9
		c-0.3-0.2-0.6-0.4-1-0.4c-0.5,0-0.8,0.1-1,0.3s-0.3,0.5-0.3,0.8s0.1,0.6,0.3,0.7c0.2,0.2,0.6,0.3,1.3,0.5c0.9,0.2,1.6,0.5,2.1,0.8
		s0.7,0.8,0.7,1.4c0,0.6-0.2,1.2-0.8,1.6s-1.2,0.6-2.1,0.6c-1,0-1.7-0.2-2.2-0.7c-0.6-0.5-0.8-1-0.8-1.7v-0.1h1.3
		c0,0.5,0.2,0.8,0.6,1c0.3,0.2,0.7,0.3,1.2,0.3s0.9-0.1,1.1-0.3C249.2,75.7,249.3,75.4,249.3,75.1z"/>
	<path class="st4" d="M255.1,73.1c0,1.8-0.4,3.4-1.1,4.6c-0.7,1.3-1.5,2.2-2.3,2.6h-0.1l-0.2-0.7c0.6-0.5,1.2-1.3,1.6-2.4
		c0.5-1.1,0.7-2.5,0.7-4.1V73c0-1.6-0.2-2.9-0.7-4c-0.5-1.1-1-1.9-1.6-2.4l0.2-0.7h0.1c0.8,0.4,1.6,1.3,2.3,2.6
		C254.7,69.7,255.1,71.2,255.1,73.1L255.1,73.1z"/>
</g>
<g class="st3">
	<path class="st4" d="M69.7,230.7c0-1.8,0.4-3.4,1.1-4.6c0.7-1.3,1.5-2.2,2.3-2.6h0.1l0.2,0.8c-0.6,0.5-1.2,1.3-1.7,2.4
		c-0.5,1.1-0.7,2.4-0.7,4v0.1c0,1.6,0.2,3,0.7,4c0.5,1.1,1,1.9,1.7,2.4l-0.2,0.7h-0.1c-0.8-0.4-1.6-1.3-2.3-2.6
		C70,234.2,69.7,232.6,69.7,230.7L69.7,230.7z"/>
	<path class="st4" d="M77.4,233.9c0.4,0,0.8-0.2,1.1-0.4c0.3-0.2,0.5-0.6,0.5-1h1.2v0.1c0,0.6-0.2,1.2-0.8,1.7s-1.2,0.7-2,0.7
		c-1,0-1.8-0.3-2.4-1s-0.9-1.6-0.9-2.6V231c0-1,0.3-1.9,0.9-2.6c0.6-0.7,1.4-1,2.4-1c0.8,0,1.5,0.2,2.1,0.8c0.6,0.5,0.8,1.1,0.8,1.9
		v0.1H79c0-0.5-0.2-0.9-0.5-1.2c-0.3-0.3-0.6-0.5-1.1-0.5c-0.6,0-1.1,0.2-1.4,0.8s-0.5,1.1-0.5,1.8v0.3c0,0.7,0.2,1.4,0.5,1.9
		C76.3,233.7,76.7,233.9,77.4,233.9z"/>
	<path class="st4" d="M86.4,234.8c-0.1-0.2-0.1-0.4-0.1-0.6s-0.1-0.3-0.1-0.6c-0.2,0.3-0.6,0.6-1,0.9c-0.4,0.2-0.9,0.4-1.3,0.4
		c-0.8,0-1.4-0.2-1.8-0.6c-0.4-0.4-0.6-1-0.6-1.7c0-0.7,0.3-1.3,0.9-1.7c0.6-0.4,1.4-0.6,2.3-0.6h1.4v-0.7c0-0.4-0.2-0.8-0.4-1
		c-0.2-0.2-0.6-0.4-1.1-0.4s-0.8,0.1-1,0.3c-0.2,0.2-0.4,0.5-0.4,0.8H82v-0.1c0-0.6,0.2-1,0.8-1.5c0.6-0.5,1.2-0.6,2.1-0.6
		s1.5,0.2,2,0.6s0.8,1,0.8,1.8v3.6c0,0.2,0,0.6,0.1,0.8c0,0.2,0.1,0.5,0.2,0.7L86.4,234.8L86.4,234.8z M84.2,233.8
		c0.5,0,1-0.2,1.4-0.4c0.4-0.2,0.6-0.6,0.8-0.9v-1.2h-1.5c-0.6,0-1,0.2-1.3,0.4s-0.5,0.6-0.5,1c0,0.3,0.1,0.6,0.3,0.8
		C83.4,233.8,83.8,233.8,84.2,233.8z"/>
	<path class="st4" d="M90.9,233.8h4.3v1h-5.9v-1l4-5.4h-4v-1h5.6v1L90.9,233.8z"/>
	<path class="st4" d="M101.2,234.8c-0.1-0.2-0.1-0.4-0.1-0.6s-0.1-0.3-0.1-0.6c-0.2,0.3-0.6,0.6-1,0.9c-0.4,0.2-0.9,0.4-1.3,0.4
		c-0.8,0-1.4-0.2-1.8-0.6s-0.6-1-0.6-1.7c0-0.7,0.3-1.3,0.9-1.7c0.6-0.4,1.4-0.6,2.3-0.6h1.4v-0.7c0-0.4-0.2-0.8-0.4-1
		c-0.2-0.2-0.6-0.4-1.1-0.4c-0.5,0-0.8,0.1-1,0.3c-0.2,0.2-0.4,0.5-0.4,0.8h-1.3v-0.1c0-0.6,0.2-1,0.8-1.5c0.6-0.5,1.2-0.6,2.1-0.6
		c0.9,0,1.5,0.2,2,0.6c0.5,0.4,0.8,1,0.8,1.8v3.6c0,0.2,0,0.6,0.1,0.8c0,0.2,0.1,0.5,0.2,0.7L101.2,234.8L101.2,234.8z M98.9,233.8
		c0.5,0,1-0.2,1.4-0.4c0.4-0.2,0.6-0.6,0.8-0.9v-1.2h-1.5c-0.6,0-1,0.2-1.3,0.4s-0.5,0.6-0.5,1c0,0.3,0.1,0.6,0.3,0.8
		C98.2,233.8,98.5,233.8,98.9,233.8z"/>
	<path class="st4" d="M114.2,231.4c0,1-0.2,1.9-0.8,2.6c-0.5,0.6-1.2,1-2.2,1c-0.5,0-0.9-0.1-1.2-0.2c-0.3-0.2-0.6-0.4-0.9-0.7v3.7
		h-1.4v-10.3h1l0.2,1c0.2-0.3,0.6-0.6,0.9-0.8c0.4-0.2,0.8-0.3,1.3-0.3c1,0,1.6,0.4,2.2,1.1c0.5,0.7,0.8,1.7,0.8,2.9
		C114.2,231.1,114.2,231.4,114.2,231.4z M112.8,231.2c0-0.9-0.2-1.5-0.5-2.1s-0.8-0.8-1.4-0.8c-0.4,0-0.7,0.1-1,0.2
		c-0.2,0.2-0.5,0.4-0.6,0.7v3.6c0.2,0.3,0.4,0.6,0.6,0.7c0.2,0.2,0.6,0.2,1,0.2c0.6,0,1.1-0.2,1.4-0.7S112.9,232.1,112.8,231.2
		L112.8,231.2L112.8,231.2z"/>
	<path class="st4" d="M120.4,234.8c-0.1-0.2-0.1-0.4-0.1-0.6s-0.1-0.3-0.1-0.6c-0.2,0.3-0.6,0.6-1,0.9c-0.4,0.2-0.9,0.4-1.3,0.4
		c-0.8,0-1.4-0.2-1.8-0.6c-0.4-0.4-0.6-1-0.6-1.7c0-0.7,0.3-1.3,0.9-1.7c0.6-0.4,1.4-0.6,2.3-0.6h1.4v-0.7c0-0.4-0.2-0.8-0.4-1
		c-0.2-0.2-0.6-0.4-1.1-0.4c-0.5,0-0.8,0.1-1,0.3c-0.2,0.2-0.4,0.5-0.4,0.8H116v-0.1c0-0.6,0.2-1,0.8-1.5s1.2-0.6,2.1-0.6
		c0.9,0,1.5,0.2,2,0.6s0.8,1,0.8,1.8v3.6c0,0.2,0,0.6,0.1,0.8c0,0.2,0.1,0.5,0.2,0.7L120.4,234.8L120.4,234.8z M118.2,233.8
		c0.5,0,1-0.2,1.4-0.4c0.4-0.2,0.6-0.6,0.8-0.9v-1.2h-1.5c-0.6,0-1,0.2-1.3,0.4s-0.5,0.6-0.5,1c0,0.3,0.1,0.6,0.3,0.8
		C117.5,233.8,117.8,233.8,118.2,233.8z"/>
	<path class="st4" d="M127.1,228.6l-0.7-0.1c-0.3,0-0.6,0.1-0.9,0.2c-0.2,0.2-0.4,0.4-0.6,0.7v5.4h-1.4v-7.4h1.2l0.2,1.1
		c0.2-0.4,0.5-0.7,0.8-0.9c0.3-0.2,0.6-0.3,1-0.3c0.1,0,0.2,0,0.3,0c0.1,0,0.2,0,0.2,0.1L127.1,228.6z"/>
	<path class="st4" d="M133.1,234.8c-0.1-0.2-0.1-0.4-0.1-0.6s-0.1-0.3-0.1-0.6c-0.2,0.3-0.6,0.6-1,0.9c-0.4,0.2-0.9,0.4-1.3,0.4
		c-0.8,0-1.4-0.2-1.8-0.6s-0.6-1-0.6-1.7c0-0.7,0.3-1.3,0.9-1.7c0.6-0.4,1.4-0.6,2.3-0.6h1.4v-0.7c0-0.4-0.2-0.8-0.4-1
		c-0.2-0.2-0.6-0.4-1.1-0.4s-0.8,0.1-1,0.3c-0.2,0.2-0.4,0.5-0.4,0.8h-1.3v-0.1c0-0.6,0.2-1,0.8-1.5s1.2-0.6,2.1-0.6s1.5,0.2,2,0.6
		c0.5,0.4,0.8,1,0.8,1.8v3.6c0,0.2,0,0.6,0.1,0.8c0,0.2,0.1,0.5,0.2,0.7L133.1,234.8L133.1,234.8z M130.9,233.8c0.5,0,1-0.2,1.4-0.4
		c0.4-0.2,0.6-0.6,0.8-0.9v-1.2h-1.5c-0.6,0-1,0.2-1.3,0.4c-0.3,0.2-0.5,0.6-0.5,1c0,0.3,0.1,0.6,0.3,0.8
		C130.2,233.8,130.5,233.8,130.9,233.8z"/>
	<path class="st4" d="M142.7,233.9c0.4,0,0.8-0.2,1.1-0.4c0.3-0.2,0.5-0.6,0.5-1h1.2v0.1c0,0.6-0.2,1.2-0.8,1.7
		c-0.6,0.5-1.2,0.7-2,0.7c-1,0-1.8-0.3-2.4-1s-0.9-1.6-0.9-2.6V231c0-1,0.3-1.9,0.9-2.6c0.6-0.7,1.4-1,2.4-1c0.8,0,1.5,0.2,2.1,0.8
		c0.6,0.5,0.8,1.1,0.8,1.9v0.1h-1.2c0-0.5-0.2-0.9-0.5-1.2c-0.3-0.3-0.6-0.5-1.1-0.5c-0.6,0-1.1,0.2-1.4,0.8
		c-0.3,0.6-0.5,1.1-0.5,1.8v0.3c0,0.7,0.2,1.4,0.5,1.9C141.6,233.7,142.1,233.9,142.7,233.9z"/>
	<path class="st4" d="M146.9,231.1c0-1.1,0.3-2,0.9-2.7c0.6-0.7,1.4-1,2.4-1c1,0,1.8,0.3,2.5,1c0.6,0.7,0.9,1.6,0.9,2.7v0.2
		c0,1.1-0.3,2-0.9,2.7c-0.6,0.7-1.4,1-2.4,1c-1,0-1.8-0.3-2.5-1c-0.6-0.7-0.9-1.6-0.9-2.7V231.1z M148.2,231.2
		c0,0.8,0.2,1.4,0.5,1.9s0.8,0.8,1.5,0.8c0.6,0,1.1-0.2,1.4-0.8s0.5-1.2,0.5-1.9v-0.2c0-0.8-0.2-1.4-0.5-1.9
		c-0.3-0.5-0.8-0.8-1.5-0.8c-0.6,0-1.1,0.2-1.4,0.8s-0.5,1.2-0.5,1.9V231.2z"/>
	<path class="st4" d="M156.4,227.4l0.1,1.1c0.2-0.4,0.6-0.7,1-0.9s0.8-0.3,1.3-0.3c0.8,0,1.4,0.2,1.8,0.7s0.6,1.2,0.6,2.2v4.7h-1.4
		v-4.6c0-0.6-0.2-1.1-0.4-1.4s-0.6-0.4-1.2-0.4c-0.4,0-0.8,0.1-1,0.2c-0.3,0.2-0.6,0.4-0.7,0.7v5.5h-1.4v-7.4h1.3V227.4z"/>
	<path class="st4" d="M167.5,232.8c0-0.3-0.1-0.6-0.3-0.7s-0.6-0.3-1.3-0.5c-0.9-0.2-1.5-0.5-2-0.8s-0.7-0.8-0.7-1.4
		c0-0.6,0.2-1.1,0.8-1.5c0.5-0.4,1.2-0.6,2-0.6c0.9,0,1.5,0.2,2.1,0.7s0.8,1,0.7,1.6v0.1h-1.3c0-0.3-0.2-0.6-0.4-0.9
		c-0.3-0.2-0.6-0.4-1-0.4c-0.5,0-0.8,0.1-1,0.3s-0.3,0.5-0.3,0.8c0,0.3,0.1,0.6,0.3,0.7c0.2,0.2,0.6,0.3,1.3,0.5
		c0.9,0.2,1.6,0.5,2.1,0.8s0.7,0.8,0.7,1.4c0,0.6-0.2,1.2-0.8,1.6c-0.6,0.4-1.2,0.6-2.1,0.6c-1,0-1.7-0.2-2.2-0.7s-0.8-1-0.8-1.7
		v-0.1h1.3c0,0.5,0.2,0.8,0.6,1c0.3,0.2,0.7,0.3,1.2,0.3s0.9-0.1,1.1-0.3C167.3,233.4,167.5,233.1,167.5,232.8z"/>
	<path class="st4" d="M175.2,233.7c-0.2,0.4-0.6,0.7-0.9,1c-0.4,0.2-0.8,0.3-1.3,0.3c-0.8,0-1.4-0.2-1.9-0.8
		c-0.5-0.5-0.7-1.4-0.7-2.4v-4.4h1.4v4.4c0,0.8,0.1,1.4,0.3,1.6c0.2,0.3,0.6,0.5,1.1,0.5c0.5,0,0.9-0.1,1.2-0.3
		c0.3-0.2,0.6-0.5,0.7-0.8v-5.4h1.4v7.4h-1.2L175.2,233.7z"/>
	<path class="st4" d="M179.8,227.4l0.1,1c0.2-0.3,0.6-0.6,1-0.8s0.8-0.3,1.3-0.3s1,0.1,1.3,0.3c0.3,0.2,0.6,0.6,0.8,1
		c0.2-0.4,0.6-0.8,1-1s0.8-0.4,1.4-0.4c0.7,0,1.4,0.2,1.8,0.8s0.6,1.3,0.6,2.3v4.5h-1.4v-4.5c0-0.7-0.2-1.3-0.4-1.5
		s-0.6-0.5-1.1-0.5s-0.8,0.2-1.1,0.5s-0.5,0.7-0.5,1.2v0.1v4.7h-1.4v-4.5c0-0.7-0.2-1.2-0.4-1.5s-0.6-0.5-1.1-0.5
		c-0.4,0-0.7,0.1-1,0.2c-0.2,0.2-0.5,0.4-0.6,0.7v5.5h-1.4v-7.4L179.8,227.4L179.8,227.4z"/>
	<path class="st4" d="M190.6,231.1c0-1.1,0.3-2,0.9-2.7c0.6-0.7,1.4-1,2.4-1c1,0,1.8,0.3,2.5,1c0.6,0.7,0.9,1.6,0.9,2.7v0.2
		c0,1.1-0.3,2-0.9,2.7c-0.6,0.7-1.4,1-2.4,1c-1,0-1.8-0.3-2.5-1c-0.6-0.7-0.9-1.6-0.9-2.7V231.1z M191.9,231.2
		c0,0.8,0.2,1.4,0.5,1.9s0.8,0.8,1.5,0.8c0.6,0,1.1-0.2,1.4-0.8c0.3-0.5,0.5-1.2,0.5-1.9v-0.2c0-0.8-0.2-1.4-0.5-1.9
		s-0.8-0.8-1.5-0.8c-0.6,0-1.1,0.2-1.4,0.8s-0.5,1.2-0.5,1.9V231.2z"/>
	<path class="st4" d="M203.7,228.4c0.2-0.3,0.6-0.6,1-0.8s0.8-0.3,1.3-0.3c0.8,0,1.4,0.2,1.8,0.7c0.5,0.5,0.6,1.2,0.6,2.2v4.6H207
		v-4.7c0-0.6-0.2-1-0.4-1.4c-0.2-0.3-0.6-0.5-1.2-0.5c-0.4,0-0.7,0.1-1,0.2c-0.3,0.2-0.6,0.4-0.7,0.6v5.6h-1.4v-10.7h1.4V228.4z"/>
	<path class="st4" d="M215.1,233.7c-0.2,0.4-0.6,0.7-0.9,1c-0.4,0.2-0.8,0.3-1.3,0.3c-0.8,0-1.4-0.2-1.9-0.8
		c-0.5-0.5-0.7-1.4-0.7-2.4v-4.4h1.4v4.4c0,0.8,0.1,1.4,0.3,1.6c0.2,0.3,0.6,0.5,1.1,0.5c0.5,0,0.9-0.1,1.2-0.3
		c0.3-0.2,0.6-0.5,0.7-0.8v-5.4h1.4v7.4h-1.2L215.1,233.7z"/>
	<path class="st4" d="M219.6,227.4l0.1,1c0.2-0.3,0.6-0.6,1-0.8s0.8-0.3,1.3-0.3s1,0.1,1.3,0.3s0.6,0.6,0.8,1c0.2-0.4,0.6-0.8,1-1
		s0.8-0.4,1.4-0.4c0.7,0,1.4,0.2,1.8,0.8s0.6,1.3,0.6,2.3v4.5h-1.4v-4.5c0-0.7-0.2-1.3-0.4-1.5s-0.6-0.5-1.1-0.5
		c-0.5,0-0.8,0.2-1.1,0.5c-0.3,0.3-0.5,0.7-0.5,1.2v0.1v4.7h-1.4v-4.5c0-0.7-0.2-1.2-0.4-1.5s-0.6-0.5-1.1-0.5c-0.4,0-0.7,0.1-1,0.2
		c-0.2,0.2-0.5,0.4-0.6,0.7v5.5h-1.4v-7.4L219.6,227.4L219.6,227.4z"/>
	<path class="st4" d="M235.2,234.8c-0.1-0.2-0.1-0.4-0.1-0.6s-0.1-0.3-0.1-0.6c-0.2,0.3-0.6,0.6-1,0.9c-0.4,0.2-0.9,0.4-1.3,0.4
		c-0.8,0-1.4-0.2-1.8-0.6c-0.4-0.4-0.6-1-0.6-1.7c0-0.7,0.3-1.3,0.9-1.7c0.6-0.4,1.4-0.6,2.3-0.6h1.4v-0.7c0-0.4-0.2-0.8-0.4-1
		c-0.2-0.2-0.6-0.4-1.1-0.4c-0.5,0-0.8,0.1-1,0.3c-0.2,0.2-0.4,0.5-0.4,0.8h-1.3v-0.1c0-0.6,0.2-1,0.8-1.5s1.2-0.6,2.1-0.6
		s1.5,0.2,2,0.6s0.8,1,0.8,1.8v3.6c0,0.2,0,0.6,0.1,0.8c0,0.2,0.1,0.5,0.2,0.7L235.2,234.8L235.2,234.8z M233,233.8
		c0.5,0,1-0.2,1.4-0.4c0.4-0.2,0.6-0.6,0.8-0.9v-1.2h-1.5c-0.6,0-1,0.2-1.3,0.4c-0.3,0.2-0.5,0.6-0.5,1c0,0.3,0.1,0.6,0.3,0.8
		C232.3,233.8,232.6,233.8,233,233.8z"/>
	<path class="st4" d="M239.6,227.4l0.1,1.1c0.2-0.4,0.6-0.7,1-0.9s0.8-0.3,1.3-0.3c0.8,0,1.4,0.2,1.8,0.7c0.5,0.5,0.6,1.2,0.6,2.2
		v4.7h-1.4v-4.6c0-0.6-0.2-1.1-0.4-1.4c-0.2-0.2-0.6-0.4-1.2-0.4c-0.4,0-0.8,0.1-1,0.2c-0.3,0.2-0.6,0.4-0.7,0.7v5.5h-1.4v-7.4h1.3
		V227.4z"/>
	<path class="st4" d="M246.1,231.1c0-1.1,0.3-2,0.9-2.7s1.4-1,2.4-1c1,0,1.8,0.3,2.5,1c0.6,0.7,0.9,1.6,0.9,2.7v0.2
		c0,1.1-0.3,2-0.9,2.7c-0.6,0.7-1.4,1-2.4,1c-1,0-1.8-0.3-2.5-1c-0.6-0.7-0.9-1.6-0.9-2.7V231.1z M247.5,231.2
		c0,0.8,0.2,1.4,0.5,1.9c0.3,0.5,0.8,0.8,1.5,0.8c0.6,0,1.1-0.2,1.4-0.8c0.3-0.5,0.5-1.2,0.5-1.9v-0.2c0-0.8-0.2-1.4-0.5-1.9
		c-0.3-0.5-0.8-0.8-1.5-0.8c-0.6,0-1.1,0.2-1.4,0.8c-0.3,0.6-0.5,1.2-0.5,1.9V231.2z"/>
	<path class="st4" d="M257.2,230.8c0,1.8-0.4,3.4-1.1,4.6c-0.7,1.3-1.5,2.2-2.3,2.6h-0.1l-0.2-0.7c0.6-0.5,1.2-1.3,1.6-2.4
		c0.4-1.1,0.7-2.5,0.7-4.1v-0.1c0-1.6-0.2-2.9-0.7-4c-0.5-1.1-1-1.9-1.6-2.4l0.2-0.7h0.1c0.8,0.4,1.6,1.3,2.3,2.6
		C256.8,227.4,257.2,229,257.2,230.8L257.2,230.8z"/>
</g>
<g class="st3">
	<path class="st4" d="M71,146.3c0-1.8,0.4-3.4,1.1-4.6c0.7-1.3,1.5-2.2,2.3-2.6h0.1l0.2,0.8c-0.6,0.5-1.2,1.3-1.7,2.4
		c-0.5,1.1-0.7,2.4-0.7,4v0.1c0,1.6,0.2,3,0.7,4c0.5,1.1,1,1.9,1.7,2.4l-0.2,0.7h-0.1c-0.8-0.4-1.6-1.3-2.3-2.6
		C71.3,149.6,71,148.1,71,146.3L71,146.3z"/>
	<path class="st4" d="M77.6,141.1v1.8H79v1h-1.4v4.6c0,0.3,0.1,0.6,0.2,0.7c0.2,0.2,0.3,0.2,0.6,0.2c0.1,0,0.2,0,0.2,0
		s0.2-0.1,0.2-0.1l0.2,1c-0.1,0.1-0.2,0.2-0.5,0.2c-0.2,0.1-0.4,0.1-0.6,0.1c-0.6,0-1-0.2-1.3-0.5c-0.3-0.3-0.5-0.9-0.5-1.6V144
		h-1.2v-1h1.2v-1.8L77.6,141.1L77.6,141.1z"/>
	<path class="st4" d="M83.9,144.1l-0.7-0.1c-0.3,0-0.6,0.1-0.9,0.2s-0.4,0.4-0.6,0.7v5.4h-1.4v-7.4h1.2l0.2,1.1
		c0.2-0.4,0.5-0.7,0.8-0.9c0.3-0.2,0.6-0.3,1-0.3c0.1,0,0.2,0,0.3,0c0.1,0,0.2,0,0.2,0.1L83.9,144.1z"/>
	<path class="st4" d="M89.9,150.4c-0.1-0.2-0.1-0.4-0.1-0.6s-0.1-0.3-0.1-0.6c-0.2,0.3-0.6,0.6-1,0.9s-0.9,0.4-1.3,0.4
		c-0.8,0-1.4-0.2-1.8-0.6c-0.4-0.4-0.6-1-0.6-1.7s0.3-1.3,0.9-1.7c0.6-0.4,1.4-0.6,2.3-0.6h1.4v-0.7c0-0.4-0.2-0.8-0.4-1
		s-0.6-0.4-1.1-0.4c-0.5,0-0.8,0.1-1,0.3s-0.4,0.5-0.4,0.8h-1.3v-0.1c0-0.6,0.2-1,0.8-1.5c0.6-0.5,1.2-0.6,2.1-0.6
		c0.9,0,1.5,0.2,2,0.6c0.5,0.4,0.8,1,0.8,1.8v3.6c0,0.2,0,0.6,0.1,0.8c0,0.2,0.1,0.5,0.2,0.7L89.9,150.4L89.9,150.4z M87.7,149.3
		c0.5,0,1-0.2,1.4-0.4c0.4-0.2,0.6-0.6,0.8-0.9v-1.2h-1.5c-0.6,0-1,0.2-1.3,0.4c-0.3,0.2-0.5,0.6-0.5,1c0,0.3,0.1,0.6,0.3,0.8
		C87,149.2,87.3,149.3,87.7,149.3z M88.9,139.7h1.6v0.1l-1.8,1.8h-1L88.9,139.7z"/>
	<path class="st4" d="M93.5,150.4v-6.5h-1.2v-1h1.2v-0.8c0-0.8,0.2-1.5,0.7-1.9c0.5-0.5,1.2-0.7,2-0.7c0.3,0,0.6,0,0.9,0.1
		c0.3,0.1,0.6,0.2,1,0.3l-0.2,1.1c-0.2-0.1-0.5-0.2-0.8-0.2c-0.2-0.1-0.6-0.1-0.9-0.1c-0.6,0-1,0.1-1.2,0.3
		c-0.2,0.2-0.3,0.6-0.3,1.1v0.8h1.5v1h-1.5v6.5L93.5,150.4L93.5,150.4z M98.9,150.4h-1.4v-7.4h1.4V150.4z"/>
	<path class="st4" d="M103.9,149.4c0.4,0,0.8-0.2,1.1-0.4s0.5-0.6,0.5-1h1.2v0.1c0,0.6-0.2,1.2-0.8,1.7c-0.6,0.5-1.2,0.7-2,0.7
		c-1,0-1.8-0.3-2.4-1c-0.6-0.7-0.9-1.6-0.9-2.6v-0.3c0-1,0.3-1.9,0.9-2.6c0.6-0.7,1.4-1,2.4-1c0.8,0,1.5,0.2,2.1,0.8
		c0.6,0.5,0.8,1.1,0.8,1.9v0.1h-1.2c0-0.5-0.2-0.9-0.5-1.2s-0.6-0.5-1.1-0.5c-0.6,0-1.1,0.2-1.4,0.8s-0.5,1.1-0.5,1.8v0.3
		c0,0.7,0.2,1.4,0.5,1.9C102.8,149.2,103.3,149.4,103.9,149.4z"/>
	<path class="st4" d="M108,146.5c0-1.1,0.3-2,0.9-2.7c0.6-0.7,1.4-1,2.4-1c1,0,1.8,0.3,2.5,1c0.6,0.7,0.9,1.6,0.9,2.7v0.2
		c0,1.1-0.3,2-0.9,2.7c-0.6,0.7-1.4,1-2.4,1c-1,0-1.8-0.3-2.5-1c-0.6-0.7-0.9-1.6-0.9-2.7V146.5z M109.3,146.7
		c0,0.8,0.2,1.4,0.5,1.9s0.8,0.8,1.5,0.8c0.6,0,1.1-0.2,1.4-0.8s0.5-1.2,0.5-1.9v-0.2c0-0.8-0.2-1.4-0.5-1.9
		c-0.3-0.5-0.8-0.8-1.5-0.8c-0.6,0-1.1,0.2-1.4,0.8s-0.5,1.2-0.5,1.9V146.7z"/>
	<path class="st4" d="M119.5,146.8c0-1.2,0.2-2.2,0.8-2.9c0.5-0.7,1.2-1.1,2.2-1.1c0.4,0,0.8,0.1,1.2,0.2c0.3,0.2,0.6,0.4,0.9,0.7
		v-4.2h1.4v10.7h-1.1l-0.2-1c-0.2,0.3-0.6,0.6-0.9,0.8s-0.8,0.2-1.3,0.2c-0.9,0-1.6-0.3-2.2-1C119.7,148.8,119.4,147.9,119.5,146.8
		L119.5,146.8L119.5,146.8z M120.8,146.9c0,0.7,0.2,1.4,0.5,1.8s0.8,0.6,1.4,0.6c0.4,0,0.7-0.1,1-0.2s0.5-0.5,0.6-0.8v-3.4
		c-0.2-0.3-0.4-0.6-0.6-0.7s-0.6-0.2-1-0.2c-0.6,0-1.1,0.2-1.4,0.8S120.8,146,120.8,146.9L120.8,146.9z"/>
	<path class="st4" d="M130.9,150.4c-1,0-1.9-0.3-2.5-1c-0.6-0.7-0.9-1.6-0.9-2.7v-0.3c0-1,0.3-1.9,1-2.6c0.6-0.7,1.4-1,2.2-1
		c1,0,1.8,0.3,2.2,1c0.5,0.6,0.7,1.4,0.7,2.5v0.7h-4.8l0,0c0,0.7,0.2,1.4,0.5,1.8c0.3,0.5,0.8,0.7,1.5,0.7c0.5,0,0.9-0.1,1.2-0.2
		c0.3-0.2,0.6-0.3,0.9-0.6l0.6,0.9c-0.2,0.2-0.6,0.5-1,0.6S131.5,150.4,130.9,150.4z M130.7,143.8c-0.5,0-0.9,0.2-1.2,0.6
		c-0.3,0.4-0.5,0.8-0.6,1.4l0,0h3.4v-0.1c0-0.6-0.2-1-0.4-1.4S131.2,143.8,130.7,143.8z"/>
	<path class="st4" d="M143.3,150.4c-0.1-0.2-0.1-0.4-0.1-0.6s-0.1-0.3-0.1-0.6c-0.2,0.3-0.6,0.6-1,0.9s-0.9,0.4-1.3,0.4
		c-0.8,0-1.4-0.2-1.8-0.6s-0.6-1-0.6-1.7s0.3-1.3,0.9-1.7c0.6-0.4,1.4-0.6,2.3-0.6h1.4v-0.7c0-0.4-0.2-0.8-0.4-1s-0.6-0.4-1.1-0.4
		c-0.5,0-0.8,0.1-1,0.3s-0.4,0.5-0.4,0.8h-1.3v-0.1c0-0.6,0.2-1,0.8-1.5c0.6-0.5,1.2-0.6,2.1-0.6s1.5,0.2,2,0.6
		c0.5,0.4,0.8,1,0.8,1.8v3.6c0,0.2,0,0.6,0.1,0.8c0,0.2,0.1,0.5,0.2,0.7L143.3,150.4L143.3,150.4z M141,149.3c0.5,0,1-0.2,1.4-0.4
		s0.6-0.6,0.8-0.9v-1.2h-1.5c-0.6,0-1,0.2-1.3,0.4c-0.3,0.2-0.5,0.6-0.5,1c0,0.3,0.1,0.6,0.3,0.8C140.3,149.2,140.6,149.3,141,149.3
		z"/>
	<path class="st4" d="M147.7,142.9l0.1,1.1c0.2-0.4,0.6-0.7,1-0.9c0.4-0.2,0.8-0.3,1.3-0.3c0.8,0,1.4,0.2,1.8,0.7
		c0.4,0.5,0.6,1.2,0.6,2.2v4.7h-1.4v-4.6c0-0.6-0.2-1.1-0.4-1.4s-0.6-0.4-1.2-0.4c-0.4,0-0.8,0.1-1,0.2c-0.3,0.2-0.6,0.4-0.7,0.7
		v5.5h-1.4V143h1.3V142.9z"/>
	<path class="st4" d="M155.9,141h-1.4v-1.4h1.4V141z M155.9,150.4h-1.4v-7.4h1.4V150.4z"/>
	<path class="st4" d="M159.2,142.9l0.1,1c0.2-0.3,0.6-0.6,1-0.8s0.8-0.3,1.3-0.3s1,0.1,1.3,0.3c0.3,0.2,0.6,0.6,0.8,1
		c0.2-0.4,0.6-0.8,1-1s0.8-0.4,1.4-0.4c0.7,0,1.4,0.2,1.8,0.8c0.4,0.6,0.6,1.3,0.6,2.3v4.5h-1.4v-4.5c0-0.7-0.2-1.3-0.4-1.5
		c-0.2-0.2-0.6-0.5-1.1-0.5c-0.5,0-0.8,0.2-1.1,0.5c-0.3,0.3-0.5,0.7-0.5,1.2v0.1v4.7h-1.4v-4.5c0-0.7-0.2-1.2-0.4-1.5
		c-0.2-0.3-0.6-0.5-1.1-0.5c-0.4,0-0.7,0.1-1,0.2c-0.2,0.2-0.5,0.4-0.6,0.7v5.5h-1.4v-7.4L159.2,142.9L159.2,142.9z"/>
	<path class="st4" d="M174.8,150.4c-0.1-0.2-0.1-0.4-0.1-0.6s-0.1-0.3-0.1-0.6c-0.2,0.3-0.6,0.6-1,0.9c-0.4,0.2-0.9,0.4-1.3,0.4
		c-0.8,0-1.4-0.2-1.8-0.6s-0.6-1-0.6-1.7s0.3-1.3,0.9-1.7c0.6-0.4,1.4-0.6,2.3-0.6h1.4v-0.7c0-0.4-0.2-0.8-0.4-1s-0.6-0.4-1.1-0.4
		s-0.8,0.1-1,0.3s-0.4,0.5-0.4,0.8h-1.3v-0.1c0-0.6,0.2-1,0.8-1.5s1.2-0.6,2.1-0.6c0.9,0,1.5,0.2,2,0.6c0.5,0.4,0.8,1,0.8,1.8v3.6
		c0,0.2,0,0.6,0.1,0.8c0,0.2,0.1,0.5,0.2,0.7L174.8,150.4L174.8,150.4z M172.6,149.3c0.5,0,1-0.2,1.4-0.4s0.6-0.6,0.8-0.9v-1.2h-1.5
		c-0.6,0-1,0.2-1.3,0.4c-0.3,0.2-0.5,0.6-0.5,1c0,0.3,0.1,0.6,0.3,0.8C171.9,149.2,172.2,149.3,172.6,149.3z"/>
	<path class="st4" d="M179.5,150.4h-1.4v-10.8h1.4V150.4z"/>
	<path class="st4" d="M184.7,150.4c-1,0-1.9-0.3-2.5-1c-0.6-0.7-0.9-1.6-0.9-2.7v-0.3c0-1,0.3-1.9,1-2.6c0.6-0.7,1.4-1,2.2-1
		c1,0,1.8,0.3,2.2,1c0.5,0.6,0.7,1.4,0.7,2.5v0.7h-4.8l0,0c0,0.7,0.2,1.4,0.5,1.8c0.3,0.5,0.8,0.7,1.5,0.7c0.5,0,0.9-0.1,1.2-0.2
		c0.3-0.2,0.6-0.3,0.9-0.6l0.6,0.9c-0.2,0.2-0.6,0.5-1,0.6S185.3,150.4,184.7,150.4z M184.4,143.8c-0.5,0-0.9,0.2-1.2,0.6
		s-0.5,0.8-0.6,1.4l0,0h3.4v-0.1c0-0.6-0.2-1-0.4-1.4S185,143.8,184.4,143.8z"/>
	<path class="st4" d="M193.3,148.3c0-0.3-0.1-0.6-0.3-0.7c-0.2-0.2-0.6-0.3-1.3-0.5c-0.9-0.2-1.5-0.5-2-0.8s-0.7-0.8-0.7-1.4
		c0-0.6,0.2-1.1,0.8-1.5c0.6-0.4,1.2-0.6,2-0.6c0.9,0,1.5,0.2,2.1,0.7c0.6,0.5,0.8,1,0.7,1.6v0.1h-1.3c0-0.3-0.2-0.6-0.4-0.9
		c-0.3-0.2-0.6-0.4-1-0.4c-0.5,0-0.8,0.1-1,0.3c-0.2,0.2-0.3,0.5-0.3,0.8s0.1,0.6,0.3,0.7s0.6,0.3,1.3,0.5c0.9,0.2,1.6,0.5,2.1,0.8
		c0.5,0.3,0.7,0.8,0.7,1.4c0,0.6-0.2,1.2-0.8,1.6c-0.6,0.4-1.2,0.6-2.1,0.6c-1,0-1.7-0.2-2.2-0.7c-0.6-0.5-0.8-1-0.8-1.7v-0.1h1.3
		c0,0.5,0.2,0.8,0.6,1c0.3,0.2,0.7,0.3,1.2,0.3s0.9-0.1,1.1-0.3C193.1,148.9,193.3,148.6,193.3,148.3z"/>
	<path class="st4" d="M202.9,150.4c-1,0-1.9-0.3-2.5-1c-0.6-0.7-0.9-1.6-0.9-2.7v-0.3c0-1,0.3-1.9,1-2.6c0.6-0.7,1.4-1,2.2-1
		c1,0,1.8,0.3,2.2,1c0.5,0.6,0.7,1.4,0.7,2.5v0.7h-4.8l0,0c0,0.7,0.2,1.4,0.5,1.8c0.3,0.5,0.8,0.7,1.5,0.7c0.5,0,0.9-0.1,1.2-0.2
		c0.3-0.2,0.6-0.3,0.9-0.6l0.6,0.9c-0.2,0.2-0.6,0.5-1,0.6S203.5,150.4,202.9,150.4z M202.7,143.8c-0.5,0-0.9,0.2-1.2,0.6
		s-0.5,0.8-0.6,1.4l0,0h3.4v-0.1c0-0.6-0.2-1-0.4-1.4S203.3,143.8,202.7,143.8z"/>
	<path class="st4" d="M209.7,145.6l1.6-2.7h1.6l-2.4,3.7l2.5,3.8h-1.5l-1.7-2.8l-1.7,2.8h-1.6l2.5-3.8l-2.4-3.7h1.6L209.7,145.6z"/>
	<path class="st4" d="M213.8,146.5c0-1.1,0.3-2,0.9-2.7c0.6-0.7,1.4-1,2.4-1c1,0,1.8,0.3,2.5,1c0.6,0.7,0.9,1.6,0.9,2.7v0.2
		c0,1.1-0.3,2-0.9,2.7c-0.6,0.7-1.4,1-2.4,1c-1,0-1.8-0.3-2.5-1c-0.6-0.7-0.9-1.6-0.9-2.7V146.5z M215.2,146.7
		c0,0.8,0.2,1.4,0.5,1.9s0.8,0.8,1.5,0.8c0.6,0,1.1-0.2,1.4-0.8c0.3-0.5,0.5-1.2,0.5-1.9v-0.2c0-0.8-0.2-1.4-0.5-1.9
		c-0.3-0.5-0.8-0.8-1.5-0.8c-0.6,0-1.1,0.2-1.4,0.8s-0.5,1.2-0.5,1.9V146.7z M217.8,139.7h1.6v0.1l-1.8,1.8h-1L217.8,139.7z"/>
	<path class="st4" d="M224,141.1v1.8h1.4v1H224v4.6c0,0.3,0.1,0.6,0.2,0.7s0.3,0.2,0.6,0.2c0.1,0,0.2,0,0.2,0s0.2-0.1,0.2-0.1l0.2,1
		c-0.1,0.1-0.2,0.2-0.5,0.2c-0.2,0.1-0.4,0.1-0.6,0.1c-0.6,0-1-0.2-1.3-0.5c-0.3-0.3-0.5-0.9-0.5-1.6V144h-1.2v-1h1.2v-1.8
		L224,141.1L224,141.1z"/>
	<path class="st4" d="M228.4,141H227v-1.4h1.4V141z M228.4,150.4H227v-7.4h1.4V150.4z"/>
	<path class="st4" d="M233.4,149.4c0.4,0,0.8-0.2,1.1-0.4c0.3-0.2,0.5-0.6,0.5-1h1.2v0.1c0,0.6-0.2,1.2-0.8,1.7
		c-0.6,0.5-1.2,0.7-2,0.7c-1,0-1.8-0.3-2.4-1c-0.6-0.7-0.9-1.6-0.9-2.6v-0.3c0-1,0.3-1.9,0.9-2.6s1.4-1,2.4-1c0.8,0,1.5,0.2,2.1,0.8
		c0.6,0.5,0.8,1.1,0.8,1.9v0.1h-1.2c0-0.5-0.2-0.9-0.5-1.2c-0.3-0.3-0.6-0.5-1.1-0.5c-0.6,0-1.1,0.2-1.4,0.8s-0.5,1.1-0.5,1.8v0.3
		c0,0.7,0.2,1.4,0.5,1.9S232.7,149.4,233.4,149.4z"/>
	<path class="st4" d="M237.5,146.5c0-1.1,0.3-2,0.9-2.7c0.6-0.7,1.4-1,2.4-1c1,0,1.8,0.3,2.5,1c0.6,0.7,0.9,1.6,0.9,2.7v0.2
		c0,1.1-0.3,2-0.9,2.7s-1.4,1-2.4,1c-1,0-1.8-0.3-2.5-1c-0.6-0.7-0.9-1.6-0.9-2.7V146.5z M238.8,146.7c0,0.8,0.2,1.4,0.5,1.9
		c0.3,0.5,0.8,0.8,1.5,0.8c0.6,0,1.1-0.2,1.4-0.8c0.3-0.5,0.5-1.2,0.5-1.9v-0.2c0-0.8-0.2-1.4-0.5-1.9c-0.3-0.5-0.8-0.8-1.5-0.8
		c-0.6,0-1.1,0.2-1.4,0.8c-0.3,0.6-0.5,1.2-0.5,1.9V146.7z"/>
	<path class="st4" d="M250.2,148.3c0-0.3-0.1-0.6-0.3-0.7c-0.2-0.2-0.6-0.3-1.3-0.5c-0.9-0.2-1.5-0.5-2-0.8s-0.7-0.8-0.7-1.4
		c0-0.6,0.2-1.1,0.8-1.5c0.6-0.4,1.2-0.6,2-0.6c0.9,0,1.5,0.2,2.1,0.7c0.6,0.5,0.8,1,0.7,1.6v0.1h-1.3c0-0.3-0.2-0.6-0.4-0.9
		c-0.3-0.2-0.6-0.4-1-0.4c-0.5,0-0.8,0.1-1,0.3c-0.2,0.2-0.3,0.5-0.3,0.8s0.1,0.6,0.3,0.7s0.6,0.3,1.3,0.5c0.9,0.2,1.6,0.5,2.1,0.8
		c0.5,0.3,0.7,0.8,0.7,1.4c0,0.6-0.2,1.2-0.8,1.6s-1.2,0.6-2.1,0.6c-1,0-1.7-0.2-2.2-0.7c-0.6-0.5-0.8-1-0.8-1.7v-0.1h1.3
		c0,0.5,0.2,0.8,0.6,1s0.7,0.3,1.2,0.3s0.9-0.1,1.1-0.3C250,148.9,250.2,148.6,250.2,148.3z"/>
	<path class="st4" d="M255.9,146.3c0,1.8-0.4,3.4-1.1,4.6c-0.7,1.3-1.5,2.2-2.3,2.6h-0.1l-0.2-0.7c0.6-0.5,1.2-1.3,1.6-2.4
		c0.4-1.1,0.7-2.5,0.7-4.1v-0.1c0-1.6-0.2-2.9-0.7-4c-0.5-1.1-1-1.9-1.6-2.4l0.2-0.7h0.1c0.8,0.4,1.6,1.3,2.3,2.6
		C255.5,142.9,255.9,144.5,255.9,146.3L255.9,146.3z"/>
</g>
<path class="st2" d="M218.3,132.7H108.6c-5.9,0-10.9-4.9-10.9-10.9l0,0c0-5.9,4.9-10.9,10.9-10.9h109.8c5.9,0,10.9,4.9,10.9,10.9
	l0,0C229.1,127.8,224.3,132.7,218.3,132.7z"/>
<g class="st3">
	<path class="st1" d="M132.1,123.2L132.1,123.2c0,1.2-0.3,2.1-1,2.6c-0.6,0.6-1.6,0.9-2.8,0.9c-1.2,0-2.2-0.4-3-1.1
		c-0.7-0.7-1.1-1.8-1.1-3v-2.1c0-1.2,0.4-2.2,1.1-3c0.7-0.7,1.7-1.1,2.9-1.1c1.3,0,2.2,0.3,3,0.9c0.7,0.6,1,1.4,1,2.6v0.1H130
		c0-0.6-0.2-1-0.4-1.4c-0.2-0.2-0.7-0.4-1.3-0.4s-1,0.2-1.2,0.6s-0.4,1-0.4,1.7v2.1c0,0.7,0.2,1.3,0.5,1.7s0.7,0.6,1.4,0.6
		c0.6,0,0.9-0.2,1.1-0.4s0.3-0.7,0.3-1.4L132.1,123.2L132.1,123.2z"/>
	<path class="st1" d="M137.6,126.6c-0.1-0.2-0.2-0.3-0.2-0.6c-0.1-0.2-0.1-0.4-0.2-0.6c-0.2,0.4-0.5,0.7-0.7,1s-0.7,0.3-1.2,0.3
		c-0.8,0-1.4-0.2-1.8-0.6c-0.4-0.4-0.6-1-0.6-1.7c0-0.7,0.2-1.3,0.8-1.7c0.6-0.4,1.4-0.6,2.6-0.6h1v-0.6c0-0.3-0.1-0.6-0.2-0.7
		c-0.2-0.2-0.4-0.2-0.7-0.2c-0.2,0-0.5,0.1-0.6,0.2c-0.2,0.1-0.2,0.3-0.2,0.6h-2.2v-0.1c0-0.6,0.2-1.3,0.9-1.7
		c0.6-0.5,1.4-0.7,2.4-0.7c1,0,1.7,0.2,2.2,0.7c0.6,0.5,0.9,1.1,0.9,2v2.8c0,0.4,0,0.8,0.1,1.1c0.1,0.3,0.2,0.6,0.3,1L137.6,126.6z
		 M135.9,125c0.3,0,0.6-0.1,0.7-0.2c0.2-0.1,0.4-0.3,0.5-0.5v-1h-1c-0.4,0-0.6,0.1-0.8,0.2s-0.2,0.4-0.2,0.7c0,0.2,0.1,0.4,0.2,0.5
		S135.7,125,135.9,125z"/>
	<path class="st1" d="M143.5,124.8h3.4v1.8h-6.3v-1.3l3.3-4.4h-3.2v-1.8h6.1v1.3L143.5,124.8z"/>
	<path class="st1" d="M152.3,126.6c-0.1-0.2-0.2-0.3-0.2-0.6c-0.1-0.2-0.1-0.4-0.2-0.6c-0.2,0.4-0.5,0.7-0.7,1s-0.7,0.3-1.2,0.3
		c-0.8,0-1.4-0.2-1.8-0.6c-0.4-0.4-0.6-1-0.6-1.7c0-0.7,0.2-1.3,0.8-1.7c0.6-0.4,1.4-0.6,2.6-0.6h1v-0.6c0-0.3-0.1-0.6-0.2-0.7
		c-0.2-0.2-0.4-0.2-0.7-0.2c-0.2,0-0.5,0.1-0.6,0.2c-0.2,0.1-0.2,0.3-0.2,0.6h-2.2v-0.1c0-0.6,0.2-1.3,0.9-1.7
		c0.6-0.5,1.4-0.7,2.4-0.7c1,0,1.7,0.2,2.2,0.7c0.6,0.5,0.9,1.1,0.9,2v2.8c0,0.4,0,0.8,0.1,1.1c0.1,0.3,0.2,0.6,0.3,1L152.3,126.6z
		 M150.6,125c0.3,0,0.6-0.1,0.7-0.2c0.2-0.1,0.4-0.3,0.5-0.5v-1h-1c-0.4,0-0.6,0.1-0.8,0.2s-0.2,0.4-0.2,0.7c0,0.2,0.1,0.4,0.2,0.5
		S150.5,125,150.6,125z"/>
	<path class="st1" d="M159.5,126.6v-5.8h-1v-1.6h1v-0.8c0-0.9,0.2-1.5,0.8-2s1.3-0.7,2.2-0.7c0.2,0,0.3,0,0.6,0
		c0.2,0,0.4,0.1,0.6,0.1l-0.2,1.7c-0.2,0-0.2-0.1-0.3-0.1s-0.2,0-0.3,0c-0.3,0-0.5,0.1-0.6,0.2c-0.2,0.2-0.2,0.4-0.2,0.6v0.8h1.4
		v1.6H162v5.8h-2.5V126.6z"/>
	<path class="st1" d="M168.5,125.4c-0.2,0.4-0.5,0.7-0.9,1c-0.3,0.2-0.7,0.3-1.2,0.3c-0.8,0-1.4-0.2-1.8-0.8
		c-0.4-0.6-0.6-1.4-0.6-2.5v-4.2h2.3v4.3c0,0.6,0.1,1,0.2,1.2s0.4,0.3,0.7,0.3c0.2,0,0.5,0,0.6-0.1s0.3-0.2,0.5-0.3v-5.4h2.3v7.4
		h-1.8L168.5,125.4z"/>
	<path class="st1" d="M176,121.1h-0.7c-0.2,0-0.5,0.1-0.6,0.2c-0.2,0.1-0.3,0.2-0.4,0.4v4.9H172v-7.4h2.2l0.1,1.1
		c0.2-0.4,0.4-0.7,0.6-0.9c0.2-0.2,0.6-0.3,0.9-0.3c0.1,0,0.2,0,0.3,0c0.1,0,0.2,0,0.2,0.1L176,121.1z"/>
	<path class="st1" d="M179.7,117.3v1.8h1.2v1.6h-1.2v3.4c0,0.2,0.1,0.5,0.2,0.6c0.1,0.1,0.2,0.2,0.4,0.2c0.1,0,0.2,0,0.3,0
		c0.1,0,0.2,0,0.2-0.1l0.2,1.8c-0.2,0.1-0.5,0.1-0.6,0.2s-0.4,0-0.6,0c-0.8,0-1.4-0.2-1.8-0.6c-0.4-0.4-0.6-1-0.6-1.9v-3.4h-1v-1.6
		h1v-1.8L179.7,117.3L179.7,117.3z"/>
	<path class="st1" d="M184.4,117.4h-2.3v-1.6h2.3V117.4z M184.4,126.6h-2.3v-7.4h2.3V126.6z"/>
	<path class="st1" d="M188.7,123.5l0.2,0.8h0.1l0.2-0.8l1-4.4h2.5l-2.4,7.4h-2.4l-2.4-7.4h2.5L188.7,123.5z"/>
	<path class="st1" d="M197.3,126.6c-0.1-0.2-0.2-0.3-0.2-0.6s-0.1-0.4-0.2-0.6c-0.2,0.4-0.5,0.7-0.7,1s-0.7,0.3-1.2,0.3
		c-0.8,0-1.4-0.2-1.8-0.6s-0.6-1-0.6-1.7c0-0.7,0.2-1.3,0.8-1.7c0.6-0.4,1.4-0.6,2.6-0.6h1v-0.6c0-0.3-0.1-0.6-0.2-0.7
		c-0.2-0.2-0.4-0.2-0.7-0.2c-0.2,0-0.5,0.1-0.6,0.2c-0.2,0.2-0.2,0.3-0.2,0.6h-2.2v-0.1c0-0.6,0.2-1.3,0.9-1.7s1.4-0.7,2.4-0.7
		c1,0,1.7,0.2,2.2,0.7c0.6,0.5,0.9,1.1,0.9,2v2.8c0,0.4,0,0.8,0.1,1.1c0.1,0.3,0.2,0.6,0.3,1L197.3,126.6z M195.7,125
		c0.3,0,0.6-0.1,0.7-0.2c0.2-0.1,0.4-0.3,0.5-0.5v-1h-1c-0.4,0-0.6,0.1-0.8,0.2c-0.2,0.2-0.2,0.4-0.2,0.7c0,0.2,0.1,0.4,0.2,0.5
		C195.3,125,195.4,125,195.7,125z"/>
</g>
<path class="st2" d="M218.3,217.2H108.6c-5.9,0-10.9-4.9-10.9-10.9l0,0c0-5.9,4.9-10.9,10.9-10.9h109.8c5.9,0,10.9,4.9,10.9,10.9
	l0,0C229.2,212.4,224.3,217.2,218.3,217.2z"/>
<g class="st3">
	<path class="st1" d="M135.3,207.6v3.4H133v-10h3.8c1.2,0,2.2,0.3,2.8,0.9s1,1.4,1,2.4s-0.3,1.8-1,2.4c-0.7,0.6-1.7,0.9-2.8,0.9
		H135.3z M135.3,205.8h1.5c0.5,0,0.9-0.2,1.1-0.4c0.2-0.2,0.4-0.6,0.4-1c0-0.5-0.2-0.8-0.4-1.1s-0.6-0.4-1.2-0.4h-1.5L135.3,205.8
		L135.3,205.8z"/>
	<path class="st1" d="M141.4,207.2c0-1.1,0.3-2,1-2.7s1.5-1,2.6-1s2,0.3,2.6,1s1,1.6,1,2.7v0.2c0,1.1-0.3,2-1,2.7
		c-0.6,0.7-1.5,1-2.6,1c-1.1,0-2-0.3-2.6-1c-0.6-0.7-1-1.6-1-2.7V207.2z M143.8,207.4c0,0.6,0.1,1.1,0.3,1.4c0.2,0.3,0.6,0.6,1,0.6
		c0.5,0,0.8-0.2,1-0.6s0.3-0.9,0.3-1.4v-0.2c0-0.6-0.1-1.1-0.3-1.4s-0.6-0.6-1-0.6c-0.5,0-0.8,0.2-1,0.6s-0.3,0.9-0.3,1.4V207.4z"/>
	<path class="st1" d="M153.9,211c-0.1-0.2-0.2-0.3-0.2-0.6c-0.1-0.2-0.1-0.4-0.2-0.6c-0.2,0.4-0.5,0.7-0.7,1
		c-0.3,0.2-0.7,0.3-1.2,0.3c-0.8,0-1.4-0.2-1.8-0.6c-0.4-0.4-0.6-1-0.6-1.7c0-0.7,0.2-1.3,0.8-1.7c0.6-0.4,1.4-0.6,2.6-0.6h1v-0.6
		c0-0.3-0.1-0.6-0.2-0.7c-0.2-0.2-0.4-0.2-0.7-0.2c-0.2,0-0.5,0.1-0.6,0.2s-0.2,0.3-0.2,0.6h-2.2v-0.1c0-0.6,0.2-1.3,0.9-1.7
		c0.6-0.5,1.4-0.7,2.4-0.7c1,0,1.7,0.2,2.2,0.7s0.9,1.1,0.9,2v2.8c0,0.4,0,0.8,0.1,1.1c0.1,0.3,0.2,0.6,0.3,1L153.9,211z
		 M152.3,209.6c0.3,0,0.6-0.1,0.7-0.2c0.2-0.2,0.4-0.3,0.5-0.5v-1h-1c-0.4,0-0.6,0.1-0.8,0.2c-0.2,0.2-0.2,0.4-0.2,0.7
		c0,0.2,0.1,0.4,0.2,0.5C151.9,209.5,152.1,209.6,152.3,209.6z"/>
	<path class="st1" d="M160.3,209.4c0.3,0,0.6-0.1,0.7-0.2s0.2-0.4,0.2-0.7h2.2v0.1c0,0.8-0.2,1.4-0.9,2c-0.6,0.5-1.4,0.8-2.2,0.8
		c-1.1,0-2-0.3-2.6-1c-0.6-0.7-0.9-1.6-0.9-2.7v-0.2c0-1.1,0.3-2,0.9-2.7c0.6-0.7,1.5-1,2.6-1c1,0,1.7,0.2,2.2,0.8s0.9,1.3,0.8,2.2
		v0.1h-2.2c0-0.3-0.1-0.6-0.2-0.9c-0.2-0.2-0.4-0.3-0.7-0.3c-0.5,0-0.8,0.2-1,0.6s-0.2,0.9-0.2,1.4v0.2c0,0.6,0.1,1.1,0.2,1.4
		S159.8,209.4,160.3,209.4z"/>
	<path class="st1" d="M166.6,204.5c0.2-0.3,0.5-0.6,0.8-0.8c0.3-0.2,0.7-0.2,1-0.2c0.8,0,1.4,0.2,1.8,0.8s0.6,1.4,0.6,2.5v4.3h-2.3
		v-4.3c0-0.6-0.1-1-0.2-1.2c-0.2-0.2-0.4-0.3-0.6-0.3s-0.5,0-0.7,0.1c-0.2,0.1-0.3,0.2-0.5,0.3v5.4h-2.3v-10.7h2.3L166.6,204.5
		L166.6,204.5z"/>
	<path class="st1" d="M174.7,201.9h-2.3v-1.6h2.3V201.9z M174.7,211.1h-2.3v-7.4h2.3V211.1z"/>
	<path class="st1" d="M178.2,203.6l0.1,1c0.2-0.4,0.6-0.6,0.9-0.9c0.3-0.2,0.7-0.3,1.2-0.3c0.7,0,1.3,0.2,1.7,0.7s0.6,1.3,0.6,2.4
		v4.5h-2.3v-4.5c0-0.5-0.1-0.8-0.2-1c-0.2-0.2-0.4-0.3-0.6-0.3s-0.5,0.1-0.6,0.2c-0.2,0.1-0.4,0.2-0.5,0.4v5.3H176v-7.4L178.2,203.6
		L178.2,203.6z"/>
	<path class="st1" d="M183.7,207.3c0-1.2,0.2-2.1,0.8-2.8c0.5-0.7,1.2-1,2.2-1c0.4,0,0.7,0.1,1,0.2c0.3,0.2,0.6,0.5,0.8,0.8l0.2-1
		h2.1v7.3c0,1-0.3,1.8-1,2.3c-0.6,0.6-1.6,0.8-2.8,0.8c-0.4,0-0.8-0.1-1.2-0.2s-0.8-0.2-1.2-0.4l0.4-1.8c0.3,0.2,0.6,0.2,1,0.3
		c0.3,0.1,0.6,0.1,1,0.1c0.5,0,0.9-0.1,1.1-0.3c0.2-0.2,0.4-0.5,0.4-1v-0.6c-0.2,0.2-0.5,0.5-0.7,0.6c-0.2,0.2-0.6,0.2-1,0.2
		c-0.9,0-1.6-0.3-2.2-1c-0.5-0.6-0.7-1.6-0.7-2.7v-0.1H183.7z M186,207.5c0,0.6,0.1,1,0.2,1.4c0.2,0.4,0.5,0.5,0.9,0.5
		c0.2,0,0.5,0,0.6-0.1s0.3-0.2,0.5-0.3v-3.1c-0.1-0.2-0.2-0.3-0.5-0.4c-0.2-0.1-0.4-0.2-0.6-0.2c-0.4,0-0.7,0.2-0.9,0.6
		C186.1,206.3,186,206.8,186,207.5L186,207.5z"/>
</g>
</svg>
