<?xml version="1.0" encoding="utf-8"?>
<!-- Generator: Adobe Illustrator 25.3.1, SVG Export Plug-In . SVG Version: 6.00 Build 0)  -->
<svg version="1.1" id="Capa_1" xmlns="http://www.w3.org/2000/svg" xmlns:xlink="http://www.w3.org/1999/xlink" x="0px" y="0px"
	 viewBox="0 0 1666.4 1072.9" style="enable-background:new 0 0 1666.4 1072.9;" xml:space="preserve">
<style type="text/css">
	.st0{fill:url(#SVGID_1_);}
	.st1{fill:none;stroke:#95C11F;stroke-width:3.4381;stroke-miterlimit:10;}
	.st2{fill:#A29F9E;}
	.st3{fill:#D9D9D9;}
	.st4{fill:#585453;}
	.st5{fill:#BFBCBC;}
	.st6{fill:none;stroke:#95C11F;stroke-width:3.4;stroke-miterlimit:10;stroke-dasharray:4.8144,4.8144;}
	.st7{fill:#BFBCBC;stroke:#BFBCBC;stroke-width:6.808;stroke-linecap:round;stroke-miterlimit:10;}
	.st8{fill:#FFFFFF;stroke:#BFBCBC;stroke-width:6.808;stroke-linecap:round;stroke-miterlimit:10;}
	.st9{fill:none;stroke:#BFBCBC;stroke-width:6.808;stroke-linecap:round;stroke-miterlimit:10;}
	.st10{fill:#95C11F;stroke:#95C11F;stroke-width:9.0774;stroke-miterlimit:10;}
	.st11{fill:none;}
	.st12{fill:#1E1E1C;}
	.st13{font-family:'Roboto-Regular', sans-serif;}
	.st14{font-size:40px;}
	.st15{opacity:0;}
	.st16{fill:#006633;}
	.st17{clip-path:url(#SVGID_3_);}
	.st18{fill:none;stroke:#006633;stroke-width:3.4;stroke-miterlimit:10;stroke-dasharray:4.814,4.8144;}

#alturas{
	opacity:0; transition:all ease 0.25s
	}
	svg:hover #alturas{opacity:1; transition:all ease 0.25s}
	
</style>
<g id="Capa_1_3_">
	<g id="Capa_1_2_">
		<g id="Capa_1_1_">
			
				<linearGradient id="SVGID_1_" gradientUnits="userSpaceOnUse" x1="526.15" y1="197.467" x2="526.15" y2="490.7499" gradientTransform="matrix(1 0 0 1 0 -117.4804)">
				<stop  offset="0.6608" style="stop-color:#E0EDBE"/>
				<stop  offset="1" style="stop-color:#FFFFFF"/>
				<stop  offset="1" style="stop-color:#000000"/>
			</linearGradient>
			<rect x="180" y="65" class="st0" width="692.3" height="286"/>
			<line class="st1" x1="297.1" y1="894.5" x2="869.9" y2="894.5"/>
			<g>
				<path class="st2" d="M791.6,523.2c-6.2,0.7-10.9,4-10.9,12.5c0,8.7,2.1,12.6,0,17.3c-2.1,4.6-1,1-8.8,4.6
					c-7.7,3.6-9.2,1.5-11.9,7.7c-2.5,6.2,5.2,5.6-2.5,6.2c-7.7,0.6-8.8-6.2-13.4-3.1s-9.2-3.6-12.9-3.6c-3.6,0-3.1,5.7-3.1,6.7
					s2.5,4.1,5.2,7.7c2.5,3.6,1.5-0.6,0,6.7s-4.6,13.8,0,24.7c4.6,10.8,5.6,10.3,5.6,14.4c0,4.1-4.6,16.5-3.1,24.2
					s20.7,50.8,23.8,58c3.3,7.3,7.4,14.9,8.9,17.5s7.4-2.5,22.7-3.6c15.2-1,31.6,9.2,31.6,9.2s10.3-17.5,10.8-24.2
					c0.6-6.7-0.6-30,3.6-34.3c4.1-4.2,7.3-22.2,7.3-28.3c0-6.2,3-9.2,4.8-19c1.9-9.8-0.2-12.3,0-14.4c0.2-2.1,4-5.6,4-5.6v-6.2
					c0,0,1.4,5.2-4-4c-5.3-9.2-18.7-22.9-22.7-24.4c-4.1-1.5-7.3-10.3-9.8-10.3s-6.7-0.1-7.7-4.2c-1-4.1,0-12.9-2.1-19.8
					C805.2,528.7,800.9,522.2,791.6,523.2z"/>
				<path class="st3" d="M802,556.4c1-3,0.6-15.4,0-17.3s-5.5-13.8-10.2-12.9c-4.7,0.9-9.3,4.1-8.4,9.2c1,5.2-0.2,9.2,3.7,10.3
					c4.1,1,6.3,5.6,4.6,7.3C790.2,554.4,802,556.4,802,556.4z"/>
				<path class="st3" d="M730.4,564.8c0,0-1.1,5.5-6.3,5.3c-5.3-0.1-14.5,0.6-14.5,0.6l10.2-4.1l-7.6-4c0,0-0.2-1.5,6.6-1.2
					C725.7,561.9,730.4,564.8,730.4,564.8z"/>
				<path class="st3" d="M846.3,594.9c4.6-1,10.4-1,11.9,0s-3.6,2.1-5.9,2.5s8.1,2.5,6.2,4.6c-1.9,2.1-7.1,3.6-9.9,4.6
					c-2.8,1-4.3-1-6.8-3.1C839.2,601.6,846.3,594.9,846.3,594.9z"/>
				<path class="st4" d="M789.6,557.6c5.1,0.6,12.4-3.2,15.6,0c3.2,3.2,10.9,7.3,10.4,18c-0.6,10.8,3.6,16.5,0,15.4
					c-3.6-1,2.5,4.6,1.5,20.4c-1,15.9,2.2,35.4,0.1,57.5c-2.1,22.1-3.2,45.2-5.7,50.3c-2.5,5.2-12.1-8.8-17.3-2.5s-1.1,7.4-10.9,3.7
					s-13.4,2.1-13.4,2.1s-4.1-38.3-4.6-49.8c-0.6-11.4-4.6-46.3,3.6-59.7c8.2-13.4,9.2-14.9,9.8-17.7s-6.2-1.2-4.6-13.1
					c1.5-11.9,5.2-20.1,7.7-22.6C784.4,557.2,789.6,557.6,789.6,557.6z"/>
				<path class="st5" d="M794.2,716.7c-7.9-2-33.2,11-34.4,13.1s-2.5-8.9-7.4-6.7c-4.8,2.2-2.5,14.5,0,17.7s-3.6,13.1-6.9,19.6
					c-3.2,6.6-20.3,15.1-20.3,19.6s7.8,23.7,10.2,26.9s-12.6,82-10.2,86.1c2.5,4.2,139.1,0,139.1,0s-14.9-82-14.4-84.9
					c0.6-2.8,11.2-18.8,10.8-22.4c-0.4-3.6-12.3-15.9-17.1-19.6c-4.8-3.6-8.9-27.8-10.7-29.4c-1.7-1.7,14.2-26.9,12.3-31.3
					c-2.1-4.5-16.7,15.9-19.6,17.1C822.7,723.9,794.2,716.7,794.2,716.7z"/>
			</g>
			<line class="st6" x1="309.7" y1="351.1" x2="875.8" y2="351.1"/>
			<line class="st6" x1="309.7" y1="515.4" x2="875.8" y2="515.4"/>
			<g>
				<g>
					<path class="st7" d="M520.4,149.1c0,0.1,0.6,20.4,1.5,49.1c1.7,57.9,4.5,149.4,5.3,176.1c6.6,218.3,15.7,516.9,15.7,516.9
						h-39.8L520.4,149.1z"/>
					<path class="st8" d="M562.6,338.3c0,0-17.6,36.1-35.2,51.9"/>
					<path class="st8" d="M512.4,489.1c0,0-21.2,12-37,31.1"/>
					<path class="st9" d="M515.9,338.3c0,0-27.4-64.8-64.4-66"/>
					<path class="st8" d="M553.8,145.6c0,0-17.8,40.4-31,43.9"/>
					<path class="st10" d="M524.9,149.1c0,0,20.2-0.2,25.2,4.5c4.8,4.7,22.3-4.5,33.8-7.9s18.6,7.6,25.9,4.6
						c7.4-3,14.5-3.1,25.4-5.3c11-2.2,41.5-6.3,20.2-12s-48.6-3-51.4-12.6c-2.8-9.7,38-0.6,41-4.1s-2.4-16.7-38.8-23.7
						c-36.4-6.9-20.3-16.9-63.6-20.4c-43.2-3.7-30.5-3.1-42.1,5.1s-26.6,6.9-35.8,14.5s-23.2,17.8-16.2,25.4
						c6.9,7.6,28.9,1.7,28.9,1.7L458.8,131c0,0-19.7-2.4-27.8,4.1c-8.1,6.4-10.4,13.4,8.1,14.5c18.6,1.1,34.7,10.4,52,5.7
						C508.5,150.5,524.9,149.1,524.9,149.1z"/>
					<path class="st10" d="M523,249.6c8.9,4.5,34.4-12.6,44.2-16.2c9.8-3.6,21.9-15.6,29.4-14.5c7.6,1.1,32.3-10.7,41.5-0.1
						c9.2,10.4,13.8,7.6,19.1,10.4c5.3,3,20.8-5.7,31.2,5.2c10.4,11,15.6,16.2-5.7,15.1s-34.7-12.4-49.7,0.1
						c-15.1,12.5,17.3,22.3-2.4,22.3s-57.1-9.2-72.7,0c-15.6,9.2-41-11.5-52-4.6s-31.8,33-43.4,20.2c-11.5-12.6-15.6-31.8-25.9-20.2
						c-10.4,11.5-8.7,18.5-25.4,23.7c-16.7,5.2-28.9-3-36.4,6.9c-7.6,9.9-31.8,10.4-38,2.4s-11-24.3-19.7-23.7
						c-8.7,0.6-0.6-26.6,13.3-25.9c13.8,0.6,0-9.2,17.8-16.2c17.8-6.9-3-1.7-6.4-12.6c-3.5-11,27.8-9.8,35.8-19.1
						c8.1-9.3,15.6-1.1,22.6-9.2s35.3-19.7,48-10.4c12.6,9.2,19.8-11.5,35.6,0c15.9,11.5,16.7,10.4,32.2,13.8
						c15.5,3.3,26,16.6,6.6,24.8c-19.6,8.1-18.6,14.2-9,20.9L523,249.6z"/>
					<path class="st10" d="M505.5,333.5c0,0,11.4-16.7,22.2-19.1s30-22.6,35.2-22.6s19-8.1,30.5-6.9C604.9,286,639,300,639,300
						l38.5-6.6c1.5-0.2,3.2,0.1,4.5,1c3.7,2.6,13,8.5,24.7,11.8c15.6,4.2,43.9,3.1,38.8,13.5c-5.1,10.4-53.2,1.7-65.8,7.6
						c-12.6,5.7-34.7-8.7-57.1,0s-44.4,25.9-59.4,21.3c-15.1-4.6-17.5-10.4-36.6-6.4C507.2,346,505.5,333.5,505.5,333.5z"/>
					<path class="st10" d="M505.5,393.6c-19.8-24.3-19.2-10.3-35.4-19.1c-16.2-8.7-27.8-35.8-64.2-16.7s-30.7,25.6-53.2,32.5
						c-22.6,6.8-25.9,13.3-13.3,19s23.7-5.7,32.3-3.5c8.7,2.4,18.6,6.7,29.4,5.2c11-1.7,34.7-12,38-10.3c3.5,1.7,3.5,1.7,3.5,1.7
						s42.7,0.6,30,8.9c-12.6,8.4-19.1,15.4-5.7,18.2c13.3,3,17,4.1,26.6,0c9.8-4.1,23.5,13.4,29,2.6
						C528.4,421.2,505.5,393.6,505.5,393.6z"/>
					<path class="st10" d="M528.4,421.2c4.1-2.8,21.9-24.3,21.9-24.3s6.4-14.5,24.3-15.1c17.8-0.6,28.9-16.2,42.1-9.8
						c13.3,6.4,16.7,13.3,22.6,14.5c5.7,1.1,14.5,0.6,14.5,0.6l24.2,2.5c2.5,0.2,4.5,2.1,5.1,4.5l1.9,8.8c1,5.1-2.6,9.8-7.7,10
						L657,414l-30.4-4.8c-0.6-0.1-1,0-1.4,0.2l-20.1,11.4c-2.8,1.5-6.2,1.5-8.8-0.1c-6.4-4.1-19.7-10.2-33.5-3.5
						c-19.1,9.2-33.5,25.6-33.6,20.2C528.9,432.2,528.4,421.2,528.4,421.2z"/>
					<path class="st10" d="M472.3,508.2c0,0-22.9,28-28.6,26.3s-40.4-17.7-50.9,0.1c-10.4,17.8-11.5,42.1,0,35.7
						c11.5-6.4,22.7-24.3,35.6-20.8c13,3.5,40.1,5.5,43.9-9.8C475.9,524.7,508.8,485.7,472.3,508.2z"/>
				</g>
				<path class="st8" d="M531.9,240.4"/>
			</g>
		</g>
	</g>
	<g id="textos_1_">
		<g>
			<rect x="625.7" y="917.8" class="st11" width="295.5" height="188.1"/>
			<text transform="matrix(1 0 0 1 675.7753 961.6035)" class="st12 st13 st14">Virgen Cerro </text>
			<text transform="matrix(1 0 0 1 661.6934 1023.5137)" class="st12 st13 st14">San Cristóbal</text>
		</g>
		<g>
			<rect x="364.9" y="917.8" class="st11" width="266.3" height="122.5"/>
			<text transform="matrix(1 0 0 1 429.9921 961.6035)" class="st12 st13 st14">Shorea </text>
			<text transform="matrix(1 0 0 1 417.8604 1023.5137)" class="st12 st13 st14">javanica</text>
		</g>
	</g>
	<g id="alturas" class="st15">
		<g>
			<rect x="191.1" y="317.1" class="st11" width="131.7" height="87.8"/>
			<text transform="matrix(1 0 0 1 191.1777 351.0391)" class="st12 st13 st14">30 m</text>
		</g>
		<g>
			<rect x="191.1" y="481.5" class="st11" width="110.9" height="74.3"/>
			<text transform="matrix(1 0 0 1 191.1772 515.4904)" class="st12 st13 st14">22 m</text>
		</g>
		<g>
			<rect x="209.7" y="857.2" class="st11" width="87.4" height="75.3"/>
			<text transform="matrix(1 0 0 1 209.6938 891.174)" class="st12 st13 st14">0 m</text>
		</g>
	</g>
</g>
<g id="punto">
	<g>
		<circle class="st16" cx="515.9" cy="284.8" r="21"/>
	</g>
</g>
<g id="foto">
	<g>
		<g>
			<defs>
				<circle id="SVGID_2_" cx="1253.2" cy="317.1" r="248.5"/>
			</defs>
			<clipPath id="SVGID_3_">
				<use xlink:href="#SVGID_2_"  style="overflow:visible;"/>
			</clipPath>
			<g transform="matrix(1 0 0 1 -6.103516e-05 0)" class="st17">
				
					<image style="overflow:visible;enable-background:new    ;" width="408" height="612" xlink:href="siamang-colgando.webp"  transform="matrix(1.2728 0 0 1.2728 993.5672 -18.6978)">
				</image>
			</g>
		</g>
	</g>
</g>
<line class="st18" x1="512.6" y1="264.7" x2="1186" y2="77"/>
<line class="st18" x1="511.3" y1="305.3" x2="1150" y2="541.3"/>
</svg>
