<?xml version="1.0" encoding="utf-8"?>
<!-- Generator: Adobe Illustrator 25.3.1, SVG Export Plug-In . SVG Version: 6.00 Build 0)  -->
<svg version="1.1" id="mapa-1" xmlns="http://www.w3.org/2000/svg" xmlns:xlink="http://www.w3.org/1999/xlink" x="0px" y="0px"
	 viewBox="0 0 1000 300" style="enable-background:new 0 0 1000 300;" xml:space="preserve">
<style type="text/css">
	.st0{fill:#1E1E1C;}
	.st1{fill:none;}
	.st2{font-family:'Roboto-Regular', sans-serif;}
	.st3{font-size:13px;}
	.st4{fill:url(#SVGID_1_);}
	.st5{fill:url(#SVGID_2_);}
	.st6{fill:url(#SVGID_3_);}
	.st7{fill:url(#SVGID_4_);}
	.st8{fill:none;stroke:#1E1E1C;stroke-width:0.9768;stroke-linecap:round;stroke-linejoin:round;stroke-miterlimit:10;}
</style>
<rect x="331.6" y="54.7" class="st0" width="3.3" height="11.2"/>
<rect x="284.8" y="54.7" class="st0" width="3.3" height="11.2"/>
<g>
	<rect x="226" y="219" class="st1" width="148.4" height="21.8"/>
	<text transform="matrix(1 0 0 1 230.3322 229.2969)" class="st0 st2 st3">Pre-vuelo de braquiación </text>
</g>
<linearGradient id="SVGID_1_" gradientUnits="userSpaceOnUse" x1="371.7468" y1="147.1325" x2="426.4533" y2="147.1325">
	<stop  offset="0.1345" style="stop-color:#FFFFFF"/>
	<stop  offset="0.1602" style="stop-color:#F9FBF2"/>
	<stop  offset="0.2075" style="stop-color:#E9F2D1"/>
	<stop  offset="0.2711" style="stop-color:#CFE39A"/>
	<stop  offset="0.3477" style="stop-color:#ACCF50"/>
	<stop  offset="0.395" style="stop-color:#95C11F"/>
</linearGradient>
<path class="st4" d="M372.1,152.6c0,0,8.4,6.3,14.4,6.7c6,0.4,18.6-9,22.1-12.6s7-6.1,10.9-4.7s6.7,1.1,6.7-1.1s-4.2-6.7-9.8-6
	c-5.6,0.7-24.2,10.3-27,9.9c-2.8-0.4-4.8-0.2-7.6-4.2"/>
<linearGradient id="SVGID_2_" gradientUnits="userSpaceOnUse" x1="358.1852" y1="125.492" x2="339.0786" y2="88.871">
	<stop  offset="0.1533" style="stop-color:#FFFFFF"/>
	<stop  offset="0.9026" style="stop-color:#006633"/>
</linearGradient>
<path class="st5" d="M360.7,120.9L340.9,67c0,0-3.2-6.3-7-5.2s-4.2,4.6-1.8,6c2.3,1.3,11.2,38.1,13.6,59.2"/>
<linearGradient id="SVGID_3_" gradientUnits="userSpaceOnUse" x1="251.1767" y1="137.9689" x2="177.8552" y2="125.8829">
	<stop  offset="0.1534" style="stop-color:#FFFFFF"/>
	<stop  offset="0.2328" style="stop-color:#E2EEC1"/>
	<stop  offset="0.3292" style="stop-color:#C1DB7C"/>
	<stop  offset="0.4099" style="stop-color:#A9CD4A"/>
	<stop  offset="0.4708" style="stop-color:#9BC42B"/>
	<stop  offset="0.5047" style="stop-color:#95C11F"/>
</linearGradient>
<path class="st6" d="M250.6,126c-4.2,1.3-46,4.3-54.8,2.7c-8.8-1.7-17.3-3.2-18.6,0c-1.3,3.2-1,6.2,2.3,4.5
	c3.3-1.6,8.5-2.3,17.3,0.5s31.3,13.2,34.6,12.9c3.3-0.3,3.3-0.3,3.3-0.3"/>
<linearGradient id="SVGID_4_" gradientUnits="userSpaceOnUse" x1="261.5048" y1="128.615" x2="277.6822" y2="77.1657">
	<stop  offset="0.1031" style="stop-color:#FFFFFF"/>
	<stop  offset="0.6784" style="stop-color:#006633"/>
</linearGradient>
<path class="st7" d="M269.5,124.3c0,0,10-13.7,10.9-21.7c1-8,1.8-20.5,3.5-25s0.8-5.7,4.1-6.6c3.3-1,5,0.3,2.8-4.5
	c-1.1-2.4-7.3-5.6-10.3-2c-2.9,3.6-6.9,17-10.1,25.1s-15.7,34.9-19.9,36.2"/>
<path class="st8" d="M383.9,133.8c0.5-4.2,0.9-8.6-1.2-11.6c-2.5-3.5-7.1-9-13.7-5.6c-8.3,4.3-8.3,4.3-8.3,4.3L340.9,67
	c0,0-3.2-6.3-7-5.2s-4.2,4.6-1.8,6c2.5,1.4,12.6,44.3,14.1,63.9s1.1,40,4.9,42.5s13.3,10.2,19.7,9.1c6.3-1.1,8.8,0,9.1,8.1
	s-3.9,12.3,2.5,13.7c6.3,1.4,12.3,9.1,14.4,7.7c2.1-1.4-2.8-8.8-4.9-10.5c-2.1-1.8,1.4-27.7-1.8-32.7c-3.2-4.9-12.6-8.4-15.1-7.7
	s-2.5-9.5-2.5-9.5s8.4,6.3,14.4,6.7c6,0.4,18.6-9,22.1-12.6c3.5-3.6,7-6.1,10.9-4.7s6.7,1.1,6.7-1.1c0-2.1-4.2-6.7-9.8-6
	c-5.6,0.7-24.6,10.5-27.4,10.1c-1.9-0.2-3.3-0.6-5.4-1.9c-1.4-0.9-5.2-4.8-1.3-7.6L383.9,133.8z"/>
<path class="st8" d="M391.4,184.2c0,0,7.9,1.4,8.9,3.2c1,1.8,1.4,3.9,0.9,5.2c-0.5,1.3-3.1,1.5-3.1,0c0-1.5-6.9-1.8-6.9-1.8"/>
<path class="st8" d="M374.3,125.4c0,0-3.8-0.8-3.4,1c0.4,1.8,1.7,2.2,1.7,2.2"/>
<path class="st8" d="M383.5,124c0,0-2.3-1.8-4.1,0s-1.5,1.9-0.8,2.9c0.7,1.1,0.7,2.5-0.5,4.3c-1.2,1.8-2.5,2.8-1.1,4
	c1.4,1.2,5.8,0.2,5.8,0.2"/>
<path class="st8" d="M202.6,204.6c0,0,1.9,4.1,4.4,3.5c2.5-0.6,1-7.2,1-9c0-1.8,12.7-1,17.4-2.9s13.1-11.9,15.6-15.2
	c2.5-3.3,1-14.1,1-14.1s7.2-0.6,14.1-5.9c6.8-5.3,9-11.1,9-11.1s12.5,1.6,13.1-3.9s-0.4-3.1,0-7.8c0.4-4.7,1.8-6.4-2.5-9.8
	c-4.3-3.3-6.1-4.1-6.1-4.1s10-13.7,10.9-21.7c1-8,1.8-20.5,3.5-25s0.8-5.7,4.1-6.6c3.3-1,5,0.3,2.8-4.5c-1.1-2.4-7.3-5.6-10.3-2
	c-2.9,3.6-6.9,17-10.1,25.1s-15.7,34.9-19.9,36.2c-4.2,1.3-46,4.3-54.8,2.7c-8.8-1.7-17.3-3.2-18.6,0c-1.3,3.2-1,6.2,2.3,4.5
	c3.3-1.6,8.5-2.3,17.3,0.5s31.3,13.2,34.6,12.9c3.3-0.3,3.3-0.3,3.3-0.3s-13.4,15-13.4,21.5c0,6.5,1.6,10.1-3.3,12.7
	s-17.6,6.1-19.9,13.8s-5.5,13.2-2.9,13.9C197,208.5,200.5,207.1,202.6,204.6c0.9-1.1,1.5-2.3,1.7-3.7c0.7-4.9,3.9-5.6,8.5-6.7
	c4.6-1.1,16.3-5.4,17-8.6c0.7-3.3-0.7-5.2,2-8.2c2.6-2.9,3.4-4.6,3.4-4.6"/>
<path class="st8" d="M266,134.3c0,0-4.3-1.2-3.2,1.2c1.1,2.4,2.4,2.9,2.4,2.9"/>
<path class="st8" d="M278.5,132.7c0,0-6-2.4-6.3,1.3s1.9,5.8,0,7.3c-1.9,1.5-5.4,2.5-4.5,5.1c0.9,2.6,3,3.7,3,3.7"/>
<line class="st8" x1="250.6" y1="125.8" x2="256.6" y2="125.3"/>
</svg>
