<?xml version="1.0" encoding="utf-8"?>
<!-- Generator: Adobe Illustrator 25.3.1, SVG Export Plug-In . SVG Version: 6.00 Build 0)  -->
<svg version="1.1" id="mapa-1" xmlns="http://www.w3.org/2000/svg" xmlns:xlink="http://www.w3.org/1999/xlink" x="0px" y="0px"
	 viewBox="0 0 1000 300" style="enable-background:new 0 0 1000 300;" xml:space="preserve">
<style type="text/css">
	.st0{fill:#1E1E1C;}
	.st1{fill:none;}
	.st2{font-family:'Roboto-Regular', sans-serif;}
	.st3{font-size:13px;}
	.st4{fill:none;stroke:#95C11F;stroke-width:0.9768;stroke-miterlimit:10;stroke-dasharray:1.2308,1.2308;}
	.st5{fill:#95C11F;}
	.st6{fill:url(#SVGID_1_);}
	.st7{fill:url(#SVGID_2_);}
	.st8{fill:none;stroke:#1E1E1C;stroke-width:0.9768;stroke-linecap:round;stroke-linejoin:round;stroke-miterlimit:10;}
</style>
<rect x="536.3" y="54.7" class="st0" width="3.3" height="11.2"/>
<rect x="390.6" y="54.7" class="st0" width="3.3" height="11.2"/>
<g>
	<rect x="417.8" y="69.3" class="st1" width="93.4" height="20.1"/>
	<text transform="matrix(1 0 0 1 435.2277 79.5855)" class="st0 st2 st3">Vuelo libre</text>
</g>
<g>
	<rect x="421.8" y="41.2" class="st1" width="93.4" height="20.1"/>
	<text transform="matrix(1 0 0 1 422.3527 51.5035)" class="st0 st2 st3">Avanza 3 metros</text>
</g>
<g>
	<g>
		<line class="st4" x1="400.1" y1="60.3" x2="528.9" y2="60.3"/>
		<g>
			<polygon class="st5" points="402.9,64 401.4,60.3 402.9,56.7 394.3,60.3 			"/>
		</g>
		<g>
			<polygon class="st5" points="526.2,64 527.7,60.3 526.2,56.7 534.8,60.3 			"/>
		</g>
	</g>
</g>
<linearGradient id="SVGID_1_" gradientUnits="userSpaceOnUse" x1="483.9473" y1="120.7313" x2="539.2384" y2="72.9892">
	<stop  offset="1.887839e-02" style="stop-color:#FFFFFF"/>
	<stop  offset="0.4426" style="stop-color:#95C11F"/>
</linearGradient>
<path class="st6" d="M479.5,111.3l6.3-2.3c6.5-3.4,12.7-10,20.1-15.5c10.6-7.9,18.2-19.1,20.3-20.7c2.1-1.6,7.2-0.1,8,1.8
	c0.7,1.6-1.2,4.5-4.2,5.7c-3,1.2-9.3,19.1-12.7,24.2c-2.1,3.3-29.2,24.7-29.2,24.7"/>
<linearGradient id="SVGID_2_" gradientUnits="userSpaceOnUse" x1="445.4579" y1="119.042" x2="407.3607" y2="93.4699">
	<stop  offset="0" style="stop-color:#FFFFFF"/>
	<stop  offset="1" style="stop-color:#006633"/>
</linearGradient>
<path class="st7" d="M448.1,129.9l-8.3-2.9c0,0-5.9-1.6-18.6-11.9c-12.7-10.3-23.6-27.4-26.6-31.8c-3-4.4-3.4-5.2,0-9.1
	c3.4-4,6.3,6,5.9,7.9c-0.4,2,17.3,14.3,27.4,20.7c5.3,3.3,11.2,6.2,17.3,7.4c1.5,0.3,3.5,0.6,5.6,0.8"/>
<path class="st8" d="M492.5,127"/>
<path class="st8" d="M448.1,129.8l-8.3-2.9c0,0-5.9-1.6-18.6-11.9c-12.7-10.3-23.6-27.4-26.6-31.8c-3-4.4-3.4-5.2,0-9.1
	c3.4-4,6.3,6,5.9,7.9c-0.4,2,17.3,14.3,27.4,20.7c5.3,3.3,11.2,6.2,17.3,7.4c6,1.1,19.5,2.2,24.3,2.2c3,0,7.2,0.5,10-0.9l6.3-2.3
	c6.5-3.4,12.7-10,20.1-15.5c10.6-7.9,18.2-19.1,20.3-20.7c2.1-1.6,7.2-0.1,8,1.8c0.7,1.6-1.2,4.5-4.2,5.7c-3,1.2-9.3,19.1-12.7,24.2
	c-2.1,3.3-29.2,24.7-29.2,24.7c-0.8,6-15.2,23.1-11.8,23.8c3.4,0.8,16.9,15.1,19.4,19.5c2.5,4.4,0.4,20.7,0.4,20.7s0.8,2,5.1,5.6
	c4.2,3.6,1.5,9.7-1.3,10.8c-1.6,0.6-3.8-2.8-6.3-6.4c-2.5-3.6-4.6-1.6-7.6-4.8c-3-3.2-1.7-12.7-3-19.5c-1.3-6.8-19.1-13.5-19.1-13.5
	s6,11.5,6.9,15.9c0.8,4.4-2.5,11.5-2.5,15.1c0,3.6,2.1,6.4,2.1,10.3c0,4-7.2,3.6-10.6,0c-3.4-3.6-4.6-10.7-3.8-19.5
	s-2.5-17.1-6.8-26.2c-4.2-9.1-0.8-34.2-0.8-34.2"/>
<path class="st8" d="M456.5,111.3c0,0,2.1-7,14-6.1c5.2,0.4,9,6.1,9,6.1"/>
</svg>
