<?xml version="1.0" encoding="utf-8"?>
<!-- Generator: Adobe Illustrator 25.3.1, SVG Export Plug-In . SVG Version: 6.00 Build 0)  -->
<svg version="1.1" id="mapa-1" xmlns="http://www.w3.org/2000/svg" xmlns:xlink="http://www.w3.org/1999/xlink" x="0px" y="0px"
	 viewBox="0 0 1000 300" style="enable-background:new 0 0 1000 300;" xml:space="preserve">
<style type="text/css">
	.st0{fill:url(#SVGID_1_);}
	.st1{fill:none;stroke:#1E1E1C;stroke-width:0.9768;stroke-linecap:round;stroke-linejoin:round;stroke-miterlimit:10;}
	.st2{fill:#1E1E1C;}
	.st3{fill:none;}
	.st4{font-family:'Roboto-Regular', sans-serif;}	
	.st5{font-size:13px;}
	.st6{fill:url(#SVGID_2_);}
	.st7{fill:url(#SVGID_3_);}
	.st8{fill:url(#SVGID_4_);}
</style>
<linearGradient id="SVGID_1_" gradientUnits="userSpaceOnUse" x1="590.6135" y1="138.3508" x2="552.7698" y2="168.2737">
	<stop  offset="2.690412e-02" style="stop-color:#FFFFFF"/>
	<stop  offset="0.5777" style="stop-color:#006633"/>
</linearGradient>
<path class="st0" d="M586.2,139.8c-2.2,2-9.3,9.2-13.6,16.8c-4.3,7.6-6,15.6-6.7,17.8c-1.5,4.7-5,5.6-8.4,5.7s-2.3-6.2,1-9.3
	c1.4-1.3,0.8-9.8,5.7-18.3c6.9-12.2,15.9-25.4,19.7-27c0.6-0.2,5.2-2.7,5.2-2.7"/>
<path class="st1" d="M615.3,107.3c0,0-2.8-1.6-4.6,0.2c-1.8,1.8-1.1,2.6-0.5,3.6c0.7,1.1,0.4,1.7-0.9,3.6c-1.2,1.8-0.9,5.3,0.5,6.5
	c1.4,1.2,5.1,0.8,5.1,0.8l2.9-5.3c0.9-6.3-2.2-8.7-3.8-11c-2.5-3.5-2.9-6.3-11.8-5.4c-8.6,0.9-10.7,7.1-11,12.7
	c-0.2,3.9,0.1,6,0.3,8.2c0.1,0.7-1.9,0.9-2.4,1.5c0,0-4.6,2.5-5.2,2.7c-3.8,1.6-12.8,14.8-19.7,27c-4.9,8.6-4.2,17-5.7,18.3
	c-3.4,3.1-4.4,9.4-1,9.3s6.9-1.1,8.4-5.7c0,0,4-15.3,9.7-22.5c5.8-7.2,10.5-12,10.5-12"/>
<rect x="633.7" y="54.7" class="st2" width="3.3" height="11.2"/>
<rect x="709.2" y="54.7" class="st2" width="3.3" height="11.2"/>
<g>
	<rect x="583.5" y="219.7" class="st3" width="138.8" height="12.6"/>
	<text transform="matrix(1 0 0 1 625.9826 229.963)" class="st2 st4 st5">Aterrizaje</text>
</g>
<linearGradient id="SVGID_2_" gradientUnits="userSpaceOnUse" x1="722.7697" y1="144.4133" x2="769.8039" y2="144.4133">
	<stop  offset="0" style="stop-color:#FFFFFF"/>
	<stop  offset="1" style="stop-color:#006633"/>
</linearGradient>
<path class="st6" d="M722.8,154.2c2.4,1.2,5.1,2.2,7.3,2.3c6,0.4,18.6-9,22.1-12.6c3.5-3.6,7-6.1,10.9-4.7c3.9,1.4,6.7,1.1,6.7-1.1
	s-4.2-6.7-9.8-6s-24.2,9.5-27,9.1c-0.7-0.1-1.4-0.3-2.2-0.6"/>
<linearGradient id="SVGID_3_" gradientUnits="userSpaceOnUse" x1="713.0945" y1="130.0564" x2="713.0945" y2="76.2781">
	<stop  offset="5.472384e-02" style="stop-color:#FFFFFF"/>
	<stop  offset="0.5565" style="stop-color:#95C11F"/>
</linearGradient>
<path class="st7" d="M719.8,128.1c0,0,3.4-16.6,0.9-24.3c-2.4-7.7-6.9-19.4-7.2-24.2c-0.3-4.8-1.6-5.5,1-7.7s4.7-1.8,0.7-5.3
	c-2-1.7-9-2.1-10.2,2.4c-1.2,4.5,0.8,18.3,1.3,27c0.3,5.8-0.4,19.2-1.6,30.8"/>
<path class="st1" d="M722.8,154.2c2.4,1.2,5.1,2.2,7.3,2.3c6,0.4,18.6-9,22.1-12.6c3.5-3.6,7-6.1,10.9-4.7c3.9,1.4,6.7,1.1,6.7-1.1
	s-4.2-6.7-9.8-6s-24.2,9.5-27,9.1c-0.7-0.1-1.4-0.3-2.2-0.6"/>
<path class="st1" d="M719.8,128.1c0,0,3.4-16.6,0.9-24.3c-2.4-7.7-6.9-19.4-7.2-24.2c-0.3-4.8-1.6-5.5,1-7.7s4.7-1.8,0.7-5.3
	c-2-1.7-9-2.1-10.2,2.4c-1.2,4.5,0.8,18.3,1.3,27s-1.4,34.8-3.7,46.1c-1.3,6.2-5.9,19.2-3.2,25.1c2.7,5.9,5.7,8.5,2.3,12.9
	s-13.5,12.9-12.3,20.9c1.1,7.9,0.5,14.4,3.1,13.9c1.9-0.3,4.5-3,5.3-6.2c0.4-1.3,0.4-2.7,0-4.1c-1.4-4.7,1.2-6.7,4.9-9.6
	s12.6-11.7,11.8-14.9c-0.8-3.2-2.8-4.5-1.6-8.2c1.1-3.8,1.2-5.6,1.2-5.6"/>
<path class="st1" d="M697.8,208.7c0,0,3.4,3,5.5,1.4c2.1-1.6-2.1-7-2.8-8.6c-0.7-1.6,11-6.3,14.6-9.9c9.7-9.7,9.1-15.6,7.9-20.4
	c-1-4-5-13.2-5-13.2s6.3-3.5,10.3-11.2c4-7.6,3.5-13.9,3.5-13.9s12-3.8,10.3-9c-1.7-5.2-1.7-2.7-3.3-7.1s-1.1-6.6-6.4-7.8
	c-5.3-1.2-10.8-1.2-10.8-1.2"/>
<path class="st1" d="M726.2,118.4c0,0-4.4,0.7-2.4,2.4c2,1.7,3.5,1.7,3.5,1.7"/>
<path class="st1" d="M736.9,111.8c0,0-6.4,0.3-5.2,3.8c1.2,3.5,4.1,4.4,3,6.6c-1.1,2.2-4,3.1-2,5.1c2,2,4.3,3.5,4.3,3.5"/>
<path class="st1" d="M582.1,169.6c2.7,3.8,10.2,5,10.2,5"/>
<linearGradient id="SVGID_4_" gradientUnits="userSpaceOnUse" x1="617.8589" y1="125.9205" x2="629.204" y2="90.8539">
	<stop  offset="5.472384e-02" style="stop-color:#FFFFFF"/>
	<stop  offset="0.5565" style="stop-color:#95C11F"/>
</linearGradient>
<path class="st8" d="M614.3,124.3c0,0,0.4-1.7,0.6-2.3c4.1-10.1,11.6-40.4,12.9-45.2c1.5-5.6,4.5-11.8,7.9-13.1
	c3.4-1.3,4.1,4.8,4.1,4.8s-2.4,4.4-4.1,7.8s-2.4,16.5-4.9,26.9c-2.2,9.3-8,22.9-10.4,29.9"/>
<path class="st1" d="M588.1,132.1c-0.4,1.9-2.2,8.9-2.2,8.9c0,2.1,0.4,5.9-1.3,9.8c-1,2.3-2.6,6.2-4.1,10.4c-2.1,5.8-4,12.2-4.2,16
	c-0.2,6.5-7.4,12.5-8.3,18s-0.7,7.7-0.7,7.7s-5.6,9.7-2.9,10.9c2.6,1.2,10.2-3,10-6.7s3.3-0.5,9.1-14.8c5.8-14.3,8.7-17.7,8.7-17.7
	s6.3,2.7,3.3,10s-4,9.4-5.7,11.8c-1.7,2.3-0.6,9.6,1.1,14.8s3.1,9.4,4.5,6s0.1-12.9,0.1-12.9s12.4-14.4,13-17.3
	c1.5-6.9-5.4-19.8-4.2-22.6c1.2-2.7,13.6-23.6,15-28.5c1.4-4.9,9.7-20.8,11.3-32.7c1.5-10.6,3.1-23.4,4.9-26.9s4.1-7.8,4.1-7.8
	s-0.7-6.1-4.1-4.8c-3.4,1.3-6.4,7.5-7.9,13.1c-1.3,4.7-8.8,35.1-12.9,45.2c-0.2,0.5-0.3,0.9-0.6,1.3c-1.7,2.6-4,1.5-4.6,0.8
	c-0.5-0.6,3.1-2.1,3.1-2.1"/>
<path class="st1" d="M604,110.6c0,0-3.8-0.8-3.4,1c0.4,1.8,1.7,2.2,1.7,2.2"/>
</svg>
