<?xml version="1.0" encoding="utf-8"?>
<!-- Generator: Adobe Illustrator 25.3.1, SVG Export Plug-In . SVG Version: 6.00 Build 0)  -->
<svg version="1.1" id="Capa_1" xmlns="http://www.w3.org/2000/svg" xmlns:xlink="http://www.w3.org/1999/xlink" x="0px" y="0px"
	 viewBox="0 0 387.7 222" style="enable-background:new 0 0 387.7 222;" xml:space="preserve">
<style type="text/css">
	.st0{fill:none;stroke:#95C11F;stroke-width:0.453;stroke-miterlimit:10;stroke-dasharray:0.4447,0.4447;}
	.st1{fill:#95C11F;}
	.st2{fill:#FFFFFF;}
	.st3{font-family:'Roboto', sans-serif;}
	.st4{font-size:12px;}
	.st5{fill:url(#SVGID_1_);}
	.st6{fill:none;}
	.st7{font-family:'Roboto-Regular', sans-serif;}
	.st8{font-size:12px;}
	.st9{font-size:9px;}
	.st10{clip-path:url(#SVGID_3_);}
	.st11{fill:#1D1D1B;}
	.st12{font-family:'Roboto-Regular', sans-serif;}

#valores{
	opacity:0; transition:all ease 0.25s
	}
	svg:hover #valores{opacity:1; transition:all ease 0.25s}
	
</style>
<g id="Capa_1_1_">
	<path class="st0" d="M143.7,338.6"/>
	<g>
		<g>
			<line class="st0" x1="38.2" y1="185.7" x2="356.4" y2="185.7"/>
			<g>
				<polygon class="st1" points="39.4,187.3 38.7,185.7 39.4,184 35.5,185.7 				"/>
			</g>
			<g>
				<polygon class="st1" points="355.1,187.3 355.8,185.7 355.1,184 359.1,185.7 				"/>
			</g>
		</g>
	</g>
	<rect x="126" y="180.4" class="st2" width="133.2" height="24.6"/>
	<text transform="matrix(1 0 0 1 130.9595 186.5206)" class="st3 st4">EXPECTATIVA DE VIDA</text>
	
		<linearGradient id="SVGID_1_" gradientUnits="userSpaceOnUse" x1="35.5" y1="129.6" x2="359.1" y2="129.6" gradientTransform="matrix(1 0 0 -1 0 224)">
		<stop  offset="0" style="stop-color:#006633"/>
		<stop  offset="0.9995" style="stop-color:#95C11F"/>
	</linearGradient>
	<path class="st5" d="M359.1,173.8H325c-1.6-69.1-58.2-124.6-127.7-124.6S71.2,104.6,69.5,173.8h-34C37.1,85.8,108.9,15,197.3,15
		C285.6,15,357.4,85.8,359.1,173.8z"/>
	<path class="st0" d="M198.8,182"/>
	<path class="st0" d="M242.7,96.3"/>
	<line class="st0" x1="274.2" y1="34.8" x2="247.1" y2="87.7"/>
	<line class="st6" x1="421.7" y1="177.1" x2="353.6" y2="177.1"/>
	<line class="st6" x1="319.5" y1="177.1" x2="64.1" y2="177.1"/>
	<line class="st6" x1="30" y1="177.1" x2="17" y2="177.1"/>
	<g>
		<path id="SVGID_x5F_2_x5F_" class="st6" d="M58,168.5c3.2-71.3,62.8-128.1,136-128.1"/>
		<text transform="matrix(0.2052 -0.9787 0.9787 0.2052 60.3417 148.8596)" class="st7 st8"> </text>
		<text transform="matrix(0.2487 -0.9686 0.9686 0.2487 60.9708 145.5824)" class="st2 st3 st9">M</text>
		<text transform="matrix(0.3033 -0.9529 0.9529 0.3033 63.0933 137.4226)" class="st2 st3 st9">A</text>
		<text transform="matrix(0.3516 -0.9362 0.9362 0.3516 65.0718 131.1903)" class="st2 st3 st9">D</text>
		<text transform="matrix(0.3997 -0.9166 0.9166 0.3997 67.5124 124.6964)" class="st2 st3 st9">U</text>
		<text transform="matrix(0.4432 -0.8964 0.8964 0.4432 70.2393 118.4703)" class="st2 st3 st9">R</text>
		<text transform="matrix(0.4807 -0.8769 0.8769 0.4807 72.864 113.1755)" class="st2 st3 st9">E</text>
		<text transform="matrix(0.5166 -0.8562 0.8562 0.5166 75.4185 108.5056)" class="st2 st3 st9">Z</text>
		<text transform="matrix(0.5413 -0.8409 0.8409 0.5413 78.4127 103.5964)" class="st2 st3 st9"> </text>
		<text transform="matrix(0.5642 -0.8256 0.8256 0.5642 79.483 101.8913)" class="st2 st3 st9">S</text>
		<text transform="matrix(0.5967 -0.8025 0.8025 0.5967 82.5204 97.4477)" class="st2 st3 st9">E</text>
		<text transform="matrix(0.6301 -0.7765 0.7765 0.6301 85.6892 93.1722)" class="st2 st3 st9">X</text>
		<text transform="matrix(0.6665 -0.7455 0.7455 0.6665 89.533 88.422)" class="st2 st3 st9">U</text>
		<text transform="matrix(0.7023 -0.7119 0.7119 0.7023 94.0661 83.3563)" class="st2 st3 st9">A</text>
		<text transform="matrix(0.7321 -0.6812 0.6812 0.7321 98.6684 78.7132)" class="st2 st3 st9">L</text>
		<text transform="matrix(0.7528 -0.6582 0.6582 0.7528 102.406 75.2543)" class="st7 st8"> </text>
		<text transform="matrix(0.7687 -0.6396 0.6396 0.7687 104.9166 73.0592)" class="st7 st8"> </text>
		<text class="st7 st8"> </text>
	</g>
	<path id="SVGID_x5F_3_x5F_" class="st6" d="M103.9,76.4C154.4,26,236.8,24.5,290.7,74"/>
	<text transform="matrix(0.9618 -0.2738 0.2738 0.9618 159.4481 43.3181)" class="st7 st8"> </text>
	<text transform="matrix(0.9712 -0.2381 0.2381 0.9712 162.6475 42.3766)" class="st2 st3 st9">A</text>
	<text transform="matrix(0.9812 -0.1932 0.1932 0.9812 168.9997 40.8286)" class="st2 st3 st9">P</text>
	<text transform="matrix(0.989 -0.1482 0.1482 0.989 174.6799 39.701)" class="st2 st3 st9">A</text>
	<text transform="matrix(0.9947 -0.1025 0.1025 0.9947 181.1468 38.7397)" class="st2 st3 st9">R</text>
	<text transform="matrix(0.9981 -6.117756e-02 6.117756e-02 0.9981 187.0267 38.1406)" class="st2 st3 st9">E</text>
	<text transform="matrix(0.9998 -1.756389e-02 1.756389e-02 0.9998 192.3383 37.8016)" class="st2 st3 st9">A</text>
	<text transform="matrix(0.9993 3.740828e-02 -3.740828e-02 0.9993 198.8766 37.6608)" class="st2 st3 st9">M</text>
	<text transform="matrix(0.9969 7.867651e-02 -7.867651e-02 0.9969 207.2988 38.034)" class="st2 st3 st9">I</text>
	<text transform="matrix(0.9941 0.1085 -0.1085 0.9941 210.1321 38.2391)" class="st2 st3 st9">E</text>
	<text transform="matrix(0.9883 0.1528 -0.1528 0.9883 215.4253 38.7993)" class="st2 st3 st9">N</text>
	<text transform="matrix(0.9804 0.1973 -0.1973 0.9804 222.2188 39.8652)" class="st2 st3 st9">T</text>
	<text transform="matrix(0.9702 0.2423 -0.2423 0.9702 227.5778 40.9237)" class="st2 st3 st9">O</text>
	<text transform="matrix(0.9602 0.2794 -0.2794 0.9602 234.5011 42.6903)" class="st7 st8"> </text>
	<text class="st7 st8"> </text>
	<path id="SVGID_x5F_4_x5F_" class="st6" d="M227,49.4c62.3,4.6,109.3,59.5,107.2,123.8"/>
	<text transform="matrix(0.6726 0.74 -0.74 0.6726 301.5928 85.3804)" class="st7 st8"> </text>
	<text transform="matrix(0.6405 0.768 -0.768 0.6405 303.8665 87.8268)" class="st2 st3 st9">G</text>
	<text transform="matrix(0.6008 0.7994 -0.7994 0.6008 308.2056 93.0589)" class="st2 st3 st9">E</text>
	<text transform="matrix(0.5646 0.8253 -0.8253 0.5646 311.4039 97.3132)" class="st2 st3 st9">S</text>
	<text transform="matrix(0.527 0.8498 -0.8498 0.527 314.4435 101.7548)" class="st2 st3 st9">T</text>
	<text transform="matrix(0.4843 0.8749 -0.8749 0.4843 317.3329 106.3903)" class="st2 st3 st9">A</text>
	<text transform="matrix(0.4389 0.8985 -0.8985 0.4389 320.4932 112.1141)" class="st2 st3 st9">C</text>
	<text transform="matrix(0.4063 0.9137 -0.9137 0.4063 323.0706 117.4539)" class="st2 st3 st9">I</text>
	<text transform="matrix(0.3687 0.9296 -0.9296 0.3687 324.2655 120.0324)" class="st2 st3 st9">Ó</text>
	<text transform="matrix(0.3149 0.9491 -0.9491 0.3149 326.8961 126.677)" class="st2 st3 st9">N</text>
	<text transform="matrix(0.2752 0.9614 -0.9614 0.2752 329.0268 133.2152)" class="st7 st8"> </text>
	<text class="st7 st8"> </text>
	<line class="st0" x1="144.1" y1="88.4" x2="114.6" y2="37.7"/>
	<path class="st0" d="M143.7,86.4"/>
	<path class="st0" d="M198.8,182"/>
	<g>
		<g>
			<defs>
				<circle id="SVGID_2_" cx="192.7" cy="99.8" r="66.8"/>
			</defs>
			<clipPath id="SVGID_3_">
				<use xlink:href="#SVGID_2_"  style="overflow:visible;"/>
			</clipPath>
			<g transform="matrix(1 0 0 1 0 -7.629395e-06)" class="st10">
				
					<image style="overflow:visible;enable-background:new    ;" width="900" height="635" xlink:href="siamangs.png"  transform="matrix(0.1435 0 0 0.1435 129.275 78.9108)">
				</image>
			</g>
		</g>
	</g>
</g>
<g id="valores">
	<path id="SVGID_x5F_7_x5F_" class="st6" d="M105.4,101.7c52.4-48.4,134.8-46.9,186.8,4.6"/>
	<text transform="matrix(0.9714 -0.2376 0.2376 0.9714 162.1703 70.7544)" class="st7 st8"> </text>
	<text transform="matrix(0.9779 -0.2092 0.2092 0.9779 165.4072 69.9542)" class="st11 st12 st9">c</text>
	<text transform="matrix(0.9845 -0.1754 0.1754 0.9845 169.7727 69.0172)" class="st11 st12 st9">a</text>
	<text transform="matrix(0.9905 -0.1372 0.1372 0.9905 174.5008 68.1668)" class="st11 st12 st9">d</text>
	<text transform="matrix(0.9951 -9.884746e-02 9.884746e-02 0.9951 180.0695 67.4036)" class="st11 st12 st9">a</text>
	<text transform="matrix(0.9973 -7.339875e-02 7.339875e-02 0.9973 184.8508 66.9458)" class="st11 st12 st9"> </text>
	<text transform="matrix(0.9989 -4.680456e-02 4.680456e-02 0.9989 186.9567 66.7709)" class="st11 st12 st9">2</text>
	<text transform="matrix(0.9998 -2.021526e-02 2.021526e-02 0.9998 192.0643 66.5519)" class="st11 st12 st9"> </text>
	<text transform="matrix(1 5.219790e-03 -5.219790e-03 1 194.1761 66.4917)" class="st11 st12 st9">a</text>
	<text transform="matrix(0.9995 3.062514e-02 -3.062514e-02 0.9995 198.9791 66.5338)" class="st11 st12 st9"> </text>
	<text transform="matrix(0.9984 5.712046e-02 -5.712046e-02 0.9984 201.0921 66.579)" class="st11 st12 st9">3</text>
	<text transform="matrix(0.9965 8.355634e-02 -8.355634e-02 0.9965 206.1945 66.8908)" class="st11 st12 st9"> </text>
	<text transform="matrix(0.9941 0.1088 -0.1088 0.9941 208.3015 67.0503)" class="st11 st12 st9">a</text>
	<text transform="matrix(0.9892 0.1464 -0.1464 0.9892 213.0779 67.5663)" class="st11 st12 st9">ñ</text>
	<text transform="matrix(0.9825 0.1861 -0.1861 0.9825 218.5496 68.3764)" class="st11 st12 st9">o</text>
	<text transform="matrix(0.9755 0.2199 -0.2199 0.9755 223.9225 69.4075)" class="st11 st12 st9">s</text>
	<text transform="matrix(0.9693 0.2458 -0.2458 0.9693 227.7716 70.2793)" class="st7 st8"> </text>
	<text class="st7 st8"> </text>
	<path id="SVGID_x5F_8_x5F_" class="st6" d="M198.8,61.3C261.1,64.9,309,119,307.9,183.4"/>
	<text transform="matrix(0.6841 0.7294 -0.7294 0.6841 273.9436 96.1008)" class="st7 st8"> </text>
	<text transform="matrix(0.6561 0.7547 -0.7547 0.6561 276.2411 98.5196)" class="st11 st12 st9">d</text>
	<text transform="matrix(0.6219 0.7831 -0.7831 0.6219 279.9239 102.7669)" class="st11 st12 st9">e</text>
	<text transform="matrix(0.5985 0.8011 -0.8011 0.5985 283.0129 106.6897)" class="st11 st12 st9"> </text>
	<text transform="matrix(0.5741 0.8188 -0.8188 0.5741 284.2949 108.3694)" class="st11 st12 st9">7</text>
	<text transform="matrix(0.5494 0.8356 -0.8356 0.5494 287.2111 112.5677)" class="st11 st12 st9"> </text>
	<text transform="matrix(0.5253 0.8509 -0.8509 0.5253 288.3881 114.3228)" class="st11 st12 st9">a</text>
	<text transform="matrix(0.5008 0.8656 -0.8656 0.5008 290.8947 118.4201)" class="st11 st12 st9"> </text>
	<text transform="matrix(0.4748 0.8801 -0.8801 0.4748 291.9729 120.2374)" class="st11 st12 st9">8</text>
	<text transform="matrix(0.4485 0.8938 -0.8938 0.4485 294.3804 124.7471)" class="st11 st12 st9"> </text>
	<text transform="matrix(0.4099 0.9121 -0.9121 0.4099 295.3876 126.6073)" class="st11 st12 st9">m</text>
	<text transform="matrix(0.3597 0.9331 -0.9331 0.3597 298.7533 134.2071)" class="st11 st12 st9">e</text>
	<text transform="matrix(0.3255 0.9455 -0.9455 0.3255 300.5408 138.8693)" class="st11 st12 st9">s</text>
	<text transform="matrix(0.2909 0.9568 -0.9568 0.2909 301.8339 142.5984)" class="st11 st12 st9">e</text>
	<text transform="matrix(0.256 0.9667 -0.9667 0.256 303.2767 147.3782)" class="st11 st12 st9">s</text>
	<text transform="matrix(0.2273 0.9738 -0.9738 0.2273 304.2837 151.1941)" class="st7 st8"> </text>
	<text class="st7 st8"> </text>
	<g>
		<text transform="matrix(1.0158 0 0 1 146.8784 198.9697)" class="st11 st12 st9">40 años en cautiverio</text>
	</g>
	<g>
		<path id="SVGID_x5F_9_x5F_" class="st6" d="M88,201.8c-12.8-59.9,25.3-118.7,85.2-131.5"/>
		<text transform="matrix(8.652721e-02 -0.9962 0.9962 8.652721e-02 85.7931 170.6193)" class="st7 st8"> </text>
		<text transform="matrix(0.1233 -0.9924 0.9924 0.1233 86.0684 167.2965)" class="st11 st12 st9">a</text>
		<text transform="matrix(0.1545 -0.988 0.988 0.1545 86.6815 162.5328)" class="st11 st12 st9"> </text>
		<text transform="matrix(0.1745 -0.9847 0.9847 0.1745 87.0067 160.4445)" class="st11 st12 st9">l</text>
		<text transform="matrix(0.2093 -0.9778 0.9778 0.2093 87.3899 158.1235)" class="st11 st12 st9">o</text>
		<text transform="matrix(0.2509 -0.968 0.968 0.2509 88.5512 152.7772)" class="st11 st12 st9">s</text>
		<text transform="matrix(0.2774 -0.9608 0.9608 0.2774 89.5534 148.9602)" class="st11 st12 st9"> </text>
		<text transform="matrix(0.3086 -0.9512 0.9512 0.3086 90.1162 146.9234)" class="st11 st12 st9">6</text>
		<text transform="matrix(0.3395 -0.9406 0.9406 0.3395 91.717 142.0683)" class="st11 st12 st9"> </text>
		<text transform="matrix(0.3614 -0.9324 0.9324 0.3614 92.4291 140.0794)" class="st11 st12 st9">-</text>
		<text transform="matrix(0.383 -0.9237 0.9237 0.383 93.5398 137.2283)" class="st11 st12 st9"> </text>
		<text transform="matrix(0.4129 -0.9108 0.9108 0.4129 94.327 135.2672)" class="st11 st12 st9">7</text>
		<text transform="matrix(0.4423 -0.8969 0.8969 0.4423 96.4595 130.6213)" class="st11 st12 st9"> </text>
		<text transform="matrix(0.47 -0.8827 0.8827 0.47 97.3754 128.7169)" class="st11 st12 st9">a</text>
		<text transform="matrix(0.5105 -0.8599 0.8599 0.5105 99.6264 124.4721)" class="st11 st12 st9">ñ</text>
		<text transform="matrix(0.5523 -0.8336 0.8336 0.5523 102.4504 119.7157)" class="st11 st12 st9">o</text>
		<text transform="matrix(0.5871 -0.8095 0.8095 0.5871 105.4861 115.1636)" class="st11 st12 st9">s</text>
		<text transform="matrix(0.6089 -0.7932 0.7932 0.6089 107.8129 111.9767)" class="st11 st12 st9"> </text>
		<text transform="matrix(0.6361 -0.7716 0.7716 0.6361 109.075 110.2812)" class="st11 st12 st9">d</text>
		<text transform="matrix(0.6722 -0.7403 0.7403 0.6722 112.6567 105.9496)" class="st11 st12 st9">e</text>
		<text transform="matrix(0.6956 -0.7184 0.7184 0.6956 116.0303 102.2681)" class="st11 st12 st9"> </text>
		<text transform="matrix(0.7183 -0.6958 0.6958 0.7183 117.4811 100.7369)" class="st11 st12 st9">e</text>
		<text transform="matrix(0.7508 -0.6605 0.6605 0.7508 121.0659 97.2537)" class="st11 st12 st9">d</text>
		<text transform="matrix(0.7812 -0.6243 0.6243 0.7812 125.2954 93.5457)" class="st11 st12 st9">a</text>
		<text transform="matrix(0.8098 -0.5867 0.5867 0.8098 129.0428 90.5389)" class="st11 st12 st9">d</text>
		<text transform="matrix(0.833 -0.5533 0.5533 0.833 133.6081 87.2602)" class="st7 st8"> </text>
		<text transform="matrix(0.8494 -0.5278 0.5278 0.8494 136.3854 85.4149)" class="st7 st8"> </text>
		<text class="st7 st8"> </text>
	</g>
</g>
</svg>
