<?xml version="1.0" encoding="utf-8"?>
<!-- Generator: Adobe Illustrator 25.3.1, SVG Export Plug-In . SVG Version: 6.00 Build 0)  -->
<svg version="1.1" xmlns="http://www.w3.org/2000/svg" xmlns:xlink="http://www.w3.org/1999/xlink" x="0px" y="0px"
	 viewBox="0 0 387.7 222" style="enable-background:new 0 0 387.7 222;" xml:space="preserve">
<style type="text/css">
	.st0{fill:#668D66;}
	.st1{fill:#A29F9E;}
	.st2{fill:#888483;stroke:#FFFFFF;stroke-width:0.25;stroke-linecap:round;stroke-linejoin:round;stroke-miterlimit:10;}
	.st3{fill:#A29F9E;stroke:#FFFFFF;stroke-width:0.25;stroke-linecap:round;stroke-linejoin:round;stroke-miterlimit:10;}
	.st4{fill:#A29F9E;stroke:#FFFFFF;stroke-width:0.5;stroke-linecap:round;stroke-linejoin:round;stroke-miterlimit:10;}
	.st5{fill:#FFFFFF;}
	.st6{fill:none;stroke:#1D1D1B;stroke-width:0.25;stroke-linecap:round;stroke-miterlimit:10;}
	.st7{fill:none;stroke:#1D1D1B;stroke-width:0.25;stroke-linecap:round;stroke-linejoin:round;stroke-miterlimit:10;}
	.st8{fill:#1D1D1B;}
	.st9{fill:none;stroke:#1D1D1B;stroke-width:0.5;stroke-linecap:round;stroke-linejoin:round;stroke-miterlimit:10;}
	.st10{fill:none;stroke:#FFFFFF;stroke-width:0.25;stroke-linecap:round;stroke-linejoin:round;stroke-miterlimit:10;}
	.st11{fill:none;stroke:#95C11F;stroke-width:0.453;stroke-miterlimit:10;stroke-dasharray:0.4447,0.4447;}
	.st12{fill:#95C11F;}
	.st13{font-family:'Roboto', sans-serif;}
	.st14{font-size:12px;}
	.st15{fill:url(#SVGID_1_);}
	.st16{fill:none;}
	.st17{font-family:'Roboto-Regular', sans-serif;}
	.st18{font-size:9px;}

	#valores{
	opacity:0; transition:all ease 0.25s
	}
	svg:hover #valores{opacity:1; transition:all ease 0.25s}

</style>
<g id="Capa_1">
	<g>
		<path class="st0" d="M145.3,139.5c0,0,4-0.1,6.9,1.3c3,1.3,15.7,3.7,15.7,3.7s16.3,3.9,20.6,4.6c4.3,0.7,29.6,1,31.5,1
			c1.9,0,3-1,5.5,0s8.2,7.7,10.1,9.4c1.9,1.6,5.8,3.7,5.9,4.6s-106.2,0.4-106.2,0.4L145.3,139.5z"/>
		<ellipse class="st1" cx="169.1" cy="135.6" rx="5.9" ry="3.3"/>
		<path class="st2" d="M222.5,125.8c0,0,0.7,8,1.7,11.1c1,3.1,3.2,4.5,6,4.7c2.8,0.3,2.8-2.9,3.8-5.9c1-2.9-0.1-3.5-2.7-12.2
			c-2.5-8.7-5.2-11.5-6.6-13.8c-1.5-2.3-2.4-2.2-2.4-2.2l0.3-1.1h-1v-0.9c0,0-1.7,0.8-2.5,0.9c-0.8,0.1-1.7-2.7-4.3-4.5
			c-2.7-1.8-5.4-2-6.7-1.2c-1.3,0.8-6.2,2.8-6.2,2.8s-5,6.5-6.5,10.3c0,0-6.2,5.5-1.1,18c5,12.5,13,17.4,14.1,18.3
			c1.1,1,3.6,1.8,3.6,1.8s2.1,1.4,3.4,1.1c1.3-0.2,1.8-0.2,1.9-0.8c0.2-0.6,0-0.8,0-0.8s0.6-0.3,0.6-0.8l3.1,0.2
			c0,0,1.7-0.1,3.7-1.8c2-1.7,3.3-2.6,3.4-4.8c0.1-2.2,0-3.4,0-3.4"/>
		<path class="st3" d="M164.7,134.4c-1.1,4.9,4.9,4.5,4.9,4.5s3.3-0.5,8.1-2.4c4.8-1.9,5.5-2.7,9-5.9c2.3-2.1,5.2-6.1,8-6.1
			c0.5,0,1.3,0,2.1,1c0.8,1,0.8,3.6,0.8,5.4c0,1.8-1.5,7.3-2.1,9.4l-2.4,6.2c0.5,0.1,2.4-0.1,5.4,2.2l2.4,1.8
			c0.5,0.3,0.8,0.8,0.8,1.4c0,0.2,0,0.4,0.1,0.6c0.1,1.3,1,2.4,0.8,2.9c-0.3,0.5-2.2,0.8-2.7,0.2c-0.5-0.6-0.9-1.2-1.3-2.2
			c-0.2-0.5-0.6-1.7-0.9-1.8c-0.3-0.1-0.2-1.2-0.5-1.2c-0.4,0,0,0-1.5,0.4c-1.5,0.4-4.8-0.5-6.1-0.7s-4.9-1-4.9-1l3.8-10.8
			c0,0,1-4.1,0.7-4.2c-0.3-0.1-4.1,13.8-5.3,14.8s-17.5-2.9-17.5-2.9l-0.6-6.1c0,0-3.4,0.1-5.1-2.8c-1.7-2.8-1.6-9.8-1.7-12.1
			s0.3-2.8,1.7-4.4c1.4-1.6,0.5-1.2,0.9-4.2c0.4-3,1.9-7.7,3.6-11.1c1.7-3.4,7.2-5.7,11.8-8c4.6-2.2,13.2-3.4,16-4.1
			c2.8-0.7,3.8,0.4,4.8,1c1,0.6,3.3,2.8,4.8,3.3c1.5,0.6,1.9,1.4,2.2,2.3c0.3,0.9-0.2,1.3-1.3,3s-0.8,1.5-0.5,1.9
			c0.9,0.9,0.7,4,0.1,5.1c-1.4,2.7-4.9,2.4-6,3.7c-1.1,1.3-3.2,3.1-5.5,3.7l7.6,20.8c0,0,3.5,5.5,6.9,8.6c3.4,3.1,3.7,2.7,4.8,4.6
			c1,1.9,1.1,1.9,1.8,3.7s0.3,2.2-0.2,2.6c-0.6,0.5-0.4,0.5-1,0.9c-0.1,0.1-0.7,0.2-0.8,0.3c-0.8,0.6-1.1,0.2-2,0.3
			s-1.1,0.1-2.4-1.9c-1.3-2-1.7-3-1.6-3.3c0.1-0.3,0.1-0.3-0.3-0.6c-0.4-0.3-2.4-1.3-2.4-1.3"/>
		<path class="st3" d="M193.3,124c0.4-0.2,4.1-1.5,4.2-1.4c0.8,0.3,1.5,1.1,1.3,2.8c-0.1,1.7-1.3,3.6-1.3,4.6c0,1,0.4,0.7,0.8,0.3
			s1.5-2.9,1.5-2.9s0.1,3.9-0.4,5.5s-1.5,2.9-2.2,3.2s-0.7,0.9-0.7,0.9s-0.1,0.3,0.2,0.3c0.3,0,0.6,0,0.6,0s-0.9,0.5-1,0.9
			c-0.1,0.4-0.2,0.8,0.1,0.8s0.4-0.2,0.4-0.2s-0.7,0.3-0.7,0.7c0,0.4,0.3,0.3,0.3,0.3s4.3-2.8,5-3.5c0.7-0.7,1.5-2.1,1.9-5
			s-0.1-7.4-0.7-9.3c-0.6-2-1.4-5.2-5.4-4.2c-4,1.1-4.9,2.2-9.1,3s-6.4,1.6-9,3.7c-2.7,2.1-2.5,3.6-5,4.6c-2.4,1-4.5,0.3-5.6,1.1"/>
		<path class="st4" d="M189.2,98.4c0,0-3.4,0.5-0.7,3.1c0.8,0.8,1.2,0.7,1.6,0.4c0.4-0.3,0.4-0.7,0.4-0.7"/>
		<path class="st5" d="M200.7,101.3c-0.3-0.2-1.2-1.1-2.7-0.5c-2,0.9-0.2,3.4-0.2,3.4s-0.6,0.3-1.3,1.1c-0.7,0.8-1.5,3.3-0.5,4.3
			c1,1,2.8,1.6,4.3,1c1.5-0.5,2.3-1.3,2.4-2.2s0.1-2.2-0.6-3.3c-0.7-1,0-1.2,0-1.2s0.9-0.5,1-1.5c0.1-0.9-0.2-1.6-1-1.6
			C201.2,101,200.7,101.3,200.7,101.3z"/>
		<line class="st6" x1="200.9" y1="106.2" x2="201.7" y2="107.2"/>
		<path class="st7" d="M198.1,108.1c0,0,1,0.9,3,0.7c0.4,0,1.2-0.3,1.2-0.3"/>
		<path class="st8" d="M199.4,102.4c0,0-0.3-0.7-0.8-0.7c-0.5,0-0.9,0.2-0.9,0.5c0,0.3,0.4,0.6,0.9,0.6
			C199.1,102.7,199.4,102.4,199.4,102.4z"/>
		<path class="st8" d="M202,101.7c-0.3,0-0.7,0.2-0.8,0.4c-0.1,0.3-0.1,0.3-0.1,0.3s0.4,0.3,0.8,0.3
			C202.5,102.6,202.5,101.8,202,101.7z"/>
		<path class="st2" d="M202,141.8c0,0,3.1,1.1,5.6,1.9c2.5,0.7,1.9,0.9,3.5,1.9s1.9,2.2,4.3,3.4c0.8,0.4,1.3,0.7,1.6,0.9l0.6,0.9"/>
		<path class="st5" d="M214.3,109c0.3,0.2,1.1-0.5,1.7-0.6c1.4-0.2,2.3,0.5,2.3,1c0.2,2.1-2.2,1.9-2.1,2.4s1.8,1.9,1.6,3.6
			c-0.2,1.8-1,3-2.2,3.2c-1.2,0.2-5.7,0.6-6.2-2.4c-0.5-3,1.9-4.2,1.9-4.2s-0.8-0.2-1.1-0.9c-0.3-0.8-0.6-2.5,1.1-2.8
			C213.3,108.2,213.7,108.7,214.3,109z"/>
		<path class="st7" d="M210.9,115.7c0,0,1.2,0.9,3.3,0.8c2.1-0.1,2.5-0.2,2.5-0.2"/>
		<line class="st7" x1="214" y1="113.7" x2="214.6" y2="114.4"/>
		<line class="st7" x1="215.9" y1="113.7" x2="215.4" y2="114.4"/>
		<path class="st8" d="M212.8,110.1c0,0-0.3-0.6-1-0.7c-0.8-0.1-1,0.3-1,0.3s0.3,0.5,0.9,0.6C212.3,110.4,212.8,110.1,212.8,110.1z"
			/>
		<path class="st8" d="M217.3,110c0,0-0.4-0.5-1.1-0.4c-0.8,0.1-0.9,0.5-0.9,0.5s0.4,0.4,1.1,0.3C216.9,110.4,217.3,110,217.3,110z"
			/>
		<path class="st9" d="M212.5,155.4"/>
		<path class="st9" d="M208.1,151.8"/>
		<path class="st2" d="M203,125.5c0,0,0.2-1.4,2.5-1c2.3,0.4,2.3,0.2,2.6,1.3c0.3,1.1,1.3,8.4,1.3,12.9c0,4.5,0,5.7,0,5.7"/>
		<path class="st2" d="M221.5,149.6c0,0-2.2-3.1-5.4-3.5s-4.4,0.1-4.4,0.1s-0.3-17.6-0.3-19.2c0.1-1.6,2.4-3,5.7-2.7
			s5.8,6.6,5.8,6.6"/>
		<path class="st2" d="M230.8,121.8c0,0-5-5.4-6.1-5.3c-1,0-2,0.2-3.5,1.1c-1.5,0.9-3.2,2.7-3.6,3.1c-0.4,0.5-0.5,1,0,1.1
			c0.5,0.1,1.8-1.5,3.7-2.6s2.2-1.2,2.2-1.2"/>
		<path class="st10" d="M225.5,124.7c0,0,0.2,1.4,1.2,3.4c1.1,2,1.3,2.5,1.3,2.5s-0.7-6.1-0.7-6.4s-1.7-1.4-2.1-1.6
			c-0.4-0.3-3,1.6-3.3,1.8c-1.1,0.4-1.4-0.5-1.4-0.5s-0.5,0.3-1,0c-0.4-0.3-0.2-1-0.2-1s-0.6,0.5-1.1-0.1c-0.5-0.6-0.1-1-0.1-1"/>
		<path class="st2" d="M224,119.5c0,0-2,1.1-2.6,1.6c-0.6,0.4-2.1,1.7-2.1,1.7"/>
		<line class="st2" x1="223.2" y1="122.1" x2="220.5" y2="123.8"/>
		<path class="st3" d="M209.8,156.4l-1.5-1.3c0,0-2.2-2.3-3-3c-0.8-0.7-1.3,0.1-1.2,0.4c0,0.4,0.8,1.2,0.8,1.2"/>
		<path class="st3" d="M204.6,153.9c0,0,0-0.3,0.3-0.2c0.3,0.1,4.4,4.4,4.4,4.4"/>
		<path class="st3" d="M207.9,151.5c0,0,0.5-0.6,1.3-0.2c0.8,0.4,0.8,0.9,1.3,0.9c0.5,0,1,0.2,1,0.6"/>
		<path class="st1" d="M196.2,126.3c0,0-0.6-1.7-1.8-1.6c-0.5,0.1-1.8,0.9-1.8,0.9l3.3,9.3l0.8-0.3l0.5-2l0.1-0.9L196.2,126.3z"/>
		<path class="st3" d="M206.3,151.4c0,0-1.1-0.9-0.5-1.3c0.2-0.2,0.5-0.2,0.8-0.1c0.3,0.1,4.8,3.7,4.8,3.7"/>
		<path class="st10" d="M205.2,152c0,0-0.7-0.4-0.2-0.9c0.2-0.2,0.4-0.2,0.7-0.1c0.3,0.1,5.3,4.1,5.3,4.1"/>
	</g>
	<g>
		<g>
			<line class="st11" x1="38.2" y1="185.7" x2="356.4" y2="185.7"/>
			<g>
				<polygon class="st12" points="39.4,187.3 38.7,185.7 39.4,184 35.5,185.7 				"/>
			</g>
			<g>
				<polygon class="st12" points="355.1,187.3 355.8,185.7 355.1,184 359.1,185.7 				"/>
			</g>
		</g>
	</g>
	<rect x="126" y="180.4" class="st5" width="133.2" height="24.6"/>
	<text transform="matrix(1 0 0 1 130.9595 186.5206)" class="st13 st14">EXPECTATIVA DE VIDA</text>
	<linearGradient id="SVGID_1_" gradientUnits="userSpaceOnUse" x1="35.4542" y1="94.3999" x2="359.055" y2="94.3999">
		<stop  offset="0" style="stop-color:#006633"/>
		<stop  offset="0.9995" style="stop-color:#95C11F"/>
	</linearGradient>
	<path class="st15" d="M359.1,173.8H325c-1.6-69.1-58.2-124.6-127.7-124.6S71.2,104.6,69.5,173.8H35.5C37.1,85.8,108.9,15,197.3,15
		C285.6,15,357.4,85.8,359.1,173.8z"/>
	<path class="st11" d="M198.8,182"/>
	<path class="st11" d="M242.7,96.3"/>
	<line class="st11" x1="274.2" y1="34.8" x2="247.1" y2="87.7"/>
	<line class="st16" x1="421.7" y1="177.1" x2="353.6" y2="177.1"/>
	<line class="st16" x1="319.5" y1="177.1" x2="64.1" y2="177.1"/>
	<line class="st16" x1="30" y1="177.1" x2="17" y2="177.1"/>
	<g>
		<path id="SVGID_x5F_2_x5F_" class="st16" d="M58,168.5c3.2-71.3,62.8-128.1,136-128.1"/>
		<text>		<textPath  xlink:href="#SVGID_x5F_2_x5F_" startOffset="9.597%">
<tspan  class="st5 st13 st18">MADUREZ SEXUAL</tspan>		</textPath>
</text>
	</g>
	<path id="SVGID_x5F_3_x5F_" class="st16" d="M103.9,76.4C154.4,26,236.8,24.5,290.7,74"/>
	<text>	<textPath  xlink:href="#SVGID_x5F_3_x5F_" startOffset="31.661%">
<tspan  class="st5 st13 st18">APAREAMIENTO</tspan>	</textPath>
</text>
	<path id="SVGID_x5F_4_x5F_" class="st16" d="M227,49.4c62.3,4.6,109.3,59.5,107.2,123.8"/>
	<text>	<textPath  xlink:href="#SVGID_x5F_4_x5F_" startOffset="46.866%">
<tspan  class="st5 st13 st18">GESTACIÓN</tspan>	</textPath>
</text>
	<line class="st11" x1="144.1" y1="88.4" x2="114.6" y2="37.7"/>
	<path class="st11" d="M143.7,86.4"/>
	<path class="st11" d="M198.8,182"/>
</g>
<g id="valores">
	<path id="SVGID_x5F_5_x5F_" class="st16" d="M81.3,188.1c0.5-71.3,58-130.4,131.1-133.1"/>
	<text>	<textPath  xlink:href="#SVGID_x5F_5_x5F_" startOffset="9.597%">
<tspan  class="st8 st17 st18" style="letter-spacing:-10;"> a los 6 - 7 años de edad</tspan>	</textPath>
</text>
	<path id="SVGID_x5F_6_x5F_" class="st16" d="M106,97.8c52.4-48.4,134.8-46.9,186.8,4.6"/>
	<text>	<textPath  xlink:href="#SVGID_x5F_6_x5F_" startOffset="31.661%">
<tspan  class="st8 st17 st18">cada 2 a 3 años</tspan>	</textPath>
</text>
	<path id="SVGID_x5F_7_x5F_" class="st16" d="M207,64.4c62.3,3.6,110.2,57.8,109.2,122.1"/>
	<text>	<textPath  xlink:href="#SVGID_x5F_7_x5F_" startOffset="46.866%">
<tspan  class="st8 st17 st18">7 a 8 meses</tspan>	</textPath>
</text>
	<g>
		<text transform="matrix(1.0158 0 0 1 146.8787 198.9698)" class="st8 st17 st18">40 años en cautiverio</text>
	</g>
</g>
</svg>
