<?xml version="1.0" encoding="utf-8"?>
<!-- Generator: Adobe Illustrator 22.0.1, SVG Export Plug-In . SVG Version: 6.00 Build 0)  -->
<svg version="1.1" id="Capa_2" xmlns="http://www.w3.org/2000/svg" xmlns:xlink="http://www.w3.org/1999/xlink" x="0px" y="0px" viewBox="0 0 500 400" style="enable-background: new 0 0 500 400;" xml:space="preserve">
    <style type="text/css">
        .bordes {
            fill: none;
            stroke: #000000;
            stroke-linecap: round;
            stroke-linejoin: round;
            stroke-miterlimit: 10;
        }
        .llenos {
            fill: #ffffff;
            stroke: #000000;
            stroke-linecap: round;
            stroke-linejoin: round;
            stroke-miterlimit: 10;
        }

        @keyframes infla {
            0% {
                transform: scale(1);
            }
            100% {
                transform: scale(3);
            }
        }

        @keyframes mueve {
            0% {
                transform: translate(0, 20px);
            }
            100% {
                transform: translate(0, 0);
            }
        }

        #saco {
            transform-origin: center center;
            animation: infla 2s infinite alternate;
        }

        #hombros {
            transform-origin: center center;
            animation: mueve 2s infinite alternate;
        }

    </style>
    <circle id="saco" fill="#95C11F" cx="250" cy="230" r="25" />
    <path id="hombros" class="bordes" d="M20,197.5c43.7-86.2,130.6-145,230.5-145c99.2,0,185.4,57.8,229.5,143" />
    <path
        id="cabeza"
        class="llenos"
        d="M387.5,71.5c-41.4,7.5-65.7-16.3-69.4-25.1c-3.7-8.8-11-11.3-28-17.6S250,22.5,250,22.5
    s-23.1,0-40.2,6.3s-24.3,7.5-28,16.3c-4.9,11.9-26.7,34.2-69.4,26.4c0,0,23.7,145,117.2,172.1c0,0,13.7,4.4,20.3,3.8
    c6.6,0.6,20.3-3.8,20.3-3.8C363.8,216.6,387.5,71.5,387.5,71.5z"
    />
    <path
        id="cara"
        class="llenos"
        d="M310,115.2c0.3-14.1-11.7-21-3.8-32.7c7.9-11.7-9.8-49.9-41-33.5c-8.8,4.6-13.6,4.7-15,4.6l0-0.1
    c0,0-0.1,0-0.2,0c-0.1,0-0.2,0-0.2,0l0,0.1c-1.4,0.1-6.2,0-15-4.6c-31.2-16.4-49,21.8-41,33.5s-4,18.6-3.8,32.7
    c0.4,20.2,24.6,15,20.7,22.5s-3.3,11.1-1.2,29c1.8,15.3,1.9,12.7,2.1,35.5c0.4,39.6,27.6,43,38.4,42.8c10.7,0.2,37.9-3.1,38.4-42.8
    c0.3-22.8,0.4-20.2,2.1-35.5c2.1-18,2.7-21.6-1.2-29C285.4,130.3,309.6,135.5,310,115.2z"
    />
    <path
        id="boca"
        class="llenos"
        d="M272.5,210.3c0,17.8-10.1,32.2-22.5,32.2c-12.4,0-22.5-14.4-22.5-32.2s10.1-52.8,22.5-52.8
    C262.4,157.5,272.5,192.5,272.5,210.3z"
    />
    <ellipse id="fosa-nasal-izquierda" transform="matrix(0.6501 -0.7599 0.7599 0.6501 -14.6258 228.2398)" class="llenos" cx="240.5" cy="130" rx="2.7" ry="6.2" />
    <ellipse id="fosa-nasal-izquierda_1_" transform="matrix(0.7599 -0.6501 0.6501 0.7599 -22.1963 199.9104)" class="llenos" cx="259.5" cy="130" rx="6.2" ry="2.7" />
    <circle id="ojo-izquierdo" class="llenos" cx="220" cy="95" r="7.5" />
    <circle id="ojo-derecho" class="llenos" cx="280" cy="95" r="7.5" />
    <path id="contorno-ojo-derecho" class="bordes" d="M288.1,132.5c-7.2-20.5-38.6-29.5-32.2-50.1c7.6-24.7,44.5-17.1,38.5,11.6" />
    <path id="contorno-ojo-izquierdo" class="bordes" d="M211.9,132.5c7.2-20.5,38.6-29.5,32.2-50.1c-7.6-24.7-44.5-17.1-38.5,11.6" />
</svg>
