<?xml version="1.0" encoding="utf-8"?>
<!-- Generator: Adobe Illustrator 25.3.1, SVG Export Plug-In . SVG Version: 6.00 Build 0)  -->
<svg version="1.1" id="Capa_1" xmlns="http://www.w3.org/2000/svg" xmlns:xlink="http://www.w3.org/1999/xlink" x="0px" y="0px"
	 viewBox="0 0 821.5 350" style="enable-background:new 0 0 821.5 350;" xml:space="preserve">
<style type="text/css">
	.st0{fill:none;stroke:#95C11F;stroke-width:1.5977;stroke-miterlimit:10;}
	.st1{fill:none;stroke:#95C11F;stroke-width:1.5977;stroke-miterlimit:10;stroke-dasharray:2.8193,2.8193;}
	.st2{fill:#1E1E1C;}
	.st3{font-family:'Roboto-Regular', sans-serif;}
	.st4{font-size:19.6319px;}
	.st5{opacity:0;}
	.st6{fill:#95C11F;}
	.st7{fill:#006633;}
	.st8{fill:#DEDDDD;}
	.st9{font-family:"Roboto", bold}
	.st10{fill:#006633;}
	@media (hover: hover) {
	#alturas{opacity:0; transition:all ease 0.25s}
	svg:hover #alturas{opacity:1; transition:all ease 0.25s}
	}
</style>
<g id="lineas">
	<line class="st0" x1="94.2" y1="290.4" x2="766.8" y2="290.4"/>
	<line class="st1" x1="94.2" y1="219.9" x2="767.3" y2="219.9"/>
	<line class="st1" x1="94.2" y1="149.4" x2="767.3" y2="149.4"/>
	<line class="st1" x1="94.2" y1="78.8" x2="767.3" y2="78.8"/>
</g>
<g id="medidas_y_nombres">
	<g>
		<text transform="matrix(1 0 0 1 38.6671 78.842)" class="st2 st3 st4">150 cm</text>
	</g>
	<g>
		<text transform="matrix(1 0 0 1 44.419 220.6281)" class="st2 st3 st4">50 cm</text>
	</g>
	<g>
		<text transform="matrix(1 0 0 1 53.3311 290.3947)" class="st2 st3 st4">0 cm</text>
	</g>
	<g>
		<text transform="matrix(1 0 0 1 38.0772 149.5558)" class="st2 st3 st4">100 cm</text>
	</g>
	<g>
		<text transform="matrix(1 0 0 1 391.6162 314.8635)" class="st2 st3 st4">Hoolock</text>
	</g>
	<g>
		<text transform="matrix(1 0 0 1 253.4428 314.8635)" class="st10 st9 st4">Siamang</text>
	</g>
	<g>
		<text transform="matrix(1 0 0 1 115.7628 314.8635)" class="st2 st3 st4">Hombre</text>
	</g>
	<g>
		<text transform="matrix(1 0 0 1 521.408 314.8635)" class="st2 st3 st4">Hylobates</text>
	</g>
	<g>
		<text transform="matrix(1 0 0 1 652.9 314.8635)" class="st2 st3 st4">Nomascus</text>
	</g>
</g>
<g id="Capa_4">
</g>
<g id="alturas" class="st5">
	<g>
		<text transform="matrix(1 0 0 1 271.9889 140.6193)" class="st10 st9 st4">90 cm</text>
	</g>
	<g>
		<text transform="matrix(1 0 0 1 408.7018 165.275)" class="st2 st3 st4">80 cm</text>
	</g>
	<g>
		<text transform="matrix(1 0 0 1 532.7301 188.6329)" class="st2 st3 st4">58 cm</text>
	</g>
	<g>
		<text transform="matrix(1 0 0 1 668.7018 206.5506)" class="st2 st3 st4">50 cm</text>
	</g>
</g>
<g id="Capa_1_1_">
	<path class="st6" d="M690.2,222.7c0,0-0.7-1.3-1.8-1.4c-1.1-0.1-7.6,2.4-9.8,5.5s-4.1,8.2-6.5,10.1s-9.2,5.5-11.7,7.4
		c-2.5,1.8-10,5.5-11,7.1c-0.9,1.6-1.3,2.3-1,3.6s-0.1,4.2,1.8,6.3s2.4,3.5,3.7,4.1c1.3,0.5,2.1,1,3.8,1.1c1.1,0,1.6,0,1.9,0
		c0.1,0,0.2-0.1,0.2-0.2l0,0c0-0.2-0.1-0.5-0.3-0.5l-0.7-0.2v-0.1c0-0.2-0.2-0.4-0.4-0.5l-1-0.3c0,0-2.1-0.7-2.5-1.4
		c-0.4-0.7-1.2-2.1-1.2-2.1v-0.6c0-0.2-0.1-0.4-0.2-0.5l-0.5-0.6c0,0-0.5-1.5-0.7-2s-0.2-2.5,0-2.7s3.4-2,4.5-2.7s6.8-2.9,6.8-2.9
		s4.9-2,6.5-2.5s4.3-1.2,5.8-2c1.5-0.9,4.3-3.4,4.3-3.4l0.5-0.5c0,0-0.9,2.9-1.8,6.8s-1.5,8.9-2.5,10.7c-1,1.7-2.3,5.9-2.5,8.1
		c-0.1,2.2-0.3,3.2-0.3,3.2s-2.8,1.2-2.9,3c-0.1,1.8,1.2,4.5,0.9,5.9s-2.3,5.2-2.3,6c0,0.3,0,0.6,0.1,0.8c0.1,0.3,0.3,0.6,0.7,0.6
		h0.1l0.2,1.1c0.1,0.3,0.4,0.5,0.7,0.4l0,0l0.1,0.1c0.2,0.2,0.6,0.2,0.8-0.1v-0.1c0,0,0.6,0.1,0.6-0.2c0-0.4,1.8-3.9,2.2-3.9
		s1.3,0,1,0.6s-1.3,1.5-1.3,1.5v0.1c0,0.3,0.2,0.5,0.5,0.5h0.3c0,0,1.1-0.9,1.7-1.7c0.6-0.8,1.8-2.4,1.7-2.9s-0.9-1.6-0.7-2.3
		c0.2-0.7,3.3-3.6,3.7-4.9s1-5.5,1.5-6.2s1.7-2.8,2.4-2.8s2.7-7.4,3.4-5.9s0.8,11.9,2.2,14.2c1.4,2.4,1.9,2.1,1.5,3.8
		s-3.1,4.8-4.1,6.8s-0.8,4-0.4,4.9c0.4,0.9,0.1,1.9,0.1,1.9s0.2,0.8,0.5,0.8s1.1-0.4,1.7-1s1.9-0.7,1.9-0.7s1.5-0.6,2.3-0.4
		s1.4,1.2,2.1,1.2s0.7,0,0.7,0s0.8,0.3,0.9,0c0-0.1,0.2-0.2,0.3-0.2s0.1-0.1,0.1-0.2v-0.2V290l0.5-0.5c0.1-0.1,0.1-0.4,0-0.5
		l-0.8-0.6c0,0-1.5-0.6-1.1-1.2s3-4.5,3.5-7.1s0.3-4.5,0.6-4.5s0.4-0.4,0.4-0.9s-0.3-2.6-0.7-4.9s-1.1-6.2-2.5-7.7s-2-1.7-2-1.7
		s2.1-3,3.7-5.5s1.9-4.5,2.2-5.6c0.2-1.1,1.3-3.8,1.3-3.8s0.7,1.9,1.3,3.6s2.4,8.3,3.6,10.1s2.3,3,3.2,4.2s2.3,2.2,2.9,3.7
		s1.3,2.7,1.2,4.4c-0.2,1.7,0.1,2.9,0.2,3.2c0.1,0.3-0.2,2.2-0.2,2.2v0.4c0.1,0.5,0.7,0.6,1,0.2l0,0l0.2-1.2
		c0.1-0.4,0.6-0.5,0.8-0.1c0.1,0.2,0.2,0.5,0.2,0.9c0,1.2-0.2,3.3-0.5,4.1s-0.7,0.8-0.7,0.8l0,0c-0.3,0-0.5,0.2-0.5,0.5v0.2
		l-0.6,0.7c-0.2,0.2-0.2,0.4-0.2,0.7l0,0c0,0.1,0.1,0.1,0.2,0.1l2-1.1c0,0,1,0.5,1.8,0.4s2.5-1.1,2.9-2.5s0.7-3.8,0.4-5.6
		s-0.6-3.8-1.7-6.2c-1-2.4-6.9-16.8-6.9-16.8s-0.4-2.6-1-6.5c0,0-1.6-7.7-2.6-9.7s-2.4-3.1-2.8-5c-0.4-1.9,0.1-6.1-1-8.3
		s-2.5-3.5-5.1-3.9s-3.8-0.4-5.7,0.2s-3.9,1.5-4.9,2.4C690.7,222.3,690.2,222.7,690.2,222.7z"/>
	<path class="st6" d="M542.4,215.9l0.2,0.4c0.2,0.4,0.1,0.8-0.3,1c-0.7,0.5-1.9,1.4-2.3,3.1c-0.6,2.6-2,10.3-1.3,14.6s1.4,5,0.6,7.2
		s-7.4,13.1-7.4,13.1s-3.8,6.7-3.3,10.1s0.1,5.9,1.8,7.8c1.6,1.9,3.7,2.8,4.3,1.9c0.5-0.8,0.9-4,1-4.9c0-0.1,0-0.3-0.1-0.4v-0.1
		c-0.1-0.2-0.5-0.3-0.7-0.1c-0.5,0.5-1.4,1.2-1.7,0.8c-0.4-0.6-1-2.3,0.4-4.2c1.5-1.8,9.2-9.7,9.2-9.7l0.1-0.2
		c0.3-0.4,0.9-0.2,0.9,0.3c0,1.9,0.1,5.1,0.4,6.5c0.4,2-0.8,6.5-1.5,8.8c-0.6,2.3-2,8.9-0.8,11.3s2.5,3.3,1.5,4
		c-1,0.8-2.3,1.6-1.8,2.6s0.8,1.6,1.8,1.5s2.9-0.8,4.7-0.6c1.8,0.2,5,1.1,5,0.2c0-1-1.6-3-1.6-3.6s1.9-12.7,2-15.9
		c0.1-3.2-0.4-5.9,0-6.4c0.2-0.4,1.5-2.5,2.4-3.9c0.4-0.7,1.3-0.8,1.8-0.2c1.1,1.3,2.8,3.4,3.3,4.9c0.8,2.4,1.8,8.8,3.1,11.4
		s2.9,5.8,3.2,7.9s-0.4,3,0.7,3.6s2.3-0.1,4.6,1.2c2.3,1.3,4.2,1.8,5.7,1.1s2.2-1.3,2-2s-4.2-3.8-4.2-3.8s0.2-6.5-0.2-8.8
		c-0.4-2.2-5-10.3-5.2-11.9s-0.5-9.3-1.3-11.9c-0.4-1.3-0.9-2.6-1.3-3.6c-0.2-0.4,0.3-0.7,0.6-0.4c1.1,1.1,2.5,2.7,3.4,4.4
		c1.5,3,6.2,11.1,6.5,13s1.4,5,0.2,5.9c-1.1,0.9-2,1.1-2.7,1s-0.8,0.6-0.8,0.6s0.6,3.1,1.8,3.8s3.8-1.3,4.9-3.3
		c1.1-2,2.1-6.2,1.8-8.8s-3.6-7.9-4.7-11.3c-1.1-3.4-2.3-14.2-2.8-15.9c-0.5-1.8-0.6-7.2-2.3-12s-3.5-9.2-6-10.2s-4.9-0.8-5.5-1.7
		s-0.4-5.7-1.3-6.7s-4.3-3.9-7.3-4.3s-6.2-0.3-8.8,1.3s-4.7,4.5-4.7,5.9c0,4.1,1.2,5.2,1.5,5.4C542.3,215.7,542.3,215.8,542.4,215.9
		z"/>
	<path class="st6" d="M448.5,179.6c0,0-2.9-5.4-10.1-6.3s-10.4,1-13.3,2.4s-4.6,2.7-4.1,3.9s1.2,2.6-0.1,3.2
		c-1.3,0.7-3.8,0.9-5.2,3.1s-6.8,14.5-6.8,17.7s1.7,6.8,0,11.6s-7.5,11.2-11.6,19.3s-7,9.5-7.8,12.1c-0.9,2.6-1.7,12.6-0.7,15
		s3.8,5.8,5.6,6.8s3.1,1,3.1,0s-0.5-2.7-0.5-2.7s1.7-2.4,1.2-3.6s-2.6-5.3-2.2-7c0.3-1.7,7-10.6,7-10.6l9.9-10.7
		c0,0-3.6,8.9-6.6,13.3s-4.3,9.5-6.1,12.3s-3.7,15-3.7,15s-4.1-0.1-6.1-1.1c-2-1.1-6.4-1.7-6.7-1.1s0,1.8,0,1.8s-1.4-0.5-1.7,0.4
		c-0.3,0.9,0,1.6,0.6,1.8s4.6,0.9,7.5,1.7c2.9,0.9,10.1,3.8,11.6,3.9s5.5,1.7,5.9,0s2.7-9.6,3.3-11.6s5.7-11.6,7.5-13.5
		s4.5-6.1,6.3-6.1s2.9,0.9,5.3,2.2s7.3,2.1,8.8,7.1c1.5,5,1.7,11,1.2,13.1s-1.2,4.1-0.6,6.5s3.2,5.1,2.9,6c-0.3,0.9-4.5,1.1-4.5,1.1
		s-6.1-0.3-6.4,0.6s-0.3,0.9-0.3,0.9s20.4,4,21.3,3.4c1-0.7,0.1-2.9,0-3.5s3.9-9.2,3.6-11.7s-6.3-15.3-6.3-18.4
		c0-3.2,1.7-13.5,1.2-15.4s-3.1-4.9-3.5-4.9s1.2-2,1.2-2s8.3,8.6,12.1,11.7s10.9,6.7,13.6,9.7c2.8,3,3.5,3.8,2.9,5.2
		c-0.7,1.3-1.9,2.2-3.5,1.9c-1.5-0.3-1.9-2.1-2.7-1.7c-0.8,0.4-0.9,0.7-1.7,0.2c-0.9-0.5-1.4-1-1.5,0s0.6,2.8,0.7,3.2
		c0.1,0.4-1.5,0.7-1,1.4c0.6,0.8,0.8,1.7,2.2,2.5s3.5,2.6,4.4,2.4c1-0.2,7.1-3.1,7.1-3.1s2.8-1,2.9-2.4s1.1-10,0.5-11.8
		S473,238.4,473,238.4l-0.6-2.4c0,0-0.4-0.5-1.7-3.3c-1.3-2.8-2.2-3.8-3.8-5.9s-1.3-5.9-1.1-7.7c0.2-1.8,2-4.7,2-6.1
		s-1.9-18.3-4.3-21.2s-4.3-4.8-6-6.8s-3.5-3.5-5.5-3.8C449.9,180.9,448.5,179.6,448.5,179.6z"/>
	<path class="st7" d="M306.5,159.5c1.1,0.1,1.5,0.6,3,1.7s4.9,3.9,6.1,5.8c1.2,1.9,1,5.8,1.1,7.8s-0.6,3.6,0.2,5s1.1,3.4,0.7,8.1
		s0.5,10.1,0.4,12.6s0.4,6.8,0.2,8.9c-0.2,2-2.3,1.3-2.3,2.3s2,7.4,3.5,11c1.4,3.6,5.3,6.8,9.8,11.4s7.4,13.7,7.9,16.5s-1,6.5-2,9.6
		c-0.9,2.6-2.4,5.8-2.8,6.7c-0.1,0.2-0.2,0.3-0.4,0.4l-9.2,3.6c-0.3,0.1-0.5,0.4-0.5,0.7c0,1.7-0.2,6.9-0.6,9.3
		c-0.5,3,0.3,4,2.4,4.4s8.3,1.1,10.7,1.6s3,2.1,1.9,3s-5.7,0-10.8,0.1s-8.3,0.4-10.5,0.5c-2.1,0.1-3.5,0.8-5.6,0.8s-3.8-1-5.1-1
		c-1.3,0-1.4-1.4-1.4-2.2s3.4-1.6,3.6-2.2s0.3-2.2,0-4.1c-0.3-1.8-0.7-9-1.6-13.7s-2.6-7-5.4-9.7c-2.8-2.6-6.2-2.9-8.4-4.3
		c-1.7-1-2.1-3.9-2.3-5.2c0-0.4-0.4-0.7-0.8-0.7h-1.1c-0.4,0-0.7,0.3-0.8,0.7c-0.2,1.3-0.7,4-2,5.3c-1.6,1.7-5.9,4.1-9.9,7.5
		c-3.5,3.1-7.3,7.7-8.1,8.7c-0.1,0.1-0.1,0.2-0.2,0.4c-0.1,0.8-0.4,3.3-0.6,5.8c-0.2,3-2,6.4-2.1,8.4c0,0.9,0.5,1.7,1.1,2.2
		c0.5,0.5,0.3,1.3-0.4,1.4c-1.3,0.2-3.2,0.5-5,0.8c-3.5,0.4-3.9-0.2-7.9,0.3c-4.1,0.5-3.6,0.9-6.2,1.1s-3.1-0.9-3.1-2.2
		c-0.1-1.3,2.9-2,4.8-4.1s2.9-3.6,2.9-5.4s0-7.1,0.4-10.2c0.4-3,3.1-5.4,4.2-7.6s3.9-5.4,4.7-7.7s2.2-9.1,4.3-12.9
		c2-3.8,3.5-5.9,5.9-8.4s1.4-8.9,1.4-12.6c0-2.9-1.5-12-2.2-16c-0.1-0.7-1-0.9-1.4-0.3l-5.2,7.3c0,0,0,0,0,0.1
		c-0.4,0.7-9.3,15.7-11.6,19c-2.3,3.4-2.2,7.4-1.2,9.6c0.9,2,4.4,4.7,5,5.1c0.1,0,0.1,0.1,0.1,0.1s2.5,1.4,2.2,2.1
		c-0.2,0.4-1.8,0.1-1.8,0.1c-0.2,0-0.4,0-0.5-0.1c-0.6-0.4-2-1.3-2.7-1.5l0,0c-0.6-0.1-1.1,0.6-0.9,1.1c0.7,1.5,2.2,4.3,3.2,5.4
		c1.4,1.4,3.3-0.1,4.4-0.2c1.1-0.1,0.8,0.3,0.7,1s-2.9,2.6-4.1,3.4c-1.1,0.7-4.1,0.8-8.1-1.4c-4.1-2.2-3.9-5.7-5.5-8.2
		s-3.8-5.7-4.8-6.8s-0.7-5.1-0.5-9.2c0.2-4.2,3.9-17.1,5.6-21.8s1.6-4.4,2.4-6.5s1.9-1.2,3.1-1.9c1.1-0.7,1.9-2.8,3.1-4.7
		c1.1-1.9,9.2-9.1,12.1-11.2c2.9-2,7.3-7.5,9.2-8.8c1.9-1.2,5.3-4.1,7.1-5.2s3-1.2,4.2-0.8s3.6,0.1,4.3-0.6c0.4-0.4-0.1-1.4-0.6-2
		c-0.3-0.4-0.1-1,0.4-1.2c0.8-0.3,1.8-0.6,2.6-0.8c1.4-0.3,6.9-4.5,9.1-5.3c2-0.7,4-0.2,4.5,0c0.1,0,0.1,0,0.2,0
		C303.1,159.3,305.1,159.3,306.5,159.5z M307.7,229.8l-0.8,2.9c0,0,4.2,3.9,4.9,6.2s0.4,3.9,1.8,5.1c1.4,1.2,2,2.2,4.2,6.5
		c2.1,4.3,2.6,8.8,2.6,8.8l0.8,5.9c0,0,3.6-1.7,4.8-3s2.9-2.4,3.5-4.1s0.5-2.6,0-3.9s-3.1-5.5-4.6-6.8c-1.4-1.3-3.7-3.6-5.1-5.1
		s-3.5-3.5-5.4-4.8s-3-2.9-4.1-4.5S307.7,229.8,307.7,229.8z"/>
	<path id="_250368728_2_" class="st8" d="M158.4,69.2c0.9,0.7,1.2,1.9,2.1,3c1.1,1.3,5,2.2,8.1,3.3c3.1,1,8.2,3.2,10.9,4.6
		s5.4,3.6,6.8,10.8c1.4,7.2,1.7,10.6,2,13.7s0.3,5.9,0.3,5.9s-0.3,0.1-0.9,0.2c0.4,2.4,1,6.5,1.5,9.8c0.7,5,0.2,23.9-0.7,31.6
		c-0.9,7.7-1.7,9.8-2.4,11.6s-1.5,3.4-1.7,6c-0.2,2.5-0.3,2.9-2,5.5s-0.8,3.4-3.4,6c-0.9,0.9-1.8,1.6-2.6,2.2v1.4
		c0,3.8,0.3,18.5,0.3,23.1s-0.1,6.1,0.5,8.3c0.6,2.1-0.1,3.8-0.1,4.1s0.8,0.9,0.9,3.2s0.1,3.5,0.1,4.5c0.1,0.9-0.9,16.8-0.7,20.2
		c0.3,3.4,1.8,4.4,1.1,6.1s-2.5,2.8-1.9,5c0.6,2.3,2.8,2.4,2.4,3.6s0.4,2.7-1.2,3.5s-1.6,2-1.6,2s1.8,1.8,2.9,4.8
		c1.1,3,0.7,3.6,2.1,4.7s4.9,2.7,5.4,4.7s0.2,4.1-0.2,4.9s-4.3,1.7-6.4,1.8c-2.1,0.1-5-2.5-6.8-3.6c-1.7-1.1-3.9-4-5.7-5.5
		c-1.7-1.5-2.4-3.1-2.6-5.3c-0.3-2.1-0.3-2.9,0-4.2c0.3-1.3,0.4-2.3,0.4-2.3s-1.8-0.4-2-2.2c-0.2-1.8-0.7-4.1-0.3-6.5
		c0.4-2.5-0.7-2.9-0.7-6.4s-0.8-3.4-0.4-6.8c0.4-3.4-0.6-14.8-0.9-18.4c-0.3-3.5-0.8-4.4-0.6-7s-0.6-3.2-1.2-6.5
		c-0.6-3.4,0.2-3.1-0.6-8.4c-0.8-5.3-2.8-13.4-4.1-18.3c-1.3-4.9-1.9-5.5-2.4-7.3c-0.4-1.7-0.9-3.1-0.9-3.1s-1.5,3.6-2.2,9.4
		c-0.6,5.8-0.4,9-0.9,14.6c-0.6,5.6-1.4,10.4-1.4,13.8c-0.1,3.4-0.4,2.8-0.9,5.1c-0.6,2.3-0.5,4.1-0.1,6.6s0.1,2.9,0.1,5.4
		s0.1,10.5-0.2,14.9s-1,4.9-0.6,7.2s1.5,4.7,0.6,6.2s-0.5,2.3-1,3.8c-0.4,1.5-0.8,1.7-0.8,1.7s0.7,1.7,0.6,5s0.6,5.6,0.4,7
		c-0.2,1.4-2.6,2.4-4.2,4.3c-1.5,1.9-4.4,5.3-8.4,7.4s-8.8,1.5-10.6,0.8c-1.8-0.7-1.8-4.3-1.3-5.5c0.5-1.3,2.3-2.6,4.2-4
		c1.9-1.4,2.2-3.4,3.9-5.1c1.7-1.7,1.4-3.8,2.4-5.6s1.1-3.2,0.9-4.6s-2.1-2.3-1.6-5.7s0.3-4.8,0.3-6.1s-1.1-11.1-1.5-17.2
		s-1.9-9-1.1-11.8c0.8-2.8,1.4-4.8,0.6-10.1c-0.7-5.3-1.1-9.1-1.2-14s-0.9-9.7-0.9-13.5c0-0.3,0-0.7,0-1.2c-1-0.9-2.1-2.2-2.9-3.9
		c-2-4.3-3.5-6.7-4.5-11s-2.8-5.4-3.2-9c-0.4-3.5-1.4-7.7-1.4-10.3S114,138.6,114,131c0-5.1,0.4-10,0.8-12.7c-0.6-0.1-1-0.1-1-0.1
		s-0.2-5.8,0-10.2c0.2-4.4,1-14.6,2.2-16.6s1.7-2.7,1.7-2.7s0.5-2,5.2-4.8s7.5-5,10.8-6.7s3.6-0.9,4.3-3c0.6-1.8,0.6-3.5,2.1-4.3
		L140,68c0,0-0.4-0.6-0.7-1.6s-0.6-3.4-0.6-3.4s-1.3,0-1.7-0.9s-1-3.8-1-6.3s0.8-2.7,0.8-2.7s-0.1-1.4-0.2-3.1s-0.6-6.5,0-9.8
		s4.6-5.8,12.1-5.5s8.7,6.4,8.7,6.4s1.9,0.9,2.1,3.1c0.2,2.2,0.6,7.1,0.6,7.1s1.3,0.4,1.5,2s0.4,4.5-0.2,6.5c-0.7,2-1.9,2.5-1.9,2.5
		s-0.4,0.8-0.7,2s-0.1,2.5-0.1,4.3L158.4,69.2z M126.3,165c0.1-3.8,0.4-8.4,0.4-12.3c0-5.3,0.4-22.4,0.4-27c0-0.5,0-1.1,0-1.6
		c-0.5,3.8-1.1,8.2-1.6,11.5c-1.1,7.3-1.5,12.6-1.6,18.2c-0.1,5.5-0.4,7.2,0.6,9.1C125,163.7,125.7,164.4,126.3,165L126.3,165z
		 M175.2,117.6l0.5,13.9c0.2,5.2,0.4,9.4,0.4,13.6c0,3.3,0.4,11.5,0.5,18.5c0.4-0.2,0.7-0.5,0.9-0.7c1.5-1.4,1.8-1.8,2-2.4
		s0-11.1-0.6-19.5C178.3,134.6,176.5,124.8,175.2,117.6z"/>
</g>
</svg>
