<?xml version="1.0" encoding="utf-8"?>
<!-- Generator: Adobe Illustrator 25.3.1, SVG Export Plug-In . SVG Version: 6.00 Build 0)  -->
<svg version="1.1" id="Capa_1" xmlns="http://www.w3.org/2000/svg" xmlns:xlink="http://www.w3.org/1999/xlink" x="0px" y="0px"
	 viewBox="0 0 876 1231.1" style="enable-background:new 0 0 876 1231.1;" xml:space="preserve">
<style type="text/css">
	.st0{fill:none;}
	.st1{enable-background:new    ;}
	.st2{fill:#1E1E1C;}
	.st3{font-family:'Roboto-Regular', sans-serif;}
	.st4{font-size:9px;}
	.st5{font-family:'Roboto', sans-serif;}
	.st6{display:none;}
	.st7{display:inline;opacity:0.5;fill:none;stroke:#1F9CD8;stroke-width:0.8781;stroke-miterlimit:10;enable-background:new    ;}
	.st8{fill:none;stroke:#95C11F;stroke-width:13.6983;stroke-miterlimit:10;}
	.st9{fill:#95C11F;}
	.st10{font-size:12px;}
	.st11{fill:none;stroke:#006633;stroke-width:13.6983;stroke-miterlimit:10;}
	.st12{fill:#006633;}
	.st13{fill:#95C11F;stroke:#006633;stroke-width:6.755;stroke-miterlimit:10;}
	.st14{fill:#006633;stroke:#95C11F;stroke-width:6.755;stroke-miterlimit:10;}
	.st15{fill:none;stroke:#006633;stroke-width:0.8781;stroke-miterlimit:10;stroke-dasharray:1.6196,1.2957;}
	.st16{fill:none;stroke:#95C11F;stroke-width:0.8781;stroke-miterlimit:10;stroke-dasharray:1.6196,1.2957;}

@media (hover: hover) {
#leyendas{opacity:0; transition:all ease 0.25s}
svg:hover #leyendas{opacity:1; transition:all ease 0.25s}
}
</style>
<g id="leyendas">
	<g>
		<rect x="522" y="994.3" class="st0" width="155.2" height="42.9"/>
		<text transform="matrix(1 0 0 1 521.9521 1002.8997)" class="st1"><tspan x="0" y="0" class="st2 st3 st4">24 de octubre, día internacional </tspan><tspan x="0" y="12" class="st2 st3 st4">del Gibón por la UICN  </tspan></text>
	</g>
	<g>
		<rect x="238.2" y="45.8" class="st0" width="115" height="46.7"/>
		<text transform="matrix(1 0 0 1 239.9641 54.3547)" class="st1"><tspan x="0" y="0" class="st2 st3 st4">Tala ilegal de bosques se </tspan><tspan x="8.9" y="12" class="st2 st3 st4">comienza  a considerar </tspan><tspan x="21.2" y="24" class="st2 st3 st4">un problema  para la </tspan><tspan x="52.8" y="36" class="st2 st3 st4">biodiversidad </tspan></text>
	</g>
	<g>
		<text transform="matrix(1 0 0 1 250.9077 329.4509)" class="st1"><tspan x="0" y="0" class="st2 st3 st4">Se reportan incendios</tspan><tspan x="5.3" y="12" class="st2 st3 st4">más frecuentemente</tspan></text>
	</g>
	<g>
		<rect x="140.2" y="453.7" class="st0" width="208.6" height="44.3"/>
		<text transform="matrix(1 0 0 1 161.4349 462.2364)" class="st1"><tspan x="0" y="0" class="st2 st3 st4">Comienzo de construcción de caminos en </tspan><tspan x="22.2" y="12" class="st2 st3 st4">habitat de Siamang y se acrecenta la </tspan><tspan x="138.7" y="24" class="st2 st3 st4">agricultura  </tspan></text>
	</g>
	<g>
		<rect x="242.2" y="538.3" class="st0" width="106.3" height="29.5"/>
		<text transform="matrix(1 0 0 1 254.7662 546.8396)" class="st1"><tspan x="0" y="0" class="st2 st3 st4">Plantaciones de café </tspan><tspan x="13.1" y="12" class="st2 st3 st4">se hacen masivas</tspan></text>
	</g>
	<g>
		<rect x="522" y="485.4" class="st0" width="170.7" height="96.2"/>
		<text transform="matrix(1 0 0 1 521.9521 493.9458)" class="st1"><tspan x="0" y="0" class="st2 st3 st4">Se prohíbe el comercio internacional </tspan><tspan x="0" y="12" class="st2 st3 st4">de Siamangs por la convención sobre </tspan><tspan x="0" y="24" class="st2 st3 st4">el Comercio Internacional de Especies </tspan><tspan x="0" y="36" class="st2 st3 st4">Amenazadas (CITES)  </tspan></text>
	</g>
	<g>
		<rect x="521.9" y="807" class="st0" width="170.8" height="78.8"/>
		<text transform="matrix(1 0 0 1 521.8691 815.5761)" class="st1"><tspan x="0" y="0" class="st2 st3 st4">Se declara </tspan><tspan x="49.5" y="0" class="st2 st5 st4">en peligro de extinción </tspan><tspan x="153.6" y="0" class="st2 st3 st4">por </tspan><tspan x="0" y="12" class="st2 st3 st4">la Unión Internacional de </tspan><tspan x="0" y="24" class="st2 st3 st4">Conservación de la Naturaleza (UICN) </tspan></text>
	</g>
	<g>
		<rect x="521.9" y="1052.6" class="st0" width="124.9" height="79.3"/>
		<text transform="matrix(1 0 0 1 521.8694 1061.1674)" class="st1"><tspan x="0" y="0" class="st2 st3 st4">La Unión Europea endurece </tspan><tspan x="0" y="12" class="st2 st3 st4">las regulaciones a las </tspan><tspan x="0" y="24" class="st2 st3 st4">industrias del aceite de </tspan><tspan x="0" y="36" class="st2 st3 st4">palma en Indonesia y </tspan><tspan x="0" y="48" class="st2 st3 st4">Malasia   </tspan></text>
	</g>
	<g>
		<rect x="254.8" y="644.8" class="st0" width="94" height="54.8"/>
		<text transform="matrix(1 0 0 1 258.6031 653.3662)" class="st1"><tspan x="0" y="0" class="st2 st3 st4">Extracción de aceite </tspan><tspan x="1.9" y="12" class="st2 st3 st4">de palma acrecenta </tspan><tspan x="8.5" y="24" class="st2 st3 st4">la tala de bosques </tspan><tspan x="57.2" y="36" class="st2 st3 st4">nativos </tspan></text>
	</g>
</g>
<g id="GUIAS">
	<g class="st6">
		<rect x="960.3" y="-1730.3" class="st7" width="168.9" height="1875.1"/>
		<rect x="1159.2" y="-1730.3" class="st7" width="168.9" height="1875.1"/>
		<rect x="1358.4" y="-1730.3" class="st7" width="168.9" height="1875.1"/>
		<rect x="1557.4" y="-1730.3" class="st7" width="168.9" height="1875.1"/>
		<rect x="1756.4" y="-1730.3" class="st7" width="168.9" height="1875.1"/>
		<rect x="1955.5" y="-1730.3" class="st7" width="168.9" height="1875.1"/>
		<rect x="846.8" y="-1867.4" class="st7" width="1390.9" height="2149.6"/>
		<line class="st7" x1="1542.3" y1="-1730.3" x2="1542.3" y2="144.8"/>
	</g>
	<g>
		<g>
			<line class="st8" x1="455.9" y1="479" x2="455.9" y2="1162.5"/>
			<g>
				<polygon class="st9" points="440.1,1158 455.9,1185.2 471.5,1158 				"/>
			</g>
		</g>
	</g>
	<g>
		<text transform="matrix(1 0 0 1 356.6874 60.2109)" class="st2 st5 st10">1980</text>
	</g>
	<g>
		<text transform="matrix(1 0 0 1 356.6874 466.6059)" class="st2 st5 st10">1995</text>
	</g>
	<g>
		<text transform="matrix(1 0 0 1 356.6874 549.4399)" class="st2 st5 st10">1998</text>
	</g>
	<g>
		<text transform="matrix(1 0 0 1 477.7819 816.5746)" class="st2 st5 st10">2008</text>
	</g>
	<g>
		<text transform="matrix(1 0 0 1 403.9982 1208.1635)" class="st2 st5 st10">A la fecha</text>
	</g>
	<g>
		<text transform="matrix(1 0 0 1 356.6874 332.621)" class="st2 st5 st10">1990</text>
	</g>
	<g>
		<g>
			<line class="st11" x1="412.5" y1="45.8" x2="412.5" y2="1162.5"/>
			<g>
				<polygon class="st12" points="396.9,1158 412.5,1185.2 428.3,1158 				"/>
			</g>
		</g>
	</g>
	<g>
		<text transform="matrix(1 0 0 1 477.3806 1006.5668)" class="st2 st5 st10"> 2015</text>
	</g>
	<g>
		<text transform="matrix(1 0 0 1 477.3815 1060.3998)" class="st2 st5 st10"> 2017</text>
	</g>
	<g>
		<text transform="matrix(1 0 0 1 477.3806 494.3051)" class="st2 st5 st10">1996</text>
	</g>
	<circle class="st13" cx="412.5" cy="55.1" r="9.5"/>
	<circle class="st13" cx="412.5" cy="326.9" r="9.5"/>
	<circle class="st13" cx="412.5" cy="461.8" r="9.5"/>
	<circle class="st14" cx="455.9" cy="488.5" r="9.5"/>
	<circle class="st14" cx="455.9" cy="811.6" r="9.5"/>
	<circle class="st14" cx="455.9" cy="1002.9" r="9.5"/>
	<circle class="st14" cx="455.9" cy="1057.2" r="9.5"/>
	<circle class="st13" cx="412.5" cy="544.2" r="9.5"/>
	<circle class="st13" cx="412.5" cy="651.5" r="9.5"/>
	<line class="st15" x1="475.4" y1="488.7" x2="456.6" y2="488.7"/>
	<g>
		<text transform="matrix(1 0 0 1 356.6874 656.187)" class="st2 st5 st10">2002</text>
	</g>
	<line class="st16" x1="412.2" y1="651.5" x2="393.4" y2="651.5"/>
	<line class="st15" x1="474.2" y1="1002.9" x2="455.5" y2="1002.9"/>
	<line class="st15" x1="474.2" y1="811.6" x2="455.5" y2="811.6"/>
	<line class="st15" x1="474.2" y1="1057.2" x2="455.5" y2="1057.2"/>
	<line class="st16" x1="413" y1="461.8" x2="394.2" y2="461.8"/>
	<line class="st16" x1="413" y1="544.2" x2="394.2" y2="544.2"/>
	<line class="st16" x1="412.5" y1="326.9" x2="393.7" y2="326.9"/>
	<line class="st16" x1="410.9" y1="55.1" x2="392.1" y2="55.1"/>
</g>
</svg>
