<?xml version="1.0" encoding="utf-8"?>
<!-- Generator: Adobe Illustrator 26.0.1, SVG Export Plug-In . SVG Version: 6.00 Build 0)  -->
<svg version="1.1" id="Capa_1" xmlns="http://www.w3.org/2000/svg" xmlns:xlink="http://www.w3.org/1999/xlink" x="0px" y="0px"
	 viewBox="0 0 876 1231.1" style="enable-background:new 0 0 876 1231.1;" xml:space="preserve">
<style type="text/css">
	.st0{opacity:0;}
	.st1{fill:none;}
	.st2{fill:#1E1E1C;}
	.st3{font-family:'Roboto-Regular';}
	.st4{font-size:12.0608px;}
	.st5{font-size:11.4309px;}
	.st6{font-size:11.3628px;}
	.st7{font-size:10.5982px;}
	.st8{font-size:10.9961px;}
	.st9{font-size:11.1671px;}
	.st10{font-size:12.4975px;}
	.st11{font-size:12.5357px;}
	.st12{font-size:10.9178px;}
	.st13{display:none;}
	.st14{display:inline;opacity:0.5;fill:none;stroke:#1F9CD8;stroke-width:0.8781;stroke-miterlimit:10;enable-background:new    ;}
	.st15{fill:none;stroke:#95C11F;stroke-width:13.6983;stroke-miterlimit:10;}
	.st16{fill:#95C11F;}
	.st17{font-size:14px;}
	.st18{fill:none;stroke:#006633;stroke-width:13.6983;stroke-miterlimit:10;}
	.st19{fill:#006633;}
	.st20{fill:#95C11F;stroke:#006633;stroke-width:6.755;stroke-miterlimit:10;}
	.st21{fill:#006633;stroke:#95C11F;stroke-width:6.755;stroke-miterlimit:10;}
	.st22{fill:none;stroke:#006633;stroke-width:0.8781;stroke-miterlimit:10;stroke-dasharray:1.6196,1.2957;}
	.st23{fill:none;stroke:#95C11F;stroke-width:0.8781;stroke-miterlimit:10;stroke-dasharray:1.6196,1.2957;}
</style>
<g id="leyenda" class="st0">
	<g>
		<rect x="522.6" y="995.5" class="st1" width="155.2" height="42.9"/>
		<text transform="matrix(1 0 0 1 523.1054 1004.0139)" class="st2 st3 st4">24 de octubre, día internacional </text>
		<text transform="matrix(1 0 0 1 523.1054 1018.4866)" class="st2 st3 st4">del Gibón por la UICN  </text>
	</g>
	<g>
		<rect x="179.8" y="48" class="st1" width="115" height="46.7"/>
		<text transform="matrix(1 0 0 1 195.5267 55.2502)" class="st2 st3 st5">Tala ilegal de bosques se </text>
		<text transform="matrix(1 0 0 1 205.7006 68.9675)" class="st2 st3 st5">comienza  a considerar </text>
		<text transform="matrix(1 0 0 1 219.7601 82.6843)" class="st2 st3 st5">un problema  para la </text>
		<text transform="matrix(1 0 0 1 255.8812 96.4016)" class="st2 st3 st5">biodiversidad </text>
	</g>
	<g>
		<text transform="matrix(1 0 0 1 214.5093 329.9585)" class="st2 st3 st6">Se reportan incendios</text>
		<text transform="matrix(1 0 0 1 220.5317 343.5942)" class="st2 st3 st6">más frecuentemente</text>
	</g>
	<g>
		<rect x="81.8" y="455.9" class="st1" width="208.6" height="44.3"/>
		<text transform="matrix(1 0 0 1 124.8748 463.2645)" class="st2 st3 st7">Comienzo de construcción de caminos en </text>
		<text transform="matrix(1 0 0 1 148.4026 475.9822)" class="st2 st3 st7">habitat de Siamang y se acrecenta la </text>
		<text transform="matrix(1 0 0 1 271.8718 488.7)" class="st2 st3 st7">agricultura  </text>
	</g>
	<g>
		<rect x="183.8" y="540.5" class="st1" width="106.3" height="29.5"/>
		<text transform="matrix(1 0 0 1 219.4867 547.2524)" class="st2 st3 st8">Plantaciones de café </text>
		<text transform="matrix(1 0 0 1 233.892 560.4477)" class="st2 st3 st8">se hacen masivas</text>
	</g>
	<g>
		<rect x="522.6" y="486.6" class="st1" width="170.7" height="96.2"/>
		<text transform="matrix(1 0 0 1 520.2228 492.7771)" class="st2 st3 st9">Se prohíbe el comercio internacional </text>
		<text transform="matrix(1 0 0 1 520.2228 506.178)" class="st2 st3 st9">de Siamangs por la convención sobre </text>
		<text transform="matrix(1 0 0 1 520.2228 519.5784)" class="st2 st3 st9">el Comercio Internacional de Especies </text>
		<text transform="matrix(1 0 0 1 520.2228 532.9788)" class="st2 st3 st9">Amenazadas (CITES)  </text>
	</g>
	<g>
		<rect x="514.8" y="803.6" class="st1" width="170.8" height="78.8"/>
		<text transform="matrix(1 0 0 1 520.2227 814.9163)" class="st2 st3 st10">Se declara </text>
		<text transform="matrix(1 0 0 1 582.0859 814.9163)" class="st2 st3 st10">en peligro de extinción </text>
		<text transform="matrix(1 0 0 1 712.1855 814.9163)" class="st2 st3 st10">por </text>
		<text transform="matrix(1 0 0 1 520.2227 829.9133)" class="st2 st3 st10">la Unión Internacional de </text>
		<text transform="matrix(1 0 0 1 520.2227 844.9104)" class="st2 st3 st10">Conservación de la Naturaleza (UICN) </text>
	</g>
	<g>
		<rect x="522.5" y="1053.8" class="st1" width="124.9" height="79.3"/>
		<text transform="matrix(1 0 0 1 523.499 1057.8787)" class="st2 st3 st11">La Unión Europea endurece </text>
		<text transform="matrix(1 0 0 1 523.499 1072.9207)" class="st2 st3 st11">las regulaciones a las </text>
		<text transform="matrix(1 0 0 1 523.499 1087.9636)" class="st2 st3 st11">industrias del aceite de </text>
		<text transform="matrix(1 0 0 1 523.499 1103.0066)" class="st2 st3 st11">palma en Indonesia y </text>
		<text transform="matrix(1 0 0 1 523.499 1118.0496)" class="st2 st3 st11">Malasia   </text>
	</g>
	<g>
		<rect x="196.4" y="647" class="st1" width="94" height="54.8"/>
		<text transform="matrix(1 0 0 1 224.6564 653.7905)" class="st2 st3 st12">Extracción de aceite </text>
		<text transform="matrix(1 0 0 1 226.7306 666.8921)" class="st2 st3 st12">de palma acrecenta </text>
		<text transform="matrix(1 0 0 1 233.9362 679.9927)" class="st2 st3 st12">la tala de bosques </text>
		<text transform="matrix(1 0 0 1 287.1061 693.0942)" class="st2 st3 st12">nativos </text>
	</g>
</g>
<g id="GUIAS">
	<g class="st13">
		<rect x="960.3" y="-1730.3" class="st14" width="168.9" height="1875.1"/>
		<rect x="1159.2" y="-1730.3" class="st14" width="168.9" height="1875.1"/>
		<rect x="1358.4" y="-1730.3" class="st14" width="168.9" height="1875.1"/>
		<rect x="1557.4" y="-1730.3" class="st14" width="168.9" height="1875.1"/>
		<rect x="1756.4" y="-1730.3" class="st14" width="168.9" height="1875.1"/>
		<rect x="1955.5" y="-1730.3" class="st14" width="168.9" height="1875.1"/>
		<rect x="846.8" y="-1867.4" class="st14" width="1390.9" height="2149.6"/>
		<line class="st14" x1="1542.3" y1="-1730.3" x2="1542.3" y2="144.8"/>
	</g>
	<g>
		<g>
			<line class="st15" x1="455.9" y1="479" x2="455.9" y2="1162.5"/>
			<g>
				<polygon class="st16" points="440.1,1158 455.9,1185.2 471.5,1158 				"/>
			</g>
		</g>
	</g>
	<g>
		<text transform="matrix(1 0 0 1 334.1333 60.3608)" class="st2 st3 st17">1980</text>
	</g>
	<g>
		<text transform="matrix(1 0 0 1 334.1333 466.7559)" class="st2 st3 st17">1995</text>
	</g>
	<g>
		<text transform="matrix(1 0 0 1 334.1333 549.5899)" class="st2 st3 st17">1998</text>
	</g>
	<g>
		<text transform="matrix(1 0 0 1 477.7819 816.5746)" class="st2 st3 st17">2008</text>
	</g>
	<g>
		<text transform="matrix(1 0 0 1 390.4458 1208.1635)" class="st2 st3 st17">A la fecha</text>
	</g>
	<g>
		<text transform="matrix(1 0 0 1 334.1333 332.771)" class="st2 st3 st17">1990</text>
	</g>
	<g>
		<g>
			<line class="st18" x1="389.9" y1="46" x2="389.9" y2="1162.7"/>
			<g>
				<polygon class="st19" points="374.3,1158.2 389.9,1185.3 405.7,1158.2 				"/>
			</g>
		</g>
	</g>
	<g>
		<text transform="matrix(1 0 0 1 477.3806 1006.5668)" class="st2 st3 st17"> 2015</text>
	</g>
	<g>
		<text transform="matrix(1 0 0 1 477.3815 1060.3998)" class="st2 st3 st17"> 2017</text>
	</g>
	<g>
		<text transform="matrix(1 0 0 1 477.3806 494.3051)" class="st2 st3 st17">1996</text>
	</g>
	<circle class="st20" cx="389.9" cy="55.3" r="9.5"/>
	<circle class="st20" cx="389.9" cy="327.1" r="9.5"/>
	<circle class="st20" cx="389.9" cy="462" r="9.5"/>
	<circle class="st21" cx="455.9" cy="488.5" r="9.5"/>
	<circle class="st21" cx="455.9" cy="811.6" r="9.5"/>
	<circle class="st21" cx="455.9" cy="1002.9" r="9.5"/>
	<circle class="st21" cx="455.9" cy="1057.2" r="9.5"/>
	<circle class="st20" cx="389.9" cy="544.4" r="9.5"/>
	<circle class="st20" cx="389.9" cy="651.7" r="9.5"/>
	<line class="st22" x1="475.4" y1="488.7" x2="456.6" y2="488.7"/>
	<g>
		<text transform="matrix(1 0 0 1 334.1333 656.337)" class="st2 st3 st17">2002</text>
	</g>
	<line class="st23" x1="389.6" y1="651.7" x2="370.8" y2="651.7"/>
	<line class="st22" x1="474.2" y1="1002.9" x2="455.5" y2="1002.9"/>
	<line class="st22" x1="474.2" y1="811.6" x2="455.5" y2="811.6"/>
	<line class="st22" x1="474.2" y1="1057.2" x2="455.5" y2="1057.2"/>
	<line class="st23" x1="390.4" y1="462" x2="371.6" y2="462"/>
	<line class="st23" x1="390.4" y1="544.4" x2="371.6" y2="544.4"/>
	<line class="st23" x1="412.5" y1="326.9" x2="393.7" y2="326.9"/>
	<line class="st23" x1="388.3" y1="55.3" x2="369.5" y2="55.3"/>
</g>
</svg>
