<?xml version="1.0" encoding="utf-8"?>
<!-- Generator: Adobe Illustrator 25.3.1, SVG Export Plug-In . SVG Version: 6.00 Build 0)  -->
<svg version="1.1" id="Capa_1" xmlns="http://www.w3.org/2000/svg" xmlns:xlink="http://www.w3.org/1999/xlink" x="0px" y="0px"
	 viewBox="0 0 130 220" style="enable-background:new 0 0 130 220;" xml:space="preserve">
<style type="text/css">
	.st0{fill:none;}
	.st1{fill:#1E1E1C;}
	.st2{font-family:'Roboto-Regular', sans-serif;}
	.st3{font-size:12px;}
	.st4{fill:none;stroke:#000000;stroke-width:0.7;stroke-linecap:round;stroke-linejoin:round;stroke-miterlimit:10;}
</style>
<g>
	<rect x="20.2" y="199.7" class="st0" width="95.8" height="20.6"/>
	<text transform="matrix(1 0 0 1 53.0977 210.1532)" class="st1 st2 st3">Mano </text>
</g>
<g>
	<path class="st4" d="M47.3,60.2c0,0-3.2-3.4,0-9.6s5.5-8.7,7.3-7.8c1.7,0.8,3.7,13.4,2.1,16.7c-1.6,3.2-0.7,14.8-1,16.2
		s0.3,10.8,0.1,11.9c-0.1,1,1.4,16,2,17.4s1.3-14.4,1.8-15.1c0.6-0.7-0.3-11.9,0-12.6s3.1-19,3.9-22c0.7-2.8,0.4-1.6,0-3.6
		c-0.3-1,0.3-6,0.8-6.9c0.5-0.9,2.8-6.6,5.2-7.3s4.5,12.9,2.7,15.8s-1.6,23.1-1.6,23.6c0,0.6-0.7,11.2-0.7,11.2s0,18.1,1.3,19.2
		c1.3,1,1.9-10.3,1.7-12.6c-0.1-2.3,0-12.1,0.7-17.2c0.7-5.2,2-13,2-13.9c0-0.8-1.5-4.4-0.8-8s4.1-8,5-8.2
		c6.9,5.5,3.9,17.5,3.6,18.2s-0.1,18.9-0.1,19.9s0.7,21.1,1.4,22.9c0.7,1.7,1.6,4.6,1.7,5.5s-1.4-7.1-0.9-10.5
		c0.6-3.4,1.7-18.8,2-19.9c0.2-1-2.1-5.2-0.7-9c1.4-3.9,3.4-5,4.3-4.1s3.8,4.4,3.4,7.4c-0.1,3.1-0.3,18.5-0.2,19.8s0.3,5,0,5.5
		s0.4,15.5,0.2,16.9s-2.7,19.5-2.9,20.4c-0.1,0.9-1.6,9.1-2,11.2c-0.3,2.1,0.6,15.6,0.6,16.9s0,13.5-0.6,16.4
		c-0.3,2-2.9,5.5-5.3,6.4c-3.1,1.2-9.8-2.3-12.2-2.9c-2.4-0.6-6,2.3-10.3,2s-10.3-5.9-17.9-14.8c-7.6-8.9-20.4-24-20.8-26.4
		c-0.3-2.4,0.1-7.3-0.5-8.5c-7.6-11.9,7.5-22.2,10.2-3.8c0.6,3.9-0.9,2.9-0.3,3.9c0.6,1,7.6,8.8,8.7,10.4c1.1,1.6,7.2,3.9,9.6,6.7
		c1.4,1.7,4.3,0.3,5.7,1.7s-3.4-9.4-3.6-10.5c-0.1-1-5.3-13.2-5.2-14.2s-3.2-8.5-3.2-11s0.3-13.2,1.3-15.3s-3-16.5-2.4-19.5
		s0.9-11.2,1.3-11.8C44.8,76.7,45,63.8,47.3,60.2z"/>
	<path class="st4" d="M47.3,60.2c2.2,1.3,3.2,1.3,5.3,1.1s4.1-2.2,4.1-2.2"/>
	<path class="st4" d="M64,53.4c0,0,0.9,2.8,3.5,2.5s4.5-2.5,4.5-2.5"/>
	<path class="st4" d="M75.6,63.6c0,0,1,2.4,2.8,2.7s4.9,0.2,5-0.7"/>
	<path class="st4" d="M87.5,83.4c0,0,1.5,0.9,2.8,0.9s3.8-1.4,3.8-1.4"/>
	<path class="st4" d="M47.7,76.6c1.5,0.4,6.2,0.3,7.5,0"/>
	<path class="st4" d="M62.9,77.7c1.5,0.4,6.2,0.3,7.5,0"/>
	<path class="st4" d="M75.8,91.1c1.5,0.4,6.2,0.3,7.5,0"/>
	<path class="st4" d="M62.4,89.5c1.5,0.4,6.2,0.3,7.5,0"/>
	<path class="st4" d="M87.6,103.3c1.3,0.5,0.6,0.3,6.5,0"/>
	<path class="st4" d="M88.4,94.1c1.1,0.5,0.5,0.3,5.6,0"/>
	<path class="st4" d="M75.8,78.2c1.5,0.4,6.2,0.3,7.5,0"/>
	<path class="st4" d="M47.7,88.6c1.6,0.1,6.4,0.1,7.8,0"/>
	<path class="st4" d="M47.3,109.6c4.1-1.5,10.1-1.8,10.5-1.5c1.2,1.3,2,3.6,1.3,5.5c-0.8,2.4-4.3,8.8-4,9.4"/>
	<path class="st4" d="M57.8,108.2c13.4-0.9,29.5,8.6,29.9,9c0.6,0.5,2.9,1.9,3.9,3.6"/>
	<path class="st4" d="M49.7,134.4c0,0,3.7-1,9.7,0s22,5.9,25.4,6.4"/>
	<path class="st4" d="M69.2,131.7c0,0,1.7,12.7,2.9,14.2"/>
	<path class="st4" d="M88.3,147.4c0,0-9.8,16.4-10.5,18.7c-0.7,2.2-5,14.1-3.8,17.5c1.3,3.5,4.9,7.2,4.9,7.2"/>
	<path class="st4" d="M56.5,159.6c0,0,7.5,9.3,9,12.9c1.4,3.6,4.8,9.4,3.8,13"/>
	<path class="st4" d="M32.3,140.7c0,0-0.3,1-2.7,1.1s-4.5-1.1-4.5-1.1"/>
	<path class="st4" d="M51.7,158.8c-0.1,0.6,1.2,2.5-0.6,6.6s-4.1,5.3-4.1,5.3"/>
	<path class="st4" d="M41.2,151.2c-1.8,4.1-3.9,6.2-3.9,6.2"/>
	<path class="st4" d="M56.2,45.5"/>
	<path class="st4" d="M51.1,44.6"/>
	<path class="st4" d="M68.3,39.6"/>
	<path class="st4" d="M67,39.8c0.4-0.5,3-2.4,4.5,0.3"/>
	<path class="st4" d="M77.5,49.9c0.2-0.5,3.5-2.2,5,0.5"/>
	<path class="st4" d="M87.7,72.6c0.5-0.8,4-2.3,5.5,0.4"/>
	<path class="st4" d="M51,44.6c0.4-0.5,3.5-1.9,5,0.8"/>
</g>
</svg>
