<?xml version="1.0" encoding="utf-8"?>
<!-- Generator: Adobe Illustrator 25.3.1, SVG Export Plug-In . SVG Version: 6.00 Build 0)  -->
<svg version="1.1" id="Capa_1" xmlns="http://www.w3.org/2000/svg" xmlns:xlink="http://www.w3.org/1999/xlink" x="0px" y="0px"
	 viewBox="0 0 130 220" style="enable-background:new 0 0 130 220;" xml:space="preserve">
<style type="text/css">
	.st0{fill:none;}
	.st1{fill:#1E1E1C;}
	.st2{font-family:'Roboto-Regular', sans-serif;}
	.st3{font-size:12px;}
	.st4{fill:none;stroke:#979392;stroke-width:0.6879;stroke-linecap:round;stroke-linejoin:round;stroke-miterlimit:10;}
</style>
<g>
	<rect x="24" y="199.9" class="st0" width="97.9" height="20.1"/>
	<text transform="matrix(1.0491 0 0 1 32.4092 210.2383)" class="st1 st2 st3">Mano humana</text>
</g>
<g>
	<g>
		<path class="st4" d="M40.3,191.3c0,0,1.7-6.8,1.4-13.5c-0.3-6.6-3.9-16.1-3.9-16.1s-13.6-13-16.1-18.3s-5-9.4-6.1-15.8
			c-1.1-6.3-6.1-15.5-6.1-18.5s3-14.7,2.7-20.3c-0.3-5.7,0.8-11.2,7.3-8.4c6.5,2.7,9.8,7.7,9.6,12.1s-1.8,9.4-2.1,11.9
			c-0.3,2.4,2.4,7.2,3.2,10.9c0.8,3.6-0.5,1.8,1.8,6.1c2.4,4.1,4.1,4.1,4.9,2.1s1-38.3,1-38.3s1.3-17.6,1.3-20.5s0.5-13.9,0-18.1
			s0.5-16.8,0.5-16.8s0.8-6.2,7-6.7c8-0.6,6.5,11.6,6.5,11.6s-1.6,6.2-1.6,9.6c0,3.4,0.8,11.4,0.5,13.9s0,3.2,0,9.8
			s-0.5,11.2,0.8,11c1.3-0.1,4.9,0.3,4.4-2.9c-0.5-3.2-0.5-19.6-1-22.5c-0.5-3,0.3-22.5,0.8-24.8S57.6,13,57.6,13s1.6-7.2,7-7.2
			c7.5,0,8.8,6.7,8.8,6.7s-0.5,10.1-1.8,14.4c-1.3,4.2,0.3,9.4,0,14.8s-0.3,9.8-0.5,13.1c-0.3,3.2,0.3,20.7,0.3,20.7s1.8,2,2.9,0.8
			c1-1.2,2.5-15.1,2.4-21.8c-0.2-6.7,1-23,0.3-25.4s-0.8-8.7-0.8-11.1s1-9.6,7-9.8c7.5-0.3,7.8,9.6,7.8,9.6s0.3,6.4,0.3,10.6
			s0.8,10.1,0.8,13.7c0,3.4-1,9.1-1,12.6c0,3.4,0.8,9.1,0.8,11.9c0,2.7-1,11,0,12.6c1,1.5,4.6,3.9,5.4,2.4s1.5-6.7,1.8-15.8
			c0.4-9.1,1.2-24.1,1.2-24.1s-1.2-12.1,7-11.9c8.6,0.3,7.2,8.8,7.2,8.8s-0.9,12.1-1.4,16.1c-0.6,3.9-0.9,32.1-0.3,35.3
			s3.1,8.4,3.9,14.7c0.9,6.3,3.9,17.6,3.2,27.4c-0.6,9.7-2.3,22.1-7.2,30c-5,7.9-4.1,8.8-6.4,15.6s-2,13.9-2,13.9"/>
		<path class="st4" d="M40.3,191.3"/>
		<path class="st4" d="M104.4,191.3"/>
		<path class="st4" d="M113.8,107.9c0,0-18.9,0.8-29.9-2c-10.9-2.7-14.6-6.2-19.3-10.2c-4.7-4.1-10.4-11.4-10.4-11.4"/>
		<path class="st4" d="M40.9,102.7c0,0,23.7,3.9,35.6,11.2c11.9,7.2,20.8,13.1,20.8,13.1"/>
		<path class="st4" d="M40.9,102.7c0,0,24,8.4,32.9,18.7c6.7,7.7,10.3,20.3,10.3,27.8c-0.1,7.7-1.7,12.6-1.7,12.6"/>
		<path class="st4" d="M27.1,104.5c0,0-1.3,3.4-4.1,3.6c-2.9,0.1-6.8,0-6.8,0"/>
		<path class="st4" d="M30.6,118c0,0-1.6,5.4-5.8,7.7"/>
		<path class="st4" d="M33.5,123.4c0,0-1.1,1.3-3,7.5"/>
		<path class="st4" d="M91,54.7c0,0-3.2,0.8-6.9,0"/>
		<path class="st4" d="M91.3,28.5c0,0-0.4,2.3-3.7,2.3s-6.3,0-6.3,0"/>
		<path class="st4" d="M113.6,47.6c0,0-1.8,1.5-4.5,1.5s-2.5,0-2.5,0"/>
		<path class="st4" d="M112.5,66.5c0,0-1.5,1.3-4.1,1"/>
		<path class="st4" d="M112.7,89.7c0,0-0.7-0.2-6.2-2.4c-5.4-2.2-5.4-2.2-5.4-2.2"/>
		<path class="st4" d="M71.3,54.9c0,0-3.1,0.4-6.5,0.1c-3.4-0.3-3.4-0.3-3.4-0.3"/>
		<path class="st4" d="M71.3,29.6c0,0-2.7,1.7-6.5,1.1s-3.6-0.5-3.6-0.5"/>
		<path class="st4" d="M51.9,47.6c0,0,0.4,0.6-3.1,0s-4.9,0-4.9,0"/>
		<path class="st4" d="M51.9,62.4c0,0-1.3,3-3.9,3s-3.9,0-3.9,0"/>
		<path class="st4" d="M49.5,80.4c0,0-3.2,1-5.4,2.7"/>
		<path class="st4" d="M69.1,77.9c0,0-0.4,0.8-4.3,1.2c-3.9,0.4-3.9,0.3-3.9,0.3"/>
		<path class="st4" d="M88.8,77.9c0,0-2.5,1-6.1,0s-3.6-1-3.6-1"/>
		<path class="st4" d="M107.2,174.5c0,0-1.5,1.4-8,1.7c-9.7,0.4-18.5-1-15.1-1"/>
		<path class="st4" d="M58.3,171.4c0,0-8.6-2.3-13-5s-7.5-4.7-7.5-4.7"/>
		<path class="st4" d="M14.4,80.4c0,0,1.3,2.3,1.8,7c0.6,4.8,0,7,0,7h-4.3"/>
	</g>
</g>
</svg>
