<?xml version="1.0" encoding="utf-8"?>
<!-- Generator: Adobe Illustrator 22.0.1, SVG Export Plug-In . SVG Version: 6.00 Build 0)  -->
<svg version="1.1" id="Capa_1" xmlns="http://www.w3.org/2000/svg" xmlns:xlink="http://www.w3.org/1999/xlink" x="0px" y="0px"
	 viewBox="0 0 1000 250" style="enable-background:new 0 0 1000 250;" xml:space="preserve">
<style type="text/css">
	.st0{fill:#1B330F;}
	.st1{fill:#E65100;}
</style>
<image style="overflow:visible;" width="2000" height="500" id="foto" xlink:href="boscoso.png"  transform="matrix(0.5 0 0 0.5 0 0)">
</image>
<g id="paso-3">
	<path class="st0" d="M350.4,187.5l-0.2,2.1l-0.2-3.8L350.4,187.5l1.7-17.3l1.7-19.4l0.1-0.8c0-0.3,0-0.7,0-1l-3-20.1
		c0,0.4-0.1,0.8-0.1,1.2l0-1.6l0.1,0.4c0.2-2.7,0.4-5.4,0.5-8.1c0.2-3.1,0.3-6.2,0.2-9.3l0-1.5l-3.1-18.3l0,0.7l0-1.1l0.1,0.5
		l2.6-38.4c0.7-10,0.8-35.7,1.1-53.2h-5.8c-1.4,17.7-2.9,42.5-4,52.4l-4,39c0,0.3,0,0.6,0,0.9l0,0.2l2.1,17.9c0-0.1,0.1-0.3,0.1-0.4
		l0,1.5l-0.1-1.1c-0.8,2.9-1.5,5.7-2.2,8.6c-0.7,3-1.3,6.1-1.9,9.1c0,0.3-0.1,0.5-0.1,0.8l0,0.8l0.6,19.3l0.1-0.5l0,1.8l0-1.4
		l-1,5.6l-3.4-2.6l-5.1-9.4l-0.2-0.3c-0.2-0.3-0.4-0.6-0.7-0.8l-8.4-5.5l-7.2-12.5l-3-13.8l0-0.1c0-0.2-0.1-0.3-0.2-0.5l-6.3-7.4
		c-0.3-0.4-0.8-0.4-1.2-0.1c-0.4,0.3-0.5,0.9-0.2,1.2l5.6,7.5l1.9,14.1c0,0.1,0.1,0.3,0.1,0.4l0.1,0.1l6.8,13.6
		c0.1,0.2,0.3,0.4,0.5,0.6l0.2,0.1l7.3,6.2l4.3,10.1c0.2,0.4,0.5,0.8,0.8,1.1l0.2,0.1l6.8,5.6l-0.9,5.1l-3.2,19.2
		c-0.2,1.1-0.1,2.3,0.2,3.5l0.1,0.3l6.9,25.9l0.2-1.7l0.3,3.6l-0.5-1.8l-4.1,33.3h22.9l1.2-33l0-0.7c0-0.9-0.1-1.9-0.3-2.8
		L350.4,187.5z"/>
	<path class="st0" d="M645.8,233.1l-4-15.1l-0.5-1.8l-0.2-0.8l0-0.1l-0.2-1.9l-0.7-8.1l-1.5-16.1l0-0.1c-0.1-1-0.3-2-0.7-3
		l-10.8-28.4l-2.6-17.2l0-0.3c-0.1-0.5-0.2-1-0.4-1.5l-8-24.5L631.1,1c0,0,0.1-0.4,0.3-1h-21.9c-1.3,7.3-2.2,13.4-2.5,15.6
		l-4.7,32.3l-5.2,3.1l-10.6,1.3l-0.3,0c-0.3,0-0.7,0.2-1,0.4l-8.2,5.8l-14.4,2.1l-14-2.2l-0.1,0c-0.2,0-0.3,0-0.5,0l-9.2,3.2
		c-0.4,0.2-0.7,0.6-0.6,1.1c0.1,0.5,0.6,0.8,1.1,0.6l9.1-2.4l13.9,3.4c0.1,0,0.3,0,0.5,0l0.1,0l15.3-1.3c0.2,0,0.5-0.1,0.7-0.2
		l0.2-0.1l8.5-4.5l11.1-0.3c0.4,0,0.9-0.1,1.3-0.4l0.2-0.1l1-0.5l-4.2,29.1L582,88.8l-0.3,0.1c-0.5,0.1-1.1,0.3-1.6,0.7l-14.3,9.9
		l-16,3.5l-0.3,0.1c-0.3,0.1-0.6,0.2-0.9,0.4L528.1,116l-0.2,0.1c-0.2,0.1-0.3,0.3-0.5,0.4l-13.8,16.4l-0.1,0.1
		c-0.3,0.3-0.4,0.8-0.4,1.2l1.2,14.5c0.1,0.7,0.6,1.2,1.4,1.2c0.7,0,1.3-0.6,1.3-1.4l-0.1-13.7l14.3-14.3l20.2-10.9l16.9-1.7
		c0.4,0,0.9-0.2,1.3-0.4l0.4-0.2l14.7-8.4l10.5-1.8l-2.4,16.2c-0.2,1.6-0.1,3.4,0.4,5.1l0,0.1l7.8,26.2l2.4,17.8
		c0.1,0.7,0.3,1.5,0.6,2.3l0.1,0.2l10.2,28.1l1.2,13.3l0.7,7.4l0.3,3.7l0.1,1.1c0.1,0.6,0.2,1.3,0.3,1.9l0.2,0.9l0.3,1.1l0.5,1.9
		l3.9,15l1.2,10.7h25.3l-0.6-9.2L645.8,233.1z M640.9,215.1L640.9,215.1L640.9,215.1L640.9,215.1z M641.2,217.4l-0.2-2.1l0,0.1
		c0.1,0.5,0.2,0.9,0.2,1.4C641.2,217,641.2,217.2,641.2,217.4C641.2,217.6,641.2,217.4,641.2,217.4z"/>
	<path class="st1" d="M650,145.7c0-1.1-0.5-2.1-1.1-3c-0.6-0.9-1.5-1.6-2.5-2.1c-1-0.5-2.1-0.8-3.1-1.1c-3.1-2.3-6.7-4-10.3-5.5
		c1.7-2.9,3.4-6,5.5-8.6l0.9-1.1c0.2-0.3,0.3-0.6,0.4-0.9c0.1-0.4,0-0.7-0.1-0.9c-0.2-0.9-0.5-2-1.3-2.8c-0.8-0.7-1.5-1-2-1.7
		c-0.3-0.3-0.5-0.6-0.7-1c-0.2-0.4-0.5-0.8-0.8-1.2c-2.3-3-5.2-5.1-8.1-7.2c-2.9-2.1-6-4-9-5.8l0,0c-0.1,0-0.1-0.1-0.2-0.1
		c-0.3-0.1-0.6,0.2-0.7,0.5c-0.3,1.4-0.4,2.9-0.5,4.3c-0.1,1.1-0.1,2.3,0,3.4c-1.2-0.7-2.6-1.3-4-1.5c-0.9-0.1-1.8-0.1-2.7,0.4
		c-0.4,0.2-0.8,0.7-0.8,1.3c0,0.3,0.1,0.5,0.3,0.7c-0.7,0-1.4,0.3-1.9,0.8c-1.4-1.9-2.8-3.3-4.2-4.2c1-0.1,2.1,0,3.3,0.4
		c0.1,0,0.1-0.3-0.1-0.4c-2.9-2.1-5.4-3-7.5-3.1c-2.5-2-5.2-2.8-9-2.3c-3.2,0.4-5.2,2.1-6.5,4.5c-1.3,1.3-2.5,3-3.7,5.4
		c-0.1,0.2,0,0.5,0.1,0.5c0.7-0.7,1.3-1.2,2-1.6c-0.9,1.2-1.8,2.9-2.4,5.3c0,0.2,0,0.4,0.1,0.4c0.5-0.9,1.1-1.6,1.8-2
		c-0.1,0.4-0.1,0.7-0.1,1.1c-0.5,1.2-1,2.7-1.2,4.7c0,0.2,0.1,0.4,0.2,0.3c0.3-0.7,0.6-1.3,1-1.7c0.2,2,1.3,3.8,2.8,5.2
		c0.3,0.3,0.6,0.6,0.9,0.8c-0.1,0.1-0.3,0.2-0.3,0.3l0,0c-0.2,0.8-0.6,1.7-1.1,2.3c-0.1,0.2-0.3,0.3-0.4,0.5c0,0-0.1,0.1-0.1,0.1
		c-0.4-0.2-0.8-0.3-1.2-0.4c-1.8-0.6-3.6-1-5.5-1.2c-2.4-1.6-4.9-3.1-7.8-4c-3-0.7-5.9-0.9-8.8-1.2c-2.9-0.3-5.8-0.5-8.7-0.8
		c-2.8-0.4-5.6-0.5-8.2-1.7c-4.4-4.4-9.7-7.8-15.2-10.5c-2.8-1.4-5.6-2.6-8.4-3.9c-2.7-1.2-5.4-2.5-7.6-4.3c0-0.8-0.4-1.6-0.7-2.1
		l-1-2c-0.7-1.4-1.5-2.7-2.1-4c-0.3-0.7-0.5-1.3-0.7-2c-0.1-0.4-0.3-0.9-0.8-1.3c-0.6-0.4-1.4-0.2-1.8,0.2c-0.6,0.6-0.9,1.3-0.9,2.1
		c-1.6-2.4-3.3-4.6-5.2-6.8c-0.6-0.7-1.3-1.4-2.1-2c-0.8-0.6-1.7-1.1-2.6-1.4c-0.5-0.2-1-0.3-1.5-0.3c-0.5,0-1.2,0.1-1.7,0.7
		c-0.3,0.4-0.3,0.8-0.3,1.2c-0.4-0.2-0.8-0.5-1.3-0.7c-0.6-0.2-1.2-0.4-1.8-0.4c-0.6,0-1.5,0.3-1.8,1.1c-0.2,0.3-0.1,0.8,0.1,1.2
		c0.2,0.3,0.4,0.5,0.7,0.8c0.5,0.4,1,0.7,1.4,1c0.4,0.3,0.8,0.5,1.1,0.8c-0.6-0.2-1.3-0.2-2-0.1c-0.3,0.1-0.7,0.2-1,0.4
		c-0.3,0.2-0.6,0.7-0.5,1.1c0.3,0.9,1,1.1,1.5,1.4c1.2,0.5,2.3,0.9,3.2,1.6c0.6,0.4,1.1,0.9,1.5,1.4c-0.6-0.3-1.3-0.4-2-0.4
		c-0.6,0-1.3,0.3-1.6,1c-0.2,0.3-0.2,0.7-0.1,1c0.1,0.4,0.5,0.7,0.8,0.8c1.2,0.4,2.3,0.2,3.3,0.7c1,0.4,2,1,2.8,1.7
		c1.5,1.5,2.6,3.6,4.3,5.1c1.5,1.7,3.8,2.5,6,2.8l3.3,4l0,0l0,0l1.1,1.1c0.8,2.9,2,5.7,3.4,8.3c0.7,1.3,1.5,2.6,2.4,3.9
		c0.4,0.6,0.9,1.2,1.4,1.8l0.7,0.9c0.1,0.1,0.1,0.2,0.3,0.3c0.2,0.1,0.6,0.1,0.7-0.1c0.3-0.3,0.4-0.6,0.3-0.9
		c0.5,0.8,1.1,1.6,1.6,2.4c0.4,0.5,0.8,1,1.2,1.5l0.6,0.7c0.1,0.2,0.6,0.5,1,0.3c0.4-0.1,0.7-0.5,0.6-0.9l0,0c0-0.1,0-0.1,0-0.2
		c0,0,0,0,0-0.1c0.1,0.1,0.2,0.3,0.2,0.4c0.7,1.1,1.4,2.1,2.2,3.1c0.4,0.5,0.8,1,1.2,1.5l0.6,0.7c0.2,0.3,0.8,0.5,1.2,0.3
		c0.4-0.1,0.6-0.6,0.6-0.9c0.6,0.9,1.2,1.8,1.9,2.7c0.4,0.5,0.8,0.9,1.2,1.4l0.7,0.7c0.7,0.7,2,0,1.9-0.9l0-0.1c0-0.1,0-0.1-0.1-0.2
		c-0.4-0.9-0.7-1.8-1-2.7c0.4,0.5,0.8,0.9,1.3,1.4c0.7,0.7,1.4,1.3,2.1,1.9l1.1,0.9l0.3,0.2l0.2,0.2c0.1,0.1,0.3,0.2,0.5,0.2
		c0.7,0.1,1.5-0.5,1.4-1.3c0.5,0.5,0.9,1.1,1.4,1.5c0.7,0.7,1.4,1.3,2.1,2l1.1,0.9l0.3,0.2l0.2,0.1c0.1,0.1,0.3,0.2,0.5,0.2
		c0.4,0.1,0.8,0,1.1-0.3c0.3-0.3,0.5-0.8,0.4-1.1l0,0c0-0.1-0.1-0.2-0.1-0.3c-0.2-0.4-0.5-0.7-0.7-1.1c0.3,0.3,0.7,0.6,1,0.9
		c0.8,0.8,1.7,1.5,2.6,2.2l1.3,1c0.1,0.1,2.3,1.8,2.8-0.9c0-0.1,0-0.2,0-0.2l-0.1-0.2c-0.5-0.7-0.9-1.5-1.4-2.2
		c0.5,0.5,1.1,1,1.6,1.5c1,0.8,2,1.6,3,2.4l0.9,0.6c-0.4,0-0.7,0-1.1,0c-1,0.1-2.1,0.2-3.2,0.6c-0.5,0.2-1.2,0.5-1.5,0.8
		c-0.4,0.3-0.8,0.7-1.2,1.1c-0.8,0.8-1.4,1.9-1.6,3c-0.2,1.1-0.1,2.3,0.2,3.3c0.5,2.1,1.5,3.9,2.6,5.6c1.1,1.7,2.2,3.4,3.8,4.8
		c1.5,1.5,3.4,2.5,5.3,3.3c1.9,0.7,3.6,1.4,5.1,2.6c3.1,2.3,6,5.2,9.5,7.1c3.5,2.1,7.2,3.6,11,4.8c3.8,1.3,7.7,2.2,11.6,3
		c3.8,0.8,8.1,1.5,12,0.1c0.2-0.1,0.3-0.3,0.2-0.4l-7.5-20.4l-0.7-2.8c0.8-1,1.8-2,2.8-2.8c1.1-0.9,2.3-1.6,3.6-1.8
		c0.7-0.2,1.4-0.3,2-0.5c0.7-0.2,1.3-0.8,1.4-1.6c0.1-0.3,0.1-0.8-0.2-1.1c-0.3-0.3-0.6-0.4-1-0.5c-0.6-0.1-1.1,0-1.6,0
		c0.6-0.5,1.4-0.8,2.2-1c0.5-0.1,1-0.2,1.4-0.3c0.5-0.1,0.9-0.6,0.9-1.1c0-0.5,0-1-0.4-1.4c-0.3-0.4-0.8-0.5-1.3-0.6
		c-1-0.1-1.9,0.2-2.8,0.5c-1.7,0.6-3.3,1.4-4.8,2.4c0.2-1,0.9-1.9,1.7-2.6c0.9-0.7,2-1.2,3.1-1.4c0.6-0.1,1.2-0.2,1.7-0.2
		c0.5,0,1.3,0,1.8-0.4c1-0.9,0.3-2.7-0.9-3c0-0.6,0-1.3-0.5-1.7c-0.4-0.5-1.1-0.8-1.7-0.9c-1.3-0.2-2.6,0.1-3.8,0.5
		c-2.2,0.8-4.1,2.2-5.6,3.9l-0.3-2.3l0,0l-4.7-15.9c4-1.1,7.7-4.5,9.1-8.4c0.8,0.9,1.4,2,2,3.3c0.1,0.1,0.4-0.2,0.3-0.5
		c-0.3-4.3-1.3-7.4-2.7-9.6c0.5,0.2,1.1,0.4,1.6,0.7c0,0.2,0,0.5,0,0.7c0.2,0.5,0.6,1,1.1,1.1c1,0.3,2,0,2.9,0
		c0.7,0,1.3,0.3,1.7,0.8c-1.1,0-2.2,0.1-3.2,0.6c-1.3,0.5-1.8,2.9,0.1,3.5c0.8,0.1,1.4-0.3,2-0.4c0.6-0.2,1.1-0.4,1.7-0.4
		c0.6-0.1,1.2,0.1,1.8,0.5c-0.3,0.1-0.6,0.2-0.8,0.4c-0.4,0.3-0.6,0.8-0.6,1.3c0,0.5,0.4,1.1,0.8,1.2c0.2,0.1,0.5,0.1,0.7,0.1
		c0.1,0,0.2,0,0.4,0.1c0.2,0.1,0.5,0.2,0.6,0.3c0.3,0.3,0.5,0.8,0.5,1.3l0,0.1l0,0c0.4,2.8,1,5.7,1.6,8.5c0.7,2.8,1.3,5.5,2.5,8.3
		l2.3,5.7c0.1,0.1,0.1,0.2,0.3,0.3c0.4,0.3,0.9,0.2,1.2-0.1l0,0l3-3.7c0.3,0.4,0.5,0.9,0.7,1.5c0.2,0.7,0.4,1.5,0.7,2.4l-4.6,3.8
		c-0.3,0.3-0.4,0.7-0.2,1.1l0,0.1l2.3,4.8l2,5c1.3,3.4,2.6,6.7,4,10c0.2,0.4,0.6,0.6,1,0.4c0.8-0.3,1.7-0.7,2.4-1.2
		c0.8-0.5,1.4-1.1,2-1.8l0,0l0-0.1l5.1-9.1c1.6-3.1,3.2-6.2,4.9-9.2c0.6-0.8,1.1-1.7,1.5-2.6l0,0C649.7,147.8,650.1,146.7,650,145.7
		z M562.6,145L562.6,145c0-0.2-0.1-0.3-0.2-0.4c-1.1-1.4-2.1-3-2.9-4.6l0.9,0.3c1.8,2.2,3.8,4.1,6,5.9c-1.3-0.2-2.6-0.3-3.9-0.4
		C562.6,145.5,562.6,145.2,562.6,145z M601.6,164.4c0.4-0.9,0.8-1.8,1.6-2.4c-1.1,1.5-1.5,3.5-1.8,5.3c-0.2,1.8-0.2,3.7-0.5,5.7
		c-0.2,1-0.6,2.1-1.4,2.9c-0.8,0.8-2,1.3-3.2,1.2c-2.2-0.2-3.9-1.4-5.3-2.7c-0.6-0.1-1.1-0.3-1.7-0.5c-0.6-0.3-1.2-0.6-1.7-0.9
		c-1-0.6-2.1-1.2-3.1-1.8c-2.1-1.1-4.3-1.9-6.6-2.4c-2.3-0.5-4.7-0.7-7.2-1c-2.4-0.4-4.8-0.9-7.1-1.8c2.4,0.5,4.8,0.7,7.2,0.8
		c2.4,0.1,4.9,0.1,7.3,0.5c2.5,0.4,4.9,1.1,7.1,2.3c1.1,0.6,2.2,1.2,3.2,1.8c1.1,0.7,1.8,1.1,3,1.3l0.2,0l0.2,0.2
		c1.3,1.2,2.8,2.4,4.4,2.5c0.8,0.1,1.5-0.2,2.1-0.7c0.6-0.5,0.9-1.2,1.2-2.1c0.5-1.7,0.5-3.7,1-5.6
		C600.9,166.2,601.2,165.3,601.6,164.4z M596.7,152.6c0.3-0.5,0.4-0.7,0.4-1.3c0-0.5,0.1-1,0.2-1.5c0.2-1,0.4-2.1,1.2-3
		c0.3-0.2,0.3-0.5,0.9-0.5c0.6,0.3,0.4,0.7,0.5,0.9c0,0.5,0,1.1,0,1.5c0,0,0,0.1,0,0.1l0.4-0.5l0.9-1.2l-0.7,1.4l-0.4,0.7
		c-0.1,0.1-0.1,0.1-0.2,0.2c0,0.1-0.3,0.1-0.3-0.1c0-0.1-0.1-0.1-0.1-0.2c-0.1-0.2-0.1-0.3-0.1-0.4c0-0.5,0-1-0.1-1.5
		c-0.2-0.6,0-0.5-0.4-0.1c-0.6,0.7-0.8,1.7-0.8,2.7c0,0.5,0,1-0.1,1.5c0,0.3,0,0.5-0.1,0.9l-0.3,0.8c-0.8,1.9-1.4,3.8-1.8,5.7
		l-0.6,3c-0.2,1-0.3,1.9-0.8,3.2c-0.1,0.2-0.2,0.4-0.4,0.6c-0.2,0.2-0.8,0.4-1.2,0.3c-0.7-0.2-0.8-0.5-1-0.6l-1.2-1l-2.4-1.9
		c-1.6-1.3-3.2-2.5-4.9-3.7c-3.3-2.4-6.8-4.6-10.2-6.8c3.8,1.6,7.5,3.5,11,5.6c1.8,1.1,3.5,2.2,5.1,3.5c0.8,0.6,1.7,1.2,2.5,1.9
		l1.2,0.9c0.2-0.7,0.4-1.6,0.6-2.4c0.2-1,0.5-2,0.8-3C594.8,156.3,595.8,154.4,596.7,152.6z"/>
</g>
</svg>
