<?xml version="1.0" encoding="utf-8"?>
<!-- Generator: Adobe Illustrator 22.0.1, SVG Export Plug-In . SVG Version: 6.00 Build 0)  -->
<svg version="1.1" id="Capa_1" xmlns="http://www.w3.org/2000/svg" xmlns:xlink="http://www.w3.org/1999/xlink" x="0px" y="0px"
	 viewBox="0 0 1000 250" style="enable-background:new 0 0 1000 250;" xml:space="preserve">
<style type="text/css">
	.st0{fill:#E65100;}
	.st1{fill:#1B330F;}
</style>
<image style="overflow:visible;" width="2000" height="500" id="foto" xlink:href="boscoso.png"  transform="matrix(0.5 0 0 0.5 0 0)">
</image>
<g id="paso-1">
	<path class="st0" d="M527.9,107.1c-0.1-0.6-0.5-1.1-1-1.4c-1-0.6-2.3-0.6-3.4-0.2c-3.1,1-6.4,1.4-9.7,1.7c-3.3,0.3-6.6,0.5-9.9,0.6
		c-6.6,0.4-13.2,0.6-19.7,1.8l-31.3-0.3c-0.3-0.3-0.6-0.5-0.9-0.8c1.8-0.2,3.6-0.8,5.1-1.9c-0.1,0.4-0.1,0.7-0.3,1.1l0,0.1l0,0.1
		c0.1,0.3,0.5,0.5,0.6,0.4c0.1,0,0.2,0,0.3-0.1c0.1-0.1,0.2-0.1,0.3-0.2c0.2-0.3,0.2-0.3,0.3-0.4l0.4-0.7c0.3-0.5,0.5-1,0.8-1.5
		c0.4-0.8,0.7-1.6,1-2.5c0,0.5,0,0.9-0.1,1.4l0,0.1l0.1,0.2c0.1,0.2,0.3,0.3,0.4,0.4c0.2,0,0.3,0,0.3,0c0.1,0,0.2-0.1,0.3-0.1
		c0.1-0.1,0.2-0.2,0.3-0.3l0.2-0.5l0.4-0.9c0.2-0.6,0.4-1.2,0.6-1.8c0.1-0.2,0.1-0.4,0.2-0.6l0,0c0.1,0.2,0.5,0.4,0.7,0.3
		c0.2,0,0.3-0.1,0.4-0.1c0.2-0.1,0.3-0.2,0.3-0.4c0.2-0.4,0.1-0.5,0.2-0.7l0.2-1c0.1-0.7,0.2-1.3,0.3-2c0.1-1.3,0.2-2.7,0-4
		c0.4-1.7,0.4-3.6-0.1-5.3c-0.5-1.8-1.7-3.3-2.9-4.6c-1.3-1.2-2.7-2.4-4.4-3.1c-1.6-0.7-3.4-1.1-5.1-1.1c-1.4-0.9-3-1.6-4.6-1.9
		c-0.8-0.2-1.7-0.4-2.5-0.5l-1.3-0.1l-0.6,0c-0.2,0-0.5,0-0.7,0.1c-0.1,0.1-0.2,0.1-0.4,0.3c-0.1,0.1-0.2,0.2-0.2,0.4
		c0,0.2,0,0.6,0.2,0.7l0.2,0.2l0.2,0.1c0.3,0.1,0.7,0.3,1,0.4c-0.8,0.1-1.6,0.2-2.4,0.3c-0.8,0.2-1.7,0.3-2.5,0.6l-1.2,0.4l-0.7,0.2
		c-0.3,0.1-0.4,0.3-0.6,0.5c-0.1,0.1-0.1,0.2-0.2,0.5c-0.1,0.2,0,0.9,0.5,1.1l0.2,0.1l0.2,0c0.5,0,0.9,0,1.4,0
		c-1.1,0.6-2.2,1.3-3.2,2.1c-0.8,0.7-1.6,1.4-2.4,2.1l-1.1,1.1l-0.6,0.6c-0.2,0.2-0.3,0.5-0.4,0.8c0,0.1,0,0.3,0,0.5
		c0,0.2,0.4,0.8,0.9,0.7l0.2,0l0.2-0.1c0.8-0.5,1.7-0.9,2.6-1.2c-0.4,1.7-0.5,3.5-0.3,5.3l-2.9,0.5c-1.2,0.3-2.4,0.4-3.7,0.4
		l-7.1,0.4c-2.8-2.7-6.2-4.5-9.8-5.8c-3.7-1.3-7.5-2-11.2-2.8c-1.9-0.4-3.7-0.7-5.3-1.5c-1.6-0.9-3.1-2-4.6-3.2
		c-3-2.3-6.3-4.5-10-5.6c-3.8-3.9-5.8-9.3-7.7-14.5c-1-2.6-2.1-5.3-3.5-7.8c-1.3-2.4-3.1-4.6-5.2-6.4c0.5-1.4,0.5-2.8,0.4-4.1
		c-0.1-1.4-0.3-2.9-0.8-4.3c-0.5-1.4-1.1-2.7-1.9-4c-0.8-1.2-1.7-2.6-3.4-2.9l-0.4-0.1l0,0.4l-0.4,10.4c-0.5-0.9-1.1-1.7-2.1-2.2
		c-0.6-0.3-1.6-0.7-2.3,0.1c-0.6,0.8-0.1,1.7,0.3,2.3c0.9,1,1.3,2.4,1.8,3.7c0.3,0.7,0.5,1.3,1,2c0.4,0.6,1.2,1,1.8,1.1
		c1.8,3,3.2,6.2,4.3,9.5c1.1,3.4,1.7,6.9,2.2,10.4c0.5,3.5,0.8,7.1,2.3,10.5c0.7,1.7,1.8,3.2,3,4.6c1.2,1.3,2.8,2.5,4.6,2.9
		c3.8,3.5,8.3,5.9,12.7,8.2c4.4,2.3,8.9,4.4,12.5,7.7c-0.1,1,0.1,2,0,2.8c0,0.9-0.3,1.6-0.8,2.3c-2,0-4,0.2-5.9,0.7
		c-1.9,0.5-3.9,1-5.7,2.1c-0.2-0.4-0.4-0.8-0.6-1.2c-1.6-3.3-3.1-6.5-4.8-9.8l0,0c-0.6-1.5-1.7-2.7-3.1-3.4
		c-1.4-0.8-2.9-1.1-4.4-1.1l0.1,0c-0.2,0-0.5,0-0.7,0l0.1,0c-5.5,0-10.9,0.2-16.4,0.1h0l0,0c-1.5,0.3-2.8,1.4-3.4,2.8
		c-0.6,1.4-0.7,3,0,4.5c0.3,0.7,1.2,1.2,1.8,1.4l2,0.9l3.9,1.7c0.8,1,1.5,1.7,2,2.7c0.5,1,0.9,2.1,1.2,3.2c0.7,2.2,1.1,4.5,1.7,6.8
		c0.6,2.3,1.3,4.6,2.5,6.8c0.7,1.2,1.6,2.3,2.5,3.3c-1.3,1.5-2.8,2.9-4.5,3.7c-0.7-2.6-1.9-5.2-3.8-7.3c-1.1-1.1-2.4-2.1-3.8-2.7
		c-1.4-0.6-2.9-1-4.6-1.1c-1.6,0-3.3,0.6-4.6,1.7c-1.2,1.1-2.2,2.3-2.7,4c-0.5,1.7,0.2,3.7,1.5,4.8c0.7,0.6,1.5,1,2.4,1.1
		c0.7,0.1,1.5-0.1,2.2-0.5c1.1,0.7,2.1,1.6,2.7,2.7c0.7,1.2,0.8,2.6,0.7,4.2l0-0.1c-0.1,0.9-0.1,1.7-0.2,2.6c0,0.9,0.3,1.7,0.5,2.5
		c0.7,2.1,1.9,3.9,3.7,5.1c1.8,1.2,4.1,1.7,6.2,1.5c2.1-0.2,4.1-1,5.8-1.6l4.5-1.7c0.3,1.4,0.8,2.9,1.5,4.2c1,1.6,2.6,3,4.3,3.7
		c3.6,1.4,7.3,1.1,10.8,0.4c3.5-0.7,6.9-1.8,10.1-3.6c3.1-1.7,5.8-4.2,7.7-7.2c1.7-1.1,3.3-1.9,5.2-2.6c1.9-0.8,3.7-1.8,5.6-2.6
		l11-4.9c2-0.2,4-0.5,6-1.3c2-0.7,3.8-1.9,5.4-3.2c0.7-0.6,1.3-1.1,1.9-1.7c0,0,0,0,0,0c0.1,0.3,0.3,0.5,0.5,0.6
		c0.3,0.2,0.7,0.3,1.1,0.4c1,0,1-0.3,1.5-0.3l2.2-0.8c1.5-0.5,2.9-1.1,4.3-1.8c1.1-0.5,2.1-1,3.1-1.6c-0.6,0.6-1.3,1.2-2,1.8
		l-0.1,0.1l-0.1,0.2c-0.3,0.5,0,1.2,0.3,1.5c0.3,0.3,0.7,0.4,1,0.5c0.4,0,0.8-0.2,0.9-0.2l0.5-0.2l1.9-0.8c1.3-0.6,2.6-1.2,3.8-1.8
		c1.2-0.7,2.4-1.4,3.5-2.2c-0.6,0.6-1.2,1.3-1.8,1.8l-0.2,0.2l0,0.1c-0.1,2.4,2.3,1.3,2.3,1.3l1.6-0.7c1.1-0.5,2.1-1.1,3.1-1.6
		c2-1.1,3.9-2.4,5.7-3.9l0.7,0c-1,1.5-2.1,2.8-3.4,4l-0.1,0.1l-0.1,0.1c-0.3,0.6,0.2,1.3,0.8,1.4c0.8-0.1,0.6-0.2,0.9-0.3l1.3-0.6
		c0.8-0.4,1.7-0.9,2.5-1.4c1.6-1,3-2.1,4.3-3.4l1.4-0.2c-0.9,1.3-2,2.5-3.1,3.6l-0.1,0.1l0,0.1c-0.3,0.5,0.1,1.3,0.8,1.2
		c0.4-0.1,0.4-0.1,0.5-0.2l0.4-0.2l1.4-0.7c0.9-0.5,1.8-1,2.7-1.6c1.7-1.1,3.3-2.5,4.8-3.9l1.3-0.4c-0.8,0.9-1.7,1.8-2.7,2.6l0,0
		l0,0.1c-0.3,0.5,0.2,1.3,0.8,1.1l0.9-0.3c0.5-0.2,1.1-0.4,1.6-0.7c1.1-0.5,2.1-1,3.1-1.6c2-1.2,3.8-2.5,5.5-4.1l0.4-0.1
		c-1.2,1.5-2.4,2.9-3.8,4.2l0,0l0,0c-0.1,0.2-0.2,0.4-0.1,0.7c0,0.3,0.5,0.5,0.7,0.4l0.9-0.4c0.6-0.3,1.1-0.6,1.7-0.9
		c1.1-0.6,2.2-1.3,3.2-2.1c2.1-1.5,3.9-3.2,5.7-5l6.6-2.7c1.1-0.4,2.2-0.8,3.2-1.3c1-0.6,2-1.1,2.7-2.1
		C527.7,108.4,527.9,107.8,527.9,107.1z"/>
	<path class="st1" d="M643.6,211.2l-0.2-1l0-0.2l0,0l-0.1-0.6l-0.2-1.2l-0.4-2.3l-1.4-8.8l-2.9-17.6l0-0.2c-0.1-0.5-0.2-1.1-0.4-1.6
		l-10.5-33.6l-3.1-20.2l-0.1-0.3c-0.1-0.7-0.3-1.5-0.6-2.2l-10.1-27.9l16-93.6h-28.3l-2.7,17.6l-5.5,3.3L581,22.4l-0.4,0
		c-0.4,0.1-0.8,0.2-1.1,0.4l-9.4,6.7L553.6,32l-16-2.5l-0.1,0c-0.2,0-0.4,0-0.6,0.1l-10.5,3.6c-0.5,0.2-0.8,0.7-0.7,1.2
		c0.1,0.5,0.7,0.9,1.3,0.7l10.4-2.8l15.9,3.9c0.2,0,0.3,0.1,0.5,0l0.1,0l17.5-1.5c0.3,0,0.6-0.1,0.8-0.2l0.2-0.1l9.7-5.1l12.7-0.4
		c0.5,0,1-0.2,1.5-0.4l0.2-0.1l0.6-0.3l-5.3,34.2l-10.3,2.5l-0.3,0.1c-0.7,0.2-1.3,0.5-1.8,1L566.5,77l-14.3,3.8l-0.4,0.1
		c-0.4,0.1-0.7,0.3-1,0.5l-18.6,14.5l-0.2,0.1c-0.2,0.1-0.3,0.3-0.5,0.5l-12.5,18.8l-0.1,0.1c-0.2,0.3-0.3,0.7-0.3,1.1l1.1,16.8
		c0,0.7,0.7,1.3,1.4,1.3c0.8,0,1.4-0.6,1.4-1.4l-0.1-16.1l13.3-16.8l18.4-12.7l15.4-2.1c0.5-0.1,1.1-0.3,1.5-0.6l0.4-0.3l13.4-9.7
		l5.1-1.1l-2.9,18.8c-0.3,2.1-0.2,4.3,0.6,6.5l9.9,29.9l2.7,20.3c0.1,0.6,0.2,1.2,0.4,1.8l0.1,0.2l9.9,33.7l2.7,16.7l1.4,8.7
		l0.3,2.2l0.1,1l0,0.3c0-0.4-0.1-1.3,0-1c0,0.7,0.1,1.4,0.2,2.2c0.1,0.7,0.3,1.6,0.3,1.5l0.2,0.6l0.3,1.2l0.6,2.2l2.5,29.4H647
		l-2.8-36.7L643.6,211.2z M643.5,212.6l0-0.2l0-0.4l0-0.8l-0.1-1.1c0,0.2,0.1,0.4,0.1,0.6c0.1,0.5,0.1,1.1,0.1,1.6L643.5,212.6z"/>
	<path class="st1" d="M350.4,187.5l-0.2,2.1l-0.2-3.8L350.4,187.5l1.7-17.3l1.7-19.4l0.1-0.8c0-0.3,0-0.7,0-1l-3-20.1
		c0,0.4-0.1,0.8-0.1,1.2l0-1.6l0.1,0.4c0.2-2.7,0.4-5.4,0.5-8.1c0.2-3.1,0.3-6.2,0.2-9.3l0-1.5l-3.1-18.3l0,0.7l0-1.1l0.1,0.5
		l2.6-38.4c0.7-10,0.8-35.7,1.1-53.2h-5.8c-1.4,17.7-2.9,42.5-4,52.4l-4,39c0,0.3,0,0.6,0,0.9l0,0.2l2.1,17.9c0-0.1,0.1-0.3,0.1-0.4
		l0,1.5l-0.1-1.1c-0.8,2.9-1.5,5.7-2.2,8.6c-0.7,3-1.3,6.1-1.9,9.1c0,0.3-0.1,0.5-0.1,0.8l0,0.8l0.6,19.3l0.1-0.5l0,1.8l0-1.4
		l-1,5.6l-3.4-2.6l-5.1-9.4l-0.2-0.3c-0.2-0.3-0.4-0.6-0.7-0.8l-8.4-5.5l-7.2-12.5l-3-13.8l0-0.1c0-0.2-0.1-0.3-0.2-0.5l-6.3-7.4
		c-0.3-0.4-0.8-0.4-1.2-0.1c-0.4,0.3-0.5,0.9-0.2,1.2l5.6,7.5l1.9,14.1c0,0.1,0.1,0.3,0.1,0.4l0.1,0.1l6.8,13.6
		c0.1,0.2,0.3,0.4,0.5,0.6l0.2,0.1l7.3,6.2l4.3,10.1c0.2,0.4,0.5,0.8,0.8,1.1l0.2,0.1l6.8,5.6l-0.9,5.1l-3.2,19.2
		c-0.2,1.1-0.1,2.3,0.2,3.5l0.1,0.3l6.9,25.9l0.2-1.7l0.3,3.6l-0.5-1.8l-4.1,33.3h22.9l1.2-33l0-0.7c0-0.9-0.1-1.9-0.3-2.8
		L350.4,187.5z"/>
</g>
</svg>
