<?xml version="1.0" encoding="utf-8"?>
<!-- Generator: Adobe Illustrator 22.0.1, SVG Export Plug-In . SVG Version: 6.00 Build 0)  -->
<svg version="1.1" id="Capa_1" xmlns="http://www.w3.org/2000/svg" xmlns:xlink="http://www.w3.org/1999/xlink" x="0px" y="0px"
	 viewBox="0 0 1000 250" style="enable-background:new 0 0 1000 250;" xml:space="preserve">
<style type="text/css">
	.st0{fill:#E65100;}
	.st1{fill:#1B330F;}
</style>
<image style="overflow:visible;" width="2000" height="500" id="foto" xlink:href="boscoso.png"  transform="matrix(0.5 0 0 0.5 0 0)">
</image>
<path class="st0" d="M560.7,99.9c-0.3-0.8-1-1.4-1.9-1.6c-0.8-0.2-1.7,0.3-2.2,1c-1.8,2.3-4.3,4-6.7,5.6c-2.4,1.6-4.9,3.2-7.3,4.9
	c-4.7,3.4-9,7.7-12.2,12.8c-3.3,2.1-7,3.6-10.6,5.4c-1.8,0.9-3.6,1.7-5.4,2.7c-0.5,0.2-0.9,0.5-1.3,0.8c0-1,0-1.9-0.2-2.7
	c0-0.3,0.1-0.6,0.1-0.9c0.5,0.6,0.9,1.4,1.2,2.4c0.1,0.1,0.2-0.1,0.2-0.3c0-2.6-0.3-4.4-0.9-5.8c0.5,0.6,1,1.2,1.4,2
	c0.1,0.1,0.3-0.2,0.2-0.4c-0.5-2.5-1.2-4.5-2-6.1c-0.6-2.8-2-4.9-4.8-6.1c-3.4-1.5-6-1.4-8.7-0.2c-1.1-0.2-2.3-0.2-3.7,0
	c-1.2-1.3-2.9-1.6-4-1.7c-0.4,0-0.8,0.2-0.8,0.6c0,0.4,0.3,0.7,0.7,0.8c0.6,0,1.4,0.4,2,0.8c-0.5,0.2-1.1,0.4-1.7,0.6
	c-0.2,0.1-0.3,0.3-0.2,0.4c0.2,0,0.5,0,0.7,0c0,0,0,0.1,0,0.1c0,0.4,0.3,0.7,0.7,0.8c0.2,0,0.4,0.1,0.6,0.1c-0.1,0-0.2,0.1-0.3,0.1
	c0,0-0.1,0-0.2-0.1c-0.4-0.1-0.8,0-0.9,0.4c0,0.1,0,0.2,0,0.3c-0.5,0.3-0.9,0.6-1.4,1c0-0.6-0.1-1.3-0.5-2c-0.3-0.5-1-0.7-1.6-0.6
	c-0.5,0.1-1,0.5-1.3,0.9c-1,1.5-1.1,3.2-0.8,4.9c-0.8,0.5-1.3,1.3-1.7,2c-0.4,0.9-0.8,1.7-1.1,2.5c-0.7,1.6-1.6,3-2.7,4.2
	c-2.2-0.1-4.3-0.4-6.4-1c-2.2-0.5-3.9-2-6.2-2.9c-2.3-0.9-4.7-1-6.9-1.3c-2.2-0.2-4.1-1-5.7-2.5c-1.1-3.5-2.3-7-4.3-10.2
	c-2-3.2-4-6.1-5.6-9.5c-0.4-0.8-0.8-1.7-1.2-2.5c-0.2-0.4-0.4-0.8-0.4-1.2c-0.1-0.4-0.1-0.9-0.2-1.3c-0.1-0.9-0.2-1.9-0.4-2.8
	c-0.1-0.5-0.2-1-0.7-1.6c-0.1-0.1-0.5-0.3-0.4-0.3c0,0,0,0,0-0.1c-0.1-0.1-0.1-0.3-0.2-0.5c-0.2-0.8-0.2-1.8-0.5-2.8
	c-0.2-0.5-0.5-1.1-1.1-1.4c-0.3-0.1-0.5-0.2-1-0.1c-0.5,0.1-0.8,0.6-0.8,0.9c-0.2,1.2,0,2.1,0.2,3.1c0.2,0.8,0.4,1.7,0.6,2.5
	l-2.9,4.2c-0.1,0.1-0.1,0.3-0.1,0.5c1.5,4.6,2.6,9.4,3.6,14.1c0.5,2.4,1,4.8,1.8,7.2c0.8,2.3,1.9,4.5,3.4,6.4
	c0.5,1.3,0.7,2.7,1.4,4.1c0.3,0.7,0.7,1.3,1.1,1.9l0.6,0.9c0.3,0.4,0.7,0.6,1.1,0.7c2.7,0.3,5.3,1.1,8,1.9c5,1.6,10.1,3.2,15.3,3.9
	c-4,2.8-8.4,4.8-12.6,7.4c-2.2,1.3-4.3,2.9-6.2,4.7c-0.9,0.9-1.9,1.9-2.7,3c-0.7,0.9-1.2,2-1.7,3l-6.1-10.3
	c-0.6-1.3-1.4-2.7-2.7-3.5l0,0c-1.5-1.4-3.6-1.6-5.5-1.3c-1.9,0.3-3.6,0.8-5.4,1.2c-3.5,0.8-7.1,1-10.6,0.4c-1-1.4-1.6-3.1-2.1-4.8
	c0.3-0.5,0.2-1.1,0.1-1.4c-0.1-0.4-0.3-0.8-0.2-1l0,0c0-0.5,0.5-1.4-0.1-2.4c-0.3-0.4-0.7-0.7-1.2-0.7c-0.4,0-0.9,0-1.3,0.2
	c-0.8,0.5-1.2,1.4-1.1,2.2c0,0.8,0.5,1.5,0.8,1.9l-3.6,8.9c-0.1,0.2,0,0.4,0.1,0.5l0,0c1.3,1.5,2.1,3.5,3.3,5.3
	c0.6,0.9,1.3,1.9,2.5,2.4c1.1,0.5,2.4,0,3.3-0.6c2-0.1,4,0.8,6,1.7c1.9,0.9,4.1,1.5,6.3,1.3c0.6,2.3,0.8,4.7,1.2,7.1
	c0.4,2.6,1,5.2,2.4,7.6c0.7,2.2,1.5,4.4,2.7,6.5c1.3,2,3,3.8,5.1,4.9c2.1,1.2,4.2,1.8,6.3,2.5c0.5,0.2,1.1,0.4,1.5,0.6
	c0.4,0.2,0.9,0.4,1.3,0.7c0.8,0.6,1.5,1.5,2.3,2.4c1.5,1.8,3.6,3.2,5.8,3.9c2.2,0.7,4.5,1,6.8,1c2.3,0,4.7-0.5,6.7-1.9
	c2-1.4,3.3-3.5,4.4-5.6c2.1-4.1,3.9-8.4,7.3-11.1c0.8-0.6,1.8-1.3,2.7-2.2c0.9-0.8,1.6-1.8,2.2-2.8c1.3-2,2.1-4.2,3.5-5.8
	c2.8-3.2,7-5,11-7.2c2-1.1,3.9-2.5,5.5-4.2c1.6-1.7,2.7-3.8,3.5-5.9l0.4-0.3c-0.2,1.9-0.7,3.9-1.4,5.7c0,0.1-0.1,0.2-0.1,0.3l0,0
	c0,0.3,0.2,0.7,0.5,0.8c0.2,0.2,0.4,0.2,0.6,0.2c0.3,0,0.6-0.1,0.9-0.2c0.6-0.5,0.6-0.7,0.9-1l1.2-1.6c0.8-1.1,1.5-2.2,2.2-3.4
	c0.5-0.8,0.9-1.7,1.4-2.5c-0.2,0.7-0.3,1.4-0.5,2.1c0,0.1,0,0.2,0,0.3l0,0c0,0.5,0.6,1,0.9,1c0.4,0.1,0.7,0,1-0.2
	c0.3-0.2,0.5-0.5,0.5-0.6l0.2-0.4l1-1.5c0.6-1,1.2-2.1,1.8-3.1c0.5-0.9,0.9-1.9,1.3-2.9c-0.1,0.6-0.2,1.2-0.4,1.8l0,0.1
	c0,0.1,0,0.1,0,0.2c1.1,1.9,2.3-0.1,2.3-0.2l0.8-1.3c0.5-0.9,1-1.8,1.4-2.7c0.9-1.8,1.6-3.6,2.2-5.5l0.4-0.3c0,1.5-0.2,3-0.5,4.4
	c0,0.1,0,0.1,0,0.2c0.1,0.6,0.8,0.9,1.2,0.6c0.5-0.4,0.4-0.5,0.5-0.7l0.6-1c0.4-0.7,0.7-1.4,1.1-2.2c0.6-1.4,1.1-2.9,1.5-4.5
	l1.3-1.1c0,1.8-0.1,3.6-0.6,5.3c0,0,0,0.1,0,0.1l0,0c0,0.6,0.9,1,1.3,0.4l0.4-0.7c0.3-0.4,0.5-0.9,0.7-1.3c0.5-0.9,0.9-1.8,1.3-2.8
	c0.7-1.9,1.2-3.8,1.5-5.8l0.6-0.7c-0.1,1.4-0.4,2.9-0.8,4.2c0,0,0,0.1,0,0.1v0c0,0.6,0.8,0.9,1.1,0.4l0.5-0.6
	c0.3-0.4,0.6-0.9,0.8-1.3c0.5-0.9,1-1.8,1.5-2.8c0.9-1.9,1.5-3.9,1.9-5.9l0.1-0.1c-0.1,1.8-0.4,3.6-0.8,5.3l0,0.1
	c0,0.2,0.1,0.4,0.2,0.5c0.1,0.2,0.6,0.2,0.7-0.1l0.4-0.7c0.3-0.5,0.5-1,0.7-1.4c0.5-1,0.9-2,1.3-3c0.7-2,1.3-4.1,1.6-6.2l2.9-4
	c0.9-1.4,2-2.6,2.7-4.2C560.9,103.4,561.4,101.5,560.7,99.9z M492.2,119.3c-0.2,0.2-0.5,0.5-0.7,0.8c-0.1-0.2-0.1-0.5-0.1-0.7
	C491.6,119.3,491.9,119.3,492.2,119.3z M467.9,163.7c-3.2,2.3-6,5.3-8,8.9c0.7-2,1.7-3.8,2.9-5.5c1.3-1.7,2.7-3.2,4.3-4.5
	c3.2-2.6,6.9-4.6,10.8-5.9c1-0.3,2-0.6,3-0.8c0.5-0.1,1-0.2,1.5-0.3c0.3,0,0.3-0.1,0.4-0.3c0-0.1,0-0.1,0-0.1l-0.3-0.6
	c-0.3-0.5-0.6-0.9-0.8-1.4c-0.5-1-0.9-2-1.1-3.1c-0.5-2.2-0.1-4.5,0.5-6.5c0.6-1.8,1.1-3.6,0.8-5.5c-1,0.2-2.2,0-3.1-0.7
	c-0.6-0.4-1-1-1.3-1.8c-0.2-0.8,0.2-1.7,0.6-2.2c1.7-2.1,4.2-2.9,5.3-5.3c-0.7,2.6-3.3,4-4.6,5.8c-0.3,0.5-0.5,0.9-0.4,1.4
	c0.1,0.4,0.5,0.9,0.9,1.2c0.8,0.6,2,0.7,3.1,0.4c2.3-0.4,4.1-2.5,5.8-4.2c1.7-1.8,3.3-4,5.8-4.7c-1,0.8-2,1.4-2.9,2.3
	c-0.9,0.9-1.7,1.8-2.5,2.8c-0.8,0.9-1.7,1.9-2.7,2.7c-0.9,0.8-2,1.7-3.3,2c-0.2,0.1-0.5,0.1-0.7,0.2c0.6,1.8,0.3,3.9-0.1,5.8
	c-0.4,2-0.6,4,0,5.9c0.3,0.9,0.6,1.8,1.1,2.7c0.2,0.4,0.5,0.8,0.7,1.3l0.4,0.7c0.2,0.4,0.3,0.9,0.1,1.4c-0.2,0.9-1,1.5-1.7,1.6
	c-0.5,0.1-0.9,0.2-1.4,0.3c-0.9,0.2-1.9,0.5-2.8,0.8C474.6,159.7,471.1,161.5,467.9,163.7z M497.5,158.1c-0.5,1.4-1.1,2.1-1.6,3.1
	c-2.3,3.8-4.4,7.7-7.3,11.2c-1.6,1.6-3.3,3-4.9,4.4c-1.6,1.4-3.3,2.9-4.4,4.8c1.8-4.2,5.6-6.9,8.3-10.2c1.3-1.6,2.4-3.6,3.5-5.5
	l3.3-5.7c0.5-0.9,1.2-2,1.5-2.7c0.3-0.9,0.3-1.9,0.1-2.9c-0.2-1-0.5-2-0.9-3c-0.4-0.9-1.1-1.9-1.5-3c-1.8-4.2-2.7-8.7-3.1-13.1
	c1.1,4.3,2.3,8.7,4.3,12.5c0.5,1,1.1,1.8,1.7,2.9c0.5,1,1,2.2,1.2,3.4C497.8,155.5,497.9,156.8,497.5,158.1z"/>
<path class="st1" d="M470.7,0c-2.7,8.8-5.1,16.7-5.3,17.5c-3.7,13-7.4,26.1-11,39.2l-28.8,44.2c-0.2,0.4-0.4,0.8-0.6,1.3l-0.1,0.2
	l-4.7,17.2l-10.9,4.5c-1.2,0.5-2.3,1.6-2.8,3l-0.3,0.9l-9.7,25.5l-0.4,0.4l-0.5-9.2l0-0.3c0-0.3-0.1-0.7-0.3-1l-4.9-8.6l-1-14.4
	l3-13.7l0-0.1c0-0.2,0-0.3,0-0.5l-2.4-9.4c-0.1-0.4-0.5-0.7-1-0.6c-0.5,0.1-0.8,0.6-0.7,1l1.7,9.2l-4.1,13.5c0,0.1-0.1,0.3-0.1,0.4
	v0.1l0.3,15.2c0,0.2,0.1,0.5,0.2,0.7l0.1,0.2l3.7,8.7l-0.4,11c0,0.4,0.1,0.9,0.3,1.3l0.1,0.2l0.8,1.9l-19.1,20.7
	c-1.1,1.2-1.8,2.6-2.1,4.3l-0.1,0.4l-4.7,26.5L350,250h20.5l11.5-30.5l0.3-0.6c0.3-0.7,0.5-1.4,0.6-2.1l4.6-25.7l21.4-27.7l0.4-0.5
	c0.5-0.6,0.8-1.3,1.1-2.1l8-26l8.6-6.4l0.7-0.5c0.9-0.7,1.6-1.7,1.9-2.9l4.3-19.4L461,60.6l0.1-0.1c0.2-0.3,0.3-0.6,0.4-1
	c3.5-13.3,6.9-26.7,10.2-40.1c0.2-0.7,2.5-9.5,4.9-19.4H470.7z"/>
<g>
	<path class="st1" d="M641.4,231.8c-0.9-1.3-1.7-2.5-2.6-3.6c-1.7-2.3-3.4-4.5-5-6.6c-3.4-4.3-6.8-8.4-10.1-12.5l-2.1-2.6l-0.4-0.9
		L618,198l-6.3-14.9l-0.1-0.2c-0.2-0.4-0.4-0.9-0.6-1.3l-15.3-26l-6.6-16.3l-0.1-0.3c-0.2-0.6-0.5-1.2-0.9-1.7l-13.8-21.2l-7.7-95.8
		c0,0,0-0.2,0-0.2c-0.2-1.6-1-9.4-2.2-20.2h-21.5c0.1,12.1,0.4,21,0.5,22.7l2,21.1l-1.3,0.4l-10-1.2l-0.3,0c-0.3,0-0.7,0-1,0.1
		l-8.8,3.7l-13.6-1.3L498,40.2l-0.1,0c-0.1-0.1-0.3-0.1-0.5-0.1l-9.2,0.9c-0.4,0-0.8,0.4-0.8,0.9c0,0.5,0.4,0.9,0.9,0.9l8.9-0.3
		l12,6.5c0.1,0.1,0.3,0.1,0.4,0.1l0.1,0l14.3,2.2c0.2,0,0.5,0,0.7,0l0.2-0.1l8.8-2.4l10.2,2.3c0.4,0.1,0.9,0.1,1.3,0l0.2-0.1
		l0.7-0.2l3.4,36c-0.2,0-0.4,0.1-0.6,0.1l-13,5.6l-12.2-0.9l-0.3,0c-0.3,0-0.6,0-0.9,0.1l-18.4,6.6c-0.2,0.1-0.5,0.2-0.7,0.4l0,0
		l-14.1,10.7c-1,0.8-1.5,2.1-1.1,3.4l8.9,29.2c0.3,0.9,1.2,1.5,2.2,1.3c1-0.2,1.6-1.3,1.4-2.3l-6.1-27.8L506,103l17.6-5.1l12.5,2.7
		c0.4,0.1,0.9,0.1,1.4-0.1l0.4-0.1l12.6-4l2.4,24.9l0,0.2c0.2,1.8,0.8,3.5,1.8,5.1l14.1,22.9l6.3,16.4c0.2,0.5,0.4,1,0.7,1.5
		l0.1,0.2l14.9,26.2l5.9,14.2l3.1,7.4l0.7,1.7l0,0.1c0,0,0,0,0,0c0,0,0,0,0-0.1c-0.1-0.3-0.2-0.5-0.3-0.8l-0.1-0.2c0,0,0-0.1,0-0.1
		c0.1,0.3,0.2,0.7,0.3,1c0.2,0.7,0.5,1.3,0.9,2c0.2,0.3,0.3,0.6,0.5,0.9l0.3,0.4l0.4,0.5l0.8,1.1l2.6,3.2l15.2,24.9H650
		C646,241.5,641.6,232.1,641.4,231.8z"/>
	<path class="st1" d="M600.4,217.2C600.5,217.2,600.4,217.2,600.4,217.2L600.4,217.2z"/>
</g>
</svg>
