<?xml version="1.0" encoding="utf-8"?>
<!-- Generator: Adobe Illustrator 22.0.1, SVG Export Plug-In . SVG Version: 6.00 Build 0)  -->
<svg version="1.1" id="Capa_1" xmlns="http://www.w3.org/2000/svg" xmlns:xlink="http://www.w3.org/1999/xlink" x="0px" y="0px"
	 viewBox="0 0 130 220" style="enable-background:new 0 0 130 220;" xml:space="preserve">
<style type="text/css">
	.st0{fill:#979392;}
</style>
<g>
	<path class="st0" d="M22.1,22c-0.2-1-0.6-2.1-0.5-3.1c0.2-1.5,0.7-3,1.3-4.5c3-8.2,9.5-12,17.1-10.3c5.4,1.1,9.5,4.2,10.7,10.1
		c0.8,3.9,1.8,7.8,2.6,11.7C53,26,52.8,26,52.5,26.1c-0.5-2.8-1-5.5-1.7-8.3C49.3,11.5,47.2,6,39.5,5.4C34.8,4.9,30.4,5.1,27,9
		C23.9,12.8,22.9,17.3,22.1,22c-0.1,0.1-0.3,0.2-0.3,0.3c0.3,5.8,0.7,11.7,1,17.5C23,43.1,23,46.5,23,49.9c0,1.7-0.4,3.3-0.4,5
		c0.2,7.6,0.4,15.2,0.8,22.9c0.2,3.9,0.9,7.7,1.5,11.5c1.5,9.3,5.7,17.8,6.2,27.3c0.1,3.4-0.2,7-0.3,10.4c-0.2,0-0.5,0-0.7,0
		c0-0.6-0.2-1.4-0.1-2c0.9-6.3,0.2-12.4-1.4-18.5c-1.1-4.3-2.6-8.4-3.5-12.8c-1.3-5.9-2.6-12-3.1-18c-0.6-6.9-0.4-13.8-0.5-20.6
		c0-1-0.1-2.2,0.2-3.1c1.3-4.5,0.3-8.9,0-13.2c-0.3-5.1-0.5-10.1-0.6-15.2C21.1,22.9,21.8,22.4,22.1,22z M52.8,27.9
		c0,0.2,0.4,1,0.2,1.7c-0.8,3.1-1.9,6.4-2.7,9.5c-0.5,1.8-1,3.6-1.4,5.5c-0.2,1.1,0.1,2.1,1.7,2c3.6-0.1,6-2.1,6.8-5.7
		c0.4-2.1,0.8-4.3,1.6-6.4c1.5-4.4,2.2-8.8,2-13.5c-0.2-4.8,1.4-9,6.9-11.3c7.3-3,14.6,1.7,14.8,9.5c0,0.3,0.1,0.6,0.1,0.9
		c7.5,1,10.3,3.6,11.6,10.8c8.7-0.2,11.6,3.3,11.4,14c0.3,0,0.5,0.1,0.8,0c4.2-1.4,7.7,0.7,9.3,4.5c1.3,3,1.5,6.2,0.6,9.2
		c-1.3,4.3-3.3,8.3-4.9,12.6c-0.8,2.2-2,4.4-2,6.6c-0.2,10.1-1.8,20-4.4,29.6c-2.5,9.3-5.5,18.5-8.6,27.6c-2.1,6.4-5,12.4-6.7,18.9
		c-1.9,7.5-2.7,15.2-4,22.8c-0.1,0.6-0.4,1.3-0.7,1.8c-0.4-0.8-0.3-1.5-0.2-2.1c0.5-3.1,1-6.3,1.5-9.3c0.9-6.8,2.2-13.5,4.6-19.9
		c5.7-15.6,11.9-31.3,14.8-47.9c1.3-6.8,2.5-13.6,2.4-20.5c0-0.7,0-1.6,0.2-2.3c1.1-3.2,2.3-6.6,3.8-9.8c2.1-4.6,4.2-9.1,3.2-14.3
		c-0.5-2.8-1.1-5.6-4.2-6.6c-2.4-0.7-5-0.6-6.8,1.6c-3.4,4.2-6.7,8.4-8,13.9c-0.6,2.6-1.9,5.4,1.4,7.4c-0.1,0.1-0.1,0.2-0.4,0.6
		c-1.5-1.7-2.8-3.2-4.3-4.9c0.1-0.1,0.3-0.2,0.4-0.3c0.4,0.2,0.8,0.4,1.3,0.6c0.2-1,0.3-2,0.6-2.8c1.4-3.2,2.6-6.5,4.2-9.6
		c1.1-2.2,2.9-4.1,4.1-6.4c2.4-4.5,0.9-10.1-3-13.2c-2-1.6-5.4-1.6-6.8,0c-1.5,2-3.2,3.8-4.3,5.9c-1.8,3.4-3.1,7.2-4.4,10.8
		c-0.7,2-1,4.1,1.3,5.6c-0.2,0.1-0.3,0.2-0.5,0.3c-1.1-1-2.2-2.1-3-2.8c0.5-0.7,1.1-1.3,1.3-1.8c1.1-5.7,3.3-10.9,6.8-15.6
		c4.1-4.8,1.1-12.5-5-14c-1.6-0.3-3-0.2-3.8,1.7c-0.6,1.5-1.7,2.7-2.5,4.2c-1.4,2.4-3,4.8-3.9,7.4c-1.4,4-2.2,8-3.2,12.2
		c0.8,0.4,1.6,0.8,2.3,1.3c0.6,0.3,1.4,0.7,2,1c-0.1,0.2-0.2,0.4-0.4,0.6c-2.8-1.6-5.5-3.2-8.3-4.8c0.1-0.2,0.2-0.3,0.3-0.5
		c1.1,0.5,2.3,1.1,3.5,1.7c1.9-7.7,3.3-15.5,8.7-21.7c0.2-0.2,0.3-0.6,0.5-0.9c1.5-3.3,0.7-9.5-2.6-11.5c-7.2-4.3-15-0.9-16.4,5.9
		c-0.4,2.4-0.4,4.9-0.6,7.4c-0.1,1.6,0,3.2-0.4,4.8c-1,4.5-2.3,9-3.5,13.5c1.5,0,2.6,0,4.3,0c-3.2,1.3-6,2.4-9,3.3
		c-1.1,0.4-2.4,0.3-3.5,0.4s-1.8-0.4-1.5-1.7c0.4-2,0.5-4.1,1-5.9C50.1,35.6,51.5,31.6,52.8,27.9z M29.7,132.4
		c0.3,0.7,0.5,0.8,0.5,1c-0.2,3.6-0.6,7.3-0.7,10.9c-0.1,6,1,11.9,2.3,17.8c1.5,7,2.1,14.3,2.2,21.4c0.1,6.4,1.9,12.2,3.6,18
		c1.4,4.1,3.6,7.8,7.4,10.2c4.2,2.7,8.8,3.5,13.7,2.9c4.7-0.6,8.9-2.2,12.5-5.3s5.4-7.4,7.4-11.7c1.9-4.1,3.3-8.3,5.1-13
		c0,0.9,0.1,1.5,0,1.8c-2,5.1-3.9,10.2-6,15.2c-3.3,8-9.6,12.5-18.1,13.9c-8.4,1.3-17.1-1.8-21.2-10.2c-3.3-6.9-5-14.3-5.4-22
		c-0.4-7-0.7-14.2-2.3-21c-2.2-9.6-2-19.1-1.5-28.7C29.2,133.5,29.4,133.2,29.7,132.4z M58.5,101.7c-3.1,2.9-6.9,4.2-11.2,3.4
		C40.1,104,35.2,99,30.6,93.8c0.3,0,0.6,0.2,0.8,0.4c2.5,2.2,4.8,4.7,7.5,6.6c5,3.4,10.5,5.1,16.6,2.3
		C56.5,102.7,57.5,102.1,58.5,101.7z M40.9,172.3c1.3-4.1,2.9-7.4,5.9-9.5c2.2-1.6,4.9-2.6,7.4-3.6c2.6-1.1,5.3-2.2,7.9-3.2
		c-0.6,0.7-1.4,1.5-2.3,1.9c-2.6,1.1-5.2,2.1-7.8,3c-3,1-5.5,2.6-7.3,5.3C43.6,167.9,42.4,169.9,40.9,172.3z M25.5,41.5
		c1.3-0.2,2.4-0.2,3.4-0.5c2.7-0.8,5.3-1.7,7.9-2.7c1.8-0.7,3.3-0.3,4.8,0.6c1.6,1,3,2.1,4.6,3.2c-0.1,0.2-0.2,0.3-0.3,0.5
		c-1.4-0.8-2.9-1.5-4.1-2.5c-1.7-1.5-3.3-1.8-5.2-1c-1.4,0.5-2.6,1.3-4,1.8C30.4,41.6,28.1,42.9,25.5,41.5z M66.4,67.8
		c0.2,6-0.6,11.8-3.2,17.3C64.3,79.4,65.3,73.7,66.4,67.8z M43.2,45.7c0,0.1,0,0.2-0.1,0.3c-2.6,0.4-5.2,0.7-7.8,1.3s-5.1,1.6-8,2.5
		c0.8-0.7,1.4-1.3,2-1.8c-0.4-0.3-0.7-0.5-0.5-0.3c2.8-0.6,5.8-1.5,9-2C39.4,45.5,41.3,45.7,43.2,45.7z M63.6,28.6
		c3.2,2.4,6.9,3,11.3,2.3C71.9,33.4,67.8,32.5,63.6,28.6z M98.2,52.3c-3.5,1.6-6.2-0.4-8.9-2.1C92.2,50.8,95.2,51.6,98.2,52.3z
		 M102.2,64.6c2.7,0.3,5.7,0.7,8.6,1C108.6,67.1,104.8,66.7,102.2,64.6z M82.9,41.9c-2.3-0.4-5,0-6.2-2.9C79,40,80.9,40.9,82.9,41.9
		z"/>
	<path class="st0" d="M52.8,27.9c-1.3,3.8-2.6,7.7-3.9,11.8c-0.5,1.9-0.7,4-1,5.9c-0.2,1.3,0.4,1.7,1.5,1.7c1.1-0.1,2.4-0.1,3.5-0.4
		c2.8-0.9,5.6-2.1,9-3.3c-1.6,0-2.8,0-4.3,0c1.1-4.5,2.4-9,3.5-13.5c0.4-1.6,0.3-3.2,0.4-4.8c0.2-2.5,0.1-5,0.6-7.4
		C63.5,11,71.3,7.7,78.5,12c3.4,2,4.2,8.2,2.6,11.5c-0.1,0.3-0.2,0.7-0.5,0.9c-5.3,6.2-6.9,14-8.7,21.7c-1.3-0.6-2.4-1.1-3.5-1.7
		c-0.1,0.2-0.2,0.3-0.3,0.5c2.8,1.6,5.5,3.2,8.3,4.8c0.1-0.2,0.2-0.4,0.4-0.6c-0.6-0.3-1.4-0.6-2-1c-0.7-0.4-1.5-0.8-2.3-1.3
		c1-4.2,1.9-8.2,3.2-12.2c0.8-2.6,2.5-4.9,3.9-7.4c0.8-1.4,1.9-2.7,2.5-4.2c0.7-2,2.2-2.1,3.8-1.7c6.3,1.4,9.2,9.2,5.3,14.3
		c-3.5,4.7-5.6,9.9-6.8,15.6c-0.1,0.5-0.7,1-1.3,1.8c0.7,0.7,1.9,1.8,3,2.8c0.2-0.1,0.3-0.2,0.5-0.3c-2.3-1.6-2-3.6-1.3-5.6
		c1.4-3.6,2.7-7.3,4.4-10.8c1-2.2,2.8-4,4.3-5.9c1.3-1.6,4.8-1.6,6.8,0c4,3.2,5.3,8.8,3,13.2c-1.1,2.2-3,4.1-4.1,6.4
		c-1.6,3.1-2.8,6.4-4.2,9.6c-0.3,0.8-0.4,1.8-0.6,2.8c-0.4-0.2-0.8-0.4-1.3-0.6c-0.1,0.1-0.3,0.2-0.4,0.3c1.4,1.6,2.8,3.1,4.3,4.9
		c0.3-0.5,0.3-0.6,0.4-0.6c-3.2-2-2-4.8-1.4-7.4c1.4-5.4,4.5-9.7,8-13.9c1.9-2.2,4.4-2.3,6.8-1.6c3,0.9,3.8,3.8,4.2,6.6
		c0.8,5.2-1.1,9.7-3.2,14.3c-1.5,3.1-2.6,6.5-3.8,9.8c-0.2,0.7-0.2,1.6-0.2,2.3c0.1,7-1.1,13.8-2.4,20.5
		c-2.9,16.6-9.1,32.2-14.8,47.9c-2.4,6.5-3.6,13.1-4.6,19.9c-0.4,3.1-1,6.3-1.5,9.3c-0.1,0.6-0.1,1.3,0.2,2.1
		c0.2-0.6,0.6-1.1,0.7-1.8c1.3-7.6,2.1-15.3,4-22.8c1.6-6.5,4.6-12.5,6.7-18.9c3-9.2,6-18.2,8.6-27.6c2.6-9.7,4.2-19.6,4.4-29.6
		c0-2.2,1.1-4.5,2-6.6c1.6-4.2,3.6-8.2,4.9-12.6c0.9-2.9,0.6-6.2-0.6-9.2c-1.6-3.6-5-5.8-9.3-4.5c-0.2,0.1-0.5,0-0.8,0
		c0.2-10.6-2.7-14.2-11.4-14c-1.3-7.2-4.1-9.8-11.6-10.8c0-0.3-0.1-0.6-0.1-0.9c-0.3-7.8-7.5-12.5-14.8-9.5
		c-5.6,2.3-7.1,6.5-6.9,11.3c0.2,4.7-0.5,9.1-2,13.5c-0.7,2.1-1,4.2-1.6,6.4c-0.7,3.6-3.1,5.6-6.8,5.7c-1.6,0.1-1.9-0.8-1.7-2
		c0.3-1.9,0.8-3.6,1.4-5.5c0.9-3.1,1.9-6.3,2.7-9.5C53.1,28.9,52.8,28.1,52.8,27.9z"/>
	<path class="st0" d="M29.7,132.4c-0.3,0.7-0.5,1.1-0.5,1.5c-0.5,9.6-0.8,19.1,1.5,28.7c1.6,6.8,1.9,14,2.3,21
		c0.4,7.7,2.2,15,5.4,22c4.1,8.4,12.7,11.6,21.2,10.2c8.6-1.3,14.8-5.8,18.1-13.9c2.1-5,4.1-10.1,6-15.2c0.1-0.4,0-0.8,0-1.8
		c-1.8,4.7-3.2,9-5.1,13c-1.9,4.2-3.8,8.6-7.4,11.7c-3.6,3.1-7.8,4.8-12.5,5.3c-4.9,0.6-9.5-0.3-13.7-2.9c-3.8-2.4-6.2-6-7.4-10.2
		c-1.9-5.8-3.5-11.7-3.6-18c-0.1-7.2-0.7-14.4-2.2-21.4c-1.3-5.9-2.4-11.8-2.3-17.8c0.1-3.6,0.5-7.3,0.7-10.9
		C30.3,133.3,30,133.1,29.7,132.4z"/>
	<path class="st0" d="M22.1,22c-0.3,0.5-1,0.9-1,1.5c0.1,5.1,0.3,10.1,0.6,15.2c0.3,4.4,1.3,8.9,0,13.2c-0.3,1-0.2,2.1-0.2,3.1
		c0.1,6.9-0.1,13.8,0.5,20.6c0.5,6,1.9,12.1,3.1,18c0.9,4.3,2.4,8.6,3.5,12.8c1.6,6,2.3,12.2,1.4,18.5c-0.1,0.6,0,1.4,0.1,2
		c0.2,0,0.5,0,0.7,0c0.1-3.4,0.5-7,0.3-10.4c-0.4-9.5-4.8-18-6.2-27.3c-0.6-3.9-1.3-7.6-1.5-11.5c-0.4-7.6-0.6-15.2-0.8-22.9
		c0-1.7,0.4-3.3,0.4-5c0-3.3,0-6.7-0.2-10.1c-0.3-5.8-0.6-11.7-1-17.5C21.9,22.2,22,22.1,22.1,22L22.1,22z"/>
	<path class="st0" d="M22.1,22c0.6-4.7,1.7-9.2,4.9-12.9c3.3-4.1,7.8-4.3,12.5-3.8c7.6,0.7,9.8,6.3,11.3,12.4
		c0.6,2.7,1.1,5.5,1.7,8.3c0.3-0.1,0.5-0.1,0.8-0.2c-0.8-3.9-1.8-7.7-2.6-11.7C49.4,8.2,45.4,5.2,40,4c-7.6-1.7-14.1,2.2-17.1,10.3
		c-0.5,1.5-1,2.9-1.3,4.5C21.5,19.8,22,20.8,22.1,22L22.1,22z"/>
	<path class="st0" d="M58.5,101.7c-1,0.4-2,0.9-3,1.4c-6,2.8-11.6,1.1-16.6-2.3c-2.7-1.9-5-4.4-7.5-6.6c-0.2-0.2-0.5-0.3-0.8-0.4
		C35.2,99,40,104,47.4,105.2C51.5,105.9,55.4,104.6,58.5,101.7z"/>
	<path class="st0" d="M40.9,172.3c1.6-2.4,2.8-4.3,4-6.3c1.7-2.8,4.3-4.3,7.3-5.3c2.6-0.9,5.2-2,7.8-3c0.8-0.4,1.6-1.1,2.3-1.9
		c-2.6,1-5.3,2.1-7.9,3.2c-2.5,1.1-5.2,2.1-7.4,3.6C43.8,164.9,42.1,168.3,40.9,172.3z"/>
	<path class="st0" d="M25.5,41.5c2.6,1.5,4.9,0.1,7.1-0.6c1.4-0.5,2.6-1.3,4-1.8c1.9-0.7,3.5-0.4,5.2,1c1.1,1,2.7,1.7,4.1,2.5
		c0.1-0.2,0.2-0.3,0.3-0.5c-1.6-1-3-2.2-4.6-3.2c-1.5-1-3-1.4-4.8-0.6c-2.6,1-5.2,1.9-7.9,2.7C27.9,41.2,26.7,41.3,25.5,41.5z"/>
	<path class="st0" d="M66.4,67.8c-1,5.7-2.2,11.6-3.2,17.3C65.8,79.7,66.6,73.9,66.4,67.8z"/>
	<path class="st0" d="M43.2,45.7c-1.8,0-3.6-0.2-5.4,0.1c-3.1,0.5-6.2,1.4-9,2c-0.2-0.1,0.1,0,0.5,0.3c-0.6,0.5-1.1,0.9-2,1.8
		c2.9-0.9,5.5-1.9,8-2.5c2.6-0.6,5.2-0.8,7.8-1.3C43.1,45.9,43.1,45.8,43.2,45.7z"/>
	<path class="st0" d="M63.6,28.6c4.2,3.9,8.2,4.8,11.3,2.3C70.5,31.6,66.9,31,63.6,28.6z"/>
	<path class="st0" d="M98.2,52.3c-3-0.7-5.9-1.4-8.9-2.1C92,51.8,94.7,53.8,98.2,52.3z"/>
	<path class="st0" d="M102.2,64.6c2.6,2,6.4,2.5,8.6,1C107.8,65.3,104.9,65,102.2,64.6z"/>
	<path class="st0" d="M82.9,41.9c-2-0.9-4-1.9-6.2-2.9C77.9,41.9,80.6,41.5,82.9,41.9z"/>
</g>
</svg>
