<?xml version="1.0" encoding="utf-8"?>
<!-- Generator: Adobe Illustrator 25.3.1, SVG Export Plug-In . SVG Version: 6.00 Build 0)  -->
<svg version="1.1" id="Capa_1" xmlns="http://www.w3.org/2000/svg" xmlns:xlink="http://www.w3.org/1999/xlink" x="0px" y="0px"
	 viewBox="0 0 283.5 229" style="enable-background:new 0 0 283.5 229;" xml:space="preserve">
<style type="text/css">
	.st0{fill:#95C11F;}
	.st1{fill:none;stroke:#000000;stroke-width:0.7;stroke-linecap:round;stroke-linejoin:round;stroke-miterlimit:10;}
	.st2{fill:none;stroke:#000000;stroke-width:0.7;stroke-linecap:round;stroke-miterlimit:10;}
	.st3{font-family:'Roboto-Regular';}
	.st4{font-size:6px;}
	.st5{fill:#FFFFFF;stroke:#000000;stroke-width:0.7;stroke-linecap:round;stroke-linejoin:round;stroke-miterlimit:10;}
	.st6{fill:#FFFFFF;stroke:#000000;stroke-width:0.7;stroke-linecap:round;stroke-miterlimit:10;}
	.st7{fill:#FFFFFF;stroke:#000000;stroke-width:0.7;stroke-miterlimit:10;}
	@keyframes mueve {
            0% {
                transform: rotate(-0.009turn);
            }
            100% {
                transform: rotate(0, 0);
            }
        }

            #dedo {
            transform-origin: center;
            animation: mueve 2s infinite alternate;
        }

</style>
<g id="dedo_1_">
		<g>
			<polygon class="st0" points="139.3,56.7 153.3,56.7 153.2,95.1 141.4,94.3 140.2,87.3 138.9,73.9 138.5,56.9 			"/>
			<path class="st1" d="M141.7,94.9c-0.9-1-0.9-4.7-0.9-4.7l-1.4-11.6l-0.6-21.7c0,0,3.1-15.8-5.2-15.8c-8.1,0-5.2,14.5-5.2,14.5
				s0.6,20.8-0.4,24.9c-0.8,3.3-0.3,12.4-0.2,15.9l0.2,1.3"/>
		</g>
		<path class="st1" d="M131.8,57c0,0,1.8,0.8,3.4,0.6c1.7-0.2,2.9-0.6,2.9-0.6"/>
	</g>
	<polyline class="st2" points="130.3,42.2 133.8,39 137.3,42.7 	"/>
</g>
<g id="numeros">
	<text transform="matrix(1.1097 0 0 1 91.6006 82.7881)" class="st3 st4">I</text>
	<text transform="matrix(1.1097 0 0 1 131.9468 36.6489)" class="st3 st4">II</text>
	<text transform="matrix(1.1097 0 0 1 147.7051 36.6489)" class="st3 st4">III</text>
	<text transform="matrix(1.1097 0 0 1 161.7422 41.4014)" class="st3 st4">IV</text>
	<text transform="matrix(1.1097 0 0 1 174.2344 58.8027)" class="st3 st4">V</text>
</g>
<g id="mano">
	<path class="st5" d="M142.9,94.5c0.4-1,0.6-2.6,0.6-2.6V57.2c0,0-5.1-16.6,6.2-15.9c8.8,0.6,3.8,17,3.8,17l0.1,34.5
		c0,0,0.2,3.6,0.9,3.7c0.8,0.1,1.1-2.8,1.1-2.8l1.4-35.1c0,0-2.2-13.8,6.1-12.9c4.4,0.4,4.9,2.9,5.4,5.8c0.6,2.9-2.1,7.9-2.1,7.9V95
		c0,0-0.2,6.1,1.4,6.1c1.1-0.1,1.2-2.1,1.2-2.1l0.9-22.7c0,0-3.7-13,3.8-12.9c9.2,0.2,4.4,11.9,4.4,11.9s0,32.9,0,39
		c0,0-7.8,31.1-6.8,49c1.1,17.9,2.3,38.6-3.6,50c-2.4,4.6-8.5,8.3-22.1,4.5s-16.6-30.1-19.5-41.6c-2.9-11.5-20.3-23.7-35-36.5
		s-7.4-35.8-7.4-35.8s-5.1-20.2,10-18.1c11.4,1.6,5.8,19.3,5.8,19.3s-1.2,2.9,0.8,4.5s4.8,4.6,4.2,7.5c-0.6,2.9-1.4,5.2-1.4,5.2
		s4.5-1.5,8.3,1.3s3.4,4.4,3.4,4.4s3.1-1.6,5.2-0.2c2.2,1.5,4.3,4.6,4.3,4.6l2.3-1.3c0,0-6.8-7-4.8-18.1s5.4-15.5,5.4-15.5"/>
	<path class="st6" d="M137.1,159.8c5.1-1.9,9-7.7,6.6-17.8s-17.1-11-17.1-11s5.5,12.7,3.9,22"/>
	<path class="st1" d="M127.8,97.3c0,0,9.7-0.9,23,2.6c13.2,3.5,23.4,8.4,23.4,8.4"/>
	<path class="st1" d="M146.7,58.3c0,0,1.8,0.8,3.4,0.6c1.7-0.1,2.9-0.6,2.9-0.6"/>
	<path class="st1" d="M159.4,59.8c0,0,1.8,0.8,3.4,0.6s2.9-0.6,2.9-0.6"/>
	<path class="st1" d="M171.7,75c0,0,1.8,0.8,3.4,0.6c1.7-0.1,2.9-0.6,2.9-0.6"/>
	<path class="st1" d="M87.2,107.6c0,0,3.4,0.8,6.4,0.6c3-0.1,5.4-0.6,5.4-0.6"/>
</g>
<path class="st1" d="M93.1,132.4c0,0,4.9-0.9,7.3-4.6c2.4-3.7,2.8-5.5,2.8-5.5"/>
<path class="st1" d="M109.4,140.4c0,0,4.7-3.6,5.2-8c0.4-4.4,0.4-4.4,0.4-4.4"/>
<path class="st1" d="M123.5,140.4c0,0,1.1-2.8,1-5.4c0-2.6,0-2.6,0-2.6"/>
<path class="st7" d="M122,113c0,0,18.3-0.8,23.6,3.3"/>
<path class="st6" d="M135.6,174.8c0,0,1.6-4.3,14.4-6.4c8.9-1.5,13.3,2,13.3,2"/>
<polyline class="st2" points="145.2,42.3 149.1,38.6 153,42.7 "/>
<polyline class="st2" points="159.2,46.8 163.1,43 167,47.3 "/>
<polyline class="st2" points="170.6,64.6 174.5,60.9 178.5,65.6 "/>
</svg>
