<?xml version="1.0" encoding="utf-8"?>
<!-- Generator: Adobe Illustrator 25.3.1, SVG Export Plug-In . SVG Version: 6.00 Build 0)  -->
<svg version="1.1" id="Capa_1" xmlns="http://www.w3.org/2000/svg" xmlns:xlink="http://www.w3.org/1999/xlink" x="0px" y="0px"
	 viewBox="0 0 130 220" style="enable-background:new 0 0 130 220;" xml:space="preserve">
<style type="text/css">
	.st0{fill:#1E1E1C;}
	.st1{font-family:'Roboto-Regular', sans-serif;}
	.st2{font-size:12px;}
	.st3{fill:#95C11F;}
	.st4{fill:none;stroke:#000000;stroke-width:0.7621;stroke-linecap:round;stroke-linejoin:round;stroke-miterlimit:10;}
	.st5{fill:#FFFFFF;stroke:#000000;stroke-width:0.7621;stroke-linecap:round;stroke-linejoin:round;stroke-miterlimit:10;}
	.st6{fill:#FFFFFF;stroke:#000000;stroke-width:0.7621;stroke-linecap:round;stroke-miterlimit:10;}
	.st7{fill:#FFFFFF;stroke:#1D1D1B;stroke-width:0.7066;stroke-linecap:round;stroke-miterlimit:10;}
	.st8{font-size:7px;}

@keyframes mueve {
            0% {
                transform: rotate(-0.009turn);
            }
            100% {
                transform: rotate(0, 0);
            }
        }

            #dedo {
            transform-origin: center;
            animation: mueve 2s infinite alternate;
        }

</style>
<text transform="matrix(1.0491 0 0 1 75.188 214.1875)" class="st0 st1 st2">Pie</text>
<g id="dedo">
	<g>
		<polygon class="st3" points="68.9,35 83.5,35 83.4,73.4 71.7,73.2 69.8,65.6 68.8,52.4 68.5,35.3 		"/>
		<path class="st4" d="M71.7,73.2c-1-1.1-1-4.7-1-4.7L69.1,57l-0.6-21.7c0,0,3.2-15.8-5.5-15.8c-8.5,0-5.5,14.4-5.5,14.4
			s0.6,20.7-0.4,24.9c-0.8,3.3,0,15.3,0.1,18.8"/>
	</g>
	<path class="st4" d="M61.4,35.3c0,0,1.9,0.8,3.6,0.6c1.7-0.1,3-0.6,3-0.6"/>
	<path class="st4" d="M62.2,49.5c0,0,1.9,0.8,3.6,0.6c1.7-0.1,3-0.6,3-0.6"/>
	<polyline class="st4" points="59.4,20.8 63.5,17 66.9,21 	"/>
</g>
<g id="mano">
	<path class="st5" d="M72.9,72.8c0.4-1,0.6-2.5,0.6-2.5V35.6c0,0-5.4-16.7,6.4-15.8c8.8,0.7,4,17,4,17l-0.2,34.3
		c0,0-0.2,3.9,0.9,3.9c1.4,0,1.6-2.8,1.6-2.8l1.6-35c0,0-2.3-13.7,6.4-12.9c4.6,0.4,5.1,2.9,5.7,5.8c0.7,3-2.1,7.9-2.1,7.9v35.3
		c0,0-0.3,6.1,1.5,6c1.2-0.1,1.3-2.1,1.3-2.1l0.9-22.7c0,0-3.8-13,4-12.9c9.7,0.1,4.7,11.9,4.7,11.9s0,32.9,0,38.9
		c0,0-8.2,31-7.1,48.9s2.4,38.6-3.7,49.9c-2.5,4.6-8.9,8.3-23,4.5s-17.5-30-20.4-41.5s-21.2-23.7-36.6-36.5S11.7,82,11.7,82
		S6.3,61.9,22.2,63.9c11.9,1.6,6,19.3,6,19.3s-1.3,2.9,0.8,4.5s4.9,4.6,4.4,7.5c-0.6,2.9-1.5,5.2-1.5,5.2s4.7-1.5,8.8,1.3
		c4,2.8,3.6,4.4,3.6,4.4s3.3-1.6,5.5-0.1s4.5,4.6,4.5,4.6l2.5-1.3c0,0-7-7-4.9-18.1s5.3-14.9,5.3-14.9"/>
	<path class="st6" d="M60.1,131.1c1.8-9.3-4-21.9-4-21.9s6.3-3,17.4,0s14.8,4.5,16.6,4.7"/>
	<path class="st4" d="M57.2,76.3c0,0,10.2-1.6,24,1.9s24.5,8.4,24.5,8.4"/>
	<path class="st4" d="M77,36.7c0,0,1.9,0.8,3.6,0.6c1.7-0.1,3-0.6,3-0.6"/>
	<path class="st4" d="M77,49.5c0,0,1.9,0.8,3.6,0.6c1.7-0.1,3-0.6,3-0.6"/>
	<path class="st4" d="M90.3,38.1c0,0,1.9,0.8,3.6,0.6s3-0.6,3-0.6"/>
	<path class="st4" d="M90.6,52.7c0,0,1.9,0.8,3.6,0.6c1.7-0.1,3-0.6,3-0.6"/>
	<path class="st4" d="M103,53.3c0,0,1.9,0.8,3.6,0.6c1.7-0.1,3-0.6,3-0.6"/>
	<path class="st4" d="M103.4,65.3c0,0,1.9,0.8,3.6,0.6s3-0.6,3-0.6"/>
	<path class="st4" d="M14.7,85.9c0,0,3.5,0.8,6.7,0.6s5.7-0.6,5.7-0.6"/>
	<path class="st7" d="M20.9,106.8c0,0,6.1-0.4,8.1-2.6s2.6-3.8,2.6-3.8"/>
	<path class="st7" d="M38.3,116.6c0,0,1.6-0.4,3.6-5.4s2-5.1,2-5.1"/>
	<path class="st7" d="M54,110.5c0,0-0.4,6.1-1.3,8.3"/>
	<path class="st6" d="M66.3,147.5c0,0,3.8-4.5,10.9-5.9c8.8-1.7,10.9,0,10.9,0"/>
	<polyline class="st4" points="75.2,20.8 79.4,16.5 83.1,21 	"/>
	<polyline class="st4" points="90.2,25.2 94.4,21.3 97.8,25.4 	"/>
	<polyline class="st4" points="102.3,42.6 106.4,38.6 110,43.4 	"/>
</g>
<text transform="matrix(1 0 0 1 18.9342 60.1221)" class="st1 st8">I</text>
<text transform="matrix(1 0 0 1 61.5914 13.4121)" class="st1 st8">II</text>
<text transform="matrix(1 0 0 1 76.9498 13.4121)" class="st1 st8">III</text>
<text transform="matrix(1 0 0 1 91.5992 18.5078)" class="st1 st8">IV</text>
<g>
	<text transform="matrix(1 0 0 1 104.6373 36.6055)" class="st1 st8">V</text>
</g>
</svg>
