<?xml version="1.0" encoding="utf-8"?>
<!-- Generator: Adobe Illustrator 25.3.1, SVG Export Plug-In . SVG Version: 6.00 Build 0)  -->
<svg version="1.1" id="Capa_1" xmlns="http://www.w3.org/2000/svg" xmlns:xlink="http://www.w3.org/1999/xlink" x="0px" y="0px"
	 viewBox="0 0 589.8 386.3" style="enable-background:new 0 0 589.8 386.3;" xml:space="preserve">
<style type="text/css">
	.st0{fill:none;stroke:#95C11F;stroke-width:0.7975;stroke-miterlimit:10;stroke-dasharray:0.9302,0.9302;}
	.st1{fill:#95C11F;}
	.st2{fill:#575756;}
	.st3{fill:none;stroke:#575756;stroke-width:0.9476;stroke-linecap:round;stroke-miterlimit:10;stroke-dasharray:0,2.686;}
	.st4{fill:none;}
	.st5{fill:#1E1E1C;}
	.st6{font-family:'Roboto-Regular', sans-serif;}
	.st7{font-size:8px;}
	.st8{font-size:8px;}
	.st9{fill:none;stroke:#95C11F;stroke-width:0.7975;stroke-linecap:round;stroke-miterlimit:10;}
	.st10{font-family:'Roboto', sans-serif;}

</style>
<image style="overflow:visible;enable-background:new    ;" width="4198" height="3468" xlink:href="5849EF1B688E228.webp"  transform="matrix(0.1037 0 0 0.1037 77.2758 0)">
</image>
<g>
	<g>
		<line class="st0" x1="245.6" y1="116.9" x2="420.5" y2="35.3"/>
		<g>
			<polygon class="st1" points="247.2,118.8 242.5,118.4 245.2,114.4 			"/>
		</g>
		<g>
			<polygon class="st1" points="420.9,37.6 423.6,33.8 418.9,33.4 			"/>
		</g>
	</g>
</g>
<path class="st2" d="M89.7,308.2"/>
<path class="st3" d="M441.8,220.8"/>
<g>
	<rect x="90.8" y="346" class="st4" width="77.4" height="25.6"/>
	<text transform="matrix(1 0 0 1 97.687 350.9662)" class="st5 st6 st7">Mechón de pelo en área </text>
	<text transform="matrix(1 0 0 1 94.0742 359.4916)" class="st5 st6 st7">genital sólo presente en el </text>
	<text transform="matrix(1 0 0 1 120.3291 368.0248)" class="st5 st6 st7">macho </text>
</g>
<g>
	<rect x="218.5" y="356.7" class="st4" width="79.6" height="19.1"/>
	<rect x="221.3" y="355.5" class="st4" width="89.5" height="8.1"/>
	<text transform="matrix(1 0 0 1 221.2866 361.5912)" class="st5 st6 st7">Generalmente la hembra es </text>
	<rect x="221.4" y="364" class="st4" width="87.5" height="8.1"/>
	<text transform="matrix(1 0 0 1 221.3985 370.1176)" class="st5 st6 st7">mas pequeña que el macho</text>
</g>
<g>
	<rect x="383.6" y="353.9" class="st4" width="73.7" height="11.3"/>
	<text transform="matrix(1 0 0 1 397.229 358.8285)" class="st5 st6 st7">Primates sin cola</text>
</g>
<g>
	<text transform="matrix(0.9077 -0.4195 0.4195 0.9077 280.1789 85.4196)" class="st5 st10 st8">Largo de brazo: hasta 1,5 metros</text>
	<text transform="matrix(0.9077 -0.4195 0.4195 0.9077 283.7564 93.1592)" class="st5 st6 st8">(doble de tamaño que las piernas) </text>
</g>
<g>
	<g>
		<line class="st9" x1="263.6" y1="349" x2="263.6" y2="329"/>
		<g>
			<path class="st1" d="M265.1,329.1c0-0.8-0.6-1.5-1.5-1.5s-1.5,0.6-1.5,1.5c0,0.8,0.6,1.5,1.5,1.5S265.1,329.9,265.1,329.1z"/>
		</g>
	</g>
</g>
<g>
	<g>
		<line class="st9" x1="137.7" y1="339.1" x2="137.7" y2="310.5"/>
		<g>
			<path class="st1" d="M139.2,310.6c0-0.8-0.6-1.5-1.5-1.5s-1.5,0.6-1.5,1.5s0.6,1.5,1.5,1.5S139.2,311.4,139.2,310.6z"/>
		</g>
	</g>
</g>
<g>
	<g>
		<line class="st9" x1="424.4" y1="345" x2="424" y2="297.1"/>
		<g>
			<path class="st1" d="M425.5,297.2c0-0.8-0.7-1.5-1.5-1.5c-0.8,0-1.5,0.7-1.5,1.5c0,0.8,0.7,1.5,1.5,1.5
				C424.8,298.7,425.5,298,425.5,297.2z"/>
		</g>
	</g>
</g>
</svg>
