<?xml version="1.0" encoding="utf-8"?>
<!-- Generator: Adobe Illustrator 25.3.1, SVG Export Plug-In . SVG Version: 6.00 Build 0)  -->
<svg version="1.1" id="Capa_1" xmlns="http://www.w3.org/2000/svg" xmlns:xlink="http://www.w3.org/1999/xlink" x="0px" y="0px"
	 viewBox="0 0 469.2 469" style="enable-background:new 0 0 469.2 469;" xml:space="preserve">
<style type="text/css">
	.st0{fill:none;stroke:#95C11F;stroke-width:0.5;stroke-miterlimit:10;stroke-dasharray:0.9817,0.9817;}
	.st1{fill:#95C11F;}
	.st2{fill:#575756;}
	.st3{fill:none;stroke:#575756;stroke-linecap:round;stroke-miterlimit:10;stroke-dasharray:0,2.8346;}
	.st4{fill:none;stroke:#575756;stroke-width:1.1881;stroke-linecap:round;stroke-miterlimit:10;stroke-dasharray:0,3.3679;}
	.st5{fill:none;}
	.st6{enable-background:new    ;}
	.st7{fill:#1E1E1C;}
	.st8{font-family:'Roboto-Regular', sans-serif;}
	.st9{font-size:12px;}
	.st10{font-family:'Roboto', sans-serif;}
	.st11{font-size:12px;}
	.st12{fill:none;stroke:#95C11F;stroke-width:1.3179;stroke-linecap:round;stroke-miterlimit:10;}
</style>
<image style="overflow:visible;enable-background:new    ;" width="2500" height="2065" xlink:href="5849EF1B688E228.jpg"  transform="matrix(0.1837 0 0 0.1837 9.9444 7.6581)">
</image>
<g>
	<g>
		<line class="st0" x1="187.5" y1="136.8" x2="372.2" y2="50.6"/>
		<g>
			<polygon class="st1" points="189.3,138.7 184.3,138.3 187.1,134.2 			"/>
		</g>
		<g>
			<polygon class="st1" points="372.6,53.2 375.4,49.1 370.4,48.7 			"/>
		</g>
	</g>
</g>
<path class="st2" d="M23.1,338.7"/>
<path class="st3" d="M394.6,246.4"/>
<path class="st2" d="M212.3,403"/>
<path class="st4" d="M653.7,293.4"/>
<g>
	<rect x="38.5" y="384" class="st5" width="89.2" height="49.4"/>
	<text transform="matrix(1 0 0 1 44.0031 393.3685)" class="st6"><tspan x="0" y="0" class="st7 st8 st9">Mechón de pelo </tspan><tspan x="2.8" y="13.2" class="st7 st8 st9">en área genital </tspan><tspan x="-1.6" y="26.4" class="st7 st8 st9">sólo presente en </tspan><tspan x="16.6" y="39.6" class="st7 st8 st9">el macho   </tspan></text>
</g>
<g>
	<g>
		<rect x="172.3" y="384.7" class="st5" width="90.2" height="56.8"/>
		<text transform="matrix(1 0 0 1 177.117 394.1279)" class="st6"><tspan x="0" y="0" class="st7 st8 st9">Generalmente la </tspan><tspan x="2.2" y="13.2" class="st7 st8 st9">hembra es mas </tspan><tspan x="2.8" y="26.4" class="st7 st8 st9">pequeña que el </tspan><tspan x="23.3" y="39.6" class="st7 st8 st9">macho </tspan></text>
	</g>
</g>
<g>
	<rect x="337.8" y="380.1" class="st5" width="59.8" height="38.9"/>
	<text transform="matrix(1 0 0 1 345.4336 389.528)" class="st6"><tspan x="0" y="0" class="st7 st8 st9">Primates </tspan><tspan x="3.1" y="13.2" class="st7 st8 st9">sin cola</tspan></text>
</g>
<g>
	<text transform="matrix(0.9077 -0.4195 0.4195 0.9077 193.3115 111.7162)" class="st7 st10 st11">Largo de brazo: hasta 1,5 metros</text>
	<text transform="matrix(0.9077 -0.4195 0.4195 0.9077 197.7963 124.1167)" class="st7 st8 st11">(doble de tamaño que las piernas) </text>
</g>
<g>
	<g>
		<line class="st12" x1="80.9" y1="380.1" x2="80.9" y2="341.1"/>
		<g>
			<path class="st1" d="M83.4,341.2c0-1.4-1.1-2.5-2.5-2.5c-1.4,0-2.5,1.1-2.5,2.5c0,1.4,1.1,2.5,2.5,2.5
				C82.3,343.7,83.4,342.5,83.4,341.2z"/>
		</g>
	</g>
</g>
<g>
	<g>
		<line class="st12" x1="215.2" y1="380.1" x2="215.2" y2="341.1"/>
		<g>
			<path class="st1" d="M217.7,341.2c0-1.4-1.1-2.5-2.5-2.5s-2.5,1.1-2.5,2.5c0,1.4,1.1,2.5,2.5,2.5S217.7,342.5,217.7,341.2z"/>
		</g>
	</g>
</g>
<g>
	<g>
		<line class="st12" x1="364.7" y1="380.1" x2="364.7" y2="341.1"/>
		<g>
			<path class="st1" d="M367.2,341.2c0-1.4-1.1-2.5-2.5-2.5s-2.5,1.1-2.5,2.5c0,1.4,1.1,2.5,2.5,2.5S367.2,342.5,367.2,341.2z"/>
		</g>
	</g>
</g>
</svg>
