<?xml version="1.0" encoding="utf-8"?>
<!-- Generator: Adobe Illustrator 25.3.1, SVG Export Plug-In . SVG Version: 6.00 Build 0)  -->
<svg version="1.1" id="Capa_1" xmlns="http://www.w3.org/2000/svg" xmlns:xlink="http://www.w3.org/1999/xlink" x="0px" y="0px"
	 viewBox="0 0 497.6 416.1" style="enable-background:new 0 0 497.6 416.1;" xml:space="preserve">
<style type="text/css">
	.st0{fill:none;stroke:#95C11F;stroke-width:0.5;stroke-miterlimit:10;stroke-dasharray:0.9817,0.9817;}
	.st1{fill:#95C11F;}
	.st2{fill:#575756;}
	.st3{fill:none;stroke:#575756;stroke-linecap:round;stroke-miterlimit:10;stroke-dasharray:0,2.8346;}
	.st4{fill:none;stroke:#575756;stroke-width:1.1881;stroke-linecap:round;stroke-miterlimit:10;stroke-dasharray:0,3.3679;}
	.st5{fill:none;}
	.st6{fill:#1E1E1C;}
	.st7{font-family:'Roboto-Regular', sans-serif;}
	.st8{font-size:9px;}
	.st9{font-size:8.9995px;}
	.st10{fill:none;stroke:#95C11F;stroke-linecap:round;stroke-miterlimit:10;}
</style>
<image style="overflow:visible;enable-background:new    ;" width="4198" height="3468" xlink:href="5849EF1B688E228.webp"  transform="matrix(0.1094 0 0 0.1094 20.7757 7.6434)">
</image>
<g>
	<g>
		<line class="st0" x1="198.3" y1="136.8" x2="383" y2="50.6"/>
		<g>
			<polygon class="st1" points="200.1,138.7 195.1,138.3 197.9,134.2 			"/>
		</g>
		<g>
			<polygon class="st1" points="383.4,53.2 386.2,49.1 381.2,48.7 			"/>
		</g>
	</g>
</g>
<path class="st2" d="M33.9,338.7"/>
<path class="st3" d="M405.4,246.4"/>
<path class="st2" d="M223.1,403"/>
<path class="st4" d="M664.5,293.4"/>
<g>
	<rect x="38.5" y="378" class="st5" width="97.1" height="32.1"/>
	<text transform="matrix(1 0 0 1 47.1022 384.2615)" class="st6 st7 st8">Mechón de pelo en área </text>
	<text transform="matrix(1 0 0 1 42.5722 394.9515)" class="st6 st7 st8">genital sólo presente en el </text>
	<text transform="matrix(1 0 0 1 75.4922 405.6516)" class="st6 st7 st8">macho </text>
</g>
<g>
	<rect x="178.3" y="378.1" class="st5" width="99.8" height="24"/>
	<rect x="181.8" y="376.6" class="st5" width="112.2" height="10.1"/>
	<text transform="matrix(1 0 0 1 181.7737 384.2619)" class="st6 st7 st8">Generalmente la hembra es </text>
	<rect x="181.9" y="387.3" class="st5" width="109.7" height="10.1"/>
	<text transform="matrix(1 0 0 1 181.9138 394.9519)" class="st6 st7 st8">mas pequeña que el macho</text>
</g>
<g>
	<rect x="328.4" y="378" class="st5" width="92.4" height="14.2"/>
	<text transform="matrix(1 0 0 1 345.4324 384.2613)" class="st6 st7 st8">Primates sin cola</text>
</g>
<g>
	<text transform="matrix(0.9077 -0.4195 0.4195 0.9077 224.3533 104.0762)" class="st6 st7 st9">Largo de brazo: hasta 1,5 metros</text>
	<text transform="matrix(0.9077 -0.4195 0.4195 0.9077 228.8386 113.7802)" class="st6 st7 st9">(doble de tamaño que las piernas) </text>
</g>
<g>
	<g>
		<line class="st10" x1="97.3" y1="374.3" x2="97.3" y2="333.7"/>
		<g>
			<path class="st1" d="M99.4,333.8c0-1.1-0.9-2.1-2.1-2.1c-1.2,0-2.1,0.9-2.1,2.1c0,1.2,0.9,2.1,2.1,2.1
				C98.5,336,99.4,335.1,99.4,333.8z"/>
		</g>
	</g>
</g>
<g>
	<g>
		<line class="st10" x1="228.2" y1="374.3" x2="228.2" y2="355.8"/>
		<g>
			<path class="st1" d="M230.1,355.9c0-1-0.8-1.9-1.9-1.9s-1.9,0.8-1.9,1.9c0,1,0.8,1.9,1.9,1.9S230.1,356.9,230.1,355.9z"/>
		</g>
	</g>
</g>
<g>
	<g>
		<line class="st10" x1="378.5" y1="374.3" x2="378.5" y2="333.5"/>
		<g>
			<path class="st1" d="M380.4,333.6c0-1-0.8-1.9-1.9-1.9s-1.9,0.8-1.9,1.9s0.8,1.9,1.9,1.9S380.4,334.6,380.4,333.6z"/>
		</g>
	</g>
</g>
</svg>
