<?xml version="1.0" encoding="utf-8"?>
<!-- Generator: Adobe Illustrator 25.3.1, SVG Export Plug-In . SVG Version: 6.00 Build 0)  -->
<svg version="1.1" xmlns="http://www.w3.org/2000/svg" xmlns:xlink="http://www.w3.org/1999/xlink" x="0px" y="0px"
	 viewBox="0 0 806.9 435.1" style="enable-background:new 0 0 806.9 435.1;" xml:space="preserve">
<style type="text/css">
	.st0{fill:#95C11F;}
	.st1{fill:#1E1E1C;}
	.st2{font-family:'Roboto-Regular', sans-serif;}
	.st3{font-size:15.7221px;}
	.st4{fill:none;stroke:#95C11F;stroke-width:1.8627;stroke-linecap:round;stroke-miterlimit:10;}
	.st5{fill:none;}
	.st6{font-family:'Roboto', sans-serif;}
	.st7{fill:none;stroke:#95C11F;stroke-width:1.8627;stroke-miterlimit:10;}
	.st8{fill:#888483;}
	.st9{fill:#FFFFFF;}
	.st10{fill:none;stroke:#888483;stroke-width:1.0481;stroke-linecap:round;stroke-linejoin:round;stroke-miterlimit:10;}

*{transition:all ease 0.5s}
	.enrojecido {
	fill: #878787;
}
	.enrojecido:hover {
	fill: #95C11F;
	transition: all ease 0.5s;
	cursor: pointer;

</style>
<g id="Capa_1">
	<circle class="st0" cx="576.2" cy="266.4" r="4"/>
	<circle class="st0" cx="225.7" cy="266.4" r="4"/>
	<g>
		<text transform="matrix(1 0 0 1 355.9604 177.311)" class="st1 st2 st3">Dos Subespecies</text>
	</g>
	<line class="st4" x1="413.8" y1="248.9" x2="413.8" y2="181.5"/>
	<circle class="st0" cx="412" cy="129" r="4"/>
	<line class="st4" x1="412" y1="131.2" x2="412" y2="118.6"/>
	<circle class="st0" cx="412" cy="89.9" r="4"/>
	<line class="st4" x1="412" y1="92.2" x2="412" y2="79.6"/>
	<circle class="st0" cx="412" cy="47.8" r="4"/>
	<line class="st4" x1="412" y1="50.1" x2="412" y2="37.5"/>
	<g>
		<rect x="129.6" y="278.6" class="st5" width="173.4" height="100.5"/>
		<text transform="matrix(1 0 0 1 122.3708 291.9717)" class="st6 st3">Symphalangus syndactylus </text>
		<text transform="matrix(1 0 0 1 167.6708 310.8717)" class="st6 st3">syndactylus</text>
		<text transform="matrix(1 0 0 1 145.1708 331.7717)" class="st1 st2 st3">(habita en Sumatra)</text>
	</g>
	<g>
		<rect x="490.2" y="278.6" class="st5" width="164" height="100.5"/>
		<text transform="matrix(1 0 0 1 491.0335 291.9717)" class="st1 st6 st3">Symphalangus syndactylus </text>
		<text transform="matrix(1 0 0 1 538.3335 310.8717)" class="st1 st6 st3">continentis</text>
		<text transform="matrix(1 0 0 1 517.2335 331.7717)" class="st1 st2 st3">(habita en Malasia)</text>
	</g>
	<polyline class="st7" points="225.7,264.2 225.7,248.9 576.2,248.9 576.2,262.3 	"/>
	<text transform="matrix(1 0 0 1 290.6562 153.5962)" class="st1 st2 st3">Especie:</text>
	<text transform="matrix(1 0 0 1 349.0081 153.5962)" class="st1 st6 st3"> </text>
	<text transform="matrix(1 0 0 1 352.2081 153.5962)" class="st1 st6 st3">Symphalangus syndactylus</text>
	<text transform="matrix(1 0 0 1 340.2915 110.6616)" class="st1 st2 st3">Género: </text>
	<text transform="matrix(1 0 0 1 397.9286 110.6616)" class="st1 st6 st3">Symphalangus</text>
	<text transform="matrix(1 0 0 1 347.8867 69.7817)" class="st1 st2 st3">Familia:</text>
	<text transform="matrix(1 0 0 1 403.6278 69.7817)" class="st1 st6 st3"> Hylobatidae</text>
	<text transform="matrix(1 0 0 1 326.0293 31.5493)" class="st1 st2 st3">Superfamilia: </text>
	<text transform="matrix(1 0 0 1 422.7175 31.5493)" class="st1 st6 st3">Hominoidea</text>
</g>
<g id="mono">
	<g>
		<path class="enrojecido" d="M438,196.1c1.8,0.2,2.6,1,5,3c2.4,1.9,8.4,6.6,10.4,9.9c2.1,3.3,1.7,9.9,1.9,13.4s-1,6.1,0.3,8.5
			s1.9,5.7,1.2,13.9c-0.7,8.2,0.9,17.2,0.7,21.6c-0.2,4.4,0.7,11.7,0.3,15.1c-0.3,3.5-4,2.3-4,4s3.5,12.7,5.9,18.8
			c2.4,6.1,9.1,11.7,16.7,19.5s12.7,23.5,13.6,28.2s-1.8,11.1-3.5,16.4c-1.5,4.4-4,9.9-4.8,11.5c-0.1,0.3-0.4,0.6-0.7,0.7l-15.7,6.3
			c-0.5,0.2-0.9,0.7-0.9,1.2c-0.1,2.9-0.3,11.8-1,16c-0.9,5,0.5,6.8,4.2,7.5s14.3,1.9,18.3,2.8s5.2,3.7,3.3,5.2
			c-1.9,1.6-9.7,0-18.5,0.2c-8.7,0.2-14.3,0.7-17.9,0.9c-3.7,0.2-5.9,1.4-9.6,1.4s-6.4-1.7-8.7-1.7s-2.4-2.4-2.4-3.8
			s5.7-2.8,6.1-3.8c0.3-1,0.5-3.8,0-7c-0.5-3.1-1.2-15.5-2.8-23.5c-1.6-8-4.5-12-9.2-16.5s-10.6-5-14.4-7.3c-2.9-1.7-3.7-6.6-3.9-9
			c-0.1-0.7-0.7-1.3-1.4-1.2l-1.9,0.1c-0.7,0-1.2,0.5-1.3,1.2c-0.3,2.2-1.2,6.9-3.3,9.1c-2.8,3-10.1,7-16.9,12.9
			c-6.1,5.3-12.5,13.2-13.9,14.8c-0.2,0.2-0.3,0.4-0.3,0.7c-0.2,1.3-0.7,5.7-1,9.9c-0.3,5-3.5,11-3.7,14.4c-0.1,1.6,0.8,2.9,1.8,3.8
			c0.8,0.8,0.4,2.2-0.7,2.4c-2.3,0.4-5.4,0.9-8.6,1.3c-5.9,0.7-6.6-0.3-13.6,0.5s-6.1,1.6-10.6,1.9s-5.2-1.6-5.4-3.8
			c-0.2-2.3,5-3.5,8.2-7c3.1-3.5,4.9-6.1,4.9-9.2s0-12.2,0.7-17.4c0.7-5.2,5.2-9.2,7.1-13.1c1.9-3.8,6.6-9.2,8-13.2
			s3.8-15.7,7.3-22.1s5.9-10.1,10-14.4c4.1-4.4,2.4-15.1,2.4-21.6c0-5-2.6-20.6-3.8-27.4c-0.2-1.2-1.8-1.6-2.5-0.6l-8.9,12.4
			c0,0,0,0.1-0.1,0.1c-0.7,1.2-15.9,26.9-19.8,32.5c-4,5.7-3.8,12.7-2.1,16.4c1.6,3.4,7.6,8,8.6,8.8c0.1,0.1,0.2,0.1,0.2,0.2
			c0,0,4.3,2.3,3.8,3.6c-0.3,0.7-3.1,0.1-3.1,0.1c-0.3,0-0.6-0.1-0.9-0.2c-0.9-0.6-3.4-2.2-4.7-2.5l0,0c-1.1-0.2-1.9,0.9-1.5,1.9
			c1.2,2.5,3.7,7.4,5.5,9.2c2.4,2.4,5.6-0.2,7.5-0.3c1.9-0.2,1.4,0.5,1.2,1.7s-5,4.5-7,5.7s-7,1.4-13.9-2.4c-7-3.8-6.6-9.7-9.4-14.1
			s-6.4-9.7-8.2-11.7c-1.7-1.9-1.2-8.7-0.9-15.8c0.3-7.1,6.6-29.2,9.6-37.2s2.8-7.5,4.2-11.1c1.4-3.7,3.3-2.1,5.2-3.3
			c1.9-1.2,3.3-4.7,5.2-8c1.9-3.3,15.8-15.7,20.7-19.1s12.5-12.9,15.8-15s9.1-7,12.2-8.9s5-2.1,7.1-1.4s6.1,0.2,7.3-1
			c0.7-0.7-0.2-2.3-1-3.5c-0.5-0.7-0.2-1.8,0.6-2.1c1.3-0.5,3.1-1.1,4.5-1.4c2.4-0.5,11.8-7.7,15.7-9.1c3.4-1.2,6.9-0.3,7.7-0.1
			c0.1,0,0.2,0.1,0.4,0.1C432.3,195.7,435.8,195.8,438,196.1z M440.1,316.5l-1.4,5c0,0,7.1,6.6,8.4,10.6s0.7,6.6,3.1,8.7
			s3.5,3.8,7.1,11.1c3.7,7.3,4.5,15,4.5,15l1.4,10.1c0,0,6.1-3,8.2-5s4.9-4.2,5.9-7s0.9-4.5,0-6.6s-5.4-9.4-7.8-11.7
			c-2.4-2.3-6.3-6.1-8.7-8.7c-2.4-2.6-5.9-5.9-9.2-8.2c-3.3-2.3-5.2-4.9-7-7.7C442.9,319.5,440.1,316.5,440.1,316.5z"/>
		<path class="st9" d="M439.6,211.1c-2.3,0.4-3.8-0.9-6-1.5c-10.5-3.1-10.1,8.2-8.6,9.5s3.9,2.6,4.4,3.1s-1.5,0-3.2,2.9
			s-2.3,5.1-1.4,8c1,2.9,2.9,5.1,6.5,6.8s6.1,1.5,9,0s5.8-5.9,5.9-8.2s-2.3-8-2.3-8s8.5-0.8,5.9-8.6
			C448.5,210.8,444.7,210.3,439.6,211.1z"/>
		<path class="st10" d="M429.4,229.1c0,0,5.9-0.3,9.1,0.8s4,1.7,4,1.7"/>
		<line class="st10" x1="436.8" y1="224.1" x2="438.4" y2="226.8"/>
		<line class="st10" x1="441.2" y1="225" x2="440.2" y2="227.3"/>
		<path class="st8" d="M427.5,214.5c0,0,2.3-1.1,4.3-0.7c1.2,0.2,4.1,2.7,4.1,2.7s-1.6,0.7-5.3,0.3
			C429.8,216.6,427.5,214.5,427.5,214.5z"/>
		<circle class="st9" cx="431.3" cy="215.2" r="1.3"/>
		<circle class="st8" cx="431.3" cy="214.8" r="0.4"/>
		<path class="st8" d="M440.9,216c0,0,1.6-1.2,3.4-1c2.2,0.3,2.6,2,2.6,2s-1.1,1.4-3,1.1C441.9,217.8,440.9,216,440.9,216z"/>
		<circle class="st9" cx="444" cy="216.6" r="1.3"/>
		<circle class="st8" cx="444" cy="216.2" r="0.4"/>
	</g>
</g>
</svg>
